<?xml version="1.0" encoding="UTF-8"?>
<svg id="Layer_1" data-name="Layer 1" xmlns="http://www.w3.org/2000/svg" viewBox="0 0 2206 2557">
  <defs>
    <style>
      .cls-1 {
        fill: #e1c265;
      }

      .cls-2 {
        fill: #8b6915;
        fill-rule: evenodd;
      }

      .cls-3 {
        fill: #c89717;
      }
    </style>
  </defs>
  <polygon points="1105.5 64 2153 667.75 2153 1871.25 1105.5 2477 1101.5 2477 52 1873.25 52 667.75 1101.5 64 1105.5 64"/>
  <g>
    <path class="cls-1" d="M1946,783v5c-18.36,12.32-42.74,19.51-64.62,22.88-34.34,5.3-78.64,5.43-113.93,4.16-25.81-.92-47.88-6.04-72.67-12.33-98.44-24.98-193.52-61.55-292.57-84.43-112.43-25.97-244.41-46.33-359.72-37.29-174.73,13.69-331.16,80.86-497.5,128.5-73.48,21.05-148.28,40.01-223.55,52.45-1.77.29-3.66,0-5.45.06.25-11.16-.3-22.39-.04-33.55.55-23.66,2.11-52.45,5.06-75.94.95-7.54,3.59-14.82,4.04-22.46,22.43-.81,45.07.88,67.49-.01,47.44-1.89,97.75-15.13,143.24-28.76,100.04-29.97,196.82-70.06,298.2-95.8,117.91-29.93,244.58-48.03,365.64-32.61,109.34,13.93,217.97,43.07,323.14,75.86s221.39,83,337.46,62.99c12.43-2.14,24.64-6.36,37.07-8.54,5.2.77,16.96,19.01,20.12,23.9,11.33,17.56,20.79,36.54,28.59,55.91Z"/>
    <path class="cls-1" d="M1139,736.99c-1.74,6.02,4.85,14.99,8.09,6.53,1.42-3.69-2.14-6.3,3.47-6.45,8.37-.22,18.6,2.14,26.94,2.91,95.73,8.8,192.9,38.53,284.25,67.75,63.22,20.22,126.63,45.41,190.02,63.98,47.09,13.79,93.41,20.3,142.76,18.32,27.41-1.1,52.55-8.56,78.97-11.03,8.64-.81,17.23-.37,25.88-.08l44.46,99.79c.92,3.72-6.63,4.36-9.64,4.98-21.55,4.48-45.74,5.7-67.62,9.38-78.44,13.2-165.67,35.63-219.58,97.42-27.75,31.8-46.13,59.76-53.84,102.16-11.27,61.97-6.02,93.45,50.94,124.73,11.76,6.46,32.86,12.92,42.23,19.77,1.89,1.38,3.11,2.08,2.67,4.83-26.75,5.79-53.66,14.46-74.01,33.5-46.58,43.57-70.48,153.39-95.52,214.48-15.02,36.64-55.17,128.34-91.77,144.23-2.4,1.04-14.24,4.52-15.81,2.22-2.7-3.96-1.6-14.93-1.89-19.91-5.74-96.58,11.12-175.51,34.07-267.95,18.14-73.09,53.32-170.94,47.98-245.1-.65-8.96-4.05-22.22-12.37-26.63-29.39-15.59-63.4,33.88-80.16,52.18-173.78,189.74-393.42,370.31-642.75,449.25-153.82,48.7-369.68,73.06-474.2-78.32-68.34-98.99-68.28-260.85,42.11-329.76,64.4-40.2,155.81-39.22,211.22,16.43,41.41,41.59,28.06,114.56-25.2,138.59-42.98,19.39-94.09-18.14-86.42-65.42.55-3.37,4.65-15.01,3.31-16.84-2.83-3.87-26.4,5.23-30.94,7.2-75.23,32.64-79.35,122.83-40.45,186.17,71.23,115.97,246.76,99.54,359.61,67,179.4-51.73,368.88-176.85,500.72-307.28,20.15-19.93,43.96-44.67,60.48-67.52,5.5-7.6,13.61-18.34,12.04-27.94-2.66-.78-5.72-1.41-8.5-1.61-49.56-3.59-99.83,5.66-149,7.08-130.37,3.77-260.8-20.9-385.55-56.53-110.74-31.63-215.34-76.14-328.15-101.85-37.69-8.59-76.05-14.46-113.74-22.76l1.34-105.96c72.7-17.73,145.68-34.39,218.21-52.79,99.57-25.26,198.44-53.44,297.9-79.1,81.61-21.05,162.82-41.95,246.94-49.06,23.4-1.98,47.04-.54,70.51-1ZM504,973.99c88.68,26.89,175.74,59.49,265,84.51,82.68,23.18,168.44,40.51,254.45,42.55,62.44,1.48,126.83.17,189.21-1.67,62.4-1.85,118.84-9.36,179.54-24.66,82.13-20.71,165.3-52.13,235.77-99.21-34-19.59-70.88-34.65-107.71-48.27-76.93-28.43-153.49-50.03-234.06-65.94-10.96-2.16-30.4-6.82-40.68-7.33-.91-.04-2.59-.34-2.54.55,7.41,35.46,7.51,75.34-13.75,106.22-42.02,61.04-154.18,63.8-207.7,18.24-29.28-24.93-34.97-58.23-31.63-94.57.9-9.8,2.13-19.59,2.1-29.4-120.84,23.77-239.41,57.33-358.96,86.54-40.68,9.94-84.02,17.69-124.05,28.95-.84.24-6.92,1.64-4.99,3.5Z"/>
  </g>
  <path class="cls-3" d="M1107,3l1100,635.75v1273.5l-1100,637.75h-4L-1,1912.25V640.75L1101,3h6ZM93.58,693.29l-2.67,12.35-.02,1151.73,2.94,7.06,995.82,575.95,16.01,7.2,1010.32-583.33,1.11-1164.63-1.94-6.06c-337-194.2-672.94-390.43-1011.17-582.48L93.58,693.29Z"/>
  <g>
    <path class="cls-2" d="M1647.32,2011.88c0,11.75-3.31,22.55-9.93,32.41-6.63,9.85-16.54,17.76-29.73,23.74-13.2,5.97-29.82,8.95-49.85,8.95-16.48,0-32.35-2.04-47.62-6.12-15.27-4.07-27.69-9.36-37.27-15.86l18.76-42.21c9.06,5.86,19.51,10.63,31.35,14.28,11.84,3.66,23.56,5.49,35.17,5.49,7.96,0,14.31-.69,19.03-2.06,4.73-1.37,8.19-3.28,10.4-5.75,2.2-2.47,3.31-5.33,3.31-8.58,0-4.55-2.08-8.16-6.23-10.83-4.15-2.68-9.61-4.89-16.39-6.63-6.77-1.74-14.21-3.47-22.32-5.19-8.11-1.72-16.25-3.91-24.43-6.57-8.18-2.66-15.65-6.15-22.42-10.48-6.78-4.32-12.24-10.02-16.39-17.11-4.15-7.08-6.23-15.99-6.23-26.75,0-11.94,3.3-22.84,9.89-32.69,6.59-9.86,16.5-17.74,29.74-23.64,13.23-5.91,29.8-8.86,49.7-8.86,13.1,0,26.03,1.47,38.8,4.41,12.77,2.94,24.14,7.35,34.11,13.25l-17.41,42.09c-9.63-5.17-19.14-9.02-28.54-11.54-9.41-2.53-18.55-3.79-27.44-3.79-7.84,0-14.16.82-18.95,2.44-4.8,1.63-8.25,3.79-10.36,6.49-2.1,2.69-3.16,5.7-3.16,9.01,0,4.41,2.08,7.92,6.23,10.54,4.15,2.61,9.61,4.73,16.38,6.38,6.78,1.64,14.25,3.3,22.43,4.99,8.17,1.68,16.32,3.84,24.43,6.47,8.11,2.63,15.55,6.09,22.32,10.39,6.78,4.29,12.24,9.95,16.39,16.96,4.15,7.02,6.23,15.81,6.23,26.37Z"/>
    <path class="cls-2" d="M1448.41,1871.4v111.86c0,29.91-8.34,53-25.03,69.29-16.68,16.29-39.89,24.43-69.6,24.43s-52.93-8.14-69.61-24.43c-16.69-16.29-25.03-39.38-25.03-69.29v-111.86h57.07v110.12c0,17.26,3.38,29.65,10.13,37.15,6.76,7.51,16.07,11.26,27.92,11.26s21.32-3.75,28.02-11.26c6.69-7.5,10.03-19.89,10.03-37.15v-110.12h56.1Z"/>
    <path class="cls-2" d="M1009.25,1930.33c-28.52-69.36-131.53-82.99-183.72-33.17-70.07,69.34-17.75,182.75,80.32,179.82,78.74,2.48,134.35-73.69,103.4-146.65ZM955.93,1995.93c-12.21,36.08-63.48,45.42-88.98,18.22-32.56-34.08-12.47-101.27,38.78-99.68,42.38-1.15,64.53,44.99,50.2,81.46Z"/>
    <path class="cls-2" d="M1189.79,2009.61c12.29-5.81,21.86-13.9,28.72-24.28,7.28-11.02,10.92-24.16,10.92-39.42,0-23.06-7.92-41.25-23.75-54.55-15.83-13.31-38.48-19.96-67.96-19.96h-89.98v201.6h57.06v-53.55h30.99l36.55,53.55h61.14l-43.69-63.39ZM1163.05,1967.57c-5.88,5.24-14.77,7.86-26.69,7.86h-31.56v-59.03h31.56c11.92,0,20.81,2.6,26.69,7.81,5.89,5.21,8.83,12.44,8.83,21.7s-2.94,16.43-8.83,21.66Z"/>
    <polygon class="cls-2" points="763.62 1871.4 763.62 2073 706.56 2073 706.56 1994.41 629.03 1994.41 629.03 2073 571.96 2073 571.96 1871.4 629.03 1871.4 629.03 1947.02 706.56 1947.02 706.56 1871.4 763.62 1871.4"/>
  </g>
</svg>