<?xml version="1.0" encoding="UTF-8"?>
<svg id="Layer_1" data-name="Layer 1" xmlns="http://www.w3.org/2000/svg" viewBox="0 0 735 852">
  <defs>
    <style>
      .cls-1, .cls-2 {
        fill: #404040;
        stroke: #fff;
        stroke-miterlimit: 10;
        stroke-width: 2.5px;
      }

      .cls-3 {
        fill: #e94d32;
      }

      .cls-4 {
        fill: #745498;
      }

      .cls-5 {
        fill: #2873aa;
      }

      .cls-6 {
        fill: #4ea2c9;
      }

      .cls-7 {
        fill: #85c14c;
      }

      .cls-8 {
        fill: #ff9634;
      }

      .cls-9 {
        fill: #db1f26;
      }

      .cls-2, .cls-10 {
        fill-rule: evenodd;
      }

      .cls-11 {
        fill: #161313;
      }

      .cls-10 {
        fill: #646464;
      }

      .cls-12 {
        fill: #8262a6;
      }

      .cls-13 {
        fill: #fdd34a;
      }

      .cls-14 {
        fill: #201d2a;
      }
    </style>
  </defs>
  <polygon class="cls-10" points="14.5 219.6 369.75 17.09 722.75 223.49 720.5 632.4 365.25 834.91 12.25 628.51 14.5 219.6"/>
  <g>
    <path class="cls-11" d="M2.89,639.01l-2.79-1.61v-4.54c.94,2.05,1.86,4.1,2.79,6.15Z"/>
    <path class="cls-13" d="M161.98,730.57c.45.36.91.71,1.37,1.05l-64.64-37.31c.71.05,1.43.12,2.15.2.33.03.66.07,1,.11,4.09.47,8.29,1.26,12.6,2.53.15.04.29.08.44.13.53.16,1.07.32,1.61.5.69.22,1.36.46,2.03.71.24.09.49.18.74.28.35.13.71.27,1.06.42.49.2.98.4,1.46.62,1.14.5,2.25,1.03,3.34,1.6.24.12.47.25.7.37.4.21.8.42,1.19.65.44.24.88.49,1.31.75.52.31,1.04.63,1.55.95,1.03.63,2.04,1.3,3.03,1.99.62.43,1.23.87,1.84,1.31.55.41,1.1.82,1.65,1.23.05.04.1.08.15.12,1.2.92,2.37,1.86,3.53,2.82,0,0,0,0,0,0,.6.5,1.2,1,1.79,1.51,2.4,2.04,4.74,4.14,7.08,6.26.58.53,1.17,1.06,1.75,1.58.3.27.59.53.88.79,1.44,1.3,2.89,2.59,4.35,3.85.6.53,1.2,1.04,1.81,1.55.32.28.64.55.96.81,1.08.9,2.16,1.77,3.26,2.62Z"/>
    <path class="cls-13" d="M594.58,630.04c-17.16,38.96-56.76,33.07-64.16,86.47-3.77,25.47-24.03,45.64-49.83,48.2-50.2,4.05-48.36,1.82-85.33,36.18,0,.02-.01.01-.01.01-11.63,8.12-26.65,10.23-40.5,8.43h-.01c-26.05-3.51-51.28-19.14-78.1-12.29l-97.16-56.1c39,18.91,73.27-18.84,112.19-10.23,49.48,17.81,59.7,19.02,102.92-14.05,49.74-21.84,85.6.71,100.05-73.48,8.16-26.44,35.41-32.88,41.01-62.65,4.46-23.74-6.9-34.24-10.53-55-1.95-40.48,3.17-40.63-29.28-68.88-7.97-9.2-11.47-20.97-19.25-30.21-24.08-29.42-69.67-40.72-100.12-14.13,8.11-22.32,37.77-35.87,60.37-33.32,20.9,2.03,31.65,13.5,47.36,22.6,14.89,8.24,28.8,9.44,41.47,22.87,7.82,8.26,10.29,17.35,15.84,26.57,14.41,23.91,42.8,27.3,46.87,59.93,2.09,16.84-3.98,30.65-3.83,46.21.24,26.26,19.17,46.02,10.03,72.87Z"/>
    <path class="cls-8" d="M660.5,676.34c.05,1.38.03,2.75-.02,4.13-16.39,9.45-254.13,146.73-263.25,151.95-74.65-.13-47.45,6.13-112.1-30.49,55.68.49,84.89,39.88,135-15.61,7.07-6.25,15.6-11.34,25.13-12.7,62.07-2.93,83.27-11.55,96.87-75.88,11.81-31.23,48.21-33.73,58.33-67.32,9.26-30.75-12.01-48.95-10.4-77.15,1.12-19.78,9.19-32.85,1.37-54.01-9.73-26.34-33.25-30.52-45.99-52.16-7.06-11.99-9.23-20.71-20.56-30.48-11.96-10.32-22.91-11.45-35.87-18.31-9.33-4.94-17.02-13.11-26.42-17.56-31.46-15.21-75.32-4.61-90.65,28.23-4.52-24.55,35.62-55.17,63.03-56.34,12.73-.88,20.94,3.35,32.57,5.88,24.72,5.39,42.7-.11,65.11,16.56,10.94,8.13,16.81,20.17,28.41,27.35,13.86,8.57,30.25,9.02,43.5,20.11,22.22,18.61,17.04,41.91,29.32,64.11,12.83,23.17,37.82,26.41,43.13,57.39,6.93,42.65-36.23,65.22-21.37,106.3,2.11,8.55,4.58,17.13,4.86,26Z"/>
    <path class="cls-5" d="M424.58,516.57c-3.65,38.33-7.08,43.84-42.09,61.57-14.13,9.26-22.71,22.87-40.42,27.9-18.12,5.14-31.78-4.46-48.56-5.95-33.39-2.98-56.08,21.86-92.35,7.55-21.66-8.55-26.46-21.9-42.21-35.54-20.54-17.8-43.57-12.76-66.5-23.02-47.81-21.48-29.04-80.69-74.02-103.15-6.19-3.91-12.6-7.47-18.33-12.06v-220.77c13.46-7.76,40.8-23.53,54.15-31.25-1.12,2.32-2.44,4.57-3.85,6.72-19.39,25.27-42.44,42.64-32.54,78.45,4.28,15.88,14.12,29.79,16.78,46.19,3.98,61.98-17.37,65.35,36.76,111.65,16.59,20,14.66,48.84,32.85,68.05,17.31,18.28,38.7,17.12,58.08,30.26,19.08,12.94,24.82,30.59,48.47,40.27,28.32,11.6,42.87-3.2,68.81-3.21,22.26-.01,37.76,11.96,60.24,1.18,11.97-5.74,16.52-14.25,25.61-22.29,17.08-15.12,27.58-15.94,36.49-40.46,9.43-25.97,6.36-58.35-19.99-72.61,24.27-2.34,45.02,20.79,48.62,43.25,3.19,19.91-1.95,29.39-6,47.27Z"/>
    <path class="cls-7" d="M529.35,582.87c-5.26,20.7-24.56,29.23-34.64,46.24-14.49,24.42-5.02,46.14-35.28,63.67-18.87,10.93-40.17,5.99-59.39,14.42-18.26,8.01-28.64,23.75-49.67,28.85-30.05,7.09-51.82-17.88-81.01-12.25-16.38,2.3-31.05,10.59-47.01,14.48-61.08,15.64-72.71-56.19-133.52-49.67-18.17-10.49-68.51-39.56-85.94-49.6-5.9-.22-1.46-105.43-2.79-109.19,14.2,21.78,18.37,49.38,36.73,68.57,19.74,23.16,46.61,18.78,72.67,22.38,31.81,6.82,43.76,37.38,73.02,47.91,57.27,16.74,70.06-21.5,134.85,5.7,5.04.71,10.45,2.39,14.53,1.57,26.8-4.34,35.38-17.86,55.01-29,32.28-14.16,60.83-11.84,66.87-56.42,6.44-26.92,27.4-32.97,23.76-65.32-1.38-12.19-9.13-22.38-11.21-34.33,1.36-43.9-40.91-91.74-86.72-73.07,24.71-28.29,74.68-14.43,94.54,14.2,6.67,9.06,10.29,20.04,17.76,28.57,6.55,7.48,16,12.22,21.51,20.9,8.94,14.08,3.59,27.37,5.37,42.53,2.61,22.33,16.96,33.65,10.56,58.86Z"/>
    <path class="cls-3" d="M734.07,578.43c.33.8.67,1.6,1.03,2.39v56.58c-16.46,9.49-51.48,29.7-68.13,39.32-1.32-23.81-14.34-47.17-1.91-70.43,9.8-22.08,20.99-32.8,18.42-60.09-3.35-35.73-34.74-40.33-46.69-67.17-14.19-45.64-14.41-61.79-64.78-77.35-45.17-29.74-30.2-43.6-96.15-46.76-43.65-17.77-105.91,1.76-109.62,54.25-10.67-41.26,34.83-84.4,76.57-82.52,26.64,4.95,33.63-3.57,57.34-7.77,40.01-3.32,47.58,26.13,80.31,32.74,87.13,5.65,56.81,57.89,109.16,88.67,79.63,38.42,24.35,82.37,44.45,138.14Z"/>
    <path class="cls-13" d="M482.53,67.4l52.15,30.11c-26.84,18.48-60.26,7.97-90.35,11.63,0,0,0-.01-.01,0-37.81,4.48-55.56,28.61-77.67,55.04-47.72,40.86-93.35,27.45-97.86,110.23-4.22,29.9-33.69,40.54-26.26,73.55,2.55,11.32,11.37,19.97,14.93,30.62,3.2,46.88,61.12,89.5,104.09,60.83-16.95,29.45-60.41,35.3-87.43,15.96-11.89-9.82-19.43-21.66-33.09-28.95-23.76-19.59-17.5-39.97-29.85-63.59-6.82-13.04-14.95-21.84-15.03-37.94-.15-28.12,24.2-39.98,31.67-63.96,5.94-19.06,2.03-38.03,9.84-57.7,13.07-32.95,38.28-42.2,65.71-59.14,36.87-22.76,44.56-67.19,87.73-79.82,0-.01.01,0,.01,0,5.87-1.84,12-2.9,18.14-3.13.01-.01.02-.01.03,0,24.24-.64,48.64,14.64,73.25,6.26Z"/>
    <path class="cls-4" d="M379.61,522.65c-4.86,4.37-10.74,7.58-15.73,11.76-8.53,7.15-14.02,15.76-24.43,21.11-22.98,11.8-40.32-2.15-63.1-1.07-21.28,1.02-33.66,12.28-57.11,6.05-27.47-7.31-35.33-32.1-58.2-45.46-16.39-9.58-34.56-9.6-49.22-23.02-30.75-33.93-10.45-56.53-57.72-91.47-32.22-32.56.76-71.03-20.23-107.81-3.7-8.86-7.93-17.49-10.39-26.77-12.25-42.4,26.75-55.71,39.05-88.9l58.86-33.98c-2.3,10.76-1.67,21.6-1.8,32.56,2.69,39.59-34.63,64.96-42.11,103.76-8.8,49.53,26.74,59.89,31.89,101.2,2.16,53.05,12.32,67.52,60.5,88.7,29.3,18.55,33.4,55.19,76.66,52.97,7.43-.38,15.1-2.66,22.74-2.38,27.21,1.01,39.1,17.29,68.16-.17,10.31-6.19,25.7-14.44,33.55-22.98,14.76-16.06,23.23-47.07,8.62-65.59,34.45,17,24.95,69.85.01,91.49Z"/>
    <path class="cls-7" d="M540.39,100.81l61.7,35.62c-16.18,2.18-30.43,10.78-44.14,19.1-45.39,33.28-70.43-.53-115.94,15.69-22.71,8.98-28.23,23.39-43.54,38.91-25.21,25.56-62.91,16.37-82.88,54.54-7.19,13.74-4.74,23.87-7.67,37.88-3.57,17.08-18.16,29.86-20.18,47.34-4.55,39.64,27.51,88.14,70.66,83.63-24.49,23.68-68.31,2.41-84.35-22.06-7.94-12.12-7.53-20.41-11.64-33.12-5.97-18.41-19.68-27.81-14.36-50.08,3.34-14,12.83-20.46,19.27-31.76,11.35-19.88,5.41-44.5,17.91-66.89,14.83-26.55,34.1-30.58,59.31-41.99,25.06-11.34,32.24-31.68,50.75-48.98,20.5-19.16,50.07-29.13,78.2-25.57,1.52.19.8,1.62,2.27,1.72,5.44.37,11.58.34,17.91-.12,16.26-1.27,33.05-4.5,46.72-13.86Z"/>
    <path class="cls-12" d="M734.5,473.12c-8.82-24.16-34.38-31.58-53.66-44.92-22.17-18.14-18.97-44.65-42.88-63.41-19.85-16.79-36-13.78-58.94-18.8-20.59-4.52-30.66-21.77-50.6-28.71-26.12-9.07-33.71-.95-56.94,4.34-13.21,3.01-26.26-.79-39.57.48-43.8,3.65-84.02,52.08-69.59,95.7-34.18-30.05-1.14-80.84,26.29-103.67,28.14-24.97,48.15-13.43,78.36-24.5,66.87-32.23,61.34,2.97,117.96,4.88,91.06-15.19,65.43,43.98,127.32,57.8,7.95,1.22,15.74,3.51,22.85,7.32v114.89c-.2-.47-.39-.94-.6-1.4Z"/>
    <path class="cls-12" d="M735.1,541.22v18.25c-.05-.34-.09-.68-.14-1.03-.01-.07-.02-.13-.02-.2-.07-.52-.13-1.04-.18-1.57-.04-.43-.08-.87-.12-1.3-.04-.44-.07-.88-.1-1.33-.04-.57-.06-1.14-.08-1.72-.05-1.56-.03-3.13.05-4.69.03-.49.05-.99.09-1.48,0-.06.01-.11.01-.16.03-.45.07-.89.11-1.33.04-.49.09-.99.14-1.48.07-.65.15-1.3.24-1.96Z"/>
    <path class="cls-3" d="M370.83,488.74c-8.13,11.53-42.83,32.58-56.76,33.54-14.92,1.03-26.79-6.01-40.88-7.09-61.76,6.53-53.78-4.88-92.67-44.76-64.24-36.06-58.77-30.48-68.29-103.67-8.54-32.64-33.66-40.36-30.14-80.38,3.3-37.53,37.52-59.51,42.21-95.21,1.85-17.11-1.59-35.38,3.75-51.93l179.15-103.44,10.07-5.81c-10.24,9.14-20.75,17.94-29.95,28.16-12.62,14.02-22.49,31.85-36.04,44.75-58.94,45.41-72.7,32.4-71.48,117.06-6.24,33.7-39.27,46.28-42.08,82.78-2.52,32.64,11.19,37.36,23.73,61.92,12.76,25.02.85,48.63,26.96,69.62,5.58,4.49,12.38,7.56,18.21,11.62,20.62,14.36,26.91,38.49,54.36,43.8,9.56,1.85,17.22-.3,26.34.36,9.14.67,18.14,3.73,27.46,3.95,32.71.78,65.66-25.61,59.33-60.5,14.29,14.74,7.44,40.03-3.28,55.23Z"/>
    <path class="cls-6" d="M735.1,213.1v47.05c-62.98,1.4-46.31-15.44-90.67-41.61-37-14.91-57.62,8.01-90.89,6.09-14.36-.83-28.11-6.82-42.42-7.84-45.71-3.25-54,29.15-90.68,38.87-24.7,6.54-42.36,8.14-60.09,29.43-9.3,11.16-10.23,22-16.46,33.79-4.51,8.53-12.36,15.57-16.75,24.09-14.98,29.11-3.47,77.13,32.04,84.27-39.96,11.45-76.86-49.49-64.61-84.65,3.81-11.64,13.18-21.26,16.94-33.32,5.12-16.45.84-29.68,10.91-45.62,21.08-33.4,55.25-24.22,79.57-49.21,59.96-85.85,98.91-5.31,169.85-60.67,11.8-7.65,25.51-12.25,39.67-11.9,21.63,12.48,103.5,59.81,123.59,71.23Z"/>
    <path class="cls-8" d="M475.42,63.31c-14.95,2.64-29.76-1.91-44.28-4.99-70.11-18.46-86.34,49.54-131.39,81.36-58.74,32.19-71.36,47.47-76.03,114.79-7.99,31.53-40.17,42.74-31.43,81.7,3.12,13.93,12.42,23,17.29,35.32,5.32,13.48,5.21,27.51,12.64,40.76,8.63,15.38,18.2,17.76,29.75,28.35,5.54,5.08,10.23,11.97,16.11,16.87,29.62,24.69,86.52,16.08,101.3-21.6,5.46,26.28-22.76,50.6-46.79,53.31-11.51,1.3-23.13-3.05-34.48-3.83-14.05-.97-25.47,1.68-38.76-5.21-14.71-7.63-20.86-23.41-33.07-33.68-9.78-8.22-22.64-12.27-31.04-22.36-13.44-16.15-8.97-35.86-15.49-54.39-7.27-20.64-24.53-30.51-26.41-54.48-3.54-45.15,39.73-59.62,43.08-100.42-7.12-82.74,26.8-66.97,73.69-112.77,21.42-26.73,40.77-55.66,70.8-73.72h83.93c8.56,4.93,51.16,29.55,60.58,34.99Z"/>
    <path class="cls-5" d="M735.1,266.79v86.37c-7.11-3.44-14.83-5.13-22.53-6.71-31.57-3.46-36.9-32.12-59.46-48.64-44.04-26.89-71.43,8.86-115.47-21.95-45.76-17.74-65.48,17.81-107.38,13.96-52.9,6.02-116.94,85.47-71.86,132.69-30.4-9.69-39.62-48.84-27.37-75.65,4.45-9.76,12.21-15.83,17.02-24.6,8.25-15,7.8-26.15,21.97-39.46,18.39-17.26,31.35-16.37,53.72-22.27,29.39-7.76,42.51-35.74,75.62-38.24,17.58-1.33,31.39,5.23,47.99,6.96,34.9,3.64,60.51-19.34,95.84-4.75,41.96,24.63,30.66,45.69,91.91,42.29Z"/>
    <path class="cls-6" d="M473.05,534.38c-.65,20.14-17.44,30.55-22.56,48.16-4.08,14.03-2.18,22.12-12.76,34.35-14.72,17.02-28.32,14.36-46.89,22.22-19.27,8.15-31.47,25.8-53.44,29.79-22.41,4.07-38.9-9.3-60.28-10.8-36.31-1.28-65.14,21.35-100.28,1.34-23.95-11.93-33.15-35.24-61.27-43.17-31.77-6.04-58.93,2.22-80.76-29.86-14.54-20.68-18.42-47.17-34.71-66.82v-78.48c7.34,4.95,15.21,9.14,22.19,14.66,22.51,15.44,24.64,44,35.31,66.89,21.37,47.28,66.97,29.06,96.64,53.36,19.58,16.69,27.43,35.58,56.53,40.46,1.43,2.06,3.11.78,3.93.78,23.18.13,29.54-3.45,50.24-9.04,27.1-7.18,35.76,2.27,59.31,4.32,31.62,2.74,44.4-19.93,67.71-33.74,32.15-15.33,34.54-28.19,37.32-61.44,15.77-39.09,4.55-91.23-43.39-97.19,30.1-8.26,64.56,17.4,71.85,46.32,2.46,9.77,2.01,20.22,4.54,30,3.27,12.67,11.24,23.55,10.77,37.89Z"/>
    <path class="cls-4" d="M735.1,260.15v1.39h-22.95c-.19,0-.43-.02-.72-.05-.2-.03-.41-.06-.64-.09-.38-.07-.81-.14-1.28-.24-.24-.05-.48-.1-.73-.15-.18-.03-.37-.07-.56-.12-.19-.04-.38-.08-.58-.13-.25-.05-.5-.11-.75-.17-.32-.08-.65-.15-.98-.23-.1-.03-.21-.05-.31-.08-.63-.15-1.27-.31-1.88-.47-.56-.15-1.1-.29-1.61-.42-1.16-.31-2.13-.58-2.74-.77-1.23-.38-2.54-.62-3.32-1.79,3.22.92,6.41,1.53,9.55,1.93,10.13,1.31,19.9.54,29.5,1.39Z"/>
    <path class="cls-4" d="M214.7,617.26c-.82,0-2.49,1.28-3.93-.79,1.18.2,3.25-.6,3.93.79Z"/>
  </g>
  <g>
    <path class="cls-2" d="M646.7,249.8v31.2h-22.6v-27.3c0-3.4-.6-5.82-1.8-7.25s-2.83-2.15-4.9-2.15c-1.53,0-2.95.35-4.25,1.05-1.3.7-2.33,1.85-3.1,3.45-.77,1.6-1.15,3.77-1.15,6.5v25.7h-22.6v-54.7h21.5v5.42c1.31-1.3,2.76-2.41,4.35-3.32,3.63-2.07,7.68-3.1,12.15-3.1,4.2,0,8,.85,11.4,2.55,3.4,1.7,6.08,4.35,8.05,7.95,1.97,3.6,2.95,8.27,2.95,14Z"/>
    <path class="cls-2" d="M558.75,231.6c-5.17-4.2-12.45-6.3-21.85-6.3-4.27,0-8.63.53-13.1,1.6-4.47,1.07-8.3,2.6-11.5,4.6l7.2,14.9c1.8-1.33,3.97-2.38,6.5-3.15s5.03-1.15,7.5-1.15c3.67,0,6.32.7,7.95,2.1,1.24,1.07,2.01,2.5,2.31,4.3h-9.06c-5.67,0-10.35.63-14.05,1.9-3.7,1.27-6.45,3.13-8.25,5.6-1.8,2.47-2.7,5.47-2.7,9,0,3.13.77,5.98,2.3,8.55s3.8,4.62,6.8,6.15c3,1.53,6.73,2.3,11.2,2.3,4.73,0,8.5-1,11.3-3,1.81-1.29,3.21-3.01,4.2-5.16v7.16h21v-29.4c0-9.13-2.58-15.8-7.75-20ZM541.05,267.15c-1.3.83-2.72,1.25-4.25,1.25-1.67,0-2.98-.42-3.95-1.25-.97-.83-1.45-1.88-1.45-3.15,0-1.53.55-2.68,1.65-3.45,1.1-.77,2.85-1.15,5.25-1.15h5.6v3.8c-.6,1.8-1.55,3.12-2.85,3.95Z"/>
    <path class="cls-2" d="M470.9,226.3v6.17c-1.24-1.81-2.76-3.27-4.55-4.37-3.03-1.87-6.92-2.8-11.65-2.8s-8.9,1.07-12.9,3.2-7.23,5.17-9.7,9.1c-2.47,3.93-3.7,8.6-3.7,14s1.23,10.07,3.7,14c2.47,3.93,5.7,6.98,9.7,9.15s8.3,3.25,12.9,3.25,8.62-.95,11.65-2.85c1.29-.81,2.44-1.8,3.45-2.98v1.03c0,3.67-1,6.48-3,8.45-2,1.97-5.33,2.95-10,2.95-2.93,0-6.05-.48-9.35-1.45-3.3-.97-6.02-2.28-8.15-3.95l-7.6,15.4c3.4,2.27,7.47,3.97,12.2,5.1,4.73,1.13,9.8,1.7,15.2,1.7,10.47,0,18.63-2.57,24.5-7.7s8.8-13,8.8-23.6v-43.8h-21.5ZM468.8,256.2c-.8,1.33-1.9,2.37-3.3,3.1-1.4.73-3,1.1-4.8,1.1s-3.32-.37-4.75-1.1c-1.43-.73-2.57-1.77-3.4-3.1s-1.25-2.87-1.25-4.6.42-3.35,1.25-4.65,1.97-2.3,3.4-3,3.02-1.05,4.75-1.05,3.4.35,4.8,1.05,2.5,1.7,3.3,3,1.2,2.85,1.2,4.65-.4,3.27-1.2,4.6Z"/>
    <path class="cls-2" d="M410.5,249.8v31.2h-22.6v-27.3c0-3.4-.6-5.82-1.8-7.25-1.2-1.43-2.83-2.15-4.9-2.15-1.53,0-2.95.35-4.25,1.05-1.3.7-2.33,1.85-3.1,3.45-.77,1.6-1.15,3.77-1.15,6.5v25.7h-22.6v-54.7h21.5v5.42c1.31-1.3,2.76-2.41,4.35-3.32,3.63-2.07,7.68-3.1,12.15-3.1,4.2,0,8,.85,11.4,2.55,3.4,1.7,6.08,4.35,8.05,7.95,1.97,3.6,2.95,8.27,2.95,14Z"/>
    <rect class="cls-1" x="307.5" y="226.3" width="22.6" height="54.7"/>
    <path class="cls-2" d="M305.2,210.4c0-3.27,1.23-6,3.7-8.2,2.47-2.2,5.77-3.3,9.9-3.3s7.43,1.03,9.9,3.1c2.47,2.07,3.7,4.73,3.7,8,0,3.47-1.23,6.32-3.7,8.55-2.47,2.23-5.77,3.35-9.9,3.35s-7.43-1.1-9.9-3.3c-2.47-2.2-3.7-4.93-3.7-8.2Z"/>
    <path class="cls-2" d="M291.1,225.3v20c-1-.13-1.88-.23-2.65-.3-.77-.07-1.55-.1-2.35-.1-3.4,0-6.18.88-8.35,2.65-2.17,1.77-3.25,4.82-3.25,9.15v24.3h-22.6v-54.7h21.5v5.91c1.28-1.47,2.77-2.72,4.5-3.71,3.67-2.13,8.07-3.2,13.2-3.2Z"/>
    <path class="cls-2" d="M224.35,231.6c-5.17-4.2-12.45-6.3-21.85-6.3-4.27,0-8.63.53-13.1,1.6-4.47,1.07-8.3,2.6-11.5,4.6l7.2,14.9c1.8-1.33,3.97-2.38,6.5-3.15,2.53-.77,5.03-1.15,7.5-1.15,3.67,0,6.32.7,7.95,2.1,1.24,1.07,2.01,2.5,2.31,4.3h-9.06c-5.67,0-10.35.63-14.05,1.9-3.7,1.27-6.45,3.13-8.25,5.6s-2.7,5.47-2.7,9c0,3.13.77,5.98,2.3,8.55,1.53,2.57,3.8,4.62,6.8,6.15,3,1.53,6.73,2.3,11.2,2.3,4.73,0,8.5-1,11.3-3,1.81-1.29,3.21-3.01,4.2-5.16v7.16h21v-29.4c0-9.13-2.58-15.8-7.75-20ZM206.65,267.15c-1.3.83-2.72,1.25-4.25,1.25-1.67,0-2.98-.42-3.95-1.25-.97-.83-1.45-1.88-1.45-3.15,0-1.53.55-2.68,1.65-3.45,1.1-.77,2.85-1.15,5.25-1.15h5.6v3.8c-.6,1.8-1.55,3.12-2.85,3.95Z"/>
    <polygon class="cls-2" points="164.9 281 139 281 131.45 269.35 123.1 281 98.6 281 119.26 253.94 99.2 226.3 124.7 226.3 132.47 237.93 140.7 226.3 164.4 226.3 144.34 252.94 164.9 281"/>
  </g>
  <g>
    <path class="cls-2" d="M516.5,585.3v20c-1-.13-1.88-.23-2.65-.3-.77-.07-1.55-.1-2.35-.1-3.4,0-6.18.88-8.35,2.65-2.17,1.77-3.25,4.82-3.25,9.15v24.3h-22.6v-54.7h21.5v5.91c1.28-1.47,2.77-2.72,4.5-3.71,3.67-2.13,8.07-3.2,13.2-3.2Z"/>
    <path class="cls-2" d="M456.15,598.9c-2.7-4.27-6.45-7.6-11.25-10-4.8-2.4-10.3-3.6-16.5-3.6s-11.68,1.2-16.45,3.6c-4.77,2.4-8.52,5.73-11.25,10-2.73,4.27-4.1,9.17-4.1,14.7s1.37,10.43,4.1,14.7c2.73,4.27,6.48,7.62,11.25,10.05,4.77,2.43,10.25,3.65,16.45,3.65s11.7-1.22,16.5-3.65c4.8-2.43,8.55-5.78,11.25-10.05,2.7-4.27,4.05-9.17,4.05-14.7s-1.35-10.43-4.05-14.7ZM436.1,619.55c-.8,1.63-1.87,2.85-3.2,3.65-1.33.8-2.83,1.2-4.5,1.2s-3.17-.4-4.5-1.2c-1.33-.8-2.4-2.02-3.2-3.65s-1.2-3.62-1.2-5.95.4-4.38,1.2-5.95c.8-1.57,1.87-2.75,3.2-3.55,1.33-.8,2.83-1.2,4.5-1.2s3.17.4,4.5,1.2c1.33.8,2.4,1.98,3.2,3.55.8,1.57,1.2,3.55,1.2,5.95s-.4,4.32-1.2,5.95Z"/>
    <rect class="cls-1" x="356.9" y="566.8" width="22.6" height="74.2"/>
    <path class="cls-2" d="M335.75,598.9c-2.7-4.27-6.45-7.6-11.25-10-4.8-2.4-10.3-3.6-16.5-3.6s-11.68,1.2-16.45,3.6c-4.77,2.4-8.52,5.73-11.25,10-2.73,4.27-4.1,9.17-4.1,14.7s1.37,10.43,4.1,14.7c2.73,4.27,6.48,7.62,11.25,10.05,4.77,2.43,10.25,3.65,16.45,3.65s11.7-1.22,16.5-3.65c4.8-2.43,8.55-5.78,11.25-10.05,2.7-4.27,4.05-9.17,4.05-14.7s-1.35-10.43-4.05-14.7ZM315.7,619.55c-.8,1.63-1.87,2.85-3.2,3.65s-2.83,1.2-4.5,1.2-3.17-.4-4.5-1.2-2.4-2.02-3.2-3.65-1.2-3.62-1.2-5.95.4-4.38,1.2-5.95c.8-1.57,1.87-2.75,3.2-3.55,1.33-.8,2.83-1.2,4.5-1.2s3.17.4,4.5,1.2c1.33.8,2.4,1.98,3.2,3.55.8,1.57,1.2,3.55,1.2,5.95s-.4,4.32-1.2,5.95Z"/>
    <path class="cls-2" d="M246.9,617.2l17.5,8.6c-1.8,5.07-5.07,9.03-9.8,11.9-4.73,2.87-10.43,4.3-17.1,4.3-6.27,0-11.83-1.2-16.7-3.6-4.87-2.4-8.68-5.75-11.45-10.05-2.77-4.3-4.15-9.22-4.15-14.75s1.38-10.43,4.15-14.7c2.77-4.27,6.58-7.6,11.45-10,4.87-2.4,10.43-3.6,16.7-3.6,6.67,0,12.37,1.43,17.1,4.3,4.73,2.87,8,6.83,9.8,11.9l-17.5,8.6c-1.13-2.53-2.52-4.37-4.15-5.5s-3.42-1.7-5.35-1.7c-1.67,0-3.22.4-4.65,1.2-1.43.8-2.57,1.98-3.4,3.55-.83,1.57-1.25,3.55-1.25,5.95s.42,4.4,1.25,6c.83,1.6,1.97,2.8,3.4,3.6s2.98,1.2,4.65,1.2c1.93,0,3.72-.57,5.35-1.7s3.02-2.97,4.15-5.5Z"/>
  </g>
  <g>
    <path id="path1" class="cls-14" d="M60.5,427.7c15.9-10.1,31.8-19.7,47.9-29,30.5-17.6,61.7-34,93.8-48.4,9.3-4.2,18.6-8.4,28.2-12,29.2-10.9,58.6-21.5,89.2-27.9,23.4-4.9,46.9-7.4,70.9-4.4,18.4,2.3,36.5,6.5,54.3,11.6,37.8,10.8,74.1,25.4,109.3,42.8,40.8,20.1,80.5,42.3,118.9,66.8,2,1.3,2,1.8.2,3.2-21.8,17.1-44.9,32.4-69.1,45.9-23.7,13.3-47.8,25.7-72.8,36.4-35.3,15-71.5,27-109.3,34.2-14.9,2.8-30,4.8-45.2,6-10.1.8-20.1.1-30.2-1.1-8.8-1.1-17.7-1.9-26.4-3.7-20.8-4.3-41.6-9-61.9-15.5-60.7-19.5-116.8-48.1-169.5-83.7-9.7-6.7-19.2-13.6-28.3-21.2ZM366.8,324.1c-11.5.1-19.1,1-30.4,4.2-24.9,7.1-44.6,21.8-59,42.9-15.4,22.5-20.3,47.6-15.3,74.4,5.1,27.3,19.8,48.7,41.9,64.9,22.2,16.3,47.5,22.3,74.8,19.7,15.1-1.4,29.4-6,42.6-13.6,18.9-10.8,33.3-25.9,42.8-45.5,8.3-17.3,11.3-35.7,9.1-54.8-1.4-12.4-5-24.1-10.8-35.1-7.5-14.2-17.7-26.1-30.6-35.7-19.4-14.1-41.1-21.2-65.1-21.4h0ZM452.4,521.5c1-.2,1.4-.3,1.9-.4,10.4-2.9,20.7-6.2,30.9-9.7,39.5-13.6,76.7-32.1,113.1-52.5,15.2-8.5,29.7-18,44.1-27.9,1.5-1,1.2-1.3-.1-2.2-25.5-15.7-51.7-30.1-78.3-44-31.5-16.4-64.1-30.5-97.7-42-3.1-1.1-6.2-2.1-9.4-3.1-.1.1-.2.3-.3.4,25.2,25.2,38.7,55.5,37.9,91.3-.7,35.9-15.5,65.6-42.1,90.1ZM279,340c-.4-.2-.8,0-1.2.1-14.1,4.4-27.9,9.6-41.6,14.9-33.7,13.2-66,29.4-97.6,46.8-15.2,8.3-30.1,17.1-45,26-1.5.9-1.6,1.3-.1,2.3,5.1,3.4,10.1,7.1,15.3,10.4,19.6,12.7,39.8,24.4,60.6,35.1,27,14,54.8,26.2,83.6,36.1,9.1,3.1,18.3,6,27.6,8.6.5.1.9,1,1.4.2.3-.6-.4-1-.8-1.4-1.5-1.5-3.1-2.9-4.6-4.4-22.1-22.6-34.4-49.7-35.7-81.3-.8-18.8,2.2-36.9,10.6-54.1,7-14.2,15.5-27.2,26.8-38.3.2-.2.7-.4.7-1ZM456.5,339.8l-.1-.1-.1.1c.1,0,.1.1.2.1v-.1Z"/>
    <path id="path2" class="cls-9" d="M366.8,324.1c24,.2,45.7,7.3,65.1,21.5,12.9,9.5,23.2,21.4,30.6,35.7,5.8,11,9.4,22.7,10.8,35.1,2.2,19.2-.8,37.5-9.1,54.8-9.4,19.6-23.9,34.7-42.8,45.5-13.2,7.6-27.5,12.1-42.6,13.6-27.3,2.6-52.6-3.4-74.8-19.7-22-16.2-36.7-37.7-41.9-64.9-5-26.8-.1-52,15.3-74.4,14.5-21.1,34.1-35.8,59-42.9,11.3-3.3,18.9-4.2,30.4-4.3Z"/>
    <path id="path3" class="cls-14" d="M326,368.3c1.3-9.8,5.3-18.3,12.1-25.5.8-.9,1.6-1.8,2.4-2.7.3-.3.7-.5,1.2-.3.5.3.2.7.1,1.1-.7,2.5-2.6,4.4-3.3,6.9s-1.5,5-2.3,7.5c-.4,1.5.3,2,1.7,1.6,4-1.2,7.7-.4,11.1,1.8,1.3.8,2.5.8,4,.6,8.9-1.4,17.9-1.5,26.9.1,15.7,2.9,29.1,10.2,40,21.8,9.7,10.4,15.6,22.7,17.6,36.8,0,.2.1.4.1.6-.8,5.6,4.1,7.4,7.2,10.2,7.7,6.9,12.6,15.4,15,25.4.1.5.4,1.1-.2,1.3-.8.3-1.1-.4-1.5-1-2.6-3.9-5.5-7.6-8.8-10.9-1.9-1.8-2.1-1.7-3,.7-1.7,4.8-5.4,7.6-10.2,8.7-2.2.5-3.3,1.5-4.3,3.5-9.8,19.9-25.5,32.8-47,38.4-16.6,4.3-32.8,2.9-48.6-3.9-.4-.2-.8-.3-1-.4-.8-.1-1.2.1-1.6.4-3.6,3.3-8.1,3.9-12.6,4.6-8,1.1-15.8.3-23.5-2.3-1.4-.5-2.5-1.2-3.8-1.9-.4-.2-1-.5-.8-1.1.2-.6.8-.4,1.3-.3,5.1,1.3,10.3.3,15.4-.2,1.8-.2,1.6-1.1.8-2.3-3.2-4.4-3.2-9.1-1.2-13.9.6-1.6.6-2.6-.5-4-7-8.9-11.6-18.9-13.5-30.1-1.7-10.1-1.4-20.1,1.4-29.9,2.9-10.3,7.9-19.5,15.1-27.5M366.7,361.6c-3.5.1-6.8.4-10.1.8-2.5.3-2.6.4-1.5,2.6,2.8,5.5,1.8,12.4-2.3,17-8,8.8-22.5,6-26.6-5.2-.5-1.5-.9-2-2.4-.8-4.2,3.3-8.1,6.9-11.4,11.1-10.5,13-15.3,27.9-14.4,44.6.7,13,5.3,24.5,12.8,35,1.1,1.5,1.9,1.8,3.6.6,5.5-4.1,13.2-3.9,18.7.3,5.4,4.1,7.7,11.4,5.1,17.7-.9,2.2-.3,2.9,1.6,3.7,12.9,5.1,26.2,6.6,39.8,3.9,22.1-4.4,38.5-16.6,48.9-36.7.9-1.7.7-2.4-1.2-3.1-7.3-2.5-11.6-10.4-9.9-17.9,1.6-7.2,7.7-12.2,15.2-12.2,1.9,0,2.4-.8,2.1-2.4-.4-2.2-.6-4.5-1.1-6.7-3-13.2-9.6-24.4-19.5-33.7-13.6-12.3-29.6-18-47.4-18.6Z"/>
    <path id="path4" class="cls-14" d="M388.4,428c-.1,12-10,21.5-22.3,21.4-12.1-.1-22.1-9.9-22-21.6.1-11.8,10.2-21.5,22.5-21.4,11.9.1,21.9,10,21.8,21.6Z"/>
  </g>
  <path id="Path" d="M528.52,723.73l-74.85,43.22-13.46,7.77c.33-.09.66-.18.99-.27.39-.1.78-.19,1.18-.28.25-.06.5-.11.76-.16.27-.06.54-.11.81-.16.43-.09.87-.16,1.31-.23,28.06-4.37,52.31,1.55,74.55-21.62.99-1.03,1.92-2.07,2.78-3.12.44-.53.85-1.05,1.26-1.58.2-.26.4-.52.59-.79.2-.26.39-.52.58-.79.19-.26.37-.53.55-.79.19-.27.37-.54.54-.8.35-.53.69-1.06,1.01-1.6.66-1.07,1.26-2.14,1.82-3.22.14-.27.28-.54.42-.82.13-.26.26-.52.39-.78.41-.85.79-1.7,1.16-2.55.17-.39.32-.78.48-1.17.06-.13.11-.26.16-.39.12-.29.23-.57.33-.85.18-.47.36-.95.53-1.42.13-.36.26-.72.38-1.08.1-.28.19-.55.28-.83.21-.62.41-1.24.6-1.86.16-.5.31-1.01.46-1.51.23-.77.45-1.54.66-2.32.19-.7.38-1.41.57-2.12.19-.71.37-1.43.55-2.14l-7.39,4.26ZM396.7,799.84l-9.89,5.71h-.01s-17.86,10.32-17.86,10.32h.03s.07-.01.11-.01c.32-.03.65-.05.96-.09.39-.03.78-.07,1.17-.12.45-.04.89-.1,1.32-.16.03,0,.06,0,.08-.01.02,0,.03,0,.05-.01.24-.03.48-.06.71-.1.08-.01.15-.02.23-.03.39-.06.77-.12,1.15-.18.03,0,.05,0,.08,0,.51-.09,1.01-.18,1.51-.28.35-.07.69-.14,1.03-.21.05,0,.11-.02.16-.04.47-.1.92-.2,1.37-.32.39-.09.78-.19,1.16-.29.4-.1.81-.21,1.2-.33.41-.12.82-.24,1.23-.37.01,0,.02-.01.03-.01.24-.08.47-.15.71-.23.59-.19,1.16-.39,1.73-.6.3-.11.61-.22.9-.34.4-.15.8-.31,1.19-.47.09-.04.18-.08.27-.11.39-.17.77-.33,1.14-.5.08-.03.16-.07.24-.11.33-.15.65-.3.97-.45.36-.17.72-.35,1.07-.53.32-.15.63-.31.94-.48.7-.37,1.38-.75,2.06-1.14.32-.18.64-.37.95-.56.1-.06.2-.12.29-.17.4-.25.79-.5,1.18-.75.03-.02.07-.04.1-.06.36-.24.72-.47,1.07-.71.39-.26.77-.52,1.15-.79.76-.53,1.5-1.08,2.24-1.64.24-.18.47-.36.7-.54.24-.18.48-.37.71-.56.24-.19.49-.39.73-.59.29-.23.58-.47.87-.71.17-.14.34-.29.51-.43.24-.2.47-.4.7-.6.87-.74,1.73-1.49,2.57-2.26.43-.39.86-.78,1.29-1.18,3.43-3.15,6.7-6.37,10.08-9.37.37-.33.75-.67,1.13-.99.04-.04.08-.08.12-.11l-23.43,13.52ZM528.52,723.73l-74.85,43.22-13.46,7.77c.33-.09.66-.18.99-.27.39-.1.78-.19,1.18-.28.25-.06.5-.11.76-.16.27-.06.54-.11.81-.16.43-.09.87-.16,1.31-.23,28.06-4.37,52.31,1.55,74.55-21.62.99-1.03,1.92-2.07,2.78-3.12.44-.53.85-1.05,1.26-1.58.2-.26.4-.52.59-.79.2-.26.39-.52.58-.79.19-.26.37-.53.55-.79.19-.27.37-.54.54-.8.35-.53.69-1.06,1.01-1.6.66-1.07,1.26-2.14,1.82-3.22.14-.27.28-.54.42-.82.13-.26.26-.52.39-.78.41-.85.79-1.7,1.16-2.55.17-.39.32-.78.48-1.17.06-.13.11-.26.16-.39.12-.29.23-.57.33-.85.18-.47.36-.95.53-1.42.13-.36.26-.72.38-1.08.1-.28.19-.55.28-.83.21-.62.41-1.24.6-1.86.16-.5.31-1.01.46-1.51.23-.77.45-1.54.66-2.32.19-.7.38-1.41.57-2.12.19-.71.37-1.43.55-2.14l-7.39,4.26ZM396.7,799.84l-9.89,5.71h-.01s-17.86,10.32-17.86,10.32h.03s.07-.01.11-.01c.32-.03.65-.05.96-.09.39-.03.78-.07,1.17-.12.45-.04.89-.1,1.32-.16.03,0,.06,0,.08-.01.02,0,.03,0,.05-.01.24-.03.48-.06.71-.1.08-.01.15-.02.23-.03.39-.06.77-.12,1.15-.18.03,0,.05,0,.08,0,.51-.09,1.01-.18,1.51-.28.35-.07.69-.14,1.03-.21.05,0,.11-.02.16-.04.47-.1.92-.2,1.37-.32.39-.09.78-.19,1.16-.29.4-.1.81-.21,1.2-.33.41-.12.82-.24,1.23-.37.01,0,.02-.01.03-.01.24-.08.47-.15.71-.23.59-.19,1.16-.39,1.73-.6.3-.11.61-.22.9-.34.4-.15.8-.31,1.19-.47.09-.04.18-.08.27-.11.39-.17.77-.33,1.14-.5.08-.03.16-.07.24-.11.33-.15.65-.3.97-.45.36-.17.72-.35,1.07-.53.32-.15.63-.31.94-.48.7-.37,1.38-.75,2.06-1.14.32-.18.64-.37.95-.56.1-.06.2-.12.29-.17.4-.25.79-.5,1.18-.75.03-.02.07-.04.1-.06.36-.24.72-.47,1.07-.71.39-.26.77-.52,1.15-.79.76-.53,1.5-1.08,2.24-1.64.24-.18.47-.36.7-.54.24-.18.48-.37.71-.56.24-.19.49-.39.73-.59.29-.23.58-.47.87-.71.17-.14.34-.29.51-.43.24-.2.47-.4.7-.6.87-.74,1.73-1.49,2.57-2.26.43-.39.86-.78,1.29-1.18,3.43-3.15,6.7-6.37,10.08-9.37.37-.34.75-.67,1.13-.99.04-.04.08-.08.12-.11l-23.43,13.52ZM528.52,723.73l-74.85,43.22-13.46,7.77c.33-.09.66-.18.99-.27.39-.1.78-.19,1.18-.28.25-.06.5-.11.76-.16.27-.06.54-.11.81-.16.43-.09.87-.16,1.31-.23,28.06-4.37,52.31,1.55,74.55-21.62.99-1.03,1.92-2.07,2.78-3.12.44-.53.85-1.05,1.26-1.58.2-.26.4-.52.59-.79.2-.26.39-.52.58-.79.19-.26.37-.53.55-.79.19-.27.37-.54.54-.8.35-.53.69-1.06,1.01-1.6.66-1.07,1.26-2.14,1.82-3.22.14-.27.28-.54.42-.82.13-.26.26-.52.39-.78.41-.85.79-1.7,1.16-2.55.17-.39.32-.78.48-1.17.06-.13.11-.26.16-.39.12-.29.23-.57.33-.85.18-.47.36-.95.53-1.42.13-.36.26-.72.38-1.08.1-.28.19-.55.28-.83.21-.62.41-1.24.6-1.86.16-.5.31-1.01.46-1.51.23-.77.45-1.54.66-2.32.19-.7.38-1.41.57-2.12.19-.71.37-1.43.55-2.14l-7.39,4.26ZM396.7,799.84l-9.89,5.71h-.01s-17.86,10.32-17.86,10.32h.03s.07-.01.11-.01c.32-.03.65-.05.96-.09.39-.03.78-.07,1.17-.12.45-.04.89-.1,1.32-.16.03,0,.06,0,.08-.01.02,0,.03,0,.05-.01.24-.03.48-.06.71-.1.08-.01.15-.02.23-.03.39-.06.77-.12,1.15-.18.03,0,.05,0,.08,0,.51-.09,1.01-.18,1.51-.28.35-.07.69-.14,1.03-.21.05,0,.11-.02.16-.04.47-.1.92-.2,1.37-.32.39-.09.78-.19,1.16-.29.4-.1.81-.21,1.2-.33.41-.12.82-.24,1.23-.37.01,0,.02-.01.03-.01.24-.08.47-.15.71-.23.59-.19,1.16-.39,1.73-.6.3-.11.61-.22.9-.34.4-.15.8-.31,1.19-.47.09-.04.18-.08.27-.11.39-.17.77-.33,1.14-.5.08-.03.16-.07.24-.11.33-.15.65-.3.97-.45.36-.17.72-.35,1.07-.53.32-.15.63-.31.94-.48.7-.37,1.38-.75,2.06-1.14.32-.18.64-.37.95-.56.1-.06.2-.12.29-.17.4-.25.79-.5,1.18-.75.03-.02.07-.04.1-.06.36-.24.72-.47,1.07-.71.39-.26.77-.52,1.15-.79.76-.53,1.5-1.08,2.24-1.64.24-.18.47-.36.7-.54.24-.18.48-.37.71-.56.24-.19.49-.39.73-.59.29-.23.58-.47.87-.71.17-.14.34-.29.51-.43.24-.2.47-.4.7-.6.87-.74,1.73-1.49,2.57-2.26.43-.39.86-.78,1.29-1.18,3.43-3.15,6.7-6.37,10.08-9.37.37-.33.75-.67,1.13-.99.04-.04.08-.08.12-.11l-23.43,13.52ZM528.52,723.73l-74.85,43.22-13.46,7.77c.33-.09.66-.18.99-.27.39-.1.78-.19,1.18-.28.25-.06.5-.11.76-.16.27-.06.54-.11.81-.16.43-.09.87-.16,1.31-.23,28.06-4.37,52.31,1.55,74.55-21.62.99-1.03,1.92-2.07,2.78-3.12.44-.53.85-1.05,1.26-1.58.2-.26.4-.52.59-.79.2-.26.39-.52.58-.79.19-.26.37-.53.55-.79.19-.27.37-.54.54-.8.35-.53.69-1.06,1.01-1.6.66-1.07,1.26-2.14,1.82-3.22.14-.27.28-.54.42-.82.13-.26.26-.52.39-.78.41-.85.79-1.7,1.16-2.55.17-.39.32-.78.48-1.17.06-.13.11-.26.16-.39.12-.29.23-.57.33-.85.18-.47.36-.95.53-1.42.13-.36.26-.72.38-1.08.1-.28.19-.55.28-.83.21-.62.41-1.24.6-1.86.16-.5.31-1.01.46-1.51.23-.77.45-1.54.66-2.32.19-.7.38-1.41.57-2.12.19-.71.37-1.43.55-2.14l-7.39,4.26ZM396.7,799.84l-9.89,5.71h-.01s-17.86,10.32-17.86,10.32h.03s.07-.01.11-.01c.32-.03.65-.05.96-.09.39-.03.78-.07,1.17-.12.45-.04.89-.1,1.32-.16.03,0,.06,0,.08-.01.02,0,.03,0,.05-.01.24-.03.48-.06.71-.1.08-.01.15-.02.23-.03.39-.06.77-.12,1.15-.18.03,0,.05,0,.08,0,.51-.09,1.01-.18,1.51-.28.35-.07.69-.14,1.03-.21.05,0,.11-.02.16-.04.47-.1.92-.2,1.37-.32.39-.09.78-.19,1.16-.29.4-.1.81-.21,1.2-.33.41-.12.82-.24,1.23-.37.01,0,.02-.01.03-.01.24-.08.47-.15.71-.23.59-.19,1.16-.39,1.73-.6.3-.11.61-.22.9-.34.4-.15.8-.31,1.19-.47.09-.04.18-.08.27-.11.39-.17.77-.33,1.14-.5.08-.03.16-.07.24-.11.33-.15.65-.3.97-.45.36-.17.72-.35,1.07-.53.32-.15.63-.31.94-.48.7-.37,1.38-.75,2.06-1.14.32-.18.64-.37.95-.56.1-.06.2-.12.29-.17.4-.25.79-.5,1.18-.75.03-.02.07-.04.1-.06.36-.24.72-.47,1.07-.71.39-.26.77-.52,1.15-.79.76-.53,1.5-1.08,2.24-1.64.24-.18.47-.36.7-.54.24-.18.48-.37.71-.56.24-.19.49-.39.73-.59.29-.23.58-.47.87-.71.17-.14.34-.29.51-.43.24-.2.47-.4.7-.6.87-.74,1.73-1.49,2.57-2.26.43-.39.86-.78,1.29-1.18,3.43-3.15,6.7-6.37,10.08-9.37.37-.33.75-.67,1.13-.99.04-.04.08-.08.12-.11l-23.43,13.52ZM528.52,723.73l-74.85,43.22-13.46,7.77c.33-.09.66-.18.99-.27.39-.1.78-.19,1.18-.28.25-.06.5-.11.76-.16.27-.06.54-.11.81-.16.43-.09.87-.16,1.31-.23,28.06-4.37,52.31,1.55,74.55-21.62.99-1.03,1.92-2.07,2.78-3.12.44-.53.85-1.05,1.26-1.58.2-.26.4-.52.59-.79.2-.26.39-.52.58-.79.19-.26.37-.53.55-.79.19-.27.37-.54.54-.8.35-.53.69-1.06,1.01-1.6.66-1.07,1.26-2.14,1.82-3.22.14-.27.28-.54.42-.82.13-.26.26-.52.39-.78.41-.85.79-1.7,1.16-2.55.17-.39.32-.78.48-1.17.06-.13.11-.26.16-.39.12-.29.23-.57.33-.85.18-.47.36-.95.53-1.42.13-.36.26-.72.38-1.08.1-.28.19-.55.28-.83.21-.62.41-1.24.6-1.86.16-.5.31-1.01.46-1.51.23-.77.45-1.54.66-2.32.19-.7.38-1.41.57-2.12.19-.71.37-1.43.55-2.14l-7.39,4.26ZM396.7,799.84l-9.89,5.71h-.01s-17.86,10.32-17.86,10.32h.03s.07-.01.11-.01c.32-.03.65-.05.96-.09.39-.03.78-.07,1.17-.12.45-.04.89-.1,1.32-.16.03,0,.06,0,.08-.01.02,0,.03,0,.05-.01.24-.03.48-.06.71-.1.08-.01.15-.02.23-.03.39-.06.77-.12,1.15-.18.03,0,.05,0,.08,0,.51-.09,1.01-.18,1.51-.28.35-.07.69-.14,1.03-.21.05,0,.11-.02.16-.04.47-.1.92-.2,1.37-.32.39-.09.78-.19,1.16-.29.4-.1.81-.21,1.2-.33.41-.12.82-.24,1.23-.37.01,0,.02-.01.03-.01.24-.08.47-.15.71-.23.59-.19,1.16-.39,1.73-.6.3-.11.61-.22.9-.34.4-.15.8-.31,1.19-.47.09-.04.18-.08.27-.11.39-.17.77-.33,1.14-.5.08-.03.16-.07.24-.11.33-.15.65-.3.97-.45.36-.17.72-.35,1.07-.53.32-.15.63-.31.94-.48.7-.37,1.38-.75,2.06-1.14.32-.18.64-.37.95-.56.1-.06.2-.12.29-.17.4-.25.79-.5,1.18-.75.03-.02.07-.04.1-.06.36-.24.72-.47,1.07-.71.39-.26.77-.52,1.15-.79.76-.53,1.5-1.08,2.24-1.64.24-.18.47-.36.7-.54.24-.18.48-.37.71-.56.24-.19.49-.39.73-.59.29-.23.58-.47.87-.71.17-.14.34-.29.51-.43.24-.2.47-.4.7-.6.87-.74,1.73-1.49,2.57-2.26.43-.39.86-.78,1.29-1.18,3.43-3.15,6.7-6.37,10.08-9.37.37-.33.75-.67,1.13-.99.04-.04.08-.08.12-.11l-23.43,13.52ZM528.52,723.73l-74.85,43.22-13.46,7.77c.33-.09.66-.18.99-.27.39-.1.78-.19,1.18-.28.25-.06.5-.11.76-.16.27-.06.54-.11.81-.16.43-.09.87-.16,1.31-.23,28.06-4.37,52.31,1.55,74.55-21.62.99-1.03,1.92-2.07,2.78-3.12.44-.53.85-1.05,1.26-1.58.2-.26.4-.52.59-.79.2-.26.39-.52.58-.79.19-.26.37-.53.55-.79.19-.27.37-.54.54-.8.35-.53.69-1.06,1.01-1.6.66-1.07,1.26-2.14,1.82-3.22.14-.27.28-.54.42-.82.13-.26.26-.52.39-.78.41-.85.79-1.7,1.16-2.55.17-.39.32-.78.48-1.17.06-.13.11-.26.16-.39.12-.29.23-.57.33-.85.18-.47.36-.95.53-1.42.13-.36.26-.72.38-1.08.1-.28.19-.55.28-.83.21-.62.41-1.24.6-1.86.16-.5.31-1.01.46-1.51.23-.77.45-1.54.66-2.32.19-.7.38-1.41.57-2.12.19-.71.37-1.43.55-2.14l-7.39,4.26ZM396.7,799.84l-9.89,5.71h-.01s-17.86,10.32-17.86,10.32h.03s.07-.01.11-.01c.32-.03.65-.05.96-.09.39-.03.78-.07,1.17-.12.45-.04.89-.1,1.32-.16.03,0,.06,0,.08-.01.02,0,.03,0,.05-.01.24-.03.48-.06.71-.1.08-.01.15-.02.23-.03.39-.06.77-.12,1.15-.18.03,0,.05,0,.08,0,.51-.09,1.01-.18,1.51-.28.35-.07.69-.14,1.03-.21.05,0,.11-.02.16-.04.47-.1.92-.2,1.37-.32.39-.09.78-.19,1.16-.29.4-.1.81-.21,1.2-.33.41-.12.82-.24,1.23-.37.01,0,.02-.01.03-.01.24-.08.47-.15.71-.23.59-.19,1.16-.39,1.73-.6.3-.11.61-.22.9-.34.4-.15.8-.31,1.19-.47.09-.04.18-.08.27-.11.39-.17.77-.33,1.14-.5.08-.03.16-.07.24-.11.33-.15.65-.3.97-.45.36-.17.72-.35,1.07-.53.32-.15.63-.31.94-.48.7-.37,1.38-.75,2.06-1.14.32-.18.64-.37.95-.56.1-.06.2-.12.29-.17.4-.25.79-.5,1.18-.75.03-.02.07-.04.1-.06.36-.24.72-.47,1.07-.71.39-.26.77-.52,1.15-.79.76-.53,1.5-1.08,2.24-1.64.24-.18.47-.36.7-.54.24-.18.48-.37.71-.56.24-.19.49-.39.73-.59.29-.23.58-.47.87-.71.17-.14.34-.29.51-.43.24-.2.47-.4.7-.6.87-.74,1.73-1.49,2.57-2.26.43-.39.86-.78,1.29-1.18,3.43-3.15,6.7-6.37,10.08-9.37.37-.33.75-.67,1.13-.99.04-.04.08-.08.12-.11l-23.43,13.52ZM528.52,723.73l-74.85,43.22-13.46,7.77c.33-.09.66-.18.99-.27.39-.1.78-.19,1.18-.28.25-.06.5-.11.76-.16.27-.06.54-.11.81-.16.43-.09.87-.16,1.31-.23,28.06-4.37,52.31,1.55,74.55-21.62.99-1.03,1.92-2.07,2.78-3.12.44-.53.85-1.05,1.26-1.58.2-.26.4-.52.59-.79.2-.26.39-.52.58-.79.19-.26.37-.53.55-.79.19-.27.37-.54.54-.8.35-.53.69-1.06,1.01-1.6.66-1.07,1.26-2.14,1.82-3.22.14-.27.28-.54.42-.82.13-.26.26-.52.39-.78.41-.85.79-1.7,1.16-2.55.17-.39.32-.78.48-1.17.06-.13.11-.26.16-.39.12-.29.23-.57.33-.85.18-.47.36-.95.53-1.42.13-.36.26-.72.38-1.08.1-.28.19-.55.28-.83.21-.62.41-1.24.6-1.86.16-.5.31-1.01.46-1.51.23-.77.45-1.54.66-2.32.19-.7.38-1.41.57-2.12.19-.71.37-1.43.55-2.14l-7.39,4.26ZM396.7,799.84l-9.89,5.71h-.01s-17.86,10.32-17.86,10.32h.03s.07-.01.11-.01c.32-.03.65-.05.96-.09.39-.03.78-.07,1.17-.12.45-.04.89-.1,1.32-.16.03,0,.06,0,.08-.01.02,0,.03,0,.05-.01.24-.03.48-.06.71-.1.08-.01.15-.02.23-.03.39-.06.77-.12,1.15-.18.03,0,.05,0,.08,0,.51-.09,1.01-.18,1.51-.28.35-.07.69-.14,1.03-.21.05,0,.11-.02.16-.04.47-.1.92-.2,1.37-.32.39-.09.78-.19,1.16-.29.4-.1.81-.21,1.2-.33.41-.12.82-.24,1.23-.37.01,0,.02-.01.03-.01.24-.08.47-.15.71-.23.59-.19,1.16-.39,1.73-.6.3-.11.61-.22.9-.34.4-.15.8-.31,1.19-.47.09-.04.18-.08.27-.11.39-.17.77-.33,1.14-.5.08-.03.16-.07.24-.11.33-.15.65-.3.97-.45.36-.17.72-.35,1.07-.53.32-.15.63-.31.94-.48.7-.37,1.38-.75,2.06-1.14.32-.18.64-.37.95-.56.1-.06.2-.12.29-.17.4-.25.79-.5,1.18-.75.03-.02.07-.04.1-.06.36-.24.72-.47,1.07-.71.39-.26.77-.52,1.15-.79.76-.53,1.5-1.08,2.24-1.64.24-.18.47-.36.7-.54.24-.18.48-.37.71-.56.24-.19.49-.39.73-.59.29-.23.58-.47.87-.71.17-.14.34-.29.51-.43.24-.2.47-.4.7-.6.87-.74,1.73-1.49,2.57-2.26.43-.39.86-.78,1.29-1.18,3.43-3.15,6.7-6.37,10.08-9.37.37-.33.75-.67,1.13-.99.04-.04.08-.08.12-.11l-23.43,13.52ZM528.52,723.73l-74.85,43.22-13.46,7.77c.33-.09.66-.18.99-.27.39-.1.78-.19,1.18-.28.25-.06.5-.11.76-.16.27-.06.54-.11.81-.16.43-.09.87-.16,1.31-.23,28.06-4.37,52.31,1.55,74.55-21.62.99-1.03,1.92-2.07,2.78-3.12.44-.53.85-1.05,1.26-1.58.2-.26.4-.52.59-.79.2-.26.39-.52.58-.79.19-.26.37-.53.55-.79.19-.27.37-.54.54-.8.35-.53.69-1.06,1.01-1.6.66-1.07,1.26-2.14,1.82-3.22.14-.27.28-.54.42-.82.13-.26.26-.52.39-.78.41-.85.79-1.7,1.16-2.55.17-.39.32-.78.48-1.17.06-.13.11-.26.16-.39.12-.29.23-.57.33-.85.18-.47.36-.95.53-1.42.13-.36.26-.72.38-1.08.1-.28.19-.55.28-.83.21-.62.41-1.24.6-1.86.16-.5.31-1.01.46-1.51.23-.77.45-1.54.66-2.32.19-.7.38-1.41.57-2.12.19-.71.37-1.43.55-2.14l-7.39,4.26ZM386.81,805.55h-.01s-17.86,10.32-17.86,10.32h.03s.07-.01.11-.01c.32-.03.65-.05.96-.09.39-.03.78-.07,1.17-.12.45-.04.89-.1,1.32-.16.03,0,.06,0,.08-.01.02,0,.03,0,.05-.01.24-.03.48-.06.71-.1.08-.01.15-.02.23-.03.39-.06.77-.12,1.15-.18.03,0,.05,0,.08,0,.51-.09,1.01-.18,1.51-.28.35-.07.69-.14,1.03-.21.05,0,.11-.02.16-.04.47-.1.92-.2,1.37-.32.39-.09.78-.19,1.16-.29.4-.1.81-.21,1.2-.33.41-.12.82-.24,1.23-.37.01,0,.02-.01.03-.01.24-.08.47-.15.71-.23.59-.19,1.16-.39,1.73-.6.3-.11.61-.22.9-.34.4-.15.8-.31,1.19-.47.09-.04.18-.08.27-.11.39-.17.77-.33,1.14-.5.08-.03.16-.07.24-.11.33-.15.65-.3.97-.45.36-.17.72-.35,1.07-.53.32-.15.63-.31.94-.48.7-.37,1.38-.75,2.06-1.14.32-.18.64-.37.95-.56.1-.06.2-.12.29-.17.4-.25.79-.5,1.18-.75.03-.02.07-.04.1-.06.36-.24.72-.47,1.07-.71.39-.26.77-.52,1.15-.79.76-.53,1.5-1.08,2.24-1.64.24-.18.47-.36.7-.54.24-.18.48-.37.71-.56.24-.19.49-.39.73-.59.29-.23.58-.47.87-.71.17-.14.34-.29.51-.43.24-.2.47-.4.7-.6.87-.74,1.73-1.49,2.57-2.26.43-.39.86-.78,1.29-1.18,3.43-3.15,6.7-6.37,10.08-9.37.37-.33.75-.67,1.13-.99.04-.04.08-.08.12-.11l-23.43,13.52-9.89,5.71ZM705.6,196.2l-94.09-54.33-9.41-5.44h0l-61.7-35.62-5.71-3.3-52.15-30.11-7.09-4.09h-.02l-47.62-27.51-12.96-7.48L367.5,1l-47.34,27.32-2.89,1.67-10.07,5.81-179.15,103.44-6.66,3.85-58.86,33.98-8.28,4.78-24.85,14.35L.1,213.1v424.3l2.79,1.61,26.51,15.29,59.43,34.31,9.86,5.69h.01s.01.01.01.01l64.64,37.31.06.04h.01s16.03,9.26,16.03,9.26h.02s.01.02.01.02l97.16,56.1,8.48,4.89h.01l25.57,14.77,27.27,15.72,29.63,17.08,29.63-17.08,27.27-15.72,235.98-136.23,6.49-3.75,38.83-22.42,29.3-16.9V213.1l-29.5-16.9ZM705.6,621.5l-43.99,25.4-5.97,3.44-119.73,69.13-7.39,4.26-74.85,43.22-13.46,7.77h-.03s-20.02,11.58-20.02,11.58h0s-.01.02-.02.02l-23.43,13.52-9.89,5.71h-.01s-17.86,10.32-17.86,10.32l-1.44.83-1.18-.68-11.57-6.69h-.01s-.02-.01-.02-.01l-119.62-69.07h0l-6.45-3.72-199.24-115.03V231l90.11-52.02,5.43-3.14,126.34-72.94,15.78-9.11,100.44-57.99,34.92,20.17h.01l8.87,5.12,82.91,47.87,8.34,4.81,63.72,36.79,5.57,3.21,133.76,77.23v390.5ZM396.7,799.84l-9.89,5.71h-.01s-17.86,10.32-17.86,10.32h.03s.07-.01.11-.01c.32-.03.65-.05.96-.09.39-.03.78-.07,1.17-.12.45-.04.89-.1,1.32-.16.03,0,.06,0,.08-.01.02,0,.03,0,.05-.01.24-.03.48-.06.71-.1.08-.01.15-.02.23-.03.39-.06.77-.12,1.15-.18.03,0,.05,0,.08,0,.51-.09,1.01-.18,1.51-.28.35-.07.69-.14,1.03-.21.05,0,.11-.02.16-.04.47-.1.92-.2,1.37-.32.39-.09.78-.19,1.16-.29.4-.1.81-.21,1.2-.33.41-.12.82-.24,1.23-.37.01,0,.02-.01.03-.01.24-.08.47-.15.71-.23.59-.19,1.16-.39,1.73-.6.3-.11.61-.22.9-.34.4-.15.8-.31,1.19-.47.09-.04.18-.08.27-.11.39-.17.77-.33,1.14-.5.08-.03.16-.07.24-.11.33-.15.65-.3.97-.45.36-.17.72-.35,1.07-.53.32-.15.63-.31.94-.48.7-.37,1.38-.75,2.06-1.14.32-.18.64-.37.95-.56.1-.06.2-.12.29-.17.4-.25.79-.5,1.18-.75.03-.02.07-.04.1-.06.36-.24.72-.47,1.07-.71.39-.26.77-.52,1.15-.79.76-.53,1.5-1.08,2.24-1.64.24-.18.47-.36.7-.54.24-.18.48-.37.71-.56.24-.19.49-.39.73-.59.29-.23.58-.47.87-.71.17-.14.34-.29.51-.43.24-.2.47-.4.7-.6.87-.74,1.73-1.49,2.57-2.26.43-.39.86-.78,1.29-1.18,3.43-3.15,6.7-6.37,10.08-9.37.37-.33.75-.67,1.13-.99.04-.04.08-.08.12-.11l-23.43,13.52ZM528.52,723.73l-74.85,43.22-13.46,7.77c.33-.09.66-.18.99-.27.39-.1.78-.19,1.18-.28.25-.06.5-.11.76-.16.27-.06.54-.11.81-.16.43-.09.87-.16,1.31-.23,28.06-4.37,52.31,1.55,74.55-21.62.99-1.03,1.92-2.07,2.78-3.12.44-.53.85-1.05,1.26-1.58.2-.26.4-.52.59-.79.2-.26.39-.52.58-.79.19-.26.37-.53.55-.79.19-.27.37-.54.54-.8.35-.53.69-1.06,1.01-1.6.66-1.07,1.26-2.14,1.82-3.22.14-.27.28-.54.42-.82.13-.26.26-.52.39-.78.41-.85.79-1.7,1.16-2.55.17-.39.32-.78.48-1.17.06-.13.11-.26.16-.39.12-.29.23-.57.33-.85.18-.47.36-.95.53-1.42.13-.36.26-.72.38-1.08.1-.28.19-.55.28-.83.21-.62.41-1.24.6-1.86.16-.5.31-1.01.46-1.51.23-.77.45-1.54.66-2.32.19-.7.38-1.41.57-2.12.19-.71.37-1.43.55-2.14l-7.39,4.26ZM396.7,799.84l-9.89,5.71h-.01s-17.86,10.32-17.86,10.32h.03s.07-.01.11-.01c.32-.03.65-.05.96-.09.39-.03.78-.07,1.17-.12.45-.04.89-.1,1.32-.16.03,0,.06,0,.08-.01.02,0,.03,0,.05-.01.24-.03.48-.06.71-.1.08-.01.15-.02.23-.03.39-.06.77-.12,1.15-.18.03,0,.05,0,.08,0,.51-.09,1.01-.18,1.51-.28.35-.07.69-.14,1.03-.21.05,0,.11-.02.16-.04.47-.1.92-.2,1.37-.32.39-.09.78-.19,1.16-.29.4-.1.81-.21,1.2-.33.41-.12.82-.24,1.23-.37.01,0,.02-.01.03-.01.24-.08.47-.15.71-.23.59-.19,1.16-.39,1.73-.6.3-.11.61-.22.9-.34.4-.15.8-.31,1.19-.47.09-.04.18-.08.27-.11.39-.17.77-.33,1.14-.5.08-.03.16-.07.24-.11.33-.15.65-.3.97-.45.36-.17.72-.35,1.07-.53.32-.15.63-.31.94-.48.7-.37,1.38-.75,2.06-1.14.32-.18.64-.37.95-.56.1-.06.2-.12.29-.17.4-.25.79-.5,1.18-.75.03-.02.07-.04.1-.06.36-.24.72-.47,1.07-.71.39-.26.77-.52,1.15-.79.76-.53,1.5-1.08,2.24-1.64.24-.18.47-.36.7-.54.24-.18.48-.37.71-.56.24-.19.49-.39.73-.59.29-.23.58-.47.87-.71.17-.14.34-.29.51-.43.24-.2.47-.4.7-.6.87-.74,1.73-1.49,2.57-2.26.43-.39.86-.78,1.29-1.18,3.43-3.15,6.7-6.37,10.08-9.37.37-.33.75-.67,1.13-.99.04-.04.08-.08.12-.11l-23.43,13.52ZM528.52,723.73l-74.85,43.22-13.46,7.77c.33-.09.66-.18.99-.27.39-.1.78-.19,1.18-.28.25-.06.5-.11.76-.16.27-.06.54-.11.81-.16.43-.09.87-.16,1.31-.23,28.06-4.37,52.31,1.55,74.55-21.62.99-1.03,1.92-2.07,2.78-3.12.44-.53.85-1.05,1.26-1.58.2-.26.4-.52.59-.79.2-.26.39-.52.58-.79.19-.26.37-.53.55-.79.19-.27.37-.54.54-.8.35-.53.69-1.06,1.01-1.6.66-1.07,1.26-2.14,1.82-3.22.14-.27.28-.54.42-.82.13-.26.26-.52.39-.78.41-.85.79-1.7,1.16-2.55.17-.39.32-.78.48-1.17.06-.13.11-.26.16-.39.12-.29.23-.57.33-.85.18-.47.36-.95.53-1.42.13-.36.26-.72.38-1.08.1-.28.19-.55.28-.83.21-.62.41-1.24.6-1.86.16-.5.31-1.01.46-1.51.23-.77.45-1.54.66-2.32.19-.7.38-1.41.57-2.12.19-.71.37-1.43.55-2.14l-7.39,4.26ZM396.7,799.84l-9.89,5.71h-.01s-17.86,10.32-17.86,10.32h.03s.07-.01.11-.01c.32-.03.65-.05.96-.09.39-.03.78-.07,1.17-.12.45-.04.89-.1,1.32-.16.03,0,.06,0,.08-.01.02,0,.03,0,.05-.01.24-.03.48-.06.71-.1.08-.01.15-.02.23-.03.39-.06.77-.12,1.15-.18.03,0,.05,0,.08,0,.51-.09,1.01-.18,1.51-.28.35-.07.69-.14,1.03-.21.05,0,.11-.02.16-.04.47-.1.92-.2,1.37-.32.39-.09.78-.19,1.16-.29.4-.1.81-.21,1.2-.33.41-.12.82-.24,1.23-.37.01,0,.02-.01.03-.01.24-.08.47-.15.71-.23.59-.19,1.16-.39,1.73-.6.3-.11.61-.22.9-.34.4-.15.8-.31,1.19-.47.09-.04.18-.08.27-.11.39-.17.77-.33,1.14-.5.08-.03.16-.07.24-.11.33-.15.65-.3.97-.45.36-.17.72-.35,1.07-.53.32-.15.63-.31.94-.48.7-.37,1.38-.75,2.06-1.14.32-.18.64-.37.95-.56.1-.06.2-.12.29-.17.4-.25.79-.5,1.18-.75.03-.02.07-.04.1-.06.36-.24.72-.47,1.07-.71.39-.26.77-.52,1.15-.79.76-.53,1.5-1.08,2.24-1.64.24-.18.47-.36.7-.54.24-.18.48-.37.71-.56.24-.19.49-.39.73-.59.29-.23.58-.47.87-.71.17-.14.34-.29.51-.43.24-.2.47-.4.7-.6.87-.74,1.73-1.49,2.57-2.26.43-.39.86-.78,1.29-1.18,3.43-3.15,6.7-6.37,10.08-9.37.37-.33.75-.67,1.13-.99.04-.04.08-.08.12-.11l-23.43,13.52ZM528.52,723.73l-74.85,43.22-13.46,7.77c.33-.09.66-.18.99-.27.39-.1.78-.19,1.18-.28.25-.06.5-.11.76-.16.27-.06.54-.11.81-.16.43-.09.87-.16,1.31-.23,28.06-4.37,52.31,1.55,74.55-21.62.99-1.03,1.92-2.07,2.78-3.12.44-.53.85-1.05,1.26-1.58.2-.26.4-.52.59-.79.2-.26.39-.52.58-.79.19-.26.37-.53.55-.79.19-.27.37-.54.54-.8.35-.53.69-1.06,1.01-1.6.66-1.07,1.26-2.14,1.82-3.22.14-.27.28-.54.42-.82.13-.26.26-.52.39-.78.41-.85.79-1.7,1.16-2.55.17-.39.32-.78.48-1.17.06-.13.11-.26.16-.39.12-.29.23-.57.33-.85.18-.47.36-.95.53-1.42.13-.36.26-.72.38-1.08.1-.28.19-.55.28-.83.21-.62.41-1.24.6-1.86.16-.5.31-1.01.46-1.51.23-.77.45-1.54.66-2.32.19-.7.38-1.41.57-2.12.19-.71.37-1.43.55-2.14l-7.39,4.26ZM396.7,799.84l-9.89,5.71h-.01s-17.86,10.32-17.86,10.32h.03s.07-.01.11-.01c.32-.03.65-.05.96-.09.39-.03.78-.07,1.17-.12.45-.04.89-.1,1.32-.16.03,0,.06,0,.08-.01.02,0,.03,0,.05-.01.24-.03.48-.06.71-.1.08-.01.15-.02.23-.03.39-.06.77-.12,1.15-.18.03,0,.05,0,.08,0,.51-.09,1.01-.18,1.51-.28.35-.07.69-.14,1.03-.21.05,0,.11-.02.16-.04.47-.1.92-.2,1.37-.32.39-.09.78-.19,1.16-.29.4-.1.81-.21,1.2-.33.41-.12.82-.24,1.23-.37.01,0,.02-.01.03-.01.24-.08.47-.15.71-.23.59-.19,1.16-.39,1.73-.6.3-.11.61-.22.9-.34.4-.15.8-.31,1.19-.47.09-.04.18-.08.27-.11.39-.17.77-.33,1.14-.5.08-.03.16-.07.24-.11.33-.15.65-.3.97-.45.36-.17.72-.35,1.07-.53.32-.15.63-.31.94-.48.7-.37,1.38-.75,2.06-1.14.32-.18.64-.37.95-.56.1-.06.2-.12.29-.17.4-.25.79-.5,1.18-.75.03-.02.07-.04.1-.06.36-.24.72-.47,1.07-.71.39-.26.77-.52,1.15-.79.76-.53,1.5-1.08,2.24-1.64.24-.18.47-.36.7-.54.24-.18.48-.37.71-.56.24-.19.49-.39.73-.59.29-.23.58-.47.87-.71.17-.14.34-.29.51-.43.24-.2.47-.4.7-.6.87-.74,1.73-1.49,2.57-2.26.43-.39.86-.78,1.29-1.18,3.43-3.15,6.7-6.37,10.08-9.37.37-.33.75-.67,1.13-.99.04-.04.08-.08.12-.11l-23.43,13.52ZM528.52,723.73l-74.85,43.22-13.46,7.77c.33-.09.66-.18.99-.27.39-.1.78-.19,1.18-.28.25-.06.5-.11.76-.16.27-.06.54-.11.81-.16.43-.09.87-.16,1.31-.23,28.06-4.37,52.31,1.55,74.55-21.62.99-1.03,1.92-2.07,2.78-3.12.44-.53.85-1.05,1.26-1.58.2-.26.4-.52.59-.79.2-.26.39-.52.58-.79.19-.26.37-.53.55-.79.19-.27.37-.54.54-.8.35-.53.69-1.06,1.01-1.6.66-1.07,1.26-2.14,1.82-3.22.14-.27.28-.54.42-.82.13-.26.26-.52.39-.78.41-.85.79-1.7,1.16-2.55.17-.39.32-.78.48-1.17.06-.13.11-.26.16-.39.12-.29.23-.57.33-.85.18-.47.36-.95.53-1.42.13-.36.26-.72.38-1.08.1-.28.19-.55.28-.83.21-.62.41-1.24.6-1.86.16-.5.31-1.01.46-1.51.23-.77.45-1.54.66-2.32.19-.7.38-1.41.57-2.12.19-.71.37-1.43.55-2.14l-7.39,4.26ZM396.7,799.84l-9.89,5.71h-.01s-17.86,10.32-17.86,10.32h.03s.07-.01.11-.01c.32-.03.65-.05.96-.09.39-.03.78-.07,1.17-.12.45-.04.89-.1,1.32-.16.03,0,.06,0,.08-.01.02,0,.03,0,.05-.01.24-.03.48-.06.71-.1.08-.01.15-.02.23-.03.39-.06.77-.12,1.15-.18.03,0,.05,0,.08,0,.51-.09,1.01-.18,1.51-.28.35-.07.69-.14,1.03-.21.05,0,.11-.02.16-.04.47-.1.92-.2,1.37-.32.39-.09.78-.19,1.16-.29.4-.1.81-.21,1.2-.33.41-.12.82-.24,1.23-.37.01,0,.02-.01.03-.01.24-.08.47-.15.71-.23.59-.19,1.16-.39,1.73-.6.3-.11.61-.22.9-.34.4-.15.8-.31,1.19-.47.09-.04.18-.08.27-.11.39-.17.77-.33,1.14-.5.08-.03.16-.07.24-.11.33-.15.65-.3.97-.45.36-.17.72-.35,1.07-.53.32-.15.63-.31.94-.48.7-.37,1.38-.75,2.06-1.14.32-.18.64-.37.95-.56.1-.06.2-.12.29-.17.4-.25.79-.5,1.18-.75.03-.02.07-.04.1-.06.36-.24.72-.47,1.07-.71.39-.26.77-.52,1.15-.79.76-.53,1.5-1.08,2.24-1.64.24-.18.47-.36.7-.54.24-.18.48-.37.71-.56.24-.19.49-.39.73-.59.29-.23.58-.47.87-.71.17-.14.34-.29.51-.43.24-.2.47-.4.7-.6.87-.74,1.73-1.49,2.57-2.26.43-.39.86-.78,1.29-1.18,3.43-3.15,6.7-6.37,10.08-9.37.37-.33.75-.67,1.13-.99.04-.04.08-.08.12-.11l-23.43,13.52ZM528.52,723.73l-74.85,43.22-13.46,7.77c.33-.09.66-.18.99-.27.39-.1.78-.19,1.18-.28.25-.06.5-.11.76-.16.27-.06.54-.11.81-.16.43-.09.87-.16,1.31-.23,28.06-4.37,52.31,1.55,74.55-21.62.99-1.03,1.92-2.07,2.78-3.12.44-.53.85-1.05,1.26-1.58.2-.26.4-.52.59-.79.2-.26.39-.52.58-.79.19-.26.37-.53.55-.79.19-.27.37-.54.54-.8.35-.53.69-1.06,1.01-1.6.66-1.07,1.26-2.14,1.82-3.22.14-.27.28-.54.42-.82.13-.26.26-.52.39-.78.41-.85.79-1.7,1.16-2.55.17-.39.32-.78.48-1.17.06-.13.11-.26.16-.39.12-.29.23-.57.33-.85.18-.47.36-.95.53-1.42.13-.36.26-.72.38-1.08.1-.28.19-.55.28-.83.21-.62.41-1.24.6-1.86.16-.5.31-1.01.46-1.51.23-.77.45-1.54.66-2.32.19-.7.38-1.41.57-2.12.19-.71.37-1.43.55-2.14l-7.39,4.26ZM396.7,799.84l-9.89,5.71h-.01s-17.86,10.32-17.86,10.32h.03s.07-.01.11-.01c.32-.03.65-.05.96-.09.39-.03.78-.07,1.17-.12.45-.04.89-.1,1.32-.16.03,0,.06,0,.08-.01.02,0,.03,0,.05-.01.24-.03.48-.06.71-.1.08-.01.15-.02.23-.03.39-.06.77-.12,1.15-.18.03,0,.05,0,.08,0,.51-.09,1.01-.18,1.51-.28.35-.07.69-.14,1.03-.21.05,0,.11-.02.16-.04.47-.1.92-.2,1.37-.32.39-.09.78-.19,1.16-.29.4-.1.81-.21,1.2-.33.41-.12.82-.24,1.23-.37.01,0,.02-.01.03-.01.24-.08.47-.15.71-.23.59-.19,1.16-.39,1.73-.6.3-.11.61-.22.9-.34.4-.15.8-.31,1.19-.47.09-.04.18-.08.27-.11.39-.17.77-.33,1.14-.5.08-.03.16-.07.24-.11.33-.15.65-.3.97-.45.36-.17.72-.35,1.07-.53.32-.15.63-.31.94-.48.7-.37,1.38-.75,2.06-1.14.32-.18.64-.37.95-.56.1-.06.2-.12.29-.17.4-.25.79-.5,1.18-.75.03-.02.07-.04.1-.06.36-.24.72-.47,1.07-.71.39-.26.77-.52,1.15-.79.76-.53,1.5-1.08,2.24-1.64.24-.18.47-.36.7-.54.24-.18.48-.37.71-.56.24-.19.49-.39.73-.59.29-.23.58-.47.87-.71.17-.14.34-.29.51-.43.24-.2.47-.4.7-.6.87-.74,1.73-1.49,2.57-2.26.43-.39.86-.78,1.29-1.18,3.43-3.15,6.7-6.37,10.08-9.37.37-.33.75-.67,1.13-.99.04-.04.08-.08.12-.11l-23.43,13.52ZM528.52,723.73l-74.85,43.22-13.46,7.77c.33-.09.66-.18.99-.27.39-.1.78-.19,1.18-.28.25-.06.5-.11.76-.16.27-.06.54-.11.81-.16.43-.09.87-.16,1.31-.23,28.06-4.37,52.31,1.55,74.55-21.62.99-1.03,1.92-2.07,2.78-3.12.44-.53.85-1.05,1.26-1.58.2-.26.4-.52.59-.79.2-.26.39-.52.58-.79.19-.26.37-.53.55-.79.19-.27.37-.54.54-.8.35-.53.69-1.06,1.01-1.6.66-1.07,1.26-2.14,1.82-3.22.14-.27.28-.54.42-.82.13-.26.26-.52.39-.78.41-.85.79-1.7,1.16-2.55.17-.39.32-.78.48-1.17.06-.13.11-.26.16-.39.12-.29.23-.57.33-.85.18-.47.36-.95.53-1.42.13-.36.26-.72.38-1.08.1-.28.19-.55.28-.83.21-.62.41-1.24.6-1.86.16-.5.31-1.01.46-1.51.23-.77.45-1.54.66-2.32.19-.7.38-1.41.57-2.12.19-.71.37-1.43.55-2.14l-7.39,4.26ZM396.7,799.84l-9.89,5.71h-.01s-17.86,10.32-17.86,10.32h.03s.07-.01.11-.01c.32-.03.65-.05.96-.09.39-.03.78-.07,1.17-.12.45-.04.89-.1,1.32-.16.03,0,.06,0,.08-.01.02,0,.03,0,.05-.01.24-.03.48-.06.71-.1.08-.01.15-.02.23-.03.39-.06.77-.12,1.15-.18.03,0,.05,0,.08,0,.51-.09,1.01-.18,1.51-.28.35-.07.69-.14,1.03-.21.05,0,.11-.02.16-.04.47-.1.92-.2,1.37-.32.39-.09.78-.19,1.16-.29.4-.1.81-.21,1.2-.33.41-.12.82-.24,1.23-.37.01,0,.02-.01.03-.01.24-.08.47-.15.71-.23.59-.19,1.16-.39,1.73-.6.3-.11.61-.22.9-.34.4-.15.8-.31,1.19-.47.09-.04.18-.08.27-.11.39-.17.77-.33,1.14-.5.08-.03.16-.07.24-.11.33-.15.65-.3.97-.45.36-.17.72-.35,1.07-.53.32-.15.63-.31.94-.48.7-.37,1.38-.75,2.06-1.14.32-.18.64-.37.95-.56.1-.06.2-.12.29-.17.4-.25.79-.5,1.18-.75.03-.02.07-.04.1-.06.36-.24.72-.47,1.07-.71.39-.26.77-.52,1.15-.79.76-.53,1.5-1.08,2.24-1.64.24-.18.47-.36.7-.54.24-.18.48-.37.71-.56.24-.19.49-.39.73-.59.29-.23.58-.47.87-.71.17-.14.34-.29.51-.43.24-.2.47-.4.7-.6.87-.74,1.73-1.49,2.57-2.26.43-.39.86-.78,1.29-1.18,3.43-3.15,6.7-6.37,10.08-9.37.37-.33.75-.67,1.13-.99.04-.04.08-.08.12-.11l-23.43,13.52ZM528.52,723.73l-74.85,43.22-13.46,7.77c.33-.09.66-.18.99-.27.39-.1.78-.19,1.18-.28.25-.06.5-.11.76-.16.27-.06.54-.11.81-.16.43-.09.87-.16,1.31-.23,28.06-4.37,52.31,1.55,74.55-21.62.99-1.03,1.92-2.07,2.78-3.12.44-.53.85-1.05,1.26-1.58.2-.26.4-.52.59-.79.2-.26.39-.52.58-.79.19-.26.37-.53.55-.79.19-.27.37-.54.54-.8.35-.53.69-1.06,1.01-1.6.66-1.07,1.26-2.14,1.82-3.22.14-.27.28-.54.42-.82.13-.26.26-.52.39-.78.41-.85.79-1.7,1.16-2.55.17-.39.32-.78.48-1.17.06-.13.11-.26.16-.39.12-.29.23-.57.33-.85.18-.47.36-.95.53-1.42.13-.36.26-.72.38-1.08.1-.28.19-.55.28-.83.21-.62.41-1.24.6-1.86.16-.5.31-1.01.46-1.51.23-.77.45-1.54.66-2.32.19-.7.38-1.41.57-2.12.19-.71.37-1.43.55-2.14l-7.39,4.26ZM396.7,799.84l-9.89,5.71h-.01s-17.86,10.32-17.86,10.32h.03s.07-.01.11-.01c.32-.03.65-.05.96-.09.39-.03.78-.07,1.17-.12.45-.04.89-.1,1.32-.16.03,0,.06,0,.08-.01.02,0,.03,0,.05-.01.24-.03.48-.06.71-.1.08-.01.15-.02.23-.03.39-.06.77-.12,1.15-.18.03,0,.05,0,.08,0,.51-.09,1.01-.18,1.51-.28.35-.07.69-.14,1.03-.21.05,0,.11-.02.16-.04.47-.1.92-.2,1.37-.32.39-.09.78-.19,1.16-.29.4-.1.81-.21,1.2-.33.41-.12.82-.24,1.23-.37.01,0,.02-.01.03-.01.24-.08.47-.15.71-.23.59-.19,1.16-.39,1.73-.6.3-.11.61-.22.9-.34.4-.15.8-.31,1.19-.47.09-.04.18-.08.27-.11.39-.17.77-.33,1.14-.5.08-.03.16-.07.24-.11.33-.15.65-.3.97-.45.36-.17.72-.35,1.07-.53.32-.15.63-.31.94-.48.7-.37,1.38-.75,2.06-1.14.32-.18.64-.37.95-.56.1-.06.2-.12.29-.17.4-.25.79-.5,1.18-.75.03-.02.07-.04.1-.06.36-.24.72-.47,1.07-.71.39-.26.77-.52,1.15-.79.76-.53,1.5-1.08,2.24-1.64.24-.18.47-.36.7-.54.24-.18.48-.37.71-.56.24-.19.49-.39.73-.59.29-.23.58-.47.87-.71.17-.14.34-.29.51-.43.24-.2.47-.4.7-.6.87-.74,1.73-1.49,2.57-2.26.43-.39.86-.78,1.29-1.18,3.43-3.15,6.7-6.37,10.08-9.37.37-.33.75-.67,1.13-.99.04-.04.08-.08.12-.11l-23.43,13.52ZM528.52,723.73l-74.85,43.22-13.46,7.77c.33-.09.66-.18.99-.27.39-.1.78-.19,1.18-.28.25-.06.5-.11.76-.16.27-.06.54-.11.81-.16.43-.09.87-.16,1.31-.23,28.06-4.37,52.31,1.55,74.55-21.62.99-1.03,1.92-2.07,2.78-3.12.44-.53.85-1.05,1.26-1.58.2-.26.4-.52.59-.79.2-.26.39-.52.58-.79.19-.26.37-.53.55-.79.19-.27.37-.54.54-.8.35-.53.69-1.06,1.01-1.6.66-1.07,1.26-2.14,1.82-3.22.14-.27.28-.54.42-.82.13-.26.26-.52.39-.78.41-.85.79-1.7,1.16-2.55.17-.39.32-.78.48-1.17.06-.13.11-.26.16-.39.12-.29.23-.57.33-.85.18-.47.36-.95.53-1.42.13-.36.26-.72.38-1.08.1-.28.19-.55.28-.83.21-.62.41-1.24.6-1.86.16-.5.31-1.01.46-1.51.23-.77.45-1.54.66-2.32.19-.7.38-1.41.57-2.12.19-.71.37-1.43.55-2.14l-7.39,4.26Z"/>
</svg>