<?xml version="1.0" encoding="UTF-8"?>
<svg id="broom" xmlns="http://www.w3.org/2000/svg" viewBox="0 0 2521 2911">
  <defs>
    <style>
      .cls-1 {
        fill: #bd8b58;
      }

      .cls-1, .cls-2, .cls-3, .cls-4, .cls-5, .cls-6, .cls-7, .cls-8, .cls-9, .cls-10, .cls-11, .cls-12, .cls-13 {
        stroke-miterlimit: 10;
      }

      .cls-1, .cls-3, .cls-4, .cls-5, .cls-13 {
        stroke: #6a2822;
      }

      .cls-1, .cls-5, .cls-6, .cls-8, .cls-10, .cls-11 {
        stroke-width: 10px;
      }

      .cls-2 {
        stroke-width: 7.5px;
      }

      .cls-2, .cls-3, .cls-4, .cls-5, .cls-7, .cls-8, .cls-9, .cls-10, .cls-13 {
        fill: none;
      }

      .cls-2, .cls-6, .cls-8, .cls-9, .cls-10, .cls-11 {
        stroke: #3d1e27;
      }

      .cls-2, .cls-7, .cls-10, .cls-13 {
        stroke-linecap: round;
      }

      .cls-14 {
        fill: #edddd2;
      }

      .cls-3, .cls-13 {
        stroke-width: 8px;
      }

      .cls-4 {
        stroke-width: 6px;
      }

      .cls-15 {
        fill: #a09184;
      }

      .cls-16 {
        fill: #af784d;
      }

      .cls-17 {
        fill: #41081f;
      }

      .cls-18 {
        fill: #ca9a59;
      }

      .cls-19, .cls-12 {
        fill: #f9debe;
      }

      .cls-20 {
        fill: #cf9c5c;
      }

      .cls-6 {
        fill: #ef8e96;
      }

      .cls-21 {
        fill: #9c9182;
      }

      .cls-22 {
        fill: #fef8d8;
      }

      .cls-23 {
        fill: #bc8a58;
      }

      .cls-24 {
        fill: #e2d4c1;
      }

      .cls-25 {
        fill: #a19080;
      }

      .cls-7 {
        stroke: #62241e;
        stroke-width: 5px;
      }

      .cls-26, .cls-11 {
        fill: #fffefc;
      }

      .cls-27 {
        fill: #fffefa;
      }

      .cls-28 {
        fill: #eec26e;
      }

      .cls-9 {
        stroke-width: 12px;
      }

      .cls-29 {
        fill: #a18f7e;
      }

      .cls-30 {
        fill: #c6b5a1;
      }

      .cls-12 {
        stroke: #deaa6d;
        stroke-width: 15px;
      }

      .cls-31 {
        fill: #be8c58;
      }

      .cls-32 {
        fill: #f1a594;
      }
    </style>
  </defs>
  <polygon class="cls-22" points=".22 729.52 .22 2183.84 1259.7 2911 2519.17 2183.84 2519.17 729.52 1259.7 2.36 .22 729.52"/>
  <path class="cls-19" d="M1259.7,2.36L.22,729.52v1454.32l1259.48,727.16,1259.47-727.16V729.52L1259.7,2.36ZM2412.1,2122.02l-1152.4,665.35L107.29,2122.02V791.34L1259.7,126l1152.4,665.34v1330.68Z"/>
  <g>
    <path class="cls-24" d="M806,2280c-6.37,7.07-19.23,15.27-60,12-29.31-2.35-55.78-8.84-79.14-17.39-54.59-20-92.18-51.34-109.32-67.76-6.95-6.65-10.54-10.85-10.54-10.85-8.69-10.17-49.36-59.29-63-132-1.21-6.46-2.22-12.9-3.04-19.3-4.85-37.41-3.53-73.08-1.03-99.27,2.46-25.82,6.07-42.43,6.07-42.43,2.68-12.32,6.67-27.58,7.36-47.41.2-5.79.12-11.98-.36-18.59-.66-9.2-1.7-23.67-5.76-38.03-4.3-15.25-12-30.37-26.24-38.97-13.63-8.23-30.24-8.65-44-9-24.25-.61-29.45,5.97-42,2-20.1-6.36-31.86-31.17-35-49-8.02-45.58,33.82-82.56,39-87,49.79-42.73,118.85-26.44,135-22,59.91,16.45,90.8,61.62,99,74,28.43,42.96,30.25,86.15,31,112,.33,11.23-.19,19.13-1.4,27.13-1.73,11.34-4.85,22.86-8.96,44.34-1.43,7.49-2.99,16.2-4.64,26.53-4.58,28.62-8.31,51.91-10.59,72.13-3,26.57-3.5,47.84-.17,68.95.94,5.95,2.18,11.88,3.76,17.92,3.25,12.44,9.07,33.76,22.59,56.28,7.3,12.16,16.85,24.67,29.46,36.32,1.6,1.48,3.25,2.95,4.95,4.4,44.58,37.99,96.03,40.8,113,41,26.08,43.37,31.79,84.27,14,104Z"/>
    <path class="cls-15" d="M642.6,1808.13c-1.73,11.34-4.85,22.86-8.96,44.34-19.17,4.89-41.95,8.76-67.64,9.53-27.39.81-51.88-2.09-72.64-6.41.2-5.79.12-11.98-.36-18.59-.66-9.2-1.7-23.67-5.76-38.03,8.3-5.85,17.54-11.29,27.76-15.97,13.1-6,28.41-12.8,49-12,20.91.81,35.84,9.01,50,17,7.5,4.23,17.6,10.66,28.6,20.13Z"/>
    <path class="cls-15" d="M618.24,2020.08c-18.5,11.33-43.13,22.23-73.24,25.92-13.74,1.68-38.59,4.73-64.04-1.3-4.85-37.41-3.53-73.08-1.03-99.27,19.92-6.94,43.51-11.59,70.07-10.43,27.48,1.2,50.64,8.29,68.41,16.13-3,26.57-3.5,47.84-.17,68.95Z"/>
    <path class="cls-15" d="M806,2280c-6.37,7.07-19.23,15.27-60,12-29.31-2.35-55.78-8.84-79.14-17.39-54.59-20-92.18-51.34-109.32-67.76,7.83-21.48,19.88-45.09,38.46-67.85,16.02-19.63,33.23-34.14,48.59-44.72,7.3,12.16,16.85,24.67,29.46,36.32,1.6,1.48,3.25,2.95,4.95,4.4,44.58,37.99,96.03,40.8,113,41,26.08,43.37,31.79,84.27,14,104Z"/>
    <path class="cls-30" d="M806,2280c-6.37,7.07-19.23,15.27-60,12-29.31-2.35-55.78-8.84-79.14-17.39-1.5-21.37-1.99-44.67-.86-69.61,1.23-27.16,4.22-52.08,8.05-74.4,1.6,1.48,3.25,2.95,4.95,4.4,44.58,37.99,96.03,40.8,113,41,26.08,43.37,31.79,84.27,14,104Z"/>
    <path class="cls-8" d="M792,2176c-16.97-.2-68.42-3.01-113-41-39.9-34-51.77-76.98-57-97-11.44-43.78-5.3-82.19,7-159,9.73-60.81,15.96-65.28,15-98-.75-25.85-2.57-69.04-31-112-8.2-12.38-39.09-57.55-99-74-16.15-4.44-85.21-20.73-135,22-5.18,4.44-47.02,41.42-39,87,3.14,17.83,14.9,42.64,35,49,12.55,3.97,17.75-2.61,42-2,13.76.35,30.37.77,44,9,27.66,16.7,30.64,58.05,32,77,2.11,29.25-3.54,50.08-7,66,0,0-17.29,79.52-2,161,13.64,72.71,54.31,121.83,63,132,0,0,73.4,85.93,199,96,40.77,3.27,53.63-4.93,60-12,17.79-19.73,12.08-60.63-14-104Z"/>
    <path class="cls-8" d="M1468.43,1778.16c-7.54,6.48-16.48,9.7-22.43,11.84-16.84,6.06-40.68,7.76-44,0-2.46-5.76,8.34-12.19,28-35,10.25-11.9,16.94-21.32,21.78-28.27,4.26,14.92,9.7,32.26,16.65,51.43Z"/>
    <path class="cls-8" d="M1521.12,1893.02c-14.94,13.28-35.4,18.51-41.12,19.98-33.63,8.61-70.38-2.42-71-12-.51-7.84,23.64-7.01,49-28,17.43-14.43,25.37-30.84,31.11-43.56,4.26,9.6,8.89,19.48,13.89,29.56,6.8,13.71,12.77,24.73,18.12,34.02Z"/>
    <path class="cls-11" d="M857,2351c-10.2,2.68-33.97,10.49-52,33-6.37,7.95-18.03,22.51-18,43,.05,27.91,21.77,53.73,34,52,3.88-.55,6.95-3.89,13-3,4.22.62,5.99,2.74,11,6,5.76,3.75,12.74,8.29,21,9,3.89.33,9.26-.45,20-2,1.44-.21,4.33-.64,8,0,4.2.74,7.05,2.47,8,3,6.88,3.81,17.99,1.47,25,0,18.3-3.85,32.85-13.43,38-17,12.4-8.59,23.38-19,36-35,12.04-15.26,28.24-38.97,42-72-62-5.67-124-11.33-186-17Z"/>
    <path class="cls-11" d="M1417,2332c30.89,7.59,48.23,29.95,63,49,12.62,16.27,15.07,25.71,16,31,1.15,6.54,2.98,23.95-8,40-7.16,10.46-21.06,22.25-33,21-2.63-.27-13-2-13-2h0s-6.07,6.11-7,7c-7.36,7.03-25.09,4.45-28,4-36.24-5.62-60.17-9.33-75-30-25.12-35-7.97-96.08,30-116,22.74-11.93,46.97-5.97,55-4Z"/>
    <path class="cls-8" d="M834,2476s-7-34,3-49"/>
    <path class="cls-8" d="M893,2438s-7,16,1,51"/>
    <path class="cls-8" d="M1442,2471s11-30,2-48"/>
    <path class="cls-24" d="M1801,1590c-9.65,25.17-28.7,38.77-51,54-24.03,16.41-137.33,92.88-233,114-8.4,1.86-22.17,4.5-35.85-.67-1.72-.64-3.44-1.42-5.15-2.33-12.65-6.77-19.82-18.7-23.87-28.79-.95-2.35-1.72-4.6-2.36-6.66.64,2.33,1.31,4.72,2.01,7.18-3.22,4.63-7.26,10.35-12.63,17.17-2.7,3.42-5.73,7.12-9.15,11.1-19.66,22.81-30.46,29.24-28,35,3.32,7.76,27.16,6.06,44,0,5.95-2.14,14.89-5.36,22.43-11.84,5.77,15.93,12.6,33.14,20.68,51.28-5.74,12.72-13.68,29.13-31.11,43.56-25.36,20.99-49.51,20.16-49,28,.62,9.58,37.37,20.61,71,12,5.72-1.47,26.18-6.7,41.12-19.98,20.17,35.09,31.32,45.43,43.88,81.98.48,1.4.95,2.8,1.41,4.2,25.59,78.06,14.18,147.61,7.59,187.8-7.61,46.36-13.44,81.93-40,118-28.47,38.66-66.21,58.16-103,73-32.04,12.92-64.63,22.83-96.96,30.31-87.66,20.31-173.43,22.88-241.12,19.71-57.01-2.67-101.2-9.4-122.92-13.02-91.19-15.21-137.66-23.57-181-61-25.3-21.85-43.65-47.74-57.03-74.13-29.77-58.74-34.89-119.99-36.97-144.87-2.18-26.06-1.47-50.02.84-71.77,3.42-32.35,10.36-59.81,16.56-82.01h0c.88-3.19,1.76-6.26,2.6-9.22,4.76-16.73,10.06-32.28,15.76-46.88,13.17-33.82,28.48-62.58,44.24-89.15,4.64-7.82,9.32-15.45,14-22.97,46.02-73.91,80.36-129.07,112.43-173.38,31.13-43,60.11-75.8,95.57-105.62,150.01-126.17,354.26-178.53,403-124,12.07,13.5,19.58,39.13,52,60,13.3,8.56,26.66,13.66,38.28,16.84,10.95,3,20.35,4.29,26.72,5.16,33.4,4.58,34.78-4.76,93-8,5.83-.32,17.38-.87,29-8,10.4-6.38,12.7-13.03,18-18,2.13-2,4.67-3.66,7.56-4.98,25.6-11.78,78.23,2.4,109.44,35.98,15.73,16.92,22.04,34.49,25,43,2.9,8.34,15.17,43.64,2,78Z"/>
    <path class="cls-15" d="M849,1932c-5.39,12.49-45.29,9.92-75-1-17.35-6.37-31.64-15.75-43.24-25.88,13.17-33.82,28.48-62.58,44.24-89.15,5.87,19.1,14.97,39.07,29,58.03,23.07,31.19,49.88,46.71,45,58Z"/>
    <path class="cls-15" d="M810,2066c-3.24,10.71-40.32,12.43-70,3-17.78-5.64-32.36-15.13-44.16-25.77,3.42-32.35,10.36-59.81,16.56-82.01,11.06,19.69,26.05,40.21,46.6,58.78,27.44,24.79,53.94,36.3,51,46Z"/>
    <path class="cls-15" d="M1468.43,1778.16c-7.54,6.48-16.48,9.7-22.43,11.84-16.84,6.06-40.68,7.76-44,0-2.46-5.76,8.34-12.19,28-35,10.25-11.9,16.94-21.32,21.78-28.27,4.26,14.92,9.7,32.26,16.65,51.43Z"/>
    <path class="cls-30" d="M1490.28,1466.84c-11.71,4.73-26.09,9.93-43.28,16.16-37.82,13.69-40.08,9.78-79,25-16.6,6.49-33.48,13.96-61,22-16.56,4.84-21.45,5.34-31,8-51.16,14.23-58.62,40.79-101,56-16.68,5.99-37.79,6.32-80,7-42.58.68-59.62-3.82-95,3-25.88,4.99-25.59,9.1-46,13-16.66,3.18-35.21,3.95-52.57,2.62,31.13-43,60.11-75.8,95.57-105.62,150.01-126.17,354.26-178.53,403-124,12.07,13.5,19.58,39.13,52,60,13.3,8.56,26.66,13.66,38.28,16.84Z"/>
    <path class="cls-26" d="M1344,2319c-68.28,38.53-105.96-4.13-225,28-11.08,2.99-49.68,13.87-64-3-7.76-9.14-.97-17.68-8-38-7.68-22.21-24.19-36.25-38-48-14.92-12.69-19.19-12.01-30.53-21.86-1.08-.94-2.24-1.98-3.47-3.14-11.23-10.55-18.13-20.53-29-38-10.68-17.17-30.17-48.49-38-66-34.06-76.19,18.35-191.08,32-221,28.65-62.8,43.16-60.15,68-126,4.67-12.38,20.87-56.78,30-118,2.36-15.83,3.97-30.95,5.02-45.22,1.99-27.28,1.91-51.5.98-71.78,50.33-16.33,100.67-32.67,151-49,18.35,11.74,44.21,28.96,74.27,51.44,1.57,1.17,3.14,2.36,4.73,3.56,35.67,26.94,53.79,40.78,68,59,28.68,36.78,38.18,75.35,44,99,9.52,38.65,3.73,46.08,15,95,6.68,28.97,13.1,45.42,21,69,0,0,5.23,15.63,12.19,39.35,8.13,27.8,18.63,66.73,25.81,104.65,17.8,93.98-18.45,244.94-116,300Z"/>
    <path class="cls-15" d="M1521.12,1893.02c-14.94,13.28-35.4,18.51-41.12,19.98-33.63,8.61-70.38-2.42-71-12-.51-7.84,23.64-7.01,49-28,17.43-14.43,25.37-30.84,31.11-43.56,4.26,9.6,8.89,19.48,13.89,29.56,6.8,13.71,12.77,24.73,18.12,34.02Z"/>
    <path class="cls-30" d="M1092.92,2408.02c-57.01-2.67-101.2-9.4-122.92-13.02-91.19-15.21-137.66-23.57-181-61-25.3-21.85-43.65-47.74-57.03-74.13,17.16,10.79,44.79,32.54,99.03,57.13,51.32,23.27,78.3,27.25,104,21,6.64-1.62,42.6-10.36,52-37,3.76-10.66,6.45-22.21-2-35-35-53,19-22,36-7,9.68,8.54,2-4,20,2,15.49,5.16,50.65-2.88,61,54,5.63,30.93,1.97,63.09-9.08,93.02Z"/>
    <path class="cls-14" d="M1344,2319c-68.28,38.53-105.96-4.13-225,28-11.08,2.99-49.68,13.87-64-3-7.76-9.14-.97-17.68-8-38-7.68-22.21-24.19-36.25-38-48-14.92-12.69-19.19-12.01-30.53-21.86,11.3,1.52,22.55,4.97,31.53,10.86,5.19,3.4,11.85,9.07,23,11,9.38,1.62,20.99.44,37-8,20.88-11.01,30.31-24.37,47-43,40.72-45.44,47.83-36.45,64-64,11.33-19.3,23.97-51.21,27-59,.41-1.06,12.3-31.59,28-39,7.91-3.73,13-4,13-4,6.79-.35,10.3,2.12,14,0,4.06-2.33,4.74-8.14,5-10,2.4-16.99,14.29-31.21,21-47,12.36-29.08,22.57-45.06,43-77,3.37-5.26,8.14-12.52,17-16,11.74-4.61,23.35.29,35,5,26.72,10.79,41.2,15.52,50.19,18.35,8.13,27.8,18.63,66.73,25.81,104.65,17.8,93.98-18.45,244.94-116,300Z"/>
    <path class="cls-30" d="M1574,2167c-7.61,46.36-13.44,81.93-40,118-28.47,38.66-66.21,58.16-103,73-32.04,12.92-64.63,22.83-96.96,30.31l169.96-412.31,62.41,3.2c25.59,78.06,14.18,147.61,7.59,187.8Z"/>
    <path class="cls-30" d="M1801,1590c-9.65,25.17-28.7,38.77-51,54-24.03,16.41-137.33,92.88-233,114-8.4,1.86-22.17,4.5-35.85-.67-1.72-.64-3.44-1.42-5.15-2.33-12.65-6.77-19.82-18.7-23.87-28.79-.95-2.35-1.72-4.6-2.36-6.66.64,2.33,1.31,4.72,2.01,7.18-3.22,4.63-7.26,10.35-12.63,17.17-2.02-3.06-3.77-6.35-5.15-9.9-4.57-11.73-1.54-16.81-7-39-8.16-33.18-22.83-53.89-21-55,2.04-1.24,13.17,28.79,41,46,26.35,16.3,63.52,18.54,92,4,13.95-7.12,24.27-17.48,43-47,36.28-57.19,53.98-107.28,57-116,8.49-24.49,17.94-56.08,25.56-93.98,25.6-11.78,78.23,2.4,109.44,35.98,15.73,16.92,22.04,34.49,25,43,2.9,8.34,15.17,43.64,2,78Z"/>
    <path class="cls-14" d="M1260,1543c-9.88,4.85-19.82,10.41-25,12-16.44,5.03-21.47,9.51-36,10-29.51,1-35.09-4.03-56,0-15.82,3.05-27.48,8.8-36,13-18.03,8.89-20.19,12.06-35,17-9,3-14.96-1.93-28,5,1.99-27.28.93-32.72,0-53,50.33-16.33,100.67-32.67,151-49,18.35,11.74,34.94,22.52,65,45Z"/>
    <path class="cls-8" d="M1801,1590c-9.65,25.17-28.7,38.77-51,54-24.03,16.41-137.33,92.88-233,114-8.4,1.86-22.17,4.5-35.85-.67-1.72-.64-3.44-1.42-5.15-2.33-12.65-6.77-19.82-18.7-23.87-28.79-.95-2.35-1.72-4.6-2.36-6.66.64,2.33,1.31,4.72,2.01,7.18-3.22,4.63,100.66,211.72,113.22,248.27.48,1.4.95,2.8,1.41,4.2,25.59,78.06,14.18,147.61,7.59,187.8-7.61,46.36-13.44,81.93-40,118-28.47,38.66-66.21,58.16-103,73-32.04,12.92-64.63,22.83-96.96,30.31-87.66,20.31-173.43,22.88-241.12,19.71-57.01-2.67-101.2-9.4-122.92-13.02-91.19-15.21-137.66-23.57-181-61-25.3-21.85-43.65-47.74-57.03-74.13-29.77-58.74-34.89-119.99-36.97-144.87-2.18-26.06-1.47-50.02.84-71.77,3.42-32.35,10.36-59.81,16.56-82.01h0c.88-3.19,1.76-6.26,2.6-9.22,4.76-16.73,10.06-32.28,15.76-46.88,13.17-33.82,28.48-62.58,44.24-89.15,4.64-7.82,9.32-15.45,14-22.97,46.02-73.91,80.36-129.07,112.43-173.38,31.13-43,60.11-75.8,95.57-105.62,150.01-126.17,354.26-178.53,403-124,12.07,13.5,19.58,39.13,52,60,13.3,8.56,26.66,13.66,38.28,16.84,10.95,3,20.35,4.29,26.72,5.16,33.4,4.58,34.78-4.76,93-8,5.83-.32,17.38-.87,29-8,10.4-6.38,12.7-13.03,18-18,2.13-2,4.67-3.66,7.56-4.98,25.6-11.78,78.23,2.4,109.44,35.98,15.73,16.92,22.04,34.49,25,43,2.9,8.34,15.17,43.64,2,78Z"/>
    <path class="cls-10" d="M972,2233s92,57,83,118"/>
  </g>
  <g>
    <path class="cls-23" d="M2150,768c.15,13.4-6.82,23.28-10,28-9.02,13.36-20.24,33.44-35,66-185.67,371.67-371.33,743.33-557,1115-8.76-5.04-17.52-10.09-26.28-15.13-13.24-7.62-26.48-15.24-39.72-22.87,334.34-702.95,558.22-1177.43,565-1202,.49-1.79,2.95-12.46,12-19,12.59-9.09,30.08-4.23,40-2,3.01.68,18.03,4.27,31.08,14.79,5.75,4.61,11.12,10.57,14.92,18.21,1.66,3.34,4.9,10.03,5,19Z"/>
    <path class="cls-28" d="M1473,2268c-1.92,23.81-6.29,73.21-29,126-17.17,39.92-42.12,97.93-106,134-16.93,9.56-33.94,16.08-50.34,20.38-61.28,16.07-114.05,1.19-122.66-1.38-15.08-4.5-28.01-10.19-38.61-15.79-6.75-3.55-12.56-7.07-17.39-10.21-3.49.22-7.59.36-12.19.23-7.46-.19-16.22-1.04-25.81-3.23-22.01-5.02-41.97-15.63-41-19,.62-2.16,9.35.52,25-2,12.72-2.05,25.35-6.79,25-9-.47-2.97-23.6,3.47-47-4-20.94-6.69-34.71-22.17-43-34-4.19,2.26-13.14,6.33-25,6-16.47-.46-27.59-9.12-31-12,11.35-.68,27.87-3.14,45-12,31.84-16.47,46.3-44.94,57-64,22.43-39.94,54.77-73.45,81-111,22.96-32.86,60.55-73.42,125.95-112.4,16.23-9.68,34.18-19.26,54.05-28.6,58.67,26.67,117.33,53.33,176,80,1.46,18.07,2.36,42.81,0,72Z"/>
    <path class="cls-18" d="M1473,2268c-1.92,23.81-6.29,73.21-29,126-17.17,39.92-42.12,97.93-106,134-16.93,9.56-33.94,16.08-50.34,20.38,23.95-24.99,49.14-54.95,73.34-90.38,51.99-76.13,79.7-148.72,95-201-32.12-13.02-66.36-28.51-102-47-41.14-21.34-78.13-43.55-111.05-65.4,16.23-9.68,34.18-19.26,54.05-28.6,58.67,26.67,117.33,53.33,176,80,1.46,18.07,2.36,42.81,0,72Z"/>
    <path class="cls-20" d="M1204,2488c-25.67,21.56-53.01,34.89-77.61,43.21-6.75-3.55-12.56-7.07-17.39-10.21-3.49.22-7.59.36-12.19.23,29.72-8.6,63.81-23.06,96.19-48.23,64.09-49.82,86.93-114.71,90-113,3.21,1.79-16.51,75.51-79,128Z"/>
    <path class="cls-3" d="M1473,2268c-1.92,23.81-6.29,73.21-29,126-17.17,39.92-42.12,97.93-106,134-16.93,9.56-33.94,16.08-50.34,20.38-61.28,16.07-114.05,1.19-122.66-1.38-15.08-4.5-28.01-10.19-38.61-15.79-6.75-3.55-12.56-7.07-17.39-10.21-3.49.22-7.59.36-12.19.23-7.46-.19-16.22-1.04-25.81-3.23-22.01-5.02-41.97-15.63-41-19,.62-2.16,9.35.52,25-2,12.72-2.05,25.35-6.79,25-9-.47-2.97-23.6,3.47-47-4-20.94-6.69-34.71-22.17-43-34-4.19,2.26-13.14,6.33-25,6-16.47-.46-27.59-9.12-31-12,11.35-.68,27.87-3.14,45-12,31.84-16.47,46.3-44.94,57-64,22.43-39.94,54.77-73.45,81-111,22.96-32.86,60.55-73.42,125.95-112.4,16.23-9.68,34.18-19.26,54.05-28.6,58.67,26.67,117.33,53.33,176,80,1.46,18.07,2.36,42.81,0,72Z"/>
    <path class="cls-1" d="M1535,2194c-.81,5.25-2.82,16.66-10,27-2.97,4.27-6.33,7.67-11,9-4.06,1.16-7.61.34-9,0-13.39-3.27-25.69-6.46-36.95-9.53-72.65-19.76-102.05-34.47-102.05-34.47,0,0-119.57-59.83-115-82,.85-4.1,3-9,3-9,4.17-9.49,10.19-15.27,13-18,24.57-23.87,22.84-27.3,32-32,14.3-7.33,29.46-4.6,45-1,25.77,5.97,97.09,24.67,166,76,5.64,4.2,12.22,9.33,17.62,16.27,3.46,4.43,6.43,9.6,8.38,15.73,3.69,11.61,2.13,21.74-1,42Z"/>
    <path class="cls-13" d="M990,2450s45.44-13.65,86-41c43-29,124.19-124.39,133-134,11-12,56-59,56-59"/>
    <path class="cls-13" d="M1080,2488s76-32,118-108,48.08-99.54,102-164"/>
    <path class="cls-13" d="M1116.59,2525.72s96.59,12.67,155.41-129.72c57-138,22-52,58-145"/>
    <path class="cls-13" d="M1211.33,2555.74s79.67-21.74,125.67-164.74,39-130,39-130"/>
    <path class="cls-13" d="M1287.66,2548.38s90.47-42.18,116.18-209.65c11.16-72.73,13.16-87.73,13.16-87.73"/>
    <path class="cls-16" d="M1535,2194c-.81,5.25-2.82,16.66-10,27-2.97,4.27-6.33,7.67-11,9-4.06,1.16-7.61.34-9,0-13.39-3.27-25.69-6.46-36.95-9.53,3.63-15.95,10-31.81,19.95-46.47,11.45-16.87,25.5-29.01,39.62-37.73,3.46,4.43,6.43,9.6,8.38,15.73,3.69,11.61,2.13,21.74-1,42Z"/>
    <path class="cls-13" d="M1535,2194c-.81,5.25-2.82,16.66-10,27-2.97,4.27-6.33,7.67-11,9-4.06,1.16-7.61.34-9,0-13.39-3.27-25.69-6.46-36.95-9.53-72.65-19.76-102.05-34.47-102.05-34.47,0,0-119.57-59.83-115-82,.85-4.1,3-9,3-9,4.17-9.49,10.19-15.27,13-18,24.57-23.87,22.84-27.3,32-32,14.3-7.33,29.46-4.6,45-1,25.77,5.97,97.09,24.67,166,76,5.64,4.2,12.22,9.33,17.62,16.27,3.46,4.43,6.43,9.6,8.38,15.73,3.69,11.61,2.13,21.74-1,42Z"/>
    <path class="cls-16" d="M2150,768c.15,13.4-6.82,23.28-10,28-9.02,13.36-20.24,33.44-35,66-185.67,371.67-371.33,743.33-557,1115-8.76-5.04-17.52-10.09-26.28-15.13,204.98-409.14,403.51-821.88,608.36-1231.08,5.75,4.61,11.12,10.57,14.92,18.21,1.66,3.34,4.9,10.03,5,19Z"/>
    <path class="cls-4" d="M2150,768c.15,13.4-6.82,23.28-10,28-9.02,13.36-20.24,33.44-35,66-185.67,371.67-371.33,743.33-557,1115-8.76-5.04-17.52-10.09-26.28-15.13-13.24-7.62-26.48-15.24-39.72-22.87,334.34-702.95,558.22-1177.43,565-1202,.49-1.79,2.95-12.46,12-19,12.59-9.09,30.08-4.23,40-2,3.01.68,18.03,4.27,31.08,14.79,5.75,4.61,11.12,10.57,14.92,18.21,1.66,3.34,4.9,10.03,5,19Z"/>
    <path class="cls-31" d="M1588,2040c-28.16,50.21-26.14,47.13-28,50-8.75,13.48-20.71,31.01-36,51-15.64-2.41-34.62-6.3-55.72-12.79-16.93-5.2-35.22-12.07-54.28-21.21-37.97-18.2-66.82-39.56-87-57-.2-6.42-.03-15.87,2-27,3.39-18.59,9.97-30.98,23-55,7.92-14.61,3.86-5.07,28-44,7.13-11.5,10.93-17.89,19-22,11.97-6.09,24.93-2.88,32-1,5.98,1.59,108.03,29.48,156,82,3.01,3.3,6.88,7.86,9.45,13.82,1.2,2.76,2.12,5.81,2.55,9.18,1.5,11.75-3.73,21.04-11,34Z"/>
    <path class="cls-16" d="M1588,2040c-28.16,50.21-26.14,47.13-28,50-8.75,13.48-20.71,31.01-36,51-15.64-2.41-34.62-6.3-55.72-12.79,5.42-7.89,10.56-13.88,11.72-15.21,19.29-22.25,26.74-16.1,43-36,19.07-23.35,14.78-39.1,38-60,9.08-8.17,17.39-12.65,20-14,5.02-2.6,10.21-4.63,15.45-6.18,1.2,2.76,2.12,5.81,2.55,9.18,1.5,11.75-3.73,21.04-11,34Z"/>
    <path class="cls-5" d="M1588,2040c-28.16,50.21-26.14,47.13-28,50-8.75,13.48-20.71,31.01-36,51-15.64-2.41-34.62-6.3-55.72-12.79-16.93-5.2-35.22-12.07-54.28-21.21-37.97-18.2-66.82-39.56-87-57-.2-6.42-.03-15.87,2-27,3.39-18.59,9.97-30.98,23-55,7.92-14.61,3.86-5.07,28-44,7.13-11.5,10.93-17.89,19-22,11.97-6.09,24.93-2.88,32-1,5.98,1.59,108.03,29.48,156,82,3.01,3.3,6.88,7.86,9.45,13.82,1.2,2.76,2.12,5.81,2.55,9.18,1.5,11.75-3.73,21.04-11,34Z"/>
  </g>
  <g>
    <g>
      <path class="cls-14" d="M1785.5,1524.5c-9.2,13.32-27.98,14.45-37,15-11.72.71-24.47-3.68-49.5-12.5-18.81-6.63-28.29-10.04-32-15-4.7-6.28-2.98-9.62-6-47-.43-5.33-.8-9.41-1.06-12.78-.57-7.17-.68-11.16.06-17.22,1.02-8.32,2.41-18.65,9.5-28.5,3.28-4.56,7.86-8.04,17-15,17.12-13.03,17.73-10.19,26-18,8.17-7.71,11.07-13.79,22-21,2.03-1.34,4.44-2.78,7.4-3.51,1.12-.28,2.32-.46,3.6-.49,8.14-.2,13.57,5.54,14,6,3.32,3.61,4.22,7.69,5,12,2.69,14.86,4.04,22.29,3,30-2.48,18.49-14.05,30.68-21,38-11.01,11.6-23.36,18.59-33.76,22.84,7.28-1.6,16.01-2.59,25.76-1.84,9.57.73,20.79,1.58,31,9,17.87,12.97,28,42.63,16,60Z"/>
      <path class="cls-26" d="M1741.9,1348.99c-.02,8.19-.14,17.06-.4,26.51-.54,19.04-1.2,23.19-3,28-9.31,24.88-37.02,35.44-49,40-2.49.95-15.25,5.82-29.56,8.72-.57-7.17-.68-11.16.06-17.22,1.02-8.32,2.41-18.65,9.5-28.5,3.28-4.56,7.86-8.04,17-15,17.12-13.03,17.73-10.19,26-18,8.17-7.71,11.07-13.79,22-21,2.03-1.34,4.44-2.78,7.4-3.51Z"/>
      <path class="cls-8" d="M1785.5,1524.5c-9.2,13.32-27.98,14.45-37,15-11.72.71-24.47-3.68-49.5-12.5-18.81-6.63-28.29-10.04-32-15-4.7-6.28-2.98-9.62-6-47-.43-5.33-.8-9.41-1.06-12.78-.57-7.17-.68-11.16.06-17.22,1.02-8.32,2.41-18.65,9.5-28.5,3.28-4.56,7.86-8.04,17-15,17.12-13.03,17.73-10.19,26-18,8.17-7.71,11.07-13.79,22-21,2.03-1.34,4.44-2.78,7.4-3.51,1.12-.28,2.32-.46,3.6-.49,8.14-.2,13.57,5.54,14,6,3.32,3.61,4.22,7.69,5,12,2.69,14.86,4.04,22.29,3,30-2.48,18.49-14.05,30.68-21,38-11.01,11.6-23.36,18.59-33.76,22.84,7.28-1.6,16.01-2.59,25.76-1.84,9.57.73,20.79,1.58,31,9,17.87,12.97,28,42.63,16,60Z"/>
    </g>
    <path class="cls-24" d="M1845,1506c-2.65,10.32-1.68,9.29-5,24-2.79,12.34-5.76,25.48-9,34-9.83,25.82-36.02,45.57-62,53-6.81,1.95-22.55,6.24-42,2-8.59-1.87-28.05-6.12-40-23-4.9-6.93-8.1-15.86-10.67-31.78-.47-2.84-.91-5.9-1.33-9.22-3.11-24.23,2.23-28.98,5-31,4.06-2.95,10.14-2.42,14-1,6.26,2.3,7.18,1.76,15,8,6.32,5.04,14.06,14.05,16,12,1.59-1.68-4.93-6.29-8-10-4.92-5.95-5.24-5.61-11-11-6.81-6.37-7.88-14.91-8-16-.24-2.22-.98-11.64,5-18,3.97-4.23,6.47-6.38,17-12,8.59-4.59,8.85-2.85,13-3,3.77-.14,5.26,1.67,16,8,8.03,4.73,13.31,7.84,14,7,.85-1.04-5.07-8.21-12-14-7.73-6.46-11.22-6.6-13-11-2.53-6.23,1.48-13.31,3-16,7.18-12.68,21.24-16.95,28-19,5.39-1.64,26.49-7.68,49,3,1.96.93,5.96,2.87,10.59,6.22,5.35,3.87,11.55,9.6,16.41,17.78,2.43,4.09,6.11,10.28,7,19,.98,9.6-2.29,13.66-7,32Z"/>
    <path class="cls-30" d="M1845,1506c-2.65,10.32-1.68,9.29-5,24-2.79,12.34-5.76,25.48-9,34-9.83,25.82-36.02,45.57-62,53-6.81,1.95-22.55,6.24-42,2-8.59-1.87-28.05-6.12-40-23-4.9-6.93-8.1-15.86-10.67-31.78,8.82,2.09,17.8,5.98,24.67,11.78,6.82,5.75,7.41,9.88,15,14,16.71,9.07,36.96,1.6,44-1,27.1-10,41.39-32.07,47-41,16.52-26.3,18.99-53.2,21-78,1.09-13.49.96-24.23.59-32.78,5.35,3.87,11.55,9.6,16.41,17.78,2.43,4.09,6.11,10.28,7,19,.98,9.6-2.29,13.66-7,32Z"/>
    <path class="cls-8" d="M1845,1506c-2.65,10.32-1.68,9.29-5,24-2.79,12.34-5.76,25.48-9,34-9.83,25.82-36.02,45.57-62,53-6.81,1.95-22.55,6.24-42,2-8.59-1.87-28.05-6.12-40-23-4.9-6.93-8.1-15.86-10.67-31.78-.47-2.84-.91-5.9-1.33-9.22-3.11-24.23,2.23-28.98,5-31,4.06-2.95,10.14-2.42,14-1,6.26,2.3,7.18,1.76,15,8,6.32,5.04,14.06,14.05,16,12,1.59-1.68-4.93-6.29-8-10-4.92-5.95-5.24-5.61-11-11-6.81-6.37-7.88-14.91-8-16-.24-2.22-.98-11.64,5-18,3.97-4.23,6.47-6.38,17-12,8.59-4.59,8.85-2.85,13-3,3.77-.14,5.26,1.67,16,8,8.03,4.73,13.31,7.84,14,7,.85-1.04-5.07-8.21-12-14-7.73-6.46-11.22-6.6-13-11-2.53-6.23,1.48-13.31,3-16,7.18-12.68,21.24-16.95,28-19,5.39-1.64,26.49-7.68,49,3,1.96.93,5.96,2.87,10.59,6.22,5.35,3.87,11.55,9.6,16.41,17.78,2.43,4.09,6.11,10.28,7,19,.98,9.6-2.29,13.66-7,32Z"/>
    <path class="cls-24" d="M955,1551c-54,35-99.88,78.48-116,104-8.33,13.18-15.36,25.81-20,43-2.33,8.63-7.27,27.93-4.66,51.58,1.22,11.07,4.09,23.09,9.66,35.42,3.8,8.41,17.83,38.28,52,56,0,0,42.26,21.92,94,5,7.69-2.51,14.77-4.83,22-11,8.66-7.39,8.33-12.46,15-15,2.94-1.12,5.28-1,8.28-.25,4.17,1.05,9.62,3.33,19.72,5.25,11.09,2.1,22.95,4.35,27-1,3.6-4.75-1.6-12.04,2-15,3.43-2.82,8.69,3.32,17,2,8.97-1.43,15.01-10.5,18-15,5.65-8.49,3.99-12.12,9-16,6.15-4.75,11.89-1.8,18-4,13.08-4.7,17.74-29.32,17-44-1.54-30.71-28.41-51.35-54-71-26.53-20.38-74.61-57.31-135-48-17.53,2.7-31.26,8.56-40,13"/>
    <path class="cls-30" d="M1015.28,1819.75c-3-.75-5.34-.87-8.28.25-6.67,2.54-6.34,7.61-15,15-7.23,6.17-14.31,8.49-22,11-51.74,16.92-94-5-94-5-34.17-17.72-48.2-47.59-52-56-5.57-12.33-8.44-24.35-9.66-35.42,14.45,15.28,27.68,26.09,37.66,33.42,25.03,18.39,38.71,21.6,49,22,6.71.26,14.81-.83,31-3,19.1-2.56,23.25-4.47,26-6,6.2-3.44,8.2-6.57,15-8,2.15-.45,9.55-1.9,16,2,3.51,2.13,5.34,4.99,6,6,5.32,8.15,13.42,16.35,20.28,23.75Z"/>
    <path class="cls-10" d="M1108,1780s-5-29-16-33"/>
    <path class="cls-10" d="M1064,1809s-1-13-15-26"/>
    <path class="cls-10" d="M1007,1820s-7.67-19.01-16.34-19"/>
    <path class="cls-10" d="M949,1551c-60,37-93.88,78.48-110,104-8.33,13.18-15.36,25.81-20,43-2.33,8.63-7.27,27.93-4.66,51.58,1.22,11.07,4.09,23.09,9.66,35.42,3.8,8.41,17.83,38.28,52,56,0,0,42.26,21.92,94,5,7.69-2.51,14.77-4.83,22-11,8.66-7.39,8.33-12.46,15-15,2.94-1.12,5.28-1,8.28-.25,4.17,1.05,9.62,3.33,19.72,5.25,11.09,2.1,14,2,21-1,5.48-2.35,4.4-12.04,8-15,3.43-2.82,8.69,3.32,17,2,8.97-1.43,15.01-10.5,18-15,5.65-8.49,3.99-12.12,9-16,6.15-4.75,11.89-1.8,18-4,13.08-4.7,17.74-29.32,17-44-1.54-30.71-28.41-51.35-54-71-26.53-20.38-74.61-57.31-135-48-17.53,2.7-31.26,8.56-40,13"/>
  </g>
  <g>
    <path class="cls-24" d="M1644.5,1156.5c-1.64,41.3-17.21,69.85-38,108-10.88,19.95-46.32,81.19-120,140-46.95,37.47-86.66,55.79-137,79-20.5,9.45-140.05,63.53-294,83-36.83,4.66-62.76,5.7-79,6-43.62.79-91.38,1.66-143-13-33.62-9.55-104.93-29.8-153-97-5.96-8.33-11.09-16.73-15.52-25.08-10.2-19.21-16.68-38.17-20.82-55.41-4.22-17.5-6.03-33.22-6.89-45.62h0c-.44-6.2-.63-11.55-.77-15.89-.08-2.48-.12-4.93-.13-7.35-.11-17.69,1.47-34.01,3.95-48.67,4.11-24.35,10.71-44.12,16.18-57.98-28.94-29.22-75.74-84-107-166-29.71-77.95-32.43-146.54-31-187,35.46-11.97,95.78-27.3,171-22,65.95,4.65,117.63,23.34,150,38,13.2-11.52,31.29-25.95,54.25-40.52,18.76-11.91,40.77-23.91,65.99-34.49,5.3-2.23,10.74-4.39,16.33-6.47,9.1-3.4,18.58-6.59,28.43-9.52,10.9-3.24,21.55-5.94,31.9-8.18,6.71-1.46,13.28-2.72,19.72-3.8,24.95-4.24,47.76-5.89,67.56-6.17,11.52-.17,22.02.13,31.32.65,15.59-29.12,40.05-67.34,77.5-105.5,45.15-46,91.39-73.77,124-90,28.85,29.68,69.02,78.14,100,147,36.83,81.87,44.07,155.65,45,200,21.67,16.4,39.5,33.33,54.07,49.41,12.65,13.97,22.85,27.3,30.98,39.09,4.63,6.72,8.59,12.94,11.95,18.5,2.9,4.79,5.85,9.68,8.79,14.68,8.27,14.05,16.46,29.02,23.05,45.3,5.2,12.83,9.41,26.49,11.88,41.16,1.91,11.32,2.78,23.24,2.28,35.86Z"/>
    <path class="cls-32" d="M1468.5,875.5c-23.89-15.34-52.41-31.52-85.52-46.54-1.81-.82-3.64-1.64-5.48-2.46-40.83-18.09-78.69-30-111-38,4.64-16.98,10.19-35.15,16.88-54.26,5.8-16.59,12.46-33.89,20.12-51.74,15.75-36.71,32.71-68.74,49-96,23.83,26.8,56.28,69.58,81,129,26.99,64.85,33.63,122.74,35,160Z"/>
    <path class="cls-27" d="M1405.5,815.5c-1.26,6.61-11.1,10.8-22.52,13.46-1.81-.82-3.64-1.64-5.48-2.46-40.83-18.09-78.69-30-111-38,4.64-16.98,10.19-35.15,16.88-54.26,1.39,6.97,2.38,14.33,3.12,21.26,5.63-6.79,14.44-16.16,27-25,11.3-7.96,29.26-18.05,33-14,2.89,3.12-5.72,11.35-6,27-.13,7.23,1.57,13.16,3,17,3.81-2.3,12.15-6.59,23-6,2,.11,16.05.88,18,7,1.77,5.56-6.71,14.6-21,22,5,.42,15.08,1.98,25,9,1.8,1.27,18.84,13.33,17,23Z"/>
    <path class="cls-32" d="M769.5,969.5c-18.64,27.12-38.38,59.45-57,97-4.24,8.54-8.22,16.96-11.97,25.24-11.36,25.09-20.56,48.88-28.03,70.76-24.12-19.56-69.05-61.37-99-130-32.68-74.86-30.15-141.83-27-173,34.82,9.04,77.69,23.43,124,47,22.75,11.58,43.16,23.76,61.25,35.79,13.95,9.27,26.53,18.45,37.75,27.21Z"/>
    <path class="cls-27" d="M769.5,969.5c-18.64,27.12-38.38,59.45-57,97-4.24,8.54-8.22,16.96-11.97,25.24-7.09,2.2-13.16,4.16-18.03,5.76.22-5.66,1.12-13.35,4-22,2.35-7.06,5.35-12.75,8-17-4.27.96-10.95,1.95-19,1-6-.71-12.94-1.53-14-5-.77-2.54,2.02-5.19,14-17,10.38-10.23,12.41-12.31,12-15-.69-4.55-7.38-4.58-16-11-9.7-7.22-18.01-19.69-15-25,1.84-3.25,6.68-1.61,21-4,6.48-1.08,21.63-3.61,22-8,.27-3.19-7.56-3.79-13-12-2.31-3.49-5.53-10.38-3-14,2.79-3.99,10.83-1.54,20-1,12.25.72,20.23-2.35,28.25-5.21,13.95,9.27,26.53,18.45,37.75,27.21Z"/>
    <path class="cls-25" d="M1019.5,934.5c-10.36,8.72-56.38-26.9-86-57-15.92-16.17-28.99-32.67-39.75-48.52,18.76-11.91,40.77-23.91,65.99-34.49,7.78,15.17,16.07,31.55,24.76,49.01,34.43,69.2,40.67,86.23,35,91Z"/>
    <path class="cls-25" d="M1077.5,914.5c-13.45,6.86-63.5-66.54-72-79-11.44-16.78-21.19-32.79-29.43-47.48,9.1-3.4,18.58-6.59,28.43-9.52,10.9-3.24,21.55-5.94,31.9-8.18,8.83,16.83,17.49,35.91,25.1,57.18,2.76,7.71,28.55,80.6,16,87Z"/>
    <path class="cls-25" d="M1130.5,896.5c-4.58.97-11.99-4.21-50-80-9.19-18.33-17.34-35.15-24.38-49.98,24.95-4.24,47.76-5.89,67.56-6.17,6.28,14.11,11.62,30.2,14.82,48.15,6.77,38.02,4.07,85.45-8,88Z"/>
    <path class="cls-21" d="M1586.55,1001c-7.36,5.34-15.7,10.63-25.05,15.5-12.58,6.55-37.07,19.32-44,12-6.9-7.29,6.67-31.32,16-44,6.77-9.21,14.39-16.62,22.07-22.59,12.65,13.97,22.85,27.3,30.98,39.09Z"/>
    <path class="cls-21" d="M1630.34,1079.48c-4.89,2.25-10.17,4.31-15.84,6.02-13.43,4.05-42.99,10.44-48,1-4.81-9.05,15.2-28.52,27-40,4.62-4.5,9.24-8.59,13.79-12.32,8.27,14.05,16.46,29.02,23.05,45.3Z"/>
    <path class="cls-21" d="M709.5,1293.5c-.83,11.34-40.06,17.43-59,19-4.85.4-9.58.61-14.13.65-.11-17.69,1.47-34.01,3.95-48.67,7.09.78,14.52,2.07,22.18,4.02,15.21,3.86,47.76,14.49,47,25Z"/>
    <path class="cls-21" d="M658.5,1378.5c-4.9,1.38-9.68,2.54-14.34,3.51-4.22-17.5-6.03-33.22-6.89-45.62h0c7.02-.58,14.45-.91,22.23-.89,9.58.02,57.12.13,59,11,1.72,9.97-35.63,25.13-60,32Z"/>
    <path class="cls-29" d="M960.5,1002.5c7.52,7.38,2.89,24.72-4,35-11.69,17.45-37.91,26.5-47,18-8.12-7.59-2.87-29.46,9-42,11.74-12.4,33.45-19.39,42-11Z"/>
    <path class="cls-29" d="M1248.5,897.5c15.75,2.12,33.4,14.44,32,26-1.36,11.26-20.41,18.52-35,18-17.86-.63-37.9-13.21-37-25,.9-11.69,22.3-21.38,40-19Z"/>
    <path class="cls-26" d="M1644.5,1156.5c-1.64,41.3-17.21,69.85-38,108-10.88,19.95-46.32,81.19-120,140-46.95,37.47-86.66,55.79-137,79-20.5,9.45-140.05,63.53-294,83-36.83,4.66-62.76,5.7-79,6-43.62.79-91.38,1.66-143-13-33.62-9.55-104.93-29.8-153-97-5.96-8.33-11.09-16.73-15.52-25.08,119.17-22.87,162.35-62.24,177.52-97.92,5.97-14.03,17.57-50.96,46-101,34.49-60.71,54.82-72.2,67-77,23.59-9.3,33.56-.21,85,4,46.63,3.82,94.85,7.77,141-12,25.44-10.9,45.29-28.26,85-63,43.1-37.71,47.91-51.15,71-56,21.73-4.56,36.05,3.45,93,27,0,0,49.7,20.56,94,37,27.77,10.31,66.45,20.47,117.72,22.14,1.91,11.32,2.78,23.24,2.28,35.86Z"/>
    <path class="cls-17" d="M1262.5,1085.5c-1.16-5.92,2.89-11.28,5-14,16-20.6,24-30.9,33-37,22.12-14.99,48.01-20.17,56-21,3.69-.38,8.27-.33,14-3,5.69-2.65,8.71-6.22,11-5,2.07,1.1,2.02,5.3,2,7-.06,5.13-2.54,7.58-1,10,.68,1.07,1.75,1.5,3,2,.8.32,3.47,1.26,8,0,2.44-.68,5.21-1.93,9-5,7.18-5.81,8.69-10.59,11-10,2.2.56,2.8,5.4,3,7,.36,2.92-.23,4.02-1,10-.96,7.47-.44,9.04,0,10,.33.71,1.89,2.15,5,5,4.7,4.31,7.11,6.47,10,7,.95.17,1.88.33,3,0,2.91-.86,3.26-3.93,5-4,1.78-.07,3.37,3.07,4,5,.9,2.74.61,5.25,0,8-1.59,7.19-2.71,12.24-6,14-5.61,3-15.16-4.79-18-7-18.15-14.15-48.17-24.1-68-23-36.12,2-73.38,42.61-77,50-.26.53-1.23,2.69-3,3-2.97.52-7.09-4.33-8-9Z"/>
    <path class="cls-17" d="M1043.5,1155.5c-34.26-14.43-60-12-60-12-33.86,3.19-69.19,20.99-75,36-.69,1.78-2.8,8.26-8,10-3.81,1.28-8.55-.23-11-1-5.42-1.72-6.79-3.84-9-3-2.83,1.08-4.53,6.05-3,9,.64,1.23,1.72,1.88,8,4,8.12,2.74,9.58,2.76,10,4,.95,2.8-4.56,8.47-11,11-6.91,2.72-10.92.26-15,4-2.81,2.57-4.16,6.71-3,8,1.15,1.28,4.21-.87,11-1,3.39-.06,5.09-.1,6,1,1.52,1.82-.32,5.88-4,14-2.42,5.34-3.34,6.36-4,7-3.33,3.22-6.82,3.18-7,5-.18,1.75,2.89,3.38,6,5,5.56,2.89,9.48,4.93,13,4,6.18-1.64,8.44-11.76,9-14,5.03-20.08,28.3-52.58,52-67,30.74-18.7,71.77-12.52,79-10,1.68.59,5.79,1.39,14,3,4.48.88,6.42,1.18,8,0,2.74-2.05,2.8-7.38,1-11-1.83-3.68-5.44-5.34-7-6Z"/>
    <path class="cls-10" d="M1100.5,1223.5c90,49,78-62,78-62,0,0,59,87,95-3"/>
    <path class="cls-6" d="M1203.5,1114.5c-7.42-9.95-31.78-2.82-38-1-3.5,1.02-35.01,10.54-35,25,0,13.22,26.35,30.1,48,23,21.74-7.13,32.82-36.51,25-47Z"/>
    <path class="cls-2" d="M837.07,1303.07s-204.41,5.94-284.99,55.68"/>
    <path class="cls-2" d="M837.07,1350.28s-157.25,32.45-214.41,159.34"/>
    <path class="cls-2" d="M825.5,1394.5s-109.17,76.37-147.59,156.68"/>
    <path class="cls-2" d="M1478.5,1115.5s111.4-83.21,216.2-95.6"/>
    <path class="cls-2" d="M1522.91,1136.25s103.29-19.25,186.44,0"/>
    <path class="cls-2" d="M1530.5,1170.5s101.7-6.07,178.85,10.46"/>
    <path class="cls-7" d="M546.5,859.5c34.82,9.04,77.69,23.43,124,47,22.75,11.58,43.16,23.76,61.25,35.79,13.95,9.27,26.53,18.45,37.75,27.21-18.64,27.12-38.38,59.45-57,97-4.24,8.54-8.22,16.96-11.97,25.24-11.36,25.09-20.56,48.88-28.03,70.76"/>
    <path class="cls-7" d="M1468.5,875.5c-23.89-15.34-52.41-31.52-85.52-46.54-1.81-.82-3.64-1.64-5.48-2.46-40.83-18.09-78.69-30-111-38,4.64-16.98,10.19-35.15,16.88-54.26,5.8-16.59,12.46-33.89,20.12-51.74,15.75-36.71,32.71-68.74,49-96"/>
    <path class="cls-9" d="M1644.5,1156.5c-1.64,41.3-17.21,69.85-38,108-10.88,19.95-46.32,81.19-120,140-46.95,37.47-86.66,55.79-137,79-20.5,9.45-140.05,63.53-294,83-36.83,4.66-62.76,5.7-79,6-43.62.79-91.38,1.66-143-13-33.62-9.55-104.93-29.8-153-97-5.96-8.33-11.09-16.73-15.52-25.08-10.2-19.21-16.68-38.17-20.82-55.41-4.22-17.5-6.03-33.22-6.89-45.62h0c-.44-6.2-.63-11.55-.77-15.89-.08-2.48-.12-4.93-.13-7.35-.11-17.69,1.47-34.01,3.95-48.67,4.11-24.35,10.71-44.12,16.18-57.98-28.94-29.22-75.74-84-107-166-29.71-77.95-32.43-146.54-31-187,35.46-11.97,95.78-27.3,171-22,65.95,4.65,117.63,23.34,150,38,13.2-11.52,31.29-25.95,54.25-40.52,18.76-11.91,40.77-23.91,65.99-34.49,5.3-2.23,10.74-4.39,16.33-6.47,9.1-3.4,18.58-6.59,28.43-9.52,10.9-3.24,21.55-5.94,31.9-8.18,6.71-1.46,13.28-2.72,19.72-3.8,24.95-4.24,47.76-5.89,67.56-6.17,11.52-.17,22.02.13,31.32.65,15.59-29.12,40.05-67.34,77.5-105.5,45.15-46,91.39-73.77,124-90,28.85,29.68,69.02,78.14,100,147,36.83,81.87,44.07,155.65,45,200,21.67,16.4,39.5,33.33,54.07,49.41,12.65,13.97,22.85,27.3,30.98,39.09,4.63,6.72,8.59,12.94,11.95,18.5,2.9,4.79,5.85,9.68,8.79,14.68,8.27,14.05,16.46,29.02,23.05,45.3,5.2,12.83,9.41,26.49,11.88,41.16,1.91,11.32,2.78,23.24,2.28,35.86Z"/>
  </g>
  <g>
    <path class="cls-19" d="M1891.74,587.94l38.05,14.08c2.3.85,2.3,4.11,0,4.97l-38.05,14.08c-7.26,2.69-12.99,8.41-15.68,15.68l-14.08,38.05c-.85,2.3-4.11,2.3-4.97,0l-14.08-38.05c-2.69-7.26-8.41-12.99-15.68-15.68l-38.05-14.08c-2.3-.85-2.3-4.11,0-4.97l38.05-14.08c7.26-2.69,12.99-8.41,15.68-15.68l14.08-38.05c.85-2.3,4.11-2.3,4.97,0l14.08,38.05c2.69,7.26,8.41,12.99,15.68,15.68Z"/>
    <path class="cls-19" d="M420.87,1192.27l18.34,6.79c2.3.85,2.3,4.11,0,4.97l-18.34,6.79c-7.26,2.69-12.99,8.41-15.68,15.68l-6.79,18.34c-.85,2.3-4.11,2.3-4.97,0l-6.79-18.34c-2.69-7.26-8.41-12.99-15.68-15.68l-18.34-6.79c-2.3-.85-2.3-4.11,0-4.97l18.34-6.79c7.26-2.69,12.99-8.41,15.68-15.68l6.79-18.34c.85-2.3,4.11-2.3,4.97,0l6.79,18.34c2.69,7.26,8.41,12.99,15.68,15.68Z"/>
    <path class="cls-19" d="M2068.87,1585.27l18.34,6.79c2.3.85,2.3,4.11,0,4.97l-18.34,6.79c-7.26,2.69-12.99,8.41-15.68,15.68l-6.79,18.34c-.85,2.3-4.11,2.3-4.97,0l-6.79-18.34c-2.69-7.26-8.41-12.99-15.68-15.68l-18.34-6.79c-2.3-.85-2.3-4.11,0-4.97l18.34-6.79c7.26-2.69,12.99-8.41,15.68-15.68l6.79-18.34c.85-2.3,4.11-2.3,4.97,0l6.79,18.34c2.69,7.26,8.41,12.99,15.68,15.68Z"/>
    <path class="cls-19" d="M1794.56,727.59l1.28.47c2.3.85,2.3,4.11,0,4.97l-1.28.47c-7.26,2.69-12.99,8.41-15.68,15.68l-.47,1.28c-.85,2.3-4.11,2.3-4.97,0l-.47-1.28c-2.69-7.26-8.41-12.99-15.68-15.68l-1.28-.47c-2.3-.85-2.3-4.11,0-4.97l1.28-.47c7.26-2.69,12.99-8.41,15.68-15.68l.47-1.28c.85-2.3,4.11-2.3,4.97,0l.47,1.28c2.69,7.26,8.41,12.99,15.68,15.68Z"/>
    <path class="cls-19" d="M460.06,1300.09l2.63.97c2.3.85,2.3,4.11,0,4.97l-2.63.97c-7.26,2.69-12.99,8.41-15.68,15.68l-.97,2.63c-.85,2.3-4.11,2.3-4.97,0l-.97-2.63c-2.69-7.26-8.41-12.99-15.68-15.68l-2.63-.97c-2.3-.85-2.3-4.11,0-4.97l2.63-.97c7.26-2.69,12.99-8.41,15.68-15.68l.97-2.63c.85-2.3,4.11-2.3,4.97,0l.97,2.63c2.69,7.26,8.41,12.99,15.68,15.68Z"/>
    <path class="cls-19" d="M2007.61,1668.94h0c1.74.64,1.74,3.1,0,3.74h0c-5.47,2.02-9.79,6.34-11.81,11.81h0c-.64,1.74-3.1,1.74-3.74,0h0c-2.02-5.47-6.34-9.79-11.81-11.81h0c-1.74-.64-1.74-3.1,0-3.74h0c5.47-2.02,9.79-6.34,11.81-11.81h0c.64-1.74,3.1-1.74,3.74,0h0c2.02,5.47,6.34,9.79,11.81,11.81Z"/>
  </g>
  <g>
    <path class="cls-12" d="M1701.56,2426.35c13.77-7.95,12.93-22.01,5.58-34.74-4.8-8.31-10.76-18.04-20.37-12.49-2.86,1.65-3.15,3.55-6.78,5.65-6.24,3.6-17.14,3.31-25.09-10.46-5.85-10.13-5.44-25.61,14.83-37.31,29.36-16.95,57.47-5.46,77.42,29.09,22.95,39.75,14.23,78.04-22.93,99.49-32.48,18.75-70.89,17.02-99.99-33.38l-33.75-58.46c-8.1-14.03-12.39-16.06-20.79-30.61-10.05-17.41.61-30.14,13.6-37.64,10.13-5.85,25.57-6.1,35.02,10.26,5.25,9.09,4.5,16.8,9.15,24.85l41.25,71.45c10.05,17.41,21.93,20.59,32.85,14.29Z"/>
    <path class="cls-12" d="M1810.09,2340.14c9.3,16.11,17.99,19.75,23.54,29.37,7.35,12.73,10.35,26.93-9.13,38.18-17.93,10.35-27.71,1.8-35.81-12.23-4.95-8.57-15.31-28.92-23.71-43.47-13.8-23.9-20.06-18.55-27.56-31.54-4.05-7.02-6.37-18.84,10.77-28.74,14.81-8.55,27.55-4.48,33.58,4.17-1.88-13.46.97-24.12,18.38-34.17s38.09-3.63,49.19,15.6c9.9,17.15,9.12,33.19-4.91,41.29-7.79,4.5-16.28,4.2-20.48-3.07s-8.9-9.41-15.91-5.36c-8.57,4.95-7.23,13.88,2.07,29.98Z"/>
    <path class="cls-12" d="M1869.47,2229.99c11.43-6.6,20.64-3.25,26.94,7.66,8.1,14.03,3.61,17.66,13.96,35.59,8.55,14.81,22.6,20.55,35.59,13.05,15.33-8.85,13.77-23.54,4.77-39.13-6.15-10.65-11.26-12.9-15.68-10.35-2.86,1.65-3.71,3.18-7.08,5.13-7.27,4.2-17.39,5.88-26.39-9.71-8.1-14.03-4.33-27.29,13.08-37.34,24.68-14.25,54.39-3,72.39,28.18,24.45,42.35,13.87,81.02-19.65,100.37-38.71,22.35-73.86,10.08-95.16-26.81-16.8-29.1-21.5-55.83-2.79-66.63Z"/>
    <path class="cls-12" d="M2000.41,2154.39c11.43-6.6,20.64-3.25,26.94,7.66,8.1,14.03,3.61,17.66,13.96,35.59,8.55,14.81,22.6,20.55,35.59,13.05,15.33-8.85,13.77-23.54,4.77-39.13-6.15-10.65-11.26-12.9-15.68-10.35-2.86,1.65-3.71,3.18-7.08,5.13-7.27,4.2-17.39,5.88-26.39-9.71-8.1-14.03-4.33-27.29,13.08-37.34,24.68-14.25,54.39-3,72.39,28.18,24.45,42.35,13.87,81.02-19.65,100.37-38.71,22.35-73.86,10.08-95.16-26.81-16.8-29.1-21.5-55.83-2.79-66.63Z"/>
    <path class="cls-12" d="M2260.83,2090.64l13.2,22.86c8.96,14.92,9.8,28.98-5.01,37.53-20.01,11.55-28.56-3.26-33.21-11.31l-15-25.98c-8.7-15.07-18.41-31.29-35.82-21.24-14.81,8.55-6.85,24.74,2.15,40.33,4.35,7.53,13.88,16.24,19.43,25.85,7.35,12.73,5.03,25.5-8.74,33.45-20.52,11.85-29.27,2.7-37.37-11.33-4.95-8.57-15.57-28.77-23.97-43.32-16.8-29.1-17.62-20.31-24.97-33.04s2.72-24.09,12.33-29.64c7.79-4.5,19.56-3.32,28.93,2.7,2.47-12.51,7.45-23.7,24.08-33.3,17.93-10.35,28.91-8.72,41.45-1.41,1.71-16.23,10.51-28.59,26.1-37.59,42.35-24.45,63.38,1.17,80.33,30.53l14.85,25.72c3.86,6.08,9.6,7.62,15,16.98,6.3,10.91,4.07,20.86-8.66,28.21-24.68,14.25-33.37,1.6-42.07-13.47l-11.85-20.52c-9.3-16.11-19.19-30.84-31.92-23.49-10.65,6.15-8.86,24.86.74,41.49Z"/>
  </g>
</svg>