<?xml version="1.0" encoding="UTF-8"?>
<svg id="dials" xmlns="http://www.w3.org/2000/svg" xmlns:xlink="http://www.w3.org/1999/xlink" viewBox="0 0 2521 2911">
  <defs>
    <style>
      .cls-1 {
        fill: #7a5c6e;
      }

      .cls-1, .cls-2, .cls-3, .cls-4, .cls-5, .cls-6, .cls-7, .cls-8, .cls-9, .cls-10, .cls-11, .cls-12, .cls-13, .cls-14, .cls-15, .cls-16, .cls-17, .cls-18, .cls-19, .cls-20, .cls-21, .cls-22, .cls-23, .cls-24, .cls-25, .cls-26, .cls-27, .cls-28, .cls-29, .cls-30 {
        stroke-miterlimit: 10;
      }

      .cls-1, .cls-2, .cls-3, .cls-4, .cls-6, .cls-7, .cls-10, .cls-11, .cls-12, .cls-13, .cls-14, .cls-15, .cls-16, .cls-17, .cls-18, .cls-19, .cls-20, .cls-21, .cls-22, .cls-23, .cls-24, .cls-26, .cls-27, .cls-28, .cls-29, .cls-30 {
        stroke: #000;
      }

      .cls-1, .cls-7, .cls-12, .cls-16, .cls-25, .cls-28 {
        stroke-width: 10px;
      }

      .cls-31 {
        fill: #806d82;
      }

      .cls-32 {
        fill: #626264;
      }

      .cls-33 {
        fill: #ec6983;
      }

      .cls-2 {
        fill: #ec6479;
      }

      .cls-2, .cls-3 {
        stroke-width: 3px;
      }

      .cls-34, .cls-5 {
        fill: #6e4b65;
      }

      .cls-35 {
        fill: #ef9991;
      }

      .cls-3 {
        fill: #9664ec;
      }

      .cls-4 {
        fill: #fff;
      }

      .cls-4, .cls-6, .cls-10, .cls-11, .cls-13, .cls-14, .cls-15, .cls-22, .cls-23, .cls-24, .cls-29, .cls-30 {
        stroke-width: 5px;
      }

      .cls-5 {
        stroke: #b87da9;
        stroke-width: 15px;
      }

      .cls-6 {
        fill: #4d4d4d;
      }

      .cls-7 {
        fill: #de867a;
      }

      .cls-36 {
        fill: url(#linear-gradient);
      }

      .cls-8 {
        stroke-width: 11.33px;
      }

      .cls-8, .cls-9 {
        stroke: #f0f;
      }

      .cls-8, .cls-9, .cls-16, .cls-17, .cls-18, .cls-19, .cls-20, .cls-21, .cls-25, .cls-26, .cls-27, .cls-28 {
        fill: none;
      }

      .cls-9 {
        stroke-width: 10.88px;
      }

      .cls-10 {
        fill: #66526f;
      }

      .cls-11 {
        fill: #eaacb8;
      }

      .cls-37 {
        fill: #412f50;
      }

      .cls-12 {
        fill: #6a576e;
      }

      .cls-38 {
        fill: #504462;
      }

      .cls-39 {
        fill: #2a2835;
      }

      .cls-40 {
        fill: #c36262;
      }

      .cls-13 {
        fill: #9d88a2;
      }

      .cls-41 {
        fill: #e96a83;
      }

      .cls-42 {
        fill: #eba37c;
      }

      .cls-43 {
        fill: #2a2832;
      }

      .cls-14 {
        fill: #7acbf5;
      }

      .cls-44 {
        fill: #5b5a5f;
      }

      .cls-15 {
        fill: gray;
      }

      .cls-17 {
        stroke-width: 10.27px;
      }

      .cls-18 {
        stroke-width: 12px;
      }

      .cls-19 {
        stroke-width: 7px;
      }

      .cls-20 {
        stroke-width: 7.85px;
      }

      .cls-21 {
        stroke-width: 6px;
      }

      .cls-22 {
        fill: #76617a;
      }

      .cls-23 {
        fill: #372246;
      }

      .cls-45 {
        fill: #847382;
      }

      .cls-46 {
        fill: #2d2c31;
      }

      .cls-47 {
        fill: #463b46;
      }

      .cls-24 {
        fill: #5d4d61;
      }

      .cls-25 {
        stroke: #020308;
      }

      .cls-25, .cls-26, .cls-27, .cls-28 {
        stroke-linecap: round;
      }

      .cls-48 {
        fill: #353338;
      }

      .cls-26 {
        stroke-width: 8px;
      }

      .cls-27 {
        stroke-width: 7.5px;
      }

      .cls-49 {
        fill: #26242e;
      }

      .cls-50 {
        fill: #cbc9d3;
      }

      .cls-51 {
        fill: #5f5d60;
      }

      .cls-29 {
        fill: #a492ac;
      }

      .cls-30 {
        fill: #999;
      }

      .cls-52 {
        fill: #353336;
      }
    </style>
    <linearGradient id="linear-gradient" x1="1258.7" y1="2.36" x2="1258.7" y2="2911" gradientUnits="userSpaceOnUse">
      <stop offset="0" stop-color="#f9e1ab"/>
      <stop offset=".52" stop-color="#b55b75"/>
      <stop offset=".69" stop-color="#d55d7d"/>
    </linearGradient>
  </defs>
  <polygon class="cls-36" points="-.78 729.52 -.78 2183.84 1258.7 2911 2518.17 2183.84 2518.17 729.52 1258.7 2.36 -.78 729.52"/>
  <g>
    <path class="cls-52" d="M1585.1,2140c-.27.02-.55.04-.82.06-245.88,16.67-491.76,33.36-737.64,50.03-2.01.14-4.03.27-6.04.41,36.43-127.57,72.86-255.14,109.3-382.71,8.14-28.51,16.28-57.01,24.42-85.52,7.26-25.42,14.52-50.85,21.78-76.27,154.64-1.65,309.28-3.29,463.92-4.95,1.69,0,3.39-.03,5.08-.05.54,1.89,1.07,3.79,1.6,5.69,6.9,24.4,13.71,49.1,20.44,74.09,10.54,39.12,20.88,78.97,30.97,119.53,6.77,27.24,13.44,54.81,19.99,82.69,17.38,74.05,32.99,146.43,47,217Z"/>
    <path class="cls-39" d="M1585.1,2140c-.27.02-.55.04-.82.06-24.23-6.25-49.45-16.08-74.18-29.06-11.84-39.16-23.07-89.24-27-148-2.82-42.13-1.29-79.91,2-112,7.09-2.87,18.6-7.17,33.01-10.69,6.77,27.24,13.44,54.81,19.99,82.69,17.38,74.05,32.99,146.43,47,217Z"/>
    <path class="cls-39" d="M993.1,1870c-.14,30.6-1.35,63-4,97-4.66,59.64-12.99,114.2-23,163-44.89,31.23-86.31,53.58-119.46,60.09-2.01.14-4.03.27-6.04.41,36.43-127.57,72.86-255.14,109.3-382.71,15.91,17.36,30.59,39.95,43.2,62.21Z"/>
    <path class="cls-52" d="M835.47,1946.8c-47.49,34.97-94.98,69.94-142.46,104.91-1.39-.94-2.77-1.88-4.14-2.82-95.81-65.82-142.63-136.92-162.7-172.15-49.16-86.27-67.34-153.28-67.34-153.28-3.08-11.36-8.76-34.04-24.8-59.17-.01-.03-.03-.06-.06-.09-.65-1.03-1.33-2.07-2.02-3.11-9.78-14.64-29.84-44.67-64.97-57.31-22.08-7.94-46.62-11.47-46.62-11.47-6.54-.94-11.84-1.43-16.31-1.95-8.43-.98-13.93-2.07-19.28-6.53-12.02-10.02-12.39-27.91-12.58-36.57-.88-42.32,29.88-73.66,35-78.73,36.83-36.44,85.01-37.45,96.68-37.7,58.55-1.22,99.25,32.07,113.06,43.73,32.23,27.18,45.88,57.53,67.53,105.67,24.27,53.94,19.46,65.41,39.72,113.22,24.33,57.39,54.32,95.25,78.83,126.2,17.75,22.41,41.47,49.42,72.11,77.62,17.74,16.33,37.79,33.06,60.35,49.53Z"/>
    <path class="cls-51" d="M775.12,1897.27c-3.84,1.92-7.57,3.46-11.02,4.73-30.45-31.57-54.1-59.73-71-81-47.92-60.3-71.87-90.45-84-130-9.19-29.99-7.18-44.73-23-81-8.02-18.39-16.5-32.85-33-61-21.36-36.44-31.76-54.95-38-61-2.38-2.31-58.82-54.94-134-40-11.86,2.36-59.32,11.56-83,53-3.92,6.86-20.33,35.57-11,65,3.46,10.91,8.96,17.19,16.95,24.36-8.43-.98-13.93-2.07-19.28-6.53-12.02-10.02-12.39-27.91-12.58-36.57-.88-42.32,29.88-73.66,35-78.73,36.83-36.44,85.01-37.45,96.68-37.7,58.55-1.22,99.25,32.07,113.06,43.73,32.23,27.18,45.88,57.53,67.53,105.67,24.27,53.94,19.46,65.41,39.72,113.22,24.33,57.39,54.32,95.25,78.83,126.2,17.75,22.41,41.47,49.42,72.11,77.62Z"/>
    <path class="cls-46" d="M688.87,2048.89c-95.81-65.82-142.63-136.92-162.7-172.15-49.16-86.27-67.34-153.28-67.34-153.28-3.08-11.36-8.76-34.04-24.8-59.17,13.72,18.61,27.33,46.96,34.07,63.71,8.78,21.83,9.65,33.33,23,62,6.81,14.62,9.43,17.75,30,53,36.53,62.61,36.7,67.23,51,85,17.4,21.63,34.23,36.02,46,46,45.19,38.29,69.02,41.33,72,61,.68,4.47.18,9.17-1.23,13.89Z"/>
    <path class="cls-16" d="M835.47,1946.8c-47.49,34.97-94.98,69.94-142.46,104.91-1.39-.94-2.77-1.88-4.14-2.82-95.81-65.82-142.63-136.92-162.7-172.15-49.16-86.27-67.34-153.28-67.34-153.28-3.08-11.36-8.76-34.04-24.8-59.17-.01-.03-.03-.06-.06-.09-.65-1.03-1.33-2.07-2.02-3.11-9.78-14.64-29.84-44.67-64.97-57.31-22.08-7.94-46.62-11.47-46.62-11.47-6.54-.94-11.84-1.43-16.31-1.95-8.43-.98-13.93-2.07-19.28-6.53-12.02-10.02-12.39-27.91-12.58-36.57-.88-42.32,29.88-73.66,35-78.73,36.83-36.44,85.01-37.45,96.68-37.7,58.55-1.22,99.25,32.07,113.06,43.73,32.23,27.18,45.88,57.53,67.53,105.67,24.27,53.94,19.46,65.41,39.72,113.22,24.33,57.39,54.32,95.25,78.83,126.2,17.75,22.41,41.47,49.42,72.11,77.62,17.74,16.33,37.79,33.06,60.35,49.53Z"/>
    <path class="cls-39" d="M1487.14,1720.78c-61.24,20.55-145.28,40.65-246.04,42.22-108.68,1.68-199.95-18.77-266.78-40.73,7.26-25.42,14.52-50.85,21.78-76.27,154.64-1.65,309.28-3.29,463.92-4.95,2.24,1.85,4.47,3.73,6.68,5.64,6.9,24.4,13.71,49.1,20.44,74.09Z"/>
  </g>
  <g>
    <polygon class="cls-12" points="2507.1 2047 2507.1 2170.81 2388.83 2239.09 2268.24 2308.72 1766.32 2598.5 753.07 2598.5 316.44 2346.41 133.99 2241.07 118.6 2241.07 118.6 2232.19 16.1 2173.01 16.1 2047 2507.1 2047"/>
    <polygon class="cls-37" points="1671.06 2653.5 1309.93 2862 1209.47 2862 848.34 2653.5 1671.06 2653.5"/>
    <polygon class="cls-1" points="1766.32 2598.5 1671.06 2653.5 848.34 2653.5 753.07 2598.5 1766.32 2598.5"/>
    <polygon class="cls-22" points="1104.6 2097.5 1041.6 2520.5 1577.03 2520.5 1451.7 2097.5 1104.6 2097.5"/>
    <rect class="cls-10" x="1041.6" y="2520.5" width="535.43" height="52.44"/>
    <polyline class="cls-19" points="2268.24 2308.72 2208.04 2219.84 2090.96 2047"/>
    <polyline class="cls-19" points="316.44 2346.41 364.22 2250.36 465.38 2047"/>
    <polygon class="cls-29" points="2325.6 2107.5 2251.82 2107.5 2251.82 2154.48 2316.6 2242.5 2388.83 2239.09 2388.83 2202.9 2325.6 2107.5"/>
    <polyline class="cls-13" points="2388.83 2202.9 2323.81 2202.9 2323.81 2242.5 2323.81 2202.9 2251.82 2107.5"/>
    <polygon class="cls-23" points="269.6 2097.5 269.6 2134.5 238.81 2177.96 194.1 2241.07 118.6 2241.07 118.6 2196.5 160.89 2132.96 184.49 2097.5 269.6 2097.5"/>
    <polyline class="cls-23" points="269.6 2097.5 194.1 2199.7 194.1 2241.07 194.1 2199.7 118.6 2199.7"/>
    <g>
      <path class="cls-38" d="M995.6,2219c0,35.62-47.04,67.04-118.65,85.66l-59.64-74.41c9.4-6.23,14.79-13.49,14.79-21.25,0-23.2-48.24-42-107.75-42s-107.75,18.8-107.75,42,48.24,42,107.75,42c2.35,0,4.69-.03,7-.09v71.56c-2.08.02-4.16.03-6.25.03-149.39,0-270.5-46.34-270.5-103.5s121.11-103.5,270.5-103.5,270.5,46.34,270.5,103.5Z"/>
      <path class="cls-50" d="M850.62,2433.67c-16.02,3.66-32.72,6.64-49.99,8.89l-13.01-89.3c15.5-1.55,30.5-3.65,44.9-6.25l18.1,86.66Z"/>
      <path class="cls-50" d="M587.82,2342.15l-24.28,82.89c-16.84-5.11-32.7-11.01-47.4-17.61l26.8-78.04c13.93,4.83,28.95,9.11,44.88,12.76Z"/>
      <path class="cls-31" d="M1041.6,2281.25c0,14.24-3.43,28.06-9.88,41.25-10.48,21.47-28.97,41.26-53.71,58.47-17.13,11.93-37.27,22.61-59.83,31.74-20.64,8.37-43.31,15.43-67.56,20.96l-18.1-86.66c-14.4,2.6-29.4,4.7-44.9,6.25l13.01,89.3c-24.74,3.23-50.63,4.94-77.28,4.94-14.43,0-28.63-.5-42.55-1.48-42.28-2.94-81.93-10.23-117.26-20.97h0s24.28-82.9,24.28-82.9c-15.93-3.65-30.95-7.93-44.88-12.76l-26.8,78.04c-21.55-9.66-40.59-20.8-56.55-33.12-14.44-11.15-26.36-23.26-35.33-36.11-8.65-12.4-14.56-25.5-17.34-39.08-1.2-5.87-1.82-11.83-1.82-17.87,0-36.04,21.96-69.41,59.27-96.64,6.86-5.01,14.24-9.82,22.11-14.39,40.9-23.8,94.77-41.4,155.8-49.78.03,0,.06,0,.09,0,25.85-3.54,52.99-5.43,80.98-5.43,19.2,0,38.01.89,56.27,2.6h.06c.13,0,.26.02.39.04,75.1,7.05,141.05,27.87,187.93,57.28,2.6,1.62,5.14,3.28,7.61,4.96.01.01.02.02.02.02,41.37,28.05,65.97,63.2,65.97,101.35Z"/>
      <path class="cls-17" d="M1006.1,2235.5c0,14.75-6.2,28.88-17.54,41.95h0c-9.91,11.43-23.76,22.05-40.84,31.55-16.59,9.23-36.24,17.42-58.3,24.28h-.01c-17.55,5.46-36.61,10.09-56.89,13.73-14.4,2.6-29.4,4.7-44.9,6.25-21.03,2.12-42.97,3.24-65.52,3.24-48.57,0-94.3-5.19-134.28-14.35-15.93-3.65-30.95-7.93-44.88-12.76-17.64-6.12-33.52-13.12-47.27-20.85-12.94-7.26-23.99-15.17-32.84-23.59-6.72-6.38-12.18-13.06-16.24-19.97-5.55-9.43-8.49-19.31-8.49-29.48,0-18.18,9.41-35.42,26.27-50.89,45.1-41.4,143.55-70.11,257.73-70.11,38.74,0,75.68,3.3,109.32,9.3.2.03.39.07.58.1,57.34,10.25,105.1,28.3,136,51.02,5.42,3.99,10.33,8.12,14.67,12.38h.01c15.06,14.77,23.42,31.06,23.42,48.2Z"/>
      <line class="cls-21" x1="1006.1" y1="2251" x2="1041.6" y2="2281.25"/>
      <path class="cls-45" d="M1006.1,2235.5c0,14.75-6.2,28.88-17.54,41.95h0c-9.91,11.43-23.76,22.05-40.84,31.55-16.59,9.23-36.24,17.42-58.3,24.28h-.01c-17.55,5.46-36.61,10.09-56.89,13.73-14.4,2.6-29.4,4.7-44.9,6.25-21.03,2.12-42.97,3.24-65.52,3.24-48.57,0-94.3-5.19-134.28-14.35-15.93-3.65-30.95-7.93-44.88-12.76-17.64-6.12-33.52-13.12-47.27-20.85-12.94-7.26-23.99-15.17-32.84-23.59-6.72-6.38-12.18-13.06-16.24-19.97-5.55-9.43-8.49-19.31-8.49-29.48,0-18.18,9.41-35.42,26.27-50.89,45.1-41.4,143.55-70.11,257.73-70.11,38.74,0,75.68,3.3,109.32,9.3-32.63-5.34-68.57-8.3-106.32-8.3-149.39,0-270.5,46.34-270.5,103.5s121.11,103.5,270.5,103.5c2.09,0,4.17,0,6.25-.03,53.91-.46,103.92-6.96,145.6-17.81,71.61-18.62,118.65-50.04,118.65-85.66,0-11.05-4.53-21.7-12.92-31.69,15.06,14.76,23.42,31.05,23.42,48.19Z"/>
      <line class="cls-21" x1="988.56" y1="2277.45" x2="1031.72" y2="2322.5"/>
      <line class="cls-21" x1="947.72" y1="2309" x2="978.01" y2="2380.97"/>
      <line class="cls-21" x1="889.41" y1="2333.27" x2="918.18" y2="2412.71"/>
      <line class="cls-21" x1="688.7" y1="2356.5" x2="680.8" y2="2446.02"/>
      <line class="cls-9" x1="563.54" y1="2425.05" x2="563.54" y2="2425.04"/>
      <line class="cls-9" x1="587.82" y1="2342.15" x2="587.82" y2="2342.14"/>
      <path class="cls-50" d="M876.95,2304.66c-41.68,10.85-91.69,17.35-145.6,17.81v-71.56c36.67-.91,68.35-8.98,85.96-20.66l59.64,74.41Z"/>
      <line class="cls-9" x1="516.14" y1="2407.44" x2="516.14" y2="2407.43"/>
      <path class="cls-2" d="M832.1,2209c0,7.76-5.39,15.02-14.79,21.25-17.61,11.68-49.29,19.75-85.96,20.66-2.31.06-4.65.09-7,.09-59.51,0-107.75-18.8-107.75-42s48.24-42,107.75-42,107.75,18.8,107.75,42Z"/>
      <line class="cls-9" x1="542.94" y1="2329.39" x2="542.94" y2="2329.38"/>
      <line class="cls-21" x1="495.67" y1="2308.54" x2="459.59" y2="2374.31"/>
      <line class="cls-21" x1="462.83" y1="2284.95" x2="424.26" y2="2338.2"/>
      <line class="cls-21" x1="446.59" y1="2264.98" x2="406.92" y2="2299.12"/>
      <line class="cls-8" x1="731.35" y1="2322.5" x2="731.35" y2="2322.47"/>
      <ellipse class="cls-20" cx="723.35" cy="2281.25" rx="318.25" ry="166.25"/>
      <path class="cls-21" d="M995.6,2219c0,35.62-47.04,67.04-118.65,85.66-41.68,10.85-91.69,17.35-145.6,17.81-2.08.02-4.16.03-6.25.03-149.39,0-270.5-46.34-270.5-103.5s121.11-103.5,270.5-103.5c37.75,0,73.69,2.96,106.32,8.3.19.03.39.06.58.1,71.27,11.74,126.71,34.87,150.67,63.4h.01c8.39,10,12.92,20.65,12.92,31.7Z"/>
      <path class="cls-21" d="M995.6,2219c0,35.62-47.04,67.04-118.65,85.66"/>
    </g>
    <g>
      <path class="cls-38" d="M2138.13,2214.56c0,35.62-47.04,67.04-118.65,85.66l-59.64-74.41c9.4-6.23,14.79-13.49,14.79-21.25,0-23.2-48.24-42-107.75-42s-107.75,18.8-107.75,42,48.24,42,107.75,42c2.35,0,4.69-.03,7-.09v71.56c-2.08.02-4.16.03-6.25.03-149.39,0-270.5-46.34-270.5-103.5s121.11-103.5,270.5-103.5,270.5,46.34,270.5,103.5Z"/>
      <path class="cls-50" d="M1993.15,2429.23c-16.02,3.66-32.72,6.64-49.99,8.89l-13.01-89.3c15.5-1.55,30.5-3.65,44.9-6.25l18.1,86.66Z"/>
      <path class="cls-50" d="M1730.35,2337.71l-24.28,82.89c-16.84-5.11-32.7-11.01-47.4-17.61l26.8-78.04c13.93,4.83,28.95,9.11,44.88,12.76Z"/>
      <path class="cls-31" d="M2184.13,2276.81c0,14.24-3.43,28.06-9.88,41.25-10.48,21.47-28.97,41.26-53.71,58.47-17.13,11.93-37.27,22.61-59.83,31.74-20.64,8.37-43.31,15.43-67.56,20.96l-18.1-86.66c-14.4,2.6-29.4,4.7-44.9,6.25l13.01,89.3c-24.74,3.23-50.63,4.94-77.28,4.94-14.43,0-28.63-.5-42.55-1.48-42.28-2.94-81.93-10.23-117.26-20.97h0s24.28-82.9,24.28-82.9c-15.93-3.65-30.95-7.93-44.88-12.76l-26.8,78.04c-21.55-9.66-40.59-20.8-56.55-33.12-14.44-11.15-26.36-23.26-35.33-36.11-8.65-12.4-14.56-25.5-17.34-39.08-1.2-5.87-1.82-11.83-1.82-17.87,0-36.04,21.96-69.41,59.27-96.64,6.86-5.01,14.24-9.82,22.11-14.39,40.9-23.8,94.77-41.4,155.8-49.78.03,0,.06,0,.09,0,25.85-3.54,52.99-5.43,80.98-5.43,19.2,0,38.01.89,56.27,2.6h.06c.13,0,.26.02.39.04,75.1,7.05,141.05,27.87,187.93,57.28,2.6,1.62,5.14,3.28,7.61,4.96.01.01.02.02.02.02,41.37,28.05,65.97,63.2,65.97,101.35Z"/>
      <path class="cls-17" d="M2148.63,2231.06c0,14.75-6.2,28.88-17.54,41.95h0c-9.91,11.43-23.76,22.05-40.84,31.55-16.59,9.23-36.24,17.42-58.3,24.28h-.01c-17.55,5.46-36.61,10.09-56.89,13.73-14.4,2.6-29.4,4.7-44.9,6.25-21.03,2.12-42.97,3.24-65.52,3.24-48.57,0-94.3-5.19-134.28-14.35-15.93-3.65-30.95-7.93-44.88-12.76-17.64-6.12-33.52-13.12-47.27-20.85-12.94-7.26-23.99-15.17-32.84-23.59-6.72-6.38-12.18-13.06-16.24-19.97-5.55-9.43-8.49-19.31-8.49-29.48,0-18.18,9.41-35.42,26.27-50.89,45.1-41.4,143.55-70.11,257.73-70.11,38.74,0,75.68,3.3,109.32,9.3.2.03.39.07.58.1,57.34,10.25,105.1,28.3,136,51.02,5.42,3.99,10.33,8.12,14.67,12.38h.01c15.06,14.77,23.42,31.06,23.42,48.2Z"/>
      <line class="cls-21" x1="2148.63" y1="2246.56" x2="2184.13" y2="2276.81"/>
      <path class="cls-45" d="M2148.63,2231.06c0,14.75-6.2,28.88-17.54,41.95h0c-9.91,11.43-23.76,22.05-40.84,31.55-16.59,9.23-36.24,17.42-58.3,24.28h-.01c-17.55,5.46-36.61,10.09-56.89,13.73-14.4,2.6-29.4,4.7-44.9,6.25-21.03,2.12-42.97,3.24-65.52,3.24-48.57,0-94.3-5.19-134.28-14.35-15.93-3.65-30.95-7.93-44.88-12.76-17.64-6.12-33.52-13.12-47.27-20.85-12.94-7.26-23.99-15.17-32.84-23.59-6.72-6.38-12.18-13.06-16.24-19.97-5.55-9.43-8.49-19.31-8.49-29.48,0-18.18,9.41-35.42,26.27-50.89,45.1-41.4,143.55-70.11,257.73-70.11,38.74,0,75.68,3.3,109.32,9.3-32.63-5.34-68.57-8.3-106.32-8.3-149.39,0-270.5,46.34-270.5,103.5s121.11,103.5,270.5,103.5c2.09,0,4.17,0,6.25-.03,53.91-.46,103.92-6.96,145.6-17.81,71.61-18.62,118.65-50.04,118.65-85.66,0-11.05-4.53-21.7-12.92-31.69,15.06,14.76,23.42,31.05,23.42,48.19Z"/>
      <line class="cls-21" x1="2131.1" y1="2273.01" x2="2174.26" y2="2318.06"/>
      <line class="cls-21" x1="2090.25" y1="2304.56" x2="2120.54" y2="2376.53"/>
      <line class="cls-21" x1="2031.94" y1="2328.84" x2="2060.72" y2="2408.27"/>
      <line class="cls-21" x1="1831.24" y1="2352.06" x2="1823.34" y2="2441.58"/>
      <line class="cls-9" x1="1706.07" y1="2420.61" x2="1706.07" y2="2420.6"/>
      <line class="cls-9" x1="1730.35" y1="2337.71" x2="1730.35" y2="2337.7"/>
      <path class="cls-50" d="M2019.48,2300.22c-41.68,10.85-91.69,17.35-145.6,17.81v-71.56c36.67-.91,68.35-8.98,85.96-20.66l59.64,74.41Z"/>
      <line class="cls-9" x1="1658.67" y1="2403" x2="1658.67" y2="2402.99"/>
      <path class="cls-3" d="M1974.63,2204.56c0,7.76-5.39,15.02-14.79,21.25-17.61,11.68-49.29,19.75-85.96,20.66-2.31.06-4.65.09-7,.09-59.51,0-107.75-18.8-107.75-42s48.24-42,107.75-42,107.75,18.8,107.75,42Z"/>
      <line class="cls-9" x1="1685.47" y1="2324.95" x2="1685.47" y2="2324.94"/>
      <line class="cls-21" x1="1638.2" y1="2304.1" x2="1602.12" y2="2369.87"/>
      <line class="cls-21" x1="1605.36" y1="2280.51" x2="1566.8" y2="2333.76"/>
      <line class="cls-21" x1="1589.13" y1="2260.54" x2="1549.45" y2="2294.68"/>
      <line class="cls-8" x1="1873.88" y1="2318.06" x2="1873.88" y2="2318.03"/>
      <ellipse class="cls-20" cx="1865.88" cy="2276.81" rx="318.25" ry="166.25"/>
      <path class="cls-21" d="M2138.13,2214.56c0,35.62-47.04,67.04-118.65,85.66-41.68,10.85-91.69,17.35-145.6,17.81-2.08.02-4.16.03-6.25.03-149.39,0-270.5-46.34-270.5-103.5s121.11-103.5,270.5-103.5c37.75,0,73.69,2.96,106.32,8.3.19.03.39.06.58.1,71.27,11.74,126.71,34.87,150.67,63.4h.01c8.39,10,12.92,20.65,12.92,31.7Z"/>
      <path class="cls-21" d="M2138.13,2214.56c0,35.62-47.04,67.04-118.65,85.66"/>
    </g>
    <ellipse class="cls-24" cx="1166.1" cy="2194" rx="36.5" ry="21.5"/>
    <polyline class="cls-24" points="1202.6 2194 1202.6 2157 1129.6 2157 1129.6 2194"/>
    <ellipse class="cls-14" cx="1166.1" cy="2157" rx="36.5" ry="21.5"/>
    <ellipse class="cls-24" cx="1286.75" cy="2196.29" rx="36.5" ry="21.5"/>
    <polyline class="cls-24" points="1323.25 2196.29 1323.25 2159.29 1250.25 2159.29 1250.25 2196.29"/>
    <ellipse class="cls-11" cx="1286.75" cy="2159.29" rx="36.5" ry="21.5"/>
    <ellipse class="cls-24" cx="1412.64" cy="2196.59" rx="36.5" ry="21.5"/>
    <polyline class="cls-24" points="1449.14 2196.59 1449.14 2159.59 1376.14 2159.59 1376.14 2196.59"/>
    <ellipse class="cls-15" cx="1412.64" cy="2159.59" rx="36.5" ry="21.5"/>
    <ellipse class="cls-24" cx="1293.73" cy="2324.75" rx="41.06" ry="24.19"/>
    <polyline class="cls-24" points="1334.79 2324.75 1334.79 2283.13 1252.66 2283.13 1252.66 2324.75"/>
    <ellipse class="cls-4" cx="1293.73" cy="2283.13" rx="41.06" ry="24.19"/>
    <ellipse class="cls-24" cx="1429.03" cy="2324.78" rx="41.06" ry="24.19"/>
    <polyline class="cls-24" points="1470.09 2324.78 1470.09 2283.15 1387.97 2283.15 1387.97 2324.78"/>
    <ellipse class="cls-30" cx="1429.03" cy="2283.15" rx="41.06" ry="24.19"/>
    <ellipse class="cls-24" cx="1457.54" cy="2451.66" rx="45.62" ry="26.88"/>
    <polyline class="cls-24" points="1503.17 2451.66 1503.17 2405.41 1411.92 2405.41 1411.92 2451.66"/>
    <ellipse class="cls-14" cx="1457.54" cy="2405.41" rx="45.62" ry="26.88"/>
    <ellipse class="cls-24" cx="1306.26" cy="2454.49" rx="45.62" ry="26.88"/>
    <polyline class="cls-24" points="1351.88 2454.49 1351.88 2408.24 1260.63 2408.24 1260.63 2454.49"/>
    <ellipse class="cls-11" cx="1306.26" cy="2408.24" rx="45.62" ry="26.88"/>
    <ellipse class="cls-24" cx="1157.51" cy="2324.81" rx="41.06" ry="24.19"/>
    <polyline class="cls-24" points="1198.57 2324.81 1198.57 2283.19 1116.45 2283.19 1116.45 2324.81"/>
    <ellipse class="cls-6" cx="1157.51" cy="2283.19" rx="41.06" ry="24.19"/>
    <ellipse class="cls-24" cx="1150.67" cy="2457.95" rx="45.62" ry="26.88"/>
    <polyline class="cls-24" points="1196.29 2457.95 1196.29 2411.7 1105.04 2411.7 1105.04 2457.95"/>
    <ellipse class="cls-15" cx="1150.67" cy="2411.7" rx="45.62" ry="26.88"/>
  </g>
  <g>
    <path class="cls-48" d="M1479.1,1666c5.43,5.23,12.51,11.86,21.12,19.32,5.65,4.92,11.96,10.19,18.88,15.68,31.12,24.68,55.71,38.67,101,64,96.86,54.18,100.37,55.07,128,72,40.77,24.99,61.16,37.48,83,55,41.51,33.29,107.39,96.21,121,113,1.28,1.58,7,8.98,17,16,4.83,3.39,8.7,5.33,10,6,6.01,3.12,14.27,8.97,22.1,16.3,5.94,5.57,11.62,11.98,15.9,18.7,15.21,23.92,15.16,55.86,5,80-6.8,16.16-17.03,26.18-25,34-9.51,9.33-16.35,13.08-23,15-4.53,1.31-10.41,3.01-17,1-5.35-1.63-6.27-4.2-10-4-5.2.28-7.3,5.52-14,12-5.66,5.47-10.94,8.3-16,11-11.89,6.36-22.94,7.52-28,8-6.88.66-22.33,1.93-39-6-7.07-3.36-16.76-7.98-23-19-5.79-10.24-5.45-20.43-5-25-4.51,2.03-10.97,4.47-19,6-4.31.82-24.12,4.26-47-4-21.33-7.7-33.59-21.32-45-34-7.2-8-16.1-18.06-23-34-7.96-18.41-9.09-35.05-9-45-30.32-15.53-77.45-44.68-120-96-29.18-35.19-47.04-69.76-58-96"/>
    <path class="cls-48" d="M993.06,1685.65c-42.87,28.55-92.9,62.16-148.96,100.35-20.26,13.8-54.25,36.43-93,73-39.75,37.51-62.29,58.78-77,96-4.88,12.35-9.68,24.49-13.16,36.19-4.75,15.93-7.06,31.06-3.84,44.81,1.25,5.35,5.51,19.72,0,35-1.53,4.25-2.71,5.48-8,16-6.65,13.22-11.15,23.91-12,26-7.24,17.87-6.51,46.35,7,70,4.14,7.24,17.31,27.76,42,36,7.48,2.5,24.68,8.24,36,0,7.08-5.15,7.94-12.93,13-13,5.4-.08,7.98,8.73,15,18,9.13,12.05,21.33,19.02,29,22,24.27,9.44,48.83-3.26,58-8,10.91-5.64,23.94-12.38,27-25,1.93-7.96-.54-16.5,3-18,2.41-1.02,5.02,2.32,10,5,7.36,3.96,14.46,3.52,23,3,24.8-1.51,45.87-19.98,47-21,15.87-14.23,22.03-30.44,27-44,15.85-43.25,9.34-82.36,6-101-2.78-15.56-8.6-38.75-22-65,17.67-35.67,35.33-71.33,53-107"/>
    <path class="cls-43" d="M1679.1,2058c-30.32-15.53-77.45-44.68-120-96-27.66-33.35-45.14-66.15-56.22-91.82,3.41.94,6.81,1.88,10.22,2.82,6.45,7.32,16.59,18.84,29,33,51.41,58.66,58.98,68.13,74,80,13.14,10.39,32.61,23.1,60.27,33.09l2.73,38.91Z"/>
    <path class="cls-43" d="M1008.02,1871.21c-16.64,33.6-33.28,67.19-49.92,100.79,0,0-7.78-11.66-22.67-26.65,20.78-22.01,30.7-36.96,35.67-47.35,1.42-2.97,5.22-11.38,14-18,7.15-5.39,15.28-7.85,22.92-8.79Z"/>
    <line class="cls-26" x1="1679.1" y1="2058" x2="1675.1" y2="2001"/>
    <path class="cls-26" d="M958.1,1972s-26-39-74-66"/>
    <path class="cls-32" d="M2001.2,2043.3c-22.11-14.32-48.39-33.08-78.1-54.3-13.28-9.48-12.53-9.45-58-43-56.16-41.44-84.24-62.16-96-70-59.52-39.68-75.24-40.73-144-86-22.69-14.94-28.64-19.87-49-32-35.63-21.24-45.74-23.03-57-36-8.62-9.92-15.34-23.44-18.88-36.68,5.65,4.92,11.96,10.19,18.88,15.68,31.12,24.68,55.71,38.67,101,64,96.86,54.18,100.37,55.07,128,72,40.77,24.99,61.16,37.48,83,55,41.51,33.29,107.39,96.21,121,113,1.28,1.58,7,8.98,17,16,4.83,3.39,8.7,5.33,10,6,6.01,3.12,14.27,8.97,22.1,16.3Z"/>
    <path class="cls-26" d="M1822.1,2169s24-56-17-101"/>
    <path class="cls-26" d="M1947.1,2188s41-59-3-118"/>
    <path class="cls-26" d="M867.1,2195s-23-62,2-107"/>
    <path class="cls-26" d="M735.1,2206s-22-67,16-125"/>
    <path class="cls-32" d="M993.06,1685.65c-9.03,22.98-20.85,38.51-31.96,49.35-10.49,10.24-14.25,10.35-62,40-37.23,23.12-64.01,39.75-88,58-8.96,6.82-30.6,23.81-78,75-20.31,21.94-44.91,49.68-72.16,83.19,3.48-11.7,8.28-23.84,13.16-36.19,14.71-37.22,37.25-58.49,77-96,38.75-36.57,72.74-59.2,93-73,56.06-38.19,106.09-71.8,148.96-100.35Z"/>
    <path class="cls-28" d="M1021.1,1667c-8.97,5.95-18.32,12.16-28.04,18.65-42.87,28.55-92.9,62.16-148.96,100.35-20.26,13.8-54.25,36.43-93,73-39.75,37.51-62.29,58.78-77,96-4.88,12.35-9.68,24.49-13.16,36.19-4.75,15.93-7.06,31.06-3.84,44.81,1.25,5.35,5.51,19.72,0,35-1.53,4.25-2.71,5.48-8,16-6.65,13.22-11.15,23.91-12,26-7.24,17.87-6.51,46.35,7,70,4.14,7.24,17.31,27.76,42,36,7.48,2.5,24.68,8.24,36,0,7.08-5.15,7.94-12.93,13-13,5.4-.08,7.98,8.73,15,18,9.13,12.05,21.33,19.02,29,22,24.27,9.44,48.83-3.26,58-8,10.91-5.64,23.94-12.38,27-25,1.93-7.96-.54-16.5,3-18,2.41-1.02,5.02,2.32,10,5,7.36,3.96,14.46,3.52,23,3,24.8-1.51,45.87-19.98,47-21,15.87-14.23,22.03-30.44,27-44,15.85-43.25,9.34-82.36,6-101-2.78-15.56-8.6-38.75-22-65,17.67-35.67,35.33-71.33,53-107"/>
    <path class="cls-28" d="M1479.1,1666c5.43,5.23,12.51,11.86,21.12,19.32,5.65,4.92,11.96,10.19,18.88,15.68,31.12,24.68,55.71,38.67,101,64,96.86,54.18,100.37,55.07,128,72,40.77,24.99,61.16,37.48,83,55,41.51,33.29,107.39,96.21,121,113,1.28,1.58,7,8.98,17,16,4.83,3.39,8.7,5.33,10,6,6.01,3.12,14.27,8.97,22.1,16.3,5.94,5.57,11.62,11.98,15.9,18.7,15.21,23.92,15.16,55.86,5,80-6.8,16.16-17.03,26.18-25,34-9.51,9.33-16.35,13.08-23,15-4.53,1.31-10.41,3.01-17,1-5.35-1.63-6.27-4.2-10-4-5.2.28-7.3,5.52-14,12-5.66,5.47-10.94,8.3-16,11-11.89,6.36-22.94,7.52-28,8-6.88.66-22.33,1.93-39-6-7.07-3.36-16.76-7.98-23-19-5.79-10.24-5.45-20.43-5-25-4.51,2.03-10.97,4.47-19,6-4.31.82-24.12,4.26-47-4-21.33-7.7-33.59-21.32-45-34-7.2-8-16.1-18.06-23-34-7.96-18.41-9.09-35.05-9-45-30.32-15.53-77.45-44.68-120-96-29.18-35.19-47.04-69.76-58-96"/>
  </g>
  <g>
    <path class="cls-48" d="M1790.1,1428c-4.12,17.2-9.57,33.4-15.68,48.34-25.43,62.23-62.32,102.66-62.32,102.66-48.28,52.9-101.48,72.48-173,103-30.38,12.96-140.27,57.5-292,61-121.62,2.81-212.12-22.09-236-29-73.99-21.42-173.01-50.08-254-139-21.98-24.14-62.11-68.2-78.82-120.06h0c-6.66-20.67-9.59-42.57-6.18-64.94,3.01-19.7,9.62-27.48,30-97,9.52-32.49,18.34-64.34,26.5-95.5-22.74-52.97-47.41-125.85-59-215-14.13-108.63-3.66-201.53,10.04-268.18,2.27-11,4.62-21.29,6.96-30.82,59.95,19.28,135.73,50.21,216,101,59.12,37.41,106.79,76.8,144,112,39.09-17.14,110.8-42.39,203-40,73.95,1.92,132.5,20.88,169,36,29.86-34.63,72.39-76.83,130-116,81.56-55.45,159.8-82.04,213.5-95.5,1.18,4.22,2.37,8.61,3.56,13.16,17.29,66.06,34.17,165.67,20.44,284.84-9.75,84.53-32.04,154.05-53,205,22.18,79.1,38.5,131.21,50,159,2.59,6.25,9.97,23.43,11,47,.77,17.63-2.34,31.08-4,38Z"/>
    <path d="M1424.83,1389.71c38.27-16.71,80.3-15.75,89.27-14.71.24.03.39.05.71.08,8.41,1,67.18,8.25,94.29,21.92,2.34,1.18,11.65,6.04,21,3,5.03-1.63,11.42-5.99,12-12,.67-6.94-6.5-15.17-18-17,7-8.33,14-16.67,21-25-5.64,3.05-14.21,6.8-25,8-21.29,2.36-36.46-8.58-49-12-33-9-56.46-11-87-9-51.8,3.4-82.87,23.44-91,29-24.5,16.74-32.02,32.62-31,40,.98,7.12,5,10,5,10,1.54.63,3.96,1.49,7,2,18.5,3.1,27.33-14.07,50.73-24.29Z"/>
    <path d="M1060.77,1389.33c-38.27-16.71-80.3-15.75-89.27-14.71-.24.03-.39.05-.71.08-8.41,1-67.18,8.25-94.29,21.92-2.34,1.18-11.65,6.04-21,3-5.03-1.63-11.42-5.99-12-12-.67-6.94,6.5-15.17,18-17-7-8.33-14-16.67-21-25,5.64,3.05,14.21,6.8,25,8,21.29,2.36,36.46-8.58,49-12,33-9,56.46-11,87-9,51.8,3.4,82.87,23.44,91,29,24.5,16.74,32.02,32.62,31,40-.98,7.12-5,10-5,10-1.54.63-3.96,1.49-7,2-18.5,3.1-27.33-14.07-50.73-24.29Z"/>
    <path class="cls-35" d="M1734.1,929c.58,91.97-24.97,163.58-43,204-9.83-17.26-24.54-39.69-45.79-63.04h0c8.22-204.04,61.83-298.15,61.83-298.15,12.82,37.15,26.54,91.21,26.96,157.19Z"/>
    <path class="cls-40" d="M1707.14,771.81s-53.61,94.11-61.83,298.14c-2.14-2.34-4.33-4.69-6.6-7.05-6.04-6.29-12.57-12.62-19.61-18.9-38.54-34.36-76.99-53.49-103-64,2.2-4.02,4.52-8.15,6.96-12.38,19.52-33.91,46.68-73.96,84.04-114.62,34.35-37.39,68.62-65.83,98-87,.68,1.89,1.36,3.82,2.04,5.81Z"/>
    <path class="cls-40" d="M945.1,983c-26.84,14.58-57.84,34.07-90,60-10.23,8.25-19.82,16.54-28.79,24.77-32.65-167.57-105.59-283.5-106.16-284.4h0c.98-4.34,1.97-8.46,2.95-12.37,33.9,16.47,81.52,44.3,129,90,34.65,33.35,59.73,67.07,77.58,95.61,5.91,9.43,11.02,18.29,15.42,26.39Z"/>
    <path class="cls-35" d="M826.31,1067.77c-2.94,2.7-5.81,5.38-8.61,8.06-21.04,20.07-38.43,39.61-52.6,57.17-19.68-38.06-46.63-101.77-55-185-6.82-67.81,1.08-124.86,10.05-164.63.57.9,73.51,116.83,106.16,284.4Z"/>
    <path class="cls-7" d="M1302.1,1416c-4.49-13.45-35.2-14.43-53-15-17.53-.56-49.56-1.59-55,12-6.05,15.12,41,51,52,51,10.05,0,61.16-32.55,56-48Z"/>
    <path class="cls-28" d="M1128.1,1491c73.78,90.38,111.84-8.91,117.31-24.9.2-.59,1.04-.55,1.18.05,4.01,16.58,33.19,120.79,115.42,30.1"/>
    <path class="cls-47" d="M1638.71,1062.9c-6.04-6.29-12.57-12.62-19.61-18.9-38.54-34.36-76.99-53.49-103-64,2.2-4.02,4.52-8.15,6.96-12.38,11.32-5.79,25.29-12.54,42.04-20.62,28.93-13.97,46.58-21.09,54-14,5.94,5.67,3.31,18.5,3,20-3.23,15.72-16.9,22.49-15,26,2.79,5.16,33.29-7.55,35-4,1.66,3.45-25.97,17.95-24,23,2.21,5.65,39.67-5.04,41-1,1.31,4-34.61,16.93-33,24,1.4,6.11,28.95-.46,33,8,2.87,5.99-5.51,20.68-20.39,33.9Z"/>
    <path class="cls-47" d="M945.1,983c-26.84,14.58-57.84,34.07-90,60-13.57,10.95-26.02,21.96-37.4,32.83-15.24-13.75-24.07-29.81-20.6-38.83,5.18-13.44,37.64-11.19,38-19,.41-8.92-41.73-17.09-41-21,.71-3.82,41.2,2.59,43-4,1.54-5.66-26.44-17.19-25-21,1.43-3.78,29.97,4.96,32,0,1.12-2.73-7.19-6.25-13-17-.45-.84-8.26-15.58-4-22,5.25-7.92,28.28-2.32,61,9,15.78,5.46,29.61,10.25,41.58,14.61,5.91,9.43,11.02,18.29,15.42,26.39Z"/>
    <path class="cls-27" d="M1613.1,1445s229.21-47,313.61,0"/>
    <path class="cls-27" d="M883.1,1464s-187-66-321-18"/>
    <path class="cls-25" d="M723.1,771c33.9,16.47,81.52,44.3,129,90,34.65,33.35,59.73,67.07,77.58,95.61,5.91,9.43,11.02,18.29,15.42,26.39-26.84,14.58-57.84,34.07-90,60-13.57,10.95-26.02,21.96-37.4,32.83-21.04,20.07-38.43,39.61-52.6,57.17"/>
    <path class="cls-25" d="M1691.1,1133c-10.82-18.99-27.54-44.25-52.39-70.1-6.04-6.29-12.57-12.62-19.61-18.9-38.54-34.36-76.99-53.49-103-64,2.2-4.02,4.52-8.15,6.96-12.38,19.52-33.91,46.68-73.96,84.04-114.62,34.35-37.39,68.62-65.83,98-87"/>
    <path class="cls-49" d="M1774.42,1476.34c-25.43,62.23-62.32,102.66-62.32,102.66-48.28,52.9-101.48,72.48-173,103-30.38,12.96-140.27,57.5-292,61-121.62,2.81-212.12-22.09-236-29-73.99-21.42-173.01-50.08-254-139-21.98-24.14-62.11-68.2-78.82-120.06,32.02,30.24,70.13,62.15,114.82,93.06,69.26,47.9,172.37,117.59,326,144,173.26,29.78,308.59-13.05,341-24,87.93-29.69,152.27-72.55,201-105,44.7-29.77,82.43-59.67,113.32-86.66Z"/>
    <path class="cls-27" d="M883.1,1489s-158-3-284,59"/>
    <path class="cls-27" d="M1617.1,1488s156-32,295,58"/>
    <path class="cls-27" d="M907.1,1522s-211,79-259,152"/>
    <path class="cls-27" d="M1575.1,1521s161,25,296,152"/>
    <path class="cls-44" d="M1765.66,694.16c-12.97,7.19-27.59,15.21-43.56,23.84-73.01,39.43-103.76,53.35-130,68-42.64,23.8-100.96,64.93-162,140-34.16-16.94-98.83-43.42-184-45-92.75-1.72-163.16,26.95-198,44-43.8-35.38-95.32-72.43-155-108-75.54-45.02-148.13-78.13-213.46-102.68,2.27-11,4.62-21.29,6.96-30.82,59.95,19.28,135.73,50.21,216,101,59.12,37.41,106.79,76.8,144,112,39.09-17.14,110.8-42.39,203-40,73.95,1.92,132.5,20.88,169,36,29.86-34.63,72.39-76.83,130-116,81.56-55.45,159.8-82.04,213.5-95.5,1.18,4.22,2.37,8.61,3.56,13.16Z"/>
    <path class="cls-18" d="M1733.1,1184c20.96-50.95,43.25-120.47,53-205,14.68-127.37-5.62-232.4-24-298-53.7,13.46-131.94,40.05-213.5,95.5-57.61,39.17-100.14,81.37-130,116-36.5-15.12-95.05-34.08-169-36-92.2-2.39-163.91,22.86-203,40-37.21-35.2-84.88-74.59-144-112-80.27-50.79-156.05-81.72-216-101-16.53,67.23-33.46,172.44-17,299,11.59,89.15,36.26,162.03,59,215-8.16,31.16-16.98,63.01-26.5,95.5-20.38,69.52-26.99,77.3-30,97-11.98,78.52,54.26,151.25,85,185,80.99,88.92,180.01,117.58,254,139,23.88,6.91,114.38,31.81,236,29,151.73-3.5,261.62-48.04,292-61,71.52-30.52,124.72-50.1,173-103,0,0,56.73-62.17,78-151,1.66-6.92,4.77-20.37,4-38-1.03-23.57-8.41-40.75-11-47-11.5-27.79-27.82-79.9-50-159Z"/>
  </g>
  <path class="cls-34" d="M1259.7,2.36L.22,729.52v1454.32l15.88,9.17,102.5,59.18,15.39,8.88,182.45,105.34,436.63,252.09,95.27,55,361.13,208.5,50.23,29,50.23-29,361.13-208.5,95.26-55,501.92-289.78,120.59-69.63,118.27-68.28,12.07-6.97V729.52L1259.7,2.36ZM2412.1,2122.02l-65.19,37.64-26.74,15.43-22.59,13.05-25.06,14.47-64.48,37.23-32.39,18.69h0s-21.72,12.55-21.72,12.55l-12.55,7.24-133.97,77.36h-.02s-30.14,17.41-30.14,17.41l-42.87,24.75-110.47,63.78h-.01l-271.71,156.88-95.26,55-197.23,113.87-197.23-113.87-95.26-55-262-151.27h-.01l-23.32-13.47-103.41-59.7-42.45-24.51-47.73-27.56-36.87-21.29-27.74-16.01-18.29-10.56-41.17-23.77-125.41-72.4-20.08-11.6-27.45-15.85-30.39-17.55-53.6-30.94V791.34L1259.7,126l1152.4,665.34v1330.68Z"/>
  <circle class="cls-33" cx="1992.6" cy="764.5" r="57.5"/>
  <circle class="cls-41" cx="2079.1" cy="1533" r="69"/>
  <circle class="cls-41" cx="2131.6" cy="1781.5" r="52.5"/>
  <circle class="cls-41" cx="2322.1" cy="1587" r="54"/>
  <circle class="cls-33" cx="1961.6" cy="1070.5" r="31.5"/>
  <circle class="cls-42" cx="1443.1" cy="566" r="60"/>
  <circle class="cls-42" cx="1228.6" cy="681.5" r="46.5"/>
  <circle class="cls-42" cx="440.1" cy="850" r="84"/>
  <circle class="cls-33" cx="320.6" cy="1252.5" r="70.5"/>
  <circle class="cls-41" cx="312.1" cy="1887" r="79"/>
  <g>
    <path class="cls-5" d="M820.53,470.63c-7.65-13.25-1.79-25.3,12.24-33.4,14.29-8.25,27.59-3.81,33.89,7.11,8.4,14.55,10.14,21.17,18.24,35.2l41.25,71.45c7.2,12.47,9.43,11.53,17.09,11.61,7.26-.03,15.64,3.09,20.89,12.19,5.85,10.13,4.76,25.65-9.53,33.9-17.67,10.2-29.58,8.76-43.44-2.64,3.33,12.97-2.7,28.92-19.07,38.37-35.33,20.4-68.2,1.27-86.35-30.17-19.05-33-14.23-71.46,17.98-90.06,13.51-7.8,23.19-7.84,30.67-6.28l-14.36-24.27c-4.91-7.9-12.48-10.81-19.53-23.02ZM877.66,600.8c12.47-7.2,8.65-21.62,2.2-32.79s-16.07-14.63-26.46-8.63c-14.03,8.1-13.8,18.7-6.3,31.7,6.45,11.17,18.09,16.93,30.56,9.73Z"/>
    <path class="cls-5" d="M909.25,399.31c13.77-7.95,26.64-8.45,34.74,5.58,5.7,9.87,5.69,25.46-8.34,33.56-8.05,4.65-28.26,12.85-38.46-4.82-7.05-12.21-.16-27.28,12.05-34.32ZM931.36,492.2c-9.6-16.63-1.73-28.79,8.41-34.64,12.73-7.35,27.2-8.08,33.65,3.09,8.25,14.29,6.18,17.91,14.28,31.94l14.55,25.2c4.05,7.02,6.1,7.56,10,5.31,1.56-.9,2.82-2.32,5.42-3.82,7.53-4.35,15.32-2.26,21.92,9.17,9,15.59,3.85,28.26-15.38,39.36-19.75,11.4-41.55,10.83-59.74-21.28l-18.64-32.89c-3.6-6.24-9.36-12.61-14.46-21.44Z"/>
    <path class="cls-5" d="M1041.2,398.66c15.07-8.7,27.28-6.74,37.24-2.1-2.64-8.18-1.23-18.34,9.94-24.79,15.07-8.7,27.48-3.4,33.48,7,4.5,7.79,3.84,19.26,11.34,32.25l6.9,11.95c5.25,9.09,9.77,12.72,18.37,15.03,4.51,1.21,11.75,5.34,16.99,14.44,7.95,13.77,1.13,27.75-9.01,33.6-15.59,9-25.98,5.99-37.42-5.42,1.69,12.53-.77,27.47-21.82,39.61-35.08,20.25-62.51,2.14-80.65-29.3-21.15-36.63-18.89-72.93,14.62-92.27ZM1096.61,475.44c12.47-7.2,9.92-20.62,3.32-32.05s-14.07-17.17-27.58-9.37c-13.25,7.65-12.01,19.4-4.66,32.13,6.6,11.43,15.67,16.94,28.92,9.29Z"/>
    <path class="cls-5" d="M1107.33,309.21c-8.25-14.29-6.22-27.58,8.84-36.28,15.85-9.15,28.37-4.26,34.37,6.14s7.07,17.05,15.77,32.12l48.38,85c1.8,3.12,5.65,6.78,8.51,5.13,3.64-2.1,2.67-2.58,7.49-5.02s14.79-4.38,22.59,9.13c10.2,17.67-.05,30.51-17.46,40.56-14.81,8.55-38.86,13.08-55.4-16.16l-58.28-102.15c-3.3-5.72-11.22-12.23-14.82-18.47Z"/>
    <path class="cls-5" d="M1221.98,333.78c4.37-12.22,11.27-33.88,10.67-43.92-.88-14.73,6.45-22.43,12.43-25.88,9.09-5.25,24.66-3.49,30.66,6.9,2.4,4.16,2.12,8.48,1.72,10.78,22.18,9.02,57.55,4.88,77.2,38.92,14.55,25.2,8.38,52.32-26.17,72.27-27.28,15.75-53.54,10.47-62.84-5.64-6.9-11.95-4.06-25.03,10.23-33.27,16.11-9.3,18.08,7.92,29.25,1.47,6.76-3.9,9.55-11.06,5.65-17.81-6.15-10.65-24.56-8.34-40.06-13.59-4.32,15.31-2.48,28.11-20.41,38.46-10.65,6.15-22.56-1.87-26.16-8.11-2.85-4.94-4.93-12.74-2.17-20.57Z"/>
  </g>
</svg>