<?xml version="1.0" encoding="UTF-8"?>
<svg id="parsnip" xmlns="http://www.w3.org/2000/svg" viewBox="0 0 2521 2911">
  <defs>
    <style>
      .cls-1 {
        fill: #f6d2ac;
      }

      .cls-2 {
        fill: #441400;
      }

      .cls-3 {
        fill: #e5b383;
      }

      .cls-4 {
        fill: #f7d49b;
      }

      .cls-5 {
        fill: #e4e9cf;
      }

      .cls-6 {
        stroke-width: 8px;
      }

      .cls-6, .cls-7, .cls-8, .cls-9, .cls-10, .cls-11, .cls-12, .cls-13, .cls-14, .cls-15 {
        stroke-miterlimit: 10;
      }

      .cls-6, .cls-7, .cls-8, .cls-9, .cls-11, .cls-12, .cls-13 {
        fill: none;
      }

      .cls-6, .cls-14 {
        stroke: #4c723f;
      }

      .cls-16 {
        fill: #f7d39f;
      }

      .cls-7 {
        stroke-width: 7.5px;
      }

      .cls-7, .cls-8, .cls-9 {
        stroke-linecap: round;
      }

      .cls-7, .cls-8, .cls-9, .cls-10, .cls-12, .cls-13 {
        stroke: #441400;
      }

      .cls-17 {
        fill: #f6d29e;
      }

      .cls-8, .cls-12 {
        stroke-width: 10px;
      }

      .cls-18, .cls-15 {
        fill: #c2e6c4;
      }

      .cls-9 {
        stroke-width: 6px;
      }

      .cls-19 {
        fill: #c79666;
      }

      .cls-20 {
        fill: #fdf2da;
      }

      .cls-21 {
        fill: #e68a79;
      }

      .cls-22 {
        fill: #d4746b;
      }

      .cls-23 {
        fill: #d6766b;
      }

      .cls-24 {
        fill: #fdfff1;
      }

      .cls-25 {
        fill: #f1ffda;
      }

      .cls-26 {
        fill: #a6774f;
      }

      .cls-27 {
        fill: #faeac1;
      }

      .cls-10, .cls-28 {
        fill: #f6d5a1;
      }

      .cls-10, .cls-15 {
        stroke-width: 15px;
      }

      .cls-29 {
        fill: #f3aea0;
      }

      .cls-30 {
        fill: #f9e2be;
      }

      .cls-31 {
        fill: #fcf0d2;
      }

      .cls-32 {
        fill: #eacaa0;
      }

      .cls-11 {
        stroke: #a49171;
        stroke-width: 19px;
      }

      .cls-33 {
        fill: #e5b389;
      }

      .cls-13 {
        stroke-width: 12px;
      }

      .cls-34 {
        fill: #fdf6e1;
      }

      .cls-35 {
        fill: #642224;
      }

      .cls-36 {
        fill: #ceb58d;
      }

      .cls-37 {
        fill: #e2b684;
      }

      .cls-38 {
        fill: #ce9b6a;
      }

      .cls-39 {
        fill: #f2b7a6;
      }

      .cls-14 {
        fill: #618c50;
        stroke-width: 5px;
      }

      .cls-15 {
        stroke: #82b885;
      }
    </style>
  </defs>
  <polygon class="cls-25" points="2519.17 729.52 2519.17 2183.84 2396.54 2254.64 1259.7 2911 162.3 2277.42 .22 2183.84 .22 729.52 1259.7 2.36 2519.17 729.52"/>
  <path class="cls-5" d="M2396.54,2254.64l-1136.84,656.36L162.3,2277.42c172.78-98.09,618.09-167.92,1140.2-167.92,480.69,0,896.29,59.19,1094.04,145.14Z"/>
  <path class="cls-18" d="M1259.7,2.36L.22,729.52v1454.32l1259.48,727.16,1259.47-727.16V729.52L1259.7,2.36ZM2412.1,2122.02l-1152.4,665.35L107.29,2122.02V791.34L1259.7,126l1152.4,665.34v1330.68Z"/>
  <path class="cls-3" d="M1686.5,2208.5c-78.55,178.16-377.19,179.17-396,179-50.41-.45-96.34-7.9-136.84-18.71-3.35,6.25-7.06,12.5-11.16,18.71-15.71,23.83-29.68,45.03-57,60-6.27,3.44-12.61,6.57-19,9.41,57-87.41,51-107.41,0-155.41-62.02-58.37-239.67-106.9-239.67-106.9.59-78.94,52.44-133.76,57.67-139.1,81.5,44.71,163,89.4,244.5,134.11l478.5-424.11c22.87,40.69,52.88,103.23,72,184,21.26,89.8,42.34,178.86,7,259Z"/>
  <path class="cls-4" d="M2049.5,1684.5c-12.05,23.92-36.24,15.52-70,41-6.67,5.04-30.34,23.28-42,51-4.41,10.46-6.39,20.61-6.63,31.38-.4,18.23,4.22,38.24,10.63,64.62.55,2.27,1.09,4.49,1.62,6.67,29.46,120.48,33.59,115.94,36.38,146.33,1,10.86,2.45,28.16,1.26,49.48-1.44,25.72-6.74,57.28-21.33,90.42-.3.7-.61,1.4-.93,2.1-21.76,48.22-54.04,78.85-74,95-32.33-39-64.67-78-97-117,11.99-10.77,27.12-26.91,38.29-48.92,3.31-6.51,6.28-13.53,8.71-21.08,9.38-29.11,6.82-54.73-1.63-95.62-1.86-8.99-4.01-18.72-6.37-29.38-9.16-41.29-15.98-71.75-21.04-94.53-13.87-62.38-14.57-67.23-13.96-79.47.14-2.77.36-6.32.75-10.51,2.83-30.34,14.41-94.4,65.25-142.49,14.75-13.95,56.36-53.31,112-48,6.54.62,65.81,7.16,83,52,10.89,28.41-1.82,54.67-3,57Z"/>
  <path class="cls-17" d="M1627.5,1854.5c-35.02,93.18-123.44,130.82-145,140-44.54,18.96-87.42,16.81-105,9-9-4-8-13-11-16-5.6-5.6-10,9-21,6-12.84-3.5-30.55-14.79-44.91-31.79-8.39-9.93-15.63-21.8-20.09-35.21-1.25-3.78-15.71-49.72,9-94,6.75-12.1,15.82-23,40-42,11.02-8.66,24.8-18.71,41.52-29.23,18.99-81.68,19.87-147.09,12.55-198.05,57.65-16.82,118.4-41.16,181.65-75.08,27.5,69.35,43.96,129.44,54.28,175.36,28.5,126.86,15.72,170.47,8,191Z"/>
  <path class="cls-30" d="M1371.02,1761.27c-16.72,10.52-30.5,20.57-41.52,29.23-24.18,19-33.25,29.9-40,42l-40.16-28.51-376.84-267.49,2.21-2.3c91.6,41.56,274.67,97.33,508.86,29.02,7.32,50.96,6.44,116.37-12.55,198.05Z"/>
  <path class="cls-38" d="M1943.12,1879.17c-25.07,1.35-67.69-2.44-137.66-23.2-13.87-62.38-14.57-67.23-13.96-79.47.14-2.77.36-6.32.75-10.51,35.11,13.6,85.47,30.9,138.62,41.89-.4,18.23,4.22,38.24,10.63,64.62.55,2.27,1.09,4.49,1.62,6.67Z"/>
  <path class="cls-8" d="M1289.5,1832.5l-417-296,77.68-81,573.32-61c54.03,109.01,81.27,203.45,96,269,28.5,126.86,15.72,170.47,8,191-35.02,93.18-123.44,130.82-145,140-44.54,18.96-87.42,16.81-105,9-9-4-8-13-11-16-5.6-5.6-10,9-21,6-20.34-5.55-52.92-30.64-65-67-1.25-3.78-15.71-49.72,9-94,6.75-12.1,15.82-23,40-42,23.67-18.6,60.12-43.64,111-66"/>
  <path class="cls-37" d="M1565.22,1488.14c-63.25,33.92-124,58.26-181.65,75.08-5.62-39.13-16.07-69.75-26.89-92.67-17.69-37.5-36.33-54.44-36.33-54.44l203.15-21.61c11.18,22.56,21.22,44.5,30.23,65.68,4.03,9.48,7.86,18.8,11.49,27.96Z"/>
  <path class="cls-32" d="M1383.57,1563.22c-234.19,68.31-417.26,12.54-508.86-29.02l38.65-40.31,36.82-38.39,370.17-39.39s18.64,16.94,36.33,54.44c10.82,22.92,21.27,53.54,26.89,92.67Z"/>
  <path class="cls-38" d="M1980.76,2074.98c-1.44,25.72-6.74,57.28-21.33,90.42-29.63-9.95-72.98-29.78-133.64-68.82,3.31-6.51,6.28-13.53,8.71-21.08,9.38-29.11,6.82-54.73-1.63-95.62,39.42,28.24,97.88,68.28,147.89,95.1Z"/>
  <path class="cls-28" d="M1066.5,2456.91c-29.82,13.28-60.62,20.28-89.44,22.41-23.75,1.76-46.15.22-65.56-3.82-6.48-1.35-9.24,10.99-34,7-31-5-23.07-13.73-31-16-7-2-13,2-32-6-14.57-6.13-12.95-32.29-9-47,2.36-8.77,6.52-15.84,11.14-21.52,5.84-7.19,12.38-12.15,16.86-15.48,32.92-24.43,72.55-19.93,85-18-11.35-7.19-72-47.15-88-126-2.67-13.14-3.78-25.8-3.67-37.9,0,0,177.65,48.53,239.67,106.9,51,48,57,68,0,155.41Z"/>
  <path class="cls-20" d="M1023.5,2437.5c0,16.74-18.02,31.74-46.44,41.82-23.75,1.76-46.15.22-65.56-3.82-6.48-1.35-9.24,10.99-34,7-31-5-23.07-13.73-31-16-7-2-13,2-32-6-14.57-6.13-12.95-32.29-9-47,2.36-8.77,6.52-15.84,11.14-21.52,21.2-5.98,46.8-9.48,74.36-9.48,73.18,0,132.5,24.62,132.5,55Z"/>
  <path class="cls-8" d="M2049.5,1684.5c-12.05,23.92-36.24,15.52-70,41-6.67,5.04-30.34,23.28-42,51-4.41,10.46-6.39,20.61-6.63,31.38-.4,18.23,4.22,38.24,10.63,64.62.55,2.27,1.09,4.49,1.62,6.67,29.46,120.48,33.59,115.94,36.38,146.33,1,10.86,2.45,28.16,1.26,49.48-1.44,25.72-6.74,57.28-21.33,90.42-.3.7-.61,1.4-.93,2.1-21.76,48.22-54.04,78.85-74,95-32.33-39-64.67-78-97-117,11.99-10.77,27.12-26.91,38.29-48.92,3.31-6.51,6.28-13.53,8.71-21.08,9.38-29.11,6.82-54.73-1.63-95.62-1.86-8.99-4.01-18.72-6.37-29.38-9.16-41.29-15.98-71.75-21.04-94.53-13.87-62.38-14.57-67.23-13.96-79.47.14-2.77.36-6.32.75-10.51,2.83-30.34,14.41-94.4,65.25-142.49,14.75-13.95,56.36-53.31,112-48,6.54.62,65.81,7.16,83,52,10.89,28.41-1.82,54.67-3,57Z"/>
  <path class="cls-12" d="M1686.5,2208.5c-78.55,178.16-377.19,179.17-396,179-50.41-.45-96.34-7.9-136.84-18.71-3.35,6.25-7.06,12.5-11.16,18.71-15.71,23.83-29.68,45.03-57,60-59.66,32.7-126,38-174,28-6.48-1.35-9.24,10.99-34,7-31-5-23.07-13.73-31-16-7-2-13,2-32-6-14.57-6.13-12.95-32.29-9-47,5.34-19.86,19.98-31.04,28-37,32.92-24.43,72.55-19.93,85-18-11.35-7.19-72-47.15-88-126-20.06-98.87,47.97-170.84,54-177,81.5,44.71,163,89.4,244.5,134.11l478.5-424.11c22.87,40.69,52.88,103.23,72,184,21.26,89.8,42.34,178.86,7,259Z"/>
  <path class="cls-10" d="M1653.5,2337.5c-2.07,22.56-10.01,71.99-48,114-15.42,17.05-43.74,49.61-79,47-3.29-.24-6.28-.52-8.99-.81-19.53-2.12-25.23-5.31-34.01-6.19-8.96-.9-32.07,12.99-53,11-21-2-24.05-9.76-29-11-4-1-15,2-34-9-14.12-8.17-18-29.68-16-45,.08-.59.16-1.17.26-1.74,3.56-21.26,20-31.36,33.74-47.26,15.4-17.83,31.66-47.86,33-101,78.33,16.67,156.67,33.33,235,50Z"/>
  <path class="cls-8" d="M1289.5,1832.5l-417-296,77.68-81,573.32-61c54.03,109.01,80.5,200.5,96,269,28.7,126.82,15.72,170.47,8,191-35.02,93.18-123.44,130.82-145,140-44.54,18.96-87.42,16.81-105,9-9-4-8-13-11-16-5.6-5.6-10,9-21,6-20.34-5.55-52.92-30.64-65-67-1.25-3.78-15.71-49.72,9-94,6.75-12.1,15.82-23,40-42,23.67-18.6,60.12-43.64,111-66"/>
  <path class="cls-31" d="M1536.5,2471.5c0,9.7-7,18.71-18.99,26.19-19.53-2.12-25.23-5.31-34.01-6.19-8.96-.9-32.07,12.99-53,11-21-2-24.05-9.76-29-11-4-1-15,2-34-9-14.12-8.17-18-29.68-16-45,.08-.59.16-1.17.26-1.74,19.57-7.02,44.97-11.26,72.74-11.26,61.86,0,112,21.04,112,47Z"/>
  <path class="cls-12" d="M1653.5,2337.5c-2.07,22.56-10.01,71.99-48,114-15.42,17.05-43.74,49.61-79,47-27-2-33-6-43-7-8.96-.9-32.07,12.99-53,11s-24.05-9.76-29-11c-4-1-15,2-34-9-14.12-8.17-18-29.68-16-45,2.93-22.46,19.89-32.67,34-49,15.4-17.83,31.66-47.86,33-101,78.33,16.67,156.67,33.33,235,50Z"/>
  <g>
    <line class="cls-17" x1="1371.02" y1="1761.27" x2="1383.35" y2="1693.13"/>
    <polygon class="cls-2" points="1363.64 1759.93 1383.35 1693.13 1378.4 1762.61 1363.64 1759.93 1363.64 1759.93"/>
  </g>
  <path class="cls-17" d="M1632.14,1815.5c-.37.53-.74,1.07-1.12,1.6.03-.31.06-.63.09-.95l1.03-.65Z"/>
  <g>
    <path class="cls-34" d="M743,1338c11.91,83.4,264.11,180.59,503,158,202.85-19.19,416-127.19,416-207,0-32-274.49-131.61-479-118-188.09,12.52-444,139-440,167Z"/>
    <path class="cls-16" d="M1761,1145c0,72.29-27.53,124.01-34,137-7.09,14.25-39.17,75.96-125,136-251.67,176.07-552,119-552,119-1.53-.28-3.67-.69-6.23-1.19-49.57-9.77-306.5-48.47-358.77-223.81-9.78-32.8-12.9-70.29-12.02-107.4.52-21.82,2.41-43.52,5.16-64.05,7.36-55.25,20.83-102.11,29.86-120.55-24.32-48.99-66.83-130.18-76-227-9-95-8-239,11-242,27.83-4.39,104.02-1.51,197,37,76.58,31.72,135.16,69.58,175,99,.62-.38,1.25-.77,1.89-1.16,8.38-5.1,18.56-10.91,30.44-16.87,8.29-4.16,17.41-8.4,27.32-12.53,22.71-9.46,49.59-18.37,80.23-24.52,9.67-1.94,19.71-3.6,30.12-4.92,4-.51,7.96-.95,11.88-1.33,26.61-2.62,51.31-2.51,73.54-.83,8.53.63,16.69,1.5,24.45,2.54,11.54,1.54,22.22,3.44,31.92,5.49,12.39,2.62,23.2,5.48,32.21,8.13,35.47-30.53,72.08-74.26,134-119,89.93-64.99,157-93,177-84,35.56,16,62.47,191.65,61,266-1.87,94.85-18.71,172-33,223,12.15,18.36,30.92,59,44.81,106.3,8.11,27.61,14.56,57.49,17.06,86.53.74,8.49,1.13,16.9,1.13,25.17Z"/>
    <path class="cls-22" d="M882,790c-22.2,12.32-52,32.14-81,63-38.78,41.27-58.78,83.82-69,111,62.79-254.87-27.05-373.87-41.18-390.6,29.06,10.29,83.82,61.7,191.18,216.6Z"/>
    <path class="cls-22" d="M1648,867c-11.72-22.7-34.95-60.44-77-94-35.78-28.55-71.01-42.76-94-50,110.86-220.57,157.18-257.73,179-251,0,0-120,142-8,395Z"/>
    <path class="cls-19" d="M1326.79,632.87c-6.65,58.03-12.17,69.14-15.79,69.13-3.71,0-9.42-11.7-16.13-74.62,11.54,1.54,22.22,3.44,31.92,5.49Z"/>
    <path class="cls-19" d="M1270.42,624.84c-8.33,165.05-19.75,198.8-28.42,199.16-8.68.36-22.95-32.42-45.12-198.33,26.61-2.62,51.31-2.51,73.54-.83Z"/>
    <path class="cls-19" d="M1154.88,631.92c-28.06,164.74-44.76,201.79-54.88,201.08-9.52-.67-20.07-35.19-25.35-176.56,22.71-9.46,49.59-18.37,80.23-24.52Z"/>
    <path class="cls-19" d="M1044,729c-6.36,1.56-17.58-20.78-27.11-43.16,8.38-5.1,18.56-10.91,30.44-16.87,2.45,26.56,3.86,58.27-3.33,60.03Z"/>
    <path class="cls-19" d="M1759.87,1119.83c-10.65,2.14-22.32,3.68-34.87,4.17-52.31,2.05-105.35-14.65-105-27,.33-11.57,47.22-7.38,96-41,10.34-7.13,19.22-14.89,26.81-22.7,8.11,27.61,14.56,57.49,17.06,86.53Z"/>
    <path class="cls-19" d="M726,1206c-19.35,2.29-37.25,1.25-53.02-1.4.52-21.82,2.41-43.52,5.16-64.05,18.58,6.42,40.69,12.99,65.86,18.45,36.17,7.85,57.12,8.76,58,16,1.26,10.3-38.91,26.61-76,31Z"/>
    <path class="cls-23" d="M1184,1224c-29.12,1.61-54.72-22.03-52-35l101-12c5.58,12.35-16.28,45.19-49,47Z"/>
    <path class="cls-8" d="M1184,1224l2,41s-15,36-50,40-48-24-48-24"/>
    <path class="cls-8" d="M1186,1265s31,30,62,30,50-33,50-33"/>
    <path class="cls-7" d="M1578,1202s135.2-37,273.1,0"/>
    <path class="cls-7" d="M838.48,1262s-167.48-12-256.48,38"/>
    <path class="cls-26" d="M1010,944c-3.43-7.57-19.69-8.62-31-4-14.64,5.98-25.47,23.31-21,31,4.15,7.14,21.45,5.96,33,0,11.27-5.82,22.59-19.07,19-27Z"/>
    <path class="cls-26" d="M1336,916c1.24-9.12,18.99-15.26,33-13,11.64,1.88,25.6,10.34,25,19-.63,9.12-17.28,16.48-31,15-13.67-1.48-28.2-12.14-27-21Z"/>
    <path class="cls-39" d="M937,1271c-10.38-22.72-52.12-26.32-80-14-30.31,13.4-55.14,50.43-44,73,11.09,22.48,55.07,24.94,84,10,26.13-13.5,50.27-46.53,40-69Z"/>
    <path class="cls-7" d="M838,1316s-135,41-205,113"/>
    <path class="cls-39" d="M1453,1223c9.47-22.9,52.98-25.37,81-18,28.43,7.48,63.66,31.09,61,54-2.96,25.46-52.42,47.73-91,35-32.85-10.84-60.52-47.96-51-71Z"/>
    <path class="cls-35" d="M1514,1151c9.69-29.06-16.97-70.74-51-89-28.22-15.14-73.7-21.01-105,7-21.7,19.42-36.43,54.99-24,81,18.35,38.39,84.53,32.2,108,30,25.44-2.38,71-26,72-29Z"/>
    <path class="cls-7" d="M1790,1367s-130-98-226-95"/>
    <path class="cls-35" d="M869,1191c-4.53-4.53-4-51,27-80,28.89-27.03,81.29-44.33,119-19,17.97,12.07,37.09,36.79,34,66-4.08,38.49-50.71,50.19-57,53-31.76,14.18-55.09,10.72-83,2-21.26-6.64-34-16-40-22Z"/>
    <path class="cls-24" d="M927,1107c6.39-4.61,17.49-6.54,24,0,6.73,6.77,4.49,18.52-1,25-7.23,8.54-22.32,10.57-29,3-6.56-7.44-2.8-21.66,6-28Z"/>
    <path class="cls-24" d="M1389,1074c-7.47-7.71-24.25-4.26-31,6-4.55,6.92-5.27,18.06,1,24,7.6,7.21,22.18,3.65,29-5,5.6-7.1,6.94-18.87,1-25Z"/>
    <path class="cls-9" d="M1648,867c-11.72-22.7-34.95-60.44-77-94-35.78-28.55-71.01-42.76-94-50,110.86-220.57,157.18-257.73,179-251"/>
    <path class="cls-22" d="M690.82,573.4c-.56-.19-1.11-.38-1.65-.54l-.17-1.53s.65.68,1.82,2.07Z"/>
    <path class="cls-21" d="M1682,665c-3.94,86.43-20.47,156.24-34,202-112-253,8-395,8-395,34.31,10.59,28.6,136,26,193Z"/>
    <path class="cls-21" d="M732,964c-19.44-40.02-45.22-101.9-61-181-6.44-32.25-38.32-192.04,1-210,4.36-1.99,9.93-2.39,17.17-.14.54.16,1.09.35,1.65.54,14.13,16.73,103.97,135.73,41.18,390.6Z"/>
    <path class="cls-9" d="M732,964c10.22-27.18,30.22-69.73,69-111,29-30.86,58.8-50.68,81-63-137.11-197.83-188.43-226.85-210-217"/>
    <path class="cls-13" d="M685,1312c52.27,175.34,309.2,214.04,358.77,223.81,2.56.5,4.7.91,6.23,1.19,0,0,300.33,57.07,552-119,85.83-60.04,117.91-121.75,125-136,6.47-12.99,34-64.71,34-137,0-85-41.69-185.79-63-218,14.29-51,31.13-128.15,33-223,1.47-74.35-25.44-250-61-266-20-9-87.07,19.01-177,84-61.92,44.74-98.53,88.47-134,119-35.03-10.32-97.18-23.74-174-14-79.94,10.13-138.55,40.62-170,60-39.84-29.42-98.42-67.28-175-99-92.98-38.51-169.17-41.39-197-37-19,3-20,147-11,242,9.17,96.82,51.68,178.01,76,227-18.09,36.94-54,188-23,292Z"/>
    <path class="cls-29" d="M1233,1177l-101,12c4.56-21.7,92.16-31.56,101-12Z"/>
    <path class="cls-12" d="M1184,1224c-29.12,1.61-54.72-22.03-52-35,4.56-21.7,92.16-31.56,101-12,5.58,12.35-16.28,45.19-49,47Z"/>
  </g>
  <polygon class="cls-2" points="1149.01 2370.62 1130.16 2309.14 1158.31 2366.96 1149.01 2370.62 1149.01 2370.62"/>
  <g>
    <path class="cls-14" d="M740.95,1531.24c-56.05-79.48-93.81-149.82-118.51-201.3-46.62-97.14-53.71-141.62-34.47-169.84,13.26-19.45,27.29-13.99,45.6-39.21,23.88-32.89,29.45-82.74,9.59-122.69-6.91-13.91-18.51-37.23-40.53-42.73-44.31-11.08-109.74,55.24-106.78,109.89,1.35,24.87,15.87,29.19,38.44,88.78,9.31,24.58,11.96,37.38,19.22,62.5,0,0,16.59,57.43,48.49,134.17,36.56,87.96,92.58,169.14,128.79,217.54,3.39-12.37,6.77-24.74,10.16-37.11Z"/>
    <path class="cls-14" d="M741.5,1554.5c-58.36-70.75-99.63-134.12-127-180-66.55-111.59-151.42-253.89-101-339,14.17-23.92,25-19.64,40-49,39.74-77.76-5.85-167.21-19-193-24.22-47.52-43.5-49.83-48-51-27-7-40.64,10.12-47,8-6-2-14.62-19.85-32-27-16.56-6.81-33.77.09-51,7-17.53,7.03-37.57,17.14-47,36-11,22-1.02,34.07-3,41-2,7-17,9-23,26-7.16,20.3-8.17,43.09-4,60,18,73,90,82,98,86,9.54,4.77,11.61,20.62,21,30,15.28,15.26,21.35,12.57,34,27,9.74,11.1,14.36,21.85,15,29,1.84,20.66,20.56,70.11,58,169,23.3,61.54,48.26,103.41,82,160,30.41,51,72.12,113.69,128,181,8.67-7,17.33-14,26-21Z"/>
    <path class="cls-14" d="M451.5,1339.5c-13.69-1.9-26.21,2.5-39,7-16.44,5.78-21.41,10.44-30,14-27.72,11.48-74.23,3.63-95-28-16.04-24.42-9.73-52.36-8-59,10.49-40.36,49.87-56.59,63-61,24.5-8.23,61.9-10.31,86,10,13.26,11.18,11.53,19.9,30,51,3.48,5.85,12.17,20.07,39,53,28.42,34.88,108.76,129.49,218,255-7.67,6.33-15.33,12.67-23,19-78-91-120.74-141.8-145-168-25-27-35-37-60-72-6.78-9.49-19.51-18.71-36-21Z"/>
    <path class="cls-14" d="M500.5,1269.5c33.7,49.29,120.89,159.06,242,300-7.67,8-15.33,16-23,24-107-117-153.94-166.05-194-207-45-46-42-44-81-89-11.36-13.11-28.23-18.41-49-24-25.74-6.93-50.43-5.51-119-8-5.95-.22-17.94-.79-30-8-10.37-6.2-18.17-11.76-26-21-24.27-28.64-34.55-26.5-42-47-6.12-16.85-2.39-32.06-2-34,4-20,12.95-12.89,18-23,4-8-1.72-32.19,5-44,3.73-6.56,9.25-18.49,14-28,9-18,4.67-19.4,23-37,16.1-15.46,40-20,65-11,10.54,3.79,14.51,7.54,25,11,14.69,4.85,22.08,4,34,4,15,0,71,42,94,88,16.56,33.12,15,45,21,89,3.51,25.71,10.7,44.08,25,65Z"/>
    <path class="cls-27" d="M1955,2323c-3.46,9.13-14.35,17.86-30.02,25.97-141.56-3.02-317.91-22.61-511.98-81.97-224.73-68.74-409.91-125.39-575-291-108.33-108.68-164.56-220.68-237.06-278.73,10.23-38.04,27.89-75.05,54.06-108.27,8.41-10.67,94.03-116.02,221-115,77.62.62,123.81,40.62,244,130,0,0,63.18,46.98,341,240,180.83,125.63,237.61,151.16,341,250,92.53,88.46,169.5,185.5,153,229Z"/>
    <path class="cls-6" d="M465,986s-35-87-93-127"/>
    <path class="cls-6" d="M418.5,797.6s-11,57.24,0,107.57"/>
    <path class="cls-6" d="M608.5,1095.5c-12-12-45,15-45,15-4-23,26.46-71.71,26.46-71.71"/>
    <path class="cls-6" d="M389.5,1194.5s-53-54-129-67"/>
    <path class="cls-6" d="M307.5,1070.5s5.47,62.64,25.23,82.82"/>
    <path class="cls-36" d="M1135,1646.18s-45.5,23.32-89.5,93.32"/>
    <path class="cls-36" d="M995.5,1773.5s-23,13-32,42"/>
    <path class="cls-36" d="M1149.46,1739.5s-26.64,9-37.8,34"/>
    <path class="cls-36" d="M896.5,2092.5s6-23,19-41"/>
    <path class="cls-36" d="M1200.5,2151.5s-21,17-33,72"/>
    <path class="cls-36" d="M1321.39,1944.53s-76.89,80.97-111.89,175.97"/>
    <path class="cls-36" d="M1671.5,2003.5s-39.68,33-56.34,89"/>
    <path class="cls-36" d="M1566.5,2134.5s-57,124-60,180"/>
    <path class="cls-1" d="M1924.98,2348.97c-57.96,29.97-181.39,51.34-236.98,52.03-160,1.99-274.22-39.48-460-109-36.01-13.48-226.41-85.91-447-227-97.01-62.04-135.2-96.01-161-149-30.29-62.21-39.57-142.53-19.06-218.73,72.5,58.05,128.73,170.05,237.06,278.73,165.09,165.61,350.27,222.26,575,291,194.07,59.36,370.42,78.95,511.98,81.97Z"/>
    <path class="cls-11" d="M1955,2323c16.5-43.5-60.47-140.54-153-229-103.39-98.84-160.17-124.37-341-250-277.82-193.02-341-240-341-240-120.19-89.38-166.38-129.38-244-130-126.97-1.02-212.59,104.33-221,115-78.6,99.74-80.42,233.73-35,327,25.8,52.99,63.99,86.96,161,149,220.59,141.09,410.99,213.52,447,227,185.78,69.52,300,110.99,460,109,70.62-.88,250.74-35.13,267-78Z"/>
  </g>
  <path class="cls-33" d="M908.35,2063.02c-3.72,2.09-7.5,4.13-11.35,6.14-55.1,28.76-103.72,54.13-163.56,40.27-3.36-.78-68.77-16.94-106.1-75.22-8.98-14.03-20.89-33.19-17.86-56.27,0,0,112.72,144.6,298.87,85.08Z"/>
  <path class="cls-28" d="M1080.12,1829.44c-.45,6.55-2.58,37.46-9.04,58.81-12.7,42.02-64.15,119.68-162.73,174.77-186.15,59.52-298.87-85.08-298.87-85.08,3.58-27.31,25.96-43.74,47.58-60.83,55.11-43.58,104.32-94.14,156.97-140.66,37.96-33.54,53.28-48.46,83.36-58.69,35.96-12.23,66.82-8.87,81.53-7.1,21.43,2.57,34.97,5.21,47.18,15.71,24.45,21.03,19.43,30.21,24.48,35.45,6.39,6.65,12.2-.3,23.62,20.48,4.05,7.38,8.01,16.7,5.92,47.14Z"/>
  <path class="cls-12" d="M814.03,1776.45c37.96-33.54,53.28-48.46,83.36-58.69,35.95-12.23,66.81-8.86,81.53-7.1,21.43,2.57,34.97,5.21,47.18,15.71,24.45,21.03,19.43,30.21,24.48,35.45,6.39,6.64,12.2-.3,23.62,20.48,4.05,7.38,8.01,16.7,5.92,47.14-.45,6.55-2.58,37.46-9.03,58.82-13.18,43.6-68.08,125.59-174.09,180.91-55.09,28.75-103.71,54.13-163.55,40.27-3.37-.78-68.78-16.94-106.1-75.22-8.98-14.03-20.89-33.19-17.86-56.27,3.59-27.32,25.97-43.75,47.58-60.84,55.11-43.58,104.32-94.14,156.97-140.66Z"/>
  <path class="cls-33" d="M1631.02,1817.1c-1.83,18.17-5.55,29.49-8.52,37.4-35.02,93.18-123.44,130.82-145,140-44.54,18.96-87.42,16.81-105,9-9-4-8-13-11-16,0,0,152.32-1.99,269.52-170.4Z"/>
  <path class="cls-17" d="M1631.11,1816.15c-.03.32-.06.64-.09.95-117.2,168.41-269.52,170.4-269.52,170.4-5.6-5.6-10,9-21,6-20.34-5.55-52.92-30.64-65-67-1.25-3.78-15.71-49.72,9-94,6.75-12.1,15.82-23,40-42,23.67-18.6,60.12-43.64,111-66l179-61c17.34,77.18,19.4,123.55,16.61,152.65Z"/>
  <path class="cls-8" d="M1619.5,1663.5c28.5,126.86,15.72,170.47,8,191-35.02,93.18-123.44,130.82-145,140-44.54,18.96-87.42,16.81-105,9-9-4-8-13-11-16-5.6-5.6-10,9-21,6-20.34-5.55-52.92-30.64-65-67-1.25-3.78-15.71-49.72,9-94,6.75-12.1,15.82-23,40-42,23.67-18.6,60.12-43.64,111-66"/>
  <path class="cls-8" d="M911.5,2475.5s-2.97-43.4,26.5-56.5"/>
  <path class="cls-8" d="M845.09,2464.12s-4.75-40.24,24.91-57.12"/>
  <path class="cls-8" d="M1403.09,2489.12s-5.75-31.24,23.91-50.12"/>
  <path class="cls-8" d="M1473.09,2489.12s-3.93-12.95,14.91-39.12"/>
  <line class="cls-8" x1="1305.93" y1="1967.62" x2="1321" y2="1952"/>
  <line class="cls-8" x1="1276.92" y1="1911.1" x2="1297" y2="1907"/>
  <line class="cls-8" x1="1366.5" y1="1987.5" x2="1378" y2="1969"/>
  <line class="cls-8" x1="1050.58" y1="1761.82" x2="1032" y2="1777"/>
  <line class="cls-8" x1="1080.69" y1="1801.55" x2="1058" y2="1816"/>
  <line class="cls-8" x1="1012.99" y1="1718.11" x2="1002" y2="1737"/>
  <g>
    <path class="cls-15" d="M2332.87,1866.3c15,0,23.7,9.3,23.7,26.4,0,15.6-8.7,25.8-23.4,25.8-8.1,0-19.8-1.8-32.4-1.8h-99.6c-12.3,0-19.8,3-27,3-11.1,0-20.7-5.7-20.7-21,0-16.8,7.8-21.3,23.1-22.5-12.9-3.9-23.1-14.7-23.1-36.3,0-41.4,29.1-60.6,69.6-60.6s68.7,25.2,68.7,60.9c0,13.8-4.2,26.1-11.1,31.8l27.9-.3c7.2,0,16.5-5.4,24.3-5.4ZM2198.47,1849.5c0,16.2,14.7,20.4,28.5,20.4s22.2-8.1,22.2-20.7c0-16.5-12.9-21.9-25.8-21.9-16.5,0-24.9,8.7-24.9,22.2Z"/>
    <path class="cls-15" d="M2153.47,1705.5c0-17.4,7.8-27,16.8-33.3-8.4-1.8-16.5-8.1-16.5-21,0-17.4,10.8-25.5,22.8-25.5,9,0,18.6,6.3,33.6,6.3h13.8c10.5,0,15.9-2.1,22.2-8.4,3.3-3.3,10.5-7.5,21-7.5,15.9,0,24.6,12.9,24.6,24.6,0,18-7.8,25.5-23.4,29.7,11.7,4.8,23.4,14.4,23.4,38.7,0,40.5-29.4,55.2-65.7,55.2-42.3,0-72.6-20.1-72.6-58.8ZM2247.67,1695.9c0-14.4-12.9-18.9-26.1-18.9s-21.9,3.6-21.9,19.2,10.8,20.1,25.5,20.1c13.2,0,22.5-5.1,22.5-20.4Z"/>
    <path class="cls-15" d="M2226.37,1552.2c18.6,0,26.1-5.7,37.2-5.7,14.7,0,28.5,4.5,28.5,27,0,20.7-12.3,24.9-28.5,24.9-9.9,0-32.7-1.2-49.5-1.2-27.6,0-26.1,8.1-41.1,8.1-8.1,0-19.5-3.9-19.5-23.7,0-17.1,9.9-26.1,20.4-27-12.6-5.1-20.4-12.9-20.4-33s15.9-34.8,38.1-34.8c19.8,0,33.3,8.7,33.3,24.9,0,9-4.5,16.2-12.9,16.2s-12.6,3-12.6,11.1c0,9.9,8.4,13.2,27,13.2Z"/>
    <path class="cls-15" d="M2187.67,1472.1c-8.4-9.9-23.7-26.7-32.7-31.2-13.2-6.6-16.2-16.8-16.2-23.7,0-10.5,9.3-23.1,21.3-23.1,4.8,0,8.4,2.4,10.2,3.9,18.9-14.7,33-47.4,72.3-47.4,29.1,0,49.5,18.9,49.5,58.8,0,31.5-17.7,51.6-36.3,51.6-13.8,0-23.7-9-23.7-25.5,0-18.6,15.9-11.7,15.9-24.6,0-7.8-4.8-13.8-12.6-13.8-12.3,0-19.5,17.1-31.8,27.9,11.1,11.4,23.1,16.2,23.1,36.9,0,12.3-12.9,18.6-20.1,18.6-5.7,0-13.5-2.1-18.9-8.4Z"/>
    <path class="cls-15" d="M2230.87,1285.5c13.8,0,21.6-4.2,32.7-4.2,14.7,0,28.5,3.3,28.5,25.2s-12.3,26.7-28.5,26.7c-9.9,0-32.7-3-49.5-3-34.2,0-26.1,7.8-41.1,7.8-12,0-19.5-11.1-19.5-23.1,0-19.2,8.7-26.7,19.2-27.6-11.7-7.2-19.2-19.2-19.2-39,0-38.4,29.1-51.3,66.6-51.6l30.9-.3c7.2,0,10.8-3.9,21.6-3.9,12.6,0,19.5,8.1,19.5,23.7,0,24-13.5,30.3-32.7,30.3-9.6,0-18.9-2.1-28.5-2.1-18.3,0-31.5,2.4-31.5,17.7,0,17.4,11.7,23.4,31.5,23.4Z"/>
    <path class="cls-15" d="M2088.07,1147.51c0-15.9,6-27.3,22.2-27.3,11.4,0,24.9,7.8,24.9,24,0,9.3-3,30.9-23.4,30.9-14.1,0-23.7-13.5-23.7-27.6ZM2179.57,1174.81c-19.2,0-25.8-12.9-25.8-24.6,0-14.7,6.6-27.6,19.5-27.6,16.5,0,18.6,3.6,34.8,3.6h29.1c8.1,0,9.6-1.5,9.6-6,0-1.8-.6-3.6-.6-6.6,0-8.7,5.7-14.4,18.9-14.4,18,0,26.4,10.8,26.4,33s-11.4,41.4-48.3,41.1l-37.8-.3c-7.2,0-15.6,1.8-25.8,1.8Z"/>
    <path class="cls-15" d="M2332.87,1035.91c15,0,23.7,9.3,23.7,26.4,0,15.6-8.7,25.8-23.4,25.8-8.1,0-19.8-1.8-32.4-1.8h-99.6c-12.3,0-19.8,3-27,3-11.1,0-20.7-5.7-20.7-21,0-16.8,7.8-21.3,23.1-22.5-12.9-3.9-23.1-14.7-23.1-36.3,0-41.4,29.1-60.6,69.6-60.6s68.7,25.2,68.7,60.9c0,13.8-4.2,26.1-11.1,31.8l27.9-.3c7.2,0,16.5-5.4,24.3-5.4ZM2198.47,1019.11c0,16.2,14.7,20.4,28.5,20.4s22.2-8.1,22.2-20.7c0-16.5-12.9-21.9-25.8-21.9-16.5,0-24.9,8.7-24.9,22.2Z"/>
  </g>
</svg>