<?xml version="1.0" encoding="UTF-8"?>
<svg id="recipes" xmlns="http://www.w3.org/2000/svg" xmlns:xlink="http://www.w3.org/1999/xlink" viewBox="0 0 2521 2911">
  <defs>
    <style>
      .cls-1 {
        stroke: #e3a39f;
        stroke-width: 15px;
      }

      .cls-1, .cls-2 {
        fill: #f8d8d6;
      }

      .cls-1, .cls-3, .cls-4, .cls-5, .cls-6, .cls-7, .cls-8, .cls-9, .cls-10, .cls-11, .cls-12, .cls-13, .cls-14 {
        stroke-miterlimit: 10;
      }

      .cls-15, .cls-7 {
        fill: #441400;
      }

      .cls-16 {
        fill: #e3995a;
      }

      .cls-17 {
        fill: #f8ffff;
      }

      .cls-18 {
        fill: #662111;
      }

      .cls-19 {
        fill: #f89389;
      }

      .cls-20, .cls-9 {
        fill: #fff6d9;
      }

      .cls-21 {
        fill: #792316;
      }

      .cls-22 {
        fill: url(#linear-gradient-2);
      }

      .cls-23 {
        fill: #fdfcea;
      }

      .cls-24 {
        fill: #291400;
      }

      .cls-25 {
        fill: url(#linear-gradient);
      }

      .cls-3 {
        stroke-width: 7.5px;
      }

      .cls-3, .cls-4, .cls-5 {
        stroke-linecap: round;
      }

      .cls-3, .cls-4, .cls-5, .cls-6, .cls-7, .cls-8, .cls-9, .cls-10, .cls-11, .cls-12 {
        stroke: #441400;
      }

      .cls-3, .cls-4, .cls-5, .cls-10, .cls-11, .cls-12, .cls-14 {
        fill: none;
      }

      .cls-4, .cls-6, .cls-8 {
        stroke-width: 10px;
      }

      .cls-26 {
        fill: #fdc564;
      }

      .cls-5 {
        stroke-width: 16.13px;
      }

      .cls-27 {
        fill: #f5d5c0;
      }

      .cls-6 {
        fill: #e4614f;
      }

      .cls-28 {
        fill: #fdf8d0;
      }

      .cls-7 {
        stroke-width: 7px;
      }

      .cls-29 {
        fill: #3c0000;
      }

      .cls-8 {
        fill: #fdc565;
      }

      .cls-30 {
        fill: #fdc57b;
      }

      .cls-9, .cls-12 {
        stroke-width: 12px;
      }

      .cls-31 {
        fill: #d0661c;
      }

      .cls-32 {
        fill: #3d0000;
      }

      .cls-10 {
        stroke-width: 8.87px;
      }

      .cls-11 {
        stroke-width: 10.25px;
      }

      .cls-13 {
        fill: #fefcf8;
      }

      .cls-13, .cls-14 {
        stroke: #291400;
        stroke-width: 12.9px;
      }

      .cls-33 {
        fill: #ffe6db;
      }

      .cls-34 {
        fill: #b4878a;
      }

      .cls-35 {
        fill: #fbe9e7;
      }
    </style>
    <linearGradient id="linear-gradient" x1="-1540" y1="3774.73" x2="-1512.83" y2="3892.25" gradientTransform="translate(4124.12 5413.94) rotate(126.64)" gradientUnits="userSpaceOnUse">
      <stop offset="0" stop-color="#fdc57b"/>
      <stop offset="1" stop-color="#e3995a"/>
    </linearGradient>
    <linearGradient id="linear-gradient-2" x1="-2280.99" y1="3942.01" x2="-2253.81" y2="4059.53" xlink:href="#linear-gradient"/>
  </defs>
  <polygon class="cls-35" points=".22 729.52 .22 2183.84 1259.7 2911 2519.17 2183.84 2519.17 729.52 1259.7 2.36 .22 729.52"/>
  <g>
    <path class="cls-11" d="M557.92,2005.02c0,7.89-4.79,10.01-10.64,4.71,0,0-357.4-324.27-408.11-522.86-33-129.26,13.41-222.95,83.27-249.83,97.51-37.52,180.16-5.72,244.52,114.11,91.28,169.97,90.96,653.87,90.96,653.87Z"/>
    <path class="cls-11" d="M553.87,2009.76c.73,7.86-2.97,9.48-8.23,3.59,0,0-307.17-343.76-364.19-539.82-37.11-127.61-9.08-213.94,43.12-233.75,72.87-27.65,140.2,10.28,200.98,131.55,84.6,168.81,128.32,638.43,128.32,638.43Z"/>
    <path class="cls-11" d="M551.9,2010.45c3.44,7.11,4.13,6.82,1.55-.64,0,0-143.08-412.96-223.5-595.62-53.31-121.06-89.81-181.36-98.56-176.57-12.22,6.68,3.16,65.56,53.61,190.99,71.55,177.9,266.91,581.84,266.91,581.84Z"/>
    <path class="cls-11" d="M554.99,2009.2c1.88,7.67-.16,8.57-4.54,2,0,0-244.69-366.59-313.54-558.07-44.81-124.63-43.25-200.9-15.43-211.47,38.83-14.75,85.93,30.81,143.82,153.12,80.56,170.2,189.69,614.42,189.69,614.42Z"/>
    <g>
      <rect class="cls-34" x="574.09" y="1961.94" width="65.62" height="365" rx="14.35" ry="14.35" transform="translate(-753.88 379.44) rotate(-21.83)"/>
      <rect class="cls-11" x="574.09" y="1961.94" width="65.62" height="365" rx="14.35" ry="14.35" transform="translate(-753.88 379.44) rotate(-21.83)"/>
    </g>
  </g>
  <g>
    <g>
      <path class="cls-25" d="M1890.5,1873.77c-4.09,8.88,3.14,20.44,16.05,25.69l86.58,35.16c12.91,5.24,26.82,2.27,30.91-6.62s-3.14-20.44-16.05-25.69l-86.58-35.16c-12.91-5.24-26.82-2.27-30.91,6.62Z"/>
      <path class="cls-10" d="M1890.5,1873.77c-4.09,8.88,3.14,20.44,16.05,25.69l86.58,35.16c12.91,5.24,26.82,2.27,30.91-6.62s-3.14-20.44-16.05-25.69l-86.58-35.16c-12.91-5.24-26.82-2.27-30.91,6.62Z"/>
    </g>
    <path class="cls-30" d="M2266.03,1187.17c.18-14.02,1.31-30.84,8.43-52.88,4.91-15.22,10.67-20.96,21.82-53.56,21.76-63.57,9.89-37.51,24.15-66.78,7.52-15.44,22.59-27.41,39.41-36.99,12.94,6.05,22.26,18.96,26.33,33.5-8.13,6.96-15.6,17.47-21.01,30.1-5.66,13.27-7.55,27.5-5.27,39.35-15.67,15.65-34.16,32.48-45.49,60.2-11.43,27.99-7.31,46.88-4.03,65.05l-44.34-18Z"/>
    <path class="cls-30" d="M1859.65,2128.49c-1.48-3.68-3.04-8.39-4.32-14.89-1.36-6.89-3.69-18.66-1.31-32.54.66-3.88,3.06-15.82,20.29-41.41,13.02-19.34,18.8-23.12,29.61-37.8,11.68-15.84,17.51-28.5,28.24-52.1,5.88-12.94,10.95-24.09,15.16-33.99l45.03,18.28c-16.06,10.86-32.32,23.42-42.89,48.72-10.07,24.08-9.31,43.52-8.51,61.48-9.68,8.95-20.7,22.22-32.54,42.36-7.58,12.89-15.56,28.74-21.75,43.39-9.31,1.82-18.71,1.51-27.01-1.51Z"/>
    <path class="cls-28" d="M1886.66,2130c6.19-14.66,14.17-30.5,21.75-43.39,11.84-20.14,22.85-33.42,32.54-42.36.89,19.43,1.85,37.15-10.69,57.16-8.98,14.34-26.13,25.18-43.59,28.59Z"/>
    <path class="cls-16" d="M1827.95,2073.52c2.77-42.87,51.9-55.59,73.93-109.51,11.43-27.99,7.31-46.88,4.03-65.05l41.4,16.81c-4.21,9.9-9.28,21.05-15.16,33.99-10.73,23.61-16.57,36.26-28.24,52.1-10.81,14.68-16.59,18.45-29.61,37.8-17.23,25.59-19.62,37.53-20.29,41.41-2.38,13.88-.05,25.65,1.31,32.54,1.29,6.51,2.84,11.22,4.32,14.89-.14-.05-.3-.1-.44-.16-20.41-7.7-32.73-32.1-31.26-54.82Z"/>
    <path class="cls-10" d="M1992.48,1934.4c-16.06,10.86-32.32,23.42-42.89,48.72-20.96,50.12,4.95,80.11-19.2,118.64-13.86,22.11-47.12,35.94-71.04,26.92-20.41-7.7-32.73-32.1-31.26-54.82,2.77-42.87,51.9-55.59,73.93-109.51,11.43-27.99,7.31-46.88,4.03-65.05l86.43,35.09Z"/>
    <g>
      <path class="cls-22" d="M2198.42,1179.34c-4.09,8.88,3.14,20.44,16.05,25.69l86.58,35.16c12.91,5.24,26.82,2.27,30.91-6.62s-3.14-20.44-16.05-25.69l-86.58-35.16c-12.91-5.24-26.82-2.27-30.91,6.62Z"/>
      <path class="cls-10" d="M2198.42,1179.34c-4.09,8.88,3.14,20.44,16.05,25.69l86.58,35.16c12.91,5.24,26.82,2.27,30.91-6.62s-3.14-20.44-16.05-25.69l-86.58-35.16c-12.91-5.24-26.82-2.27-30.91,6.62Z"/>
    </g>
    <path class="cls-28" d="M2359.89,1079.92c-2.28-11.85-.4-26.08,5.27-39.35,5.4-12.63,12.87-23.14,21.01-30.1,1.83,6.54,2.61,13.42,2.17,20.14-1.34,20.83-13.63,34.54-28.45,49.31Z"/>
    <path class="cls-16" d="M2223.94,1170.08c16.06-10.86,32.32-23.42,42.89-48.72,20.96-50.12-4.95-80.11,19.2-118.64,13.86-22.11,47.12-35.94,71.04-26.92.94.35,1.86.75,2.76,1.17-16.82,9.58-31.88,21.55-39.41,36.99-14.26,29.27-2.39,3.21-24.15,66.78-11.15,32.6-16.91,38.34-21.82,53.56-7.12,22.04-8.25,38.86-8.43,52.88l-42.09-17.09Z"/>
    <path class="cls-10" d="M2223.78,1170.55c16.06-10.86,32.32-23.42,42.89-48.72,20.96-50.12-4.95-80.11,19.2-118.64,13.86-22.11,47.12-35.94,71.04-26.92,20.41,7.7,32.73,32.1,31.26,54.82-2.77,42.87-51.9,55.59-73.93,109.51-11.43,27.99-7.31,46.88-4.03,65.05l-86.43-35.09Z"/>
    <path class="cls-28" d="M1987.83,1894.85c-12.91-5.24-18.84-19.95-13.18-32.69l273.09-613.73c5.67-12.73,20.87-18.86,33.78-13.61l9.78,3.97c12.91,5.25,31.06,12.62,40.33,16.38,9.27,3.76,12.09,17.2,6.27,29.87l-280.8,610.62c-5.82,12.66-21.15,18.73-34.07,13.49l-35.2-14.3Z"/>
    <path class="cls-16" d="M1899.26,1858.88c-12.91-5.24-18.71-19.9-12.89-32.56l280.81-610.61c5.82-12.66,14.59-21.4,19.47-19.41s19.45,7.9,32.36,13.14l15.54,6.31c12.91,5.24,18.84,19.95,13.18,32.69l-273.09,613.73c-5.67,12.73-20.87,18.86-33.78,13.62l-41.61-16.9Z"/>
    <path class="cls-30" d="M1909.31,1865.17c101.55-218.52,203.1-437.05,304.64-655.58l101.9,41.38,8.67,3.52c-99.07,219.7-204.1,436.48-303.27,656.14l-111.94-45.46Z"/>
    <path class="cls-10" d="M1897.12,1858.61c-12.91-5.24-18.71-19.9-12.89-32.56l280.81-610.61c5.82-12.66,14.59-21.4,19.47-19.41s19.45,7.9,32.36,13.14l72.28,29.35c12.91,5.24,31.06,12.62,40.33,16.38,9.27,3.76,12.09,17.2,6.27,29.87l-280.8,610.62c-5.82,12.66-21.15,18.73-34.07,13.49l-123.77-50.27Z"/>
  </g>
  <g>
    <path class="cls-8" d="M1935,2048c-1.82,13.57-6.69,36.98-39,93-6.25,10.84-13.4,23.16-23.73,38.9-2.23,3.41-4.62,6.97-7.17,10.72-1.63,2.39-3.33,4.84-5.1,7.38-46.94,67.18-70.41,100.77-113.5,119.5-24.75,10.76-34.73,12.68-49,14-38.52,3.57-44.16,2.09-54,0-18.44-3.92-36.09-13.78-53.52-25.13-.88-.57-1.79.66-.99,1.33,17.49,14.73,38.76,34.07,62.51,59.8,13.03,14.12,33.1,49.98,47,111,3.67,16.1,12.45,59.97,6.77,115.22-96.71,54.02-193.42,108.04-290.13,162.06-6.07,3.39-12.15,6.79-18.22,10.18-14.3,7.99-28.6,15.98-42.9,23.96h-.01c-31.67,17.7-63.34,35.39-95.01,53.08-33.25-19.09-66.5-38.19-99.75-57.28-12.73-7.31-25.46-14.62-38.19-21.93-10.88-6.25-21.77-12.5-32.65-18.75-98.44-56.53-196.87-113.05-295.31-169.58.04-44.15,7.41-98.35,32.4-152.96,12.13-26.51,26.84-34.54,40.03-53.26.59-.83-.5-1.82-1.28-1.16-22.86,19.28-51.8,37.74-79.76,38.42-50.11,1.2-89.74-28.31-119.26-54.56-3.92-3.48-7.67-6.91-11.23-10.19-1.19-1.1-2.36-2.19-3.51-3.25-40.54-37.51-55.67-74.17-61-89-9.52-26.49-21.33-59.32-4-86,10.2-15.7,27.56-24.78,44.01-27.85.76-.15,1.52-.28,2.28-.39,2.61-.41,5.2-.66,7.71-.76,2.73-.11,5.37-.04,7.95.18h.01c22.44,1.94,39.34,15.46,51.04,24.82,7.55,6.04,11.88,10.93,15.75,15.32,1.44,1.62,2.81,3.17,4.25,4.68,0,0,28.75,30.13,91,34,59.35,3.69,101.08-63.81,179-138,88.18-83.96,158.04-150.48,249.5-154.5,73.52-3.23,177.04,33.21,234,102,16.46,19.88,33.66,48.04,73,73,16.03,10.17,51.89,32.92,99,34,83.56,1.92,149.92-65.53,159-75,6.95-7.26,12.97-14.47,18.45-21.38,14.89-18.78,25.77-35.37,40.47-45.08.02-.02.03-.03.05-.04,6.65-4.39,14.09-7.37,23.03-8.5,1.12-.14,3.23-.38,5.99-.47.85-.03,1.75-.04,2.71-.04,9.06.06,22.67,1.95,32.3,11.51,14.69,14.58,11.49,38.43,9,57Z"/>
    <path class="cls-23" d="M1521.5,2353.5c-.26,31.1-1.3,85.37-30,144-28.71,58.65-66.45,78.46-83.55,122.25-44.91,45.36-93.32,100.13-161.95,95.25-54.39-3.86-99.59-40.79-144.25-79.18-31.27-68.83-77.82-86.13-110.25-160.32-50.81-116.24,3.09-216.59,13-243,43.6-116.21,158.98-257.81,278-243,38.74,4.82,64.27,24.52,96,49,141.83,109.42,143.18,293.98,143,315Z"/>
    <path class="cls-7" d="M1990.5,2029.5c7,31-26,150-73,165-44.22,14.11-82.4-19.17-107-51-34-44,37.94-182,108-182,20,0,65.6,39.66,72,68Z"/>
    <path class="cls-20" d="M1850.5,2170.5c-14.12-6.89-22-15-33-33-6.95-11.38-5.92-29.49,2-33,13-5.76,43,25,54,25,3.53,0,7.4-2.27,6-6-3-8-42-21-55-41-7.82-12.03,12.82-38.73,27-35,19,5,45,27,48,27,3.36,0,6.48-4.67,6-8-1-7-44-22-45-33-.83-9.18,21-29,31-28s18,12,24,13c3.26.54,8-2.85,8-6,0-5-32-20-33-28s8-20,13-20c19.1,0,61.26,25.16,73,63,9,29-22,146-65,156-24.22,5.63-50.29-7.77-61-13Z"/>
    <path class="cls-9" d="M1823.33,2034.61c-12.61-5.32-14.58-29.4-12-44,3.49-19.74,18.86-42.37,43-45,14.71-1.6,35.14,3.95,40,17,10.04,26.93-47.72,81.83-71,72Z"/>
    <path class="cls-7" d="M537.9,2196.02c-4.67,31.44,37.09,147.65,85.08,159.11,45.15,10.78,80.75-25.25,102.91-58.82,30.63-46.41-51.38-178.67-121.25-173.46-19.94,1.49-62.47,44.43-66.74,73.17Z"/>
    <path class="cls-20" d="M688.01,2326.21c13.57-7.93,20.82-16.6,30.45-35.36,6.09-11.86,3.71-29.85-4.45-32.76-13.39-4.78-41.02,28.13-51.99,28.95-3.52.26-7.55-1.71-6.43-5.54,2.4-8.2,40.32-24.07,51.8-44.98,6.9-12.58-15.67-37.67-29.53-32.89-18.58,6.4-42.87,30.27-45.86,30.5-3.35.25-6.81-4.17-6.58-7.53.48-7.06,42.24-25.21,42.42-36.26.15-9.22-23.1-27.36-33-25.61-10.14,1.78-17.06,13.31-22.97,14.75-3.21.78-8.19-2.24-8.42-5.39-.37-4.99,30.42-22.33,30.82-30.38s-9.47-19.35-14.45-18.98c-19.05,1.42-59.21,29.65-68.11,68.26-6.82,29.59,32.81,143.96,76.43,150.73,24.57,3.81,49.57-11.49,59.86-17.5Z"/>
    <path class="cls-9" d="M704.99,2188.67c12.18-6.25,12.35-30.4,8.69-44.77-4.95-19.42-21.96-40.85-46.23-41.67-14.79-.5-34.75,6.56-38.62,19.93-8,27.6,53.67,78.05,76.16,66.52Z"/>
    <path class="cls-27" d="M1403.5,2633.5c-14.32,55.22-9.97,96.68-6.58,132.46-14.3,7.99-28.6,15.98-42.9,23.96h-.01c-31.67,17.7-63.34,35.39-95.01,53.08-33.25-19.09-66.5-38.19-99.75-57.28-12.73-7.31-25.46-14.62-38.19-21.93,3.41-31.87,3.08-67.94-11.6-108.97-1.22-3.4-2.54-6.84-3.96-10.32-1.22-2.98-2.47-5.87-3.75-8.68,44.66,38.39,89.86,75.32,144.25,79.18.72.05,1.44.1,2.15.13.72.04,1.43.08,2.14.09.71.04,1.42.05,2.13.06.72.02,1.44.02,2.15.02.99,0,1.97-.01,2.95-.04.82-.02,1.62-.05,2.43-.09.07,0,.15-.01.22-.01.35-.01.7-.03,1.05-.06.14,0,.28-.01.42-.02.59-.03,1.18-.07,1.76-.12.07,0,.14-.01.21-.02.09-.01.18-.01.27-.02.72-.05,1.43-.11,2.14-.19.49-.04.99-.09,1.48-.16.4-.03.8-.08,1.19-.13.49-.05.99-.12,1.47-.19.06,0,.11-.01.17-.02.15-.02.3-.04.45-.06.21-.03.41-.06.62-.09.02,0,.05-.01.07-.01s.05-.01.07-.01c.22-.03.44-.06.66-.1.25-.04.5-.08.74-.12.14,0,.27-.04.41-.06.31-.05.62-.1.92-.16.6-.1,1.2-.2,1.8-.32.27-.04.54-.09.81-.15.02,0,.04,0,.06,0,.58-.11,1.17-.23,1.74-.35.08-.02.15-.03.23-.05.22-.04.44-.09.66-.14.15-.03.29-.06.44-.1.21-.04.41-.09.62-.14.35-.08.71-.16,1.06-.25.13-.02.26-.05.39-.09.7-.16,1.4-.34,2.09-.52.34-.08.68-.17,1.01-.27.49-.12.98-.26,1.46-.4.37-.09.74-.2,1.1-.31.04-.01.08-.02.12-.04.24-.06.49-.14.73-.21.25-.07.49-.15.73-.22.45-.13.89-.27,1.34-.42.37-.11.74-.23,1.1-.35.37-.12.74-.24,1.1-.37.32-.11.64-.21.95-.32.32-.11.63-.21.95-.33.52-.18,1.02-.36,1.53-.55.33-.12.66-.24.99-.37,1.8-.68,3.59-1.39,5.36-2.15.57-.23,1.13-.48,1.69-.73.64-.27,1.27-.55,1.89-.85.55-.24,1.1-.49,1.64-.76,2.22-1.04,4.42-2.14,6.59-3.3.79-.42,1.59-.85,2.38-1.29.64-.34,1.28-.7,1.92-1.07.19-.1.37-.2.56-.31.45-.26.9-.52,1.35-.79.57-.33,1.15-.67,1.72-1.02.64-.38,1.27-.76,1.9-1.16.61-.37,1.22-.75,1.82-1.13.58-.36,1.15-.73,1.72-1.1.04-.02.09-.05.13-.08.58-.37,1.15-.75,1.72-1.13.81-.53,1.61-1.07,2.4-1.61.66-.45,1.31-.9,1.96-1.35.61-.43,1.22-.86,1.83-1.29.52-.37,1.04-.75,1.56-1.13,1.12-.81,2.24-1.64,3.36-2.48,1.11-.84,2.22-1.69,3.33-2.55.98-.76,1.95-1.52,2.92-2.3.03-.02.06-.05.09-.07,1.19-.95,2.37-1.92,3.55-2.89.76-.62,1.51-1.25,2.26-1.88,1.5-1.26,3-2.54,4.48-3.84.74-.65,1.48-1.3,2.22-1.95,9.93-8.79,19.48-18.16,28.8-27.55l2.37-2.4c.52-.52,1.03-1.05,1.55-1.57,1.13-1.15,2.26-2.31,3.4-3.46,1.79-1.82,3.58-3.64,5.36-5.45h0c2.29-2.34,4.57-4.66,6.84-6.95-1.7,4.33-3.19,8.89-4.45,13.75Z"/>
    <path class="cls-15" d="M1159.25,2785.72c-12.73-7.31-25.46-14.62-38.19-21.93-10.88-6.25-21.77-12.5-32.65-18.75,1.6-3.64,3.76-8.98,6.59-17.04,13-37,2-89-80-210,.09.09.17.17.26.26h.01c30.01,29.71,51.91,58.04,68.02,84.37.01.02.03.05.04.07.02.02.03.04.04.06,11.25,18.4,19.68,35.83,26.09,52.06,10.29,26.09,15.36,49.11,18.54,68.18,5.09,30.55,28.33,47.8,31.25,62.72Z"/>
    <path class="cls-15" d="M1489.35,2504.54c-3.61,5.32-7.08,10.51-10.42,15.57-.07.11-.15.23-.22.34-1.71,2.6-3.39,5.17-5.04,7.71-.02.03-.04.07-.06.1-67.65,104.27-76.38,151.79-64.26,186.28,12.62,35.9,11.87,17.96,8,35-.46,2.02-1.21,4.11-2.21,6.24-6.07,3.39-12.15,6.79-18.22,10.18-14.3,7.99-28.6,15.98-42.9,23.96h-.01c-3.04-1.76-5.65-4.5-7.66-8.38-9.01-17.49,23.83-34.98,30-72,3.76-22.57,10.18-50.66,24.76-82.84h0c16.04-35.41,41.98-75.74,85.14-119.07,1.02-1.03,2.06-2.06,3.1-3.09Z"/>
  </g>
  <path class="cls-2" d="M1259.7,2.36L.22,729.52v1454.32l1259.48,727.16,1259.47-727.16V729.52L1259.7,2.36ZM2412.1,2122.02l-1152.4,665.35L107.29,2122.02V791.34L1259.7,126l1152.4,665.34v1330.68Z"/>
  <g>
    <path class="cls-13" d="M1512.11,1230.44c-213.99,26.31-427.99,52.61-641.98,78.92-12.3-70.27-24.6-140.55-36.9-210.82-13.61,13.36-57.55,53.06-122.1,55.53-90.04,3.44-170.67-67.49-184.36-134.25-19.07-92.95,81.19-228.6,265.7-258.02,47.03-127.37,160.32-213.84,286.82-219.5,162.74-7.29,262.06,122.97,270.84,134.89,33.96-15.22,90.25-33.95,157.23-25.13,135.72,17.86,278.46,143.95,260.33,261.52-9.45,61.27-63.73,127.7-137.09,140.35-59.26,10.22-106.86-18.82-121.48-28.58,1,68.36,2,136.73,3,205.09Z"/>
    <path class="cls-33" d="M1767.5,913.04c-9.44,61.27-63.74,127.7-137.09,140.35-59.26,10.22-106.85-18.82-121.48-28.58.64,44.25,1.3,88.48,1.94,132.71-4.78-6.36-9.16-13.79-10.55-16.07-20.35-33.63-52.04-50.35-97.34-74.29-63.2-33.38-129.51-33.1-184.12-32.88-114.41.47-114.73,33.67-258.75,59.85,0,0-64.65,11.75-65.47,35.4-.14,3.91,1.86,10.94,1.23,24.67-.12,2.4-.45,9.69-1.66,14.92-.85,3.63-4.73,17.47-27.27,31.03-4.85,2.91-9.79,5.36-14.71,7.41-6.4-36.53-12.78-73.05-19.19-109.58-13.6,13.36-57.56,53.06-122.1,55.53-35.85,1.36-70.23-9.07-99.49-26.33,31.76-3.01,58.89-6.56,80.89-9.83,27.74-4.15,70.8-11.38,73.02-28.36,1.67-12.74-20.93-21.46-18.36-31.23,3.27-12.43,42.15-6.6,95.32-14.63,50.52-7.63,95.02-24.95,94.21-36.83-.48-7.3-17.56-6.35-27.57-23.36-6.06-10.28-9.12-26.43-1.84-37,1.61-2.33,7.86-10.41,30.65-11.42,25.42-1.14,42.02,7.8,73.08,21.09,0,0,35.92,15.35,68.54,26.26,40.48,13.54,60.7,20.3,72.96,18.63,42.57-5.85,50.2-50.39,122.28-100.05,0,0,20.43-14.07,51.71-22.35,17.8-4.72,33.66-8.67,43.24.32,8.39,7.87,8.61,22.54,6.39,31.83-2.92,12.16-9.82,14.06-20.08,30.67-8.58,13.88-15.64,25.33-12.78,32.78,6.75,17.52,70.31,17.37,124.67-3.73,49.89-19.35,89.18-41.53,89.18-41.53,17.35-9.79,33.65-20.1,40.11-14.36,8.01,7.12-4.07,34.45-5.35,37.36-13.19,29.86-35.01,41.45-31.08,51,2.05,4.99,9.77,6.17,14.74,6.69,48.47,5.11,87.89-19.21,87.89-19.21,27.14-16.73,46.62-40.82,84.45-88.27,8.21-10.27,14.86-18.91,20.34-26.06,1.49,12.49,1.36,25.01-.56,37.44Z"/>
    <path class="cls-24" d="M746.64,1050.37c32.83,24.76,82.6,27.04,121.86,20.48,28.94-4.98,56.22-15.99,81.73-30.61-12.81,13.38-28.54,24.2-45.74,31.9-34.47,15.51-74.66,19.18-111.06,8.44-17.84-5.49-35.76-14.73-46.8-30.21h0Z"/>
    <path class="cls-24" d="M1362.21,1019.75c64.67,9.47,162.53-23.23,207.39-71.02,7.46-7.9,13.63-16.84,18.26-26.75-1.55,8.22-4.6,16.26-8.81,23.51-35.93,62.56-150.04,101.1-216.84,74.26h0Z"/>
    <path class="cls-24" d="M1233.18,984.13c12.76-12.2,26.95-21.6,40.48-32.44,14.24-11.73,25.42-25.94,38.43-39.38,8.38-8.71,17.02-17.26,26.73-24.92-2.71,5.58-5.79,10.84-8.94,16.06-9.74,15.65-19.95,30.4-32.79,44.02-4.88,5.08-10.37,9.82-16.23,13.85-14.78,9.78-30.94,17.06-47.68,22.82h0Z"/>
    <path class="cls-24" d="M945.45,944.04c46.24,36.95,97.22,67.35,154.02,84.41,2.15.6,7.16,2.07,9.32,2.71,6.24,1.94,12.63,3.25,18.93,5.19-69.04,2.92-142.64-36.28-182.28-92.32h0Z"/>
    <path class="cls-14" d="M1512.11,1230.44c-213.99,26.31-427.99,52.61-641.98,78.92-12.3-70.27-24.6-140.55-36.9-210.82-13.61,13.36-57.55,53.06-122.1,55.53-90.04,3.44-170.67-67.49-184.36-134.25-19.07-92.95,81.19-228.6,265.7-258.02,47.03-127.37,160.32-213.84,286.82-219.5,162.74-7.29,262.06,122.97,270.84,134.89,33.96-15.22,90.25-33.95,157.23-25.13,135.72,17.86,278.46,143.95,260.33,261.52-9.45,61.27-63.73,127.7-137.09,140.35-59.26,10.22-106.86-18.82-121.48-28.58,1,68.36,2,136.73,3,205.09Z"/>
  </g>
  <g>
    <path class="cls-26" d="M1827.27,1690.28c-2.24-7.45-4.58-14.87-7.01-22.29-16.95-51.49-38.46-101.93-62.15-148.86,10.42-8.87,19.04-18.82,25.37-29.7,160-275.52,95.92-535.6,58.09-559.02-31.41-19.45-354.7,134.36-404.82,292.77-27.25-4.05-56.46-6.5-86.94-7.45-21.56-.68-43.77-.6-66.34.21-53.7,1.92-109.53,7.93-164.1,17.67-21.79,3.89-43.38,8.35-64.55,13.4-37.38,8.9-73.47,19.58-107.08,31.88-91.13-138.81-423.89-219.03-450.07-194.16-31.69,30.11-41.59,289.16,160.1,523.07-21.03,57.68-36.2,118.19-36.9,171.97-.26,19.48,1.39,38.07,5.37,55.33.39,1.73.81,3.45,1.24,5.14,49.99,191.9,322.56,292.18,636.99,264.47,347.81-30.64,592.27-212.69,568.74-387.08-1.23-9.14-3.21-18.29-5.93-27.37ZM759.26,1404.36c1.05-1.6,2.1-3.13,3.13-4.63-1.02,1.48-2.06,3.03-3.13,4.63ZM1644.83,1339.76c2.44,3.02,4.89,6.11,7.32,9.26-2.45-3.14-4.89-6.24-7.32-9.26ZM1659.54,1358.67c2.48,3.29,4.97,6.64,7.45,10.06-2.5-3.42-4.98-6.77-7.45-10.06ZM1674.47,1379.15c2.5,3.53,5.02,7.13,7.51,10.79-2.52-3.66-5.02-7.26-7.51-10.79Z"/>
    <path class="cls-29" d="M1101.59,1790.26c-25.97,51.16-109.28,54.11-122.56,54.83-10.49.57-89.68,5.92-119.33-45.15-29.03-49.99,14.51-199.97,109.96-199.1,83.68.76,158.54,137.01,131.93,189.42Z"/>
    <path class="cls-19" d="M797.09,1360.57c-5.22,4.45-10.18,9-14.8,13.63-18.96,18.96-67.84,96.53-106.9,188.85-54.94-67.23-157.01-208.46-159.99-436.39,29.16,5.84,203.34,147.43,281.69,233.91Z"/>
    <path class="cls-19" d="M1736.71,1478.72c-51.73-93.35-109.85-168.16-152.3-201.9,84.87-154.12,251.73-303.35,251.73-303.35,0,0,65.84,281.34-99.43,505.25Z"/>
    <path class="cls-32" d="M1623.27,1744.3c-25.97,51.16-106.86,58.14-120.14,58.86-10.49.57-97.74,4.31-127.4-46.77-29.03-49.99,30.79-197.62,114.5-201.58,83.59-3.96,159.65,137.07,133.04,189.48Z"/>
    <circle class="cls-17" cx="1521.68" cy="1647.54" r="24.19"/>
    <ellipse class="cls-17" cx="1448.42" cy="1632.64" rx="32.11" ry="26.63" transform="translate(-732.97 1703.23) rotate(-50.28)"/>
    <path class="cls-18" d="M1589.41,1705.6c-4.03,44.35-19.07,80.03-86.28,84.66-93.53,6.45-106.43-59.67-106.43-59.67,0,0,37.09,25.8,111.27,20.96,38.85-2.53,54.83-11.29,81.44-45.96Z"/>
    <ellipse class="cls-17" cx="947.19" cy="1668.42" rx="28.82" ry="23.9" transform="translate(-941.38 1330.64) rotate(-50.28)"/>
    <circle class="cls-17" cx="1003.22" cy="1688.66" r="24.19"/>
    <path class="cls-18" d="M1068.83,1751.62c-4.03,44.35-24.21,75.94-91.42,80.57-93.53,6.45-91.92-74.18-91.92-74.18,0,0,16.13,37.09,90.31,32.25,38.85-2.53,66.42-3.97,93.03-38.64Z"/>
    <ellipse class="cls-21" cx="996.77" cy="1487.08" rx="36.28" ry="26.61" transform="translate(-220.09 173.98) rotate(-8.99)"/>
    <ellipse class="cls-21" cx="1444.27" cy="1449.99" rx="33.06" ry="25"/>
    <path class="cls-31" d="M1131.42,1483.05c-9.06,3.02-58.47-136.23-76.62-236.04,21.17-5.05,42.77-9.51,64.55-13.4,9.51,83.7,20.06,246.76,12.06,249.44Z"/>
    <path class="cls-31" d="M1349.8,1215.73c-6.26,81.26-28.83,253.65-37.46,254.73-9.74,1.24-31.93-152.97-28.88-254.52"/>
    <path class="cls-31" d="M790.45,1806.11c1,7.1-80.57,22.03-164.21,29-3.98-17.26-5.63-35.85-5.37-55.33,80.15,8.19,168.73,20.17,169.58,26.33Z"/>
    <path class="cls-31" d="M1833.2,1717.64c-73.79,5.42-147.83,8.4-149.6,3.03-2.08-6.24,63.2-31.58,136.65-52.68,2.43,7.42,4.77,14.84,7.01,22.29,2.73,9.08,4.71,18.22,5.93,27.37Z"/>
    <path class="cls-6" d="M1296.72,1788.65c7.05,15.52-33.87,56.44-56.44,58.05-20.97,1.5-67.01-30.38-62.89-46.77,6.65-26.43,108.24-35.74,119.33-11.29Z"/>
    <path class="cls-4" d="M1241.06,1845.89c.28,12.09.55,24.19.83,36.28-30.64,61.28-91.92,40.32-108.05,4.84"/>
    <path class="cls-4" d="M1241.89,1882.18c30.64,40.32,87.08,48.38,115.3-16.93"/>
    <path class="cls-3" d="M923.39,1887.82c-194.32-.81-287.85,26.61-403.16,66.12"/>
    <path class="cls-3" d="M942.39,1929.12c-176.46,81.39-249.64,145.77-337.44,230.3"/>
    <path class="cls-3" d="M929.45,1900.63c-189.89,41.27-275.27,88.28-379.29,151.81"/>
    <path class="cls-3" d="M1975,1942.64c-184.26-61.72-281.67-65.03-403.55-63.68"/>
    <path class="cls-3" d="M1925.04,2084.61c-156.14-115.68-247.75-148.95-364.07-185.37"/>
    <path class="cls-3" d="M1987.33,1826.7c-193.02-22.43-289.03-5.59-408.01,20.84"/>
    <path class="cls-12" d="M1827.27,1690.28c-2.24-7.45-4.58-14.87-7.01-22.29-16.95-51.49-38.46-101.93-62.15-148.86,10.42-8.87,19.04-18.82,25.37-29.7,160-275.52,95.92-535.6,58.09-559.02-31.41-19.45-354.7,134.36-404.82,292.77-27.25-4.05-56.46-6.5-86.94-7.45-21.56-.68-43.77-.6-66.34.21-53.7,1.92-109.53,7.93-164.1,17.67-21.79,3.89-43.38,8.35-64.55,13.4-37.38,8.9-73.47,19.58-107.08,31.88-91.13-138.81-423.89-219.03-450.07-194.16-31.69,30.11-41.59,289.16,160.1,523.07-.34.93-.9,2.47-1.58,4.38-25.04,69.96-34.67,130.56-35.32,167.59-.51,28.91,4.35,50.78,5.37,55.33.39,1.73.81,3.45,1.24,5.14,49.99,191.9,322.56,292.18,636.99,264.47,347.81-30.64,592.27-212.69,568.74-387.08-1.23-9.14-3.21-18.29-5.93-27.37Z"/>
    <path class="cls-19" d="M525.08,1113.76c94.61,78.48,189.21,156.96,283.82,235.44"/>
    <path class="cls-5" d="M657.31,1607.23c38.7-87.08,87.08-168.79,140.3-246.73-98.37-101.6-156.42-151.59-282.21-233.83"/>
    <path class="cls-5" d="M1758.73,1518.53c-53.22-95.14-132.24-190.29-168.48-244.26,83.01-118.58,141.06-202.44,245.88-300.81"/>
  </g>
  <g>
    <path class="cls-1" d="M1375.51,377.11c-9.3,16.11-8.11,25.45-13.66,35.07-7.35,12.73-18.15,22.43-37.63,11.18-17.93-10.35-15.41-23.1-7.31-37.13,4.95-8.57,17.39-27.72,25.79-42.27,13.8-23.9,6.03-26.65,13.53-39.64,4.05-7.02,13.13-14.94,30.28-5.04,14.81,8.55,17.65,21.62,13.18,31.17,10.72-8.36,21.37-11.22,38.78-1.17s22.19,31.17,11.09,50.4c-9.9,17.15-24.18,24.49-38.21,16.39-7.79-4.5-11.78-12-7.58-19.27s3.7-12.41-3.31-16.46c-8.57-4.95-15.63.67-24.93,16.78Z"/>
    <path class="cls-1" d="M1537.97,386.72c24.68,14.25,38.83,38.35,22.48,66.67-11.25,19.49-30.85,25.84-55.79,11.44-19.23-11.1-22.71-22.46-17.16-32.08,5.1-8.83,15.14-8.23,19.56-5.68,5.72,3.3,6.37,5.76,8.45,6.96,1.56.9,4.65.95,6.15-1.65,1.65-2.86,1.33-6.51-5.68-10.56-10.13-5.85-26.04-9.49-35.94,7.65-8.85,15.33-5.35,30.86,17.26,43.91,5.98,3.45,20.41,4.85,28.46,9.5,10.65,6.15,11.95,15.9,6.7,25-8.55,14.81-27.14,20.01-62.22-.24-40.01-23.1-49.26-59.27-27.66-96.69,17.25-29.88,54.88-47.65,95.41-24.25Z"/>
    <path class="cls-1" d="M1659.56,456.92c23.9,13.8,38.97,40.51,24.87,64.93-8.1,14.03-20.62,18.92-32.32,12.17-15.33-8.85-14.47-18.74-10.27-26.02,2.7-4.68,1-7.74-5.23-11.34-13.25-7.65-24.14-3.2-31.04,8.76-6.3,10.91-7.1,24.3,5.89,31.8,17.15,9.9,22.76,3.78,33.15,9.78,14.29,8.25,11.92,23.16,7.72,30.44-9,15.59-32.45,16.6-62.85-.95-35.85-20.7-46.67-57.77-25.07-95.19,17.25-29.88,54.88-47.65,95.15-24.4Z"/>
    <path class="cls-1" d="M1778.25,449.93c13.77,7.95,20.64,18.85,12.54,32.88-5.7,9.87-19.21,17.66-33.24,9.56-8.05-4.65-25.26-18.05-15.06-35.72,7.05-12.21,23.54-13.77,35.75-6.72ZM1708.86,515.52c9.6-16.63,24.07-15.89,34.2-10.04,12.73,7.35,20.6,19.52,14.15,30.69-8.25,14.29-12.42,14.31-20.52,28.34l-14.55,25.2c-4.05,7.02-3.5,9.06.4,11.31,1.56.9,3.42,1.28,6.02,2.78,7.53,4.35,9.62,12.14,3.02,23.57-9,15.59-22.55,17.46-41.78,6.36s-30.15-30.57-11.44-62.38l19.16-32.59c3.6-6.24,6.24-14.41,11.34-23.24Z"/>
    <path class="cls-1" d="M1752.49,717.74c-7.5,12.99-19.9,15.87-34.71,7.32-13.51-7.8-17.99-20.43-10.64-33.17,4.05-7.01,11.46-16.25,17.76-27.16l49.8-86.26c6.15-10.65,7.3-18.65,10.9-24.88,5.55-9.61,15.29-15.08,28.54-7.43,14.55,8.4,14.55,17.41,7.94,31.26,9.83-9.22,24.28-12.66,42.99-1.86,35.85,20.7,37.93,55.5,17.68,90.58s-56.17,46.9-87.09,29.05c-11.95-6.9-20.5-16.69-21.99-25.51l-13.69,24.31c-3.6,6.24-3.57,16.99-7.47,23.75ZM1834.24,609.74c-14.03-8.1-25.02,2.53-31.92,14.48s-4.09,23.28,6.83,29.58c14.29,8.25,25.42-.22,31.87-11.39,8.25-14.29,4.92-25.91-6.78-32.66Z"/>
    <path class="cls-1" d="M1991.32,648.47c24.68,14.25,38.83,38.35,22.48,66.67-11.25,19.49-30.85,25.84-55.79,11.44-19.23-11.1-22.71-22.46-17.16-32.08,5.1-8.83,15.14-8.23,19.56-5.68,5.72,3.3,6.37,5.76,8.45,6.96,1.56.9,4.65.95,6.15-1.65,1.65-2.86,1.33-6.51-5.68-10.56-10.13-5.85-26.04-9.49-35.94,7.65-8.85,15.33-5.35,30.86,17.26,43.91,5.98,3.45,20.41,4.85,28.46,9.5,10.65,6.15,11.95,15.9,6.7,25-8.55,14.81-27.14,20.01-62.22-.24-40.01-23.1-49.26-59.27-27.66-96.69,17.25-29.88,54.88-47.65,95.41-24.25Z"/>
    <path class="cls-1" d="M2039.69,715.88c12.77-2.32,34.97-7.18,43.37-12.72,12.32-8.13,22.65-5.63,28.63-2.18,9.09,5.25,15.35,19.6,9.35,30-2.4,4.16-6.28,6.08-8.48,6.88,3.28,23.72,24.55,52.28,4.9,86.31-14.55,25.2-41.12,33.42-75.67,13.47-27.28-15.75-35.84-41.13-26.54-57.24,6.9-11.95,19.64-16.02,33.93-7.77,16.11,9.3,2.18,19.62,13.35,26.07,6.76,3.9,14.35,2.74,18.25-4.01,6.15-10.65-5.06-25.44-8.26-41.49-15.42,3.91-25.58,11.91-43.51,1.56-10.65-6.15-9.66-20.47-6.06-26.71,2.85-4.94,8.57-10.64,16.72-12.17Z"/>
  </g>
</svg>