<?xml version="1.0" encoding="UTF-8"?>
<svg id="rsample" xmlns="http://www.w3.org/2000/svg" viewBox="0 0 2518.95 2908.64">
  <defs>
    <style>
      .cls-1 {
        fill: #f7f7f7;
      }

      .cls-1, .cls-2, .cls-3, .cls-4, .cls-5, .cls-6, .cls-7, .cls-8, .cls-9, .cls-10, .cls-11, .cls-12, .cls-13, .cls-14, .cls-15, .cls-16 {
        stroke-miterlimit: 10;
      }

      .cls-1, .cls-6, .cls-7, .cls-8, .cls-12, .cls-14, .cls-15, .cls-16 {
        stroke: #1a1a1a;
      }

      .cls-1, .cls-8, .cls-15 {
        stroke-width: 4px;
      }

      .cls-2, .cls-3, .cls-4, .cls-5, .cls-13 {
        stroke: #471407;
      }

      .cls-2, .cls-3, .cls-4, .cls-6, .cls-7, .cls-8, .cls-10, .cls-16 {
        fill: none;
      }

      .cls-2, .cls-9, .cls-16 {
        stroke-width: 10px;
      }

      .cls-3, .cls-6 {
        stroke-width: 12px;
      }

      .cls-4, .cls-5, .cls-10, .cls-12 {
        stroke-width: 7px;
      }

      .cls-17 {
        fill: #d9d0cd;
      }

      .cls-5, .cls-18 {
        fill: #aa7a4c;
      }

      .cls-7, .cls-13, .cls-14 {
        stroke-width: 6px;
      }

      .cls-19 {
        fill: #140d13;
      }

      .cls-20 {
        fill: #eea19f;
      }

      .cls-21 {
        fill: #531b10;
      }

      .cls-9 {
        fill: #cc6c67;
        stroke: #000;
      }

      .cls-22 {
        fill: #d17775;
      }

      .cls-23 {
        fill: #7e5331;
      }

      .cls-24 {
        fill: #8c5f3f;
      }

      .cls-10 {
        stroke: #ba4b94;
      }

      .cls-25 {
        fill: #7d5037;
      }

      .cls-26 {
        fill: #343436;
      }

      .cls-27 {
        fill: #fef8d8;
      }

      .cls-28, .cls-14, .cls-15 {
        fill: #fff;
      }

      .cls-29 {
        fill: #8a583c;
      }

      .cls-11 {
        stroke: #b5a869;
        stroke-width: 15px;
      }

      .cls-11, .cls-30 {
        fill: #e6dfbb;
      }

      .cls-31 {
        fill: #ab7b4d;
      }

      .cls-32 {
        fill: #ca9369;
      }

      .cls-33 {
        fill: #875837;
      }

      .cls-34 {
        fill: #e3b98c;
      }

      .cls-12 {
        fill: #e4e2e0;
      }

      .cls-12, .cls-16 {
        stroke-linecap: round;
      }

      .cls-35 {
        fill: #f2f2f2;
      }

      .cls-13 {
        fill: #91583b;
      }

      .cls-36 {
        fill: #f8e081;
      }

      .cls-37 {
        fill: #8e5f3e;
      }

      .cls-38 {
        fill: #855640;
      }

      .cls-39 {
        fill: #6f4530;
      }

      .cls-40 {
        fill: #562d2b;
      }
    </style>
  </defs>
  <polygon class="cls-27" points="0 727.16 0 2181.48 1259.48 2908.64 2518.95 2181.48 2518.95 727.16 1259.48 0 0 727.16"/>
  <path class="cls-30" d="M1259.48,0L0,727.16v1454.32l1259.48,727.16,1259.47-727.16V727.16L1259.48,0ZM2411.88,2119.66l-1152.4,665.35L107.07,2119.66V788.98L1259.48,123.64l1152.4,665.34v1330.68Z"/>
  <path class="cls-31" d="M1989.86,2190.93c-1.79,10.44-4.06,17.35-6.86,19.07-1.91,1.17-7.84,5.09-16.82,9.79-6.79,3.57-15.33,7.59-25.18,11.21-8.7,3.2-16.1,5.27-23.15,6.95-4.68,1.12-9.21,2.06-13.85,3.05-4.9,1.05-9.35,2.02-13.4,2.94-42.91,9.7-41.16,12.33-62.6,15.06-44.42,5.66-64.5,5.04-75.68,3.75-7.58-.86-11.09-2.03-15.32-1.75-3.38.23-6.05,1.57-13.24,3.11-8.75,1.89-24.19,4.07-55.76,4.89-27.49.72-38.36.33-46-1-16.87-2.94-40.01-6.98-55-25-4.67-5.61-7.2-10.97-15-38-4.23-14.66-9.37-33.48-14.68-55.68-.11-.44-.21-.88-.32-1.32-25.94,2.79-56.09,7.87-89,17-41.11,11.4-75.64,26.1-103,40,.69,4.03,0,11.17-1.38,18.87-1.88,10.51-5.02,22.07-7.62,28.13-8.54,10.51-19.9,13.79-36,18-40.61,10.63-67.32,15.66-88,20-40.56,8.51-65.3,15.88-79.69,10.02-2.38-.96-4.47-2.28-6.31-4.02-2.36-2.24-10.65-9.12-14-8-3.05,1.02-8.97,5.67-13.32,8.58-2.08,1.4-3.8,2.39-4.68,2.42-61.74,1.48-178.6-2.4-232.53-12.14-.67-.12-1.32-.24-1.97-.36-3.43-.65-9.13-13.83-19-14-7.13-.12-10.22,9.12-17.8,10.08-.98.13-2.04.11-3.2-.08-12-2-23.11-2.26-29-5-1.17-.54-29.11-7.36-85-21-56.73-13.84-93.3-17.81-107-31-.23-.22-.55-.54-.95-.92-2.42-2.3-7.93-7.08-16.05-9.08-5-1.23-9.47-1.03-12.47-.64-1.71.23-2.94.51-3.53.64-28.88,6.09-116.56-38.15-170-63-5.27-2.45-16.28-7.53-25-19-6.43-8.45-11.57-17.55-12-32-.06-2.2-.13-4.35-.19-6.45-.9-30.3-1.29-50.36,6.19-76.55,5.92-20.71,30.21-25.2,37-28,1.03-.42,2.11-.85,3.28-1.26,6.96-2.5,16.89-4.75,36.72-5.74,36.63-1.83,64.59,2.76,66,3,63.19,10.75,120,37,120,37,0,0,68.8,31.79,188,74,59.63,21.12,185.71,64.56,326,55,48.19-3.28,83.27-11.81,92-14,57.33-14.36,73.25-29.38,135-54,44.88-17.9,105.01-41.87,181-48,48.34-3.9,39.68,4.54,128,3,51.31-.9,84.21-4.93,150-13,2.35-.29,4.62-.57,6.81-.85,2.92-.37,5.71-.73,8.36-1.08.66-.08,1.32-.17,1.96-.26,2.67-.35,5.2-.7,7.6-1.04.64-.09,1.28-.18,1.9-.27.45-.06.89-.13,1.32-.19,1.11-.16,2.19-.32,3.24-.47.86-.13,1.69-.26,2.51-.38,7.84-1.2,14-2.28,18.86-3.28.54-.12,1.06-.23,1.57-.34,1.07-.23,2.07-.45,3-.67.38-.09.75-.18,1.1-.27.25-.06.49-.12.72-.18,4.97-1.26,7.97-2.41,10-3.54.17-.09.33-.18.48-.27.03-.02.05-.04.08-.05,2.77-1.68,3.61-3.31,5.81-5.19.11-.1.24-.2.36-.3.05-.04.11-.09.17-.13.11-.09.23-.18.35-.27.09-.07.18-.14.28-.21.19-.14.39-.28.6-.42.32-.21.66-.43,1.03-.64.12-.08.25-.15.37-.22.65-.37,1.38-.75,2.2-1.15.16-.07.33-.15.5-.23,1.04-.48,2.22-.98,3.58-1.49.23-.09.46-.17.69-.26.48-.17.97-.35,1.48-.53.26-.09.52-.18.79-.27.27-.09.55-.18.82-.27.56-.19,1.14-.37,1.74-.56h.01c.61-.19,1.23-.39,1.89-.58.05-.02.11-.03.17-.05.6-.18,1.22-.36,1.87-.54.12-.04.25-.08.38-.11.39-.11.78-.22,1.19-.33,2.43-.67,5.16-1.37,8.21-2.11,3.25-.78,8.99-2.12,13-7,.76-.92,1.39-1.9,1.92-2.91.42-.81.78-1.64,1.07-2.49.46-1.32.78-2.68.99-4.06.1-.57.17-1.16.23-1.74.18-1.85.21-3.7.16-5.5-.01-.88-.05-1.74-.09-2.59,0-.08-.01-.16-.01-.25-.06-1.21-.12-2.39-.17-3.5,0-.09-.02-.18,0-.27-.05-1.12-.07-2.18-.04-3.16.01-.18.01-.36.02-.53,0-.21.02-.42.04-.62.01-.14.03-.27.04-.4.02-.18.04-.37.07-.54.02-.13.05-.27.07-.4.08-.45.19-.87.34-1.25.05-.13.1-.25.15-.37s.11-.23.16-.34c0-.01.01-.01.01-.02.06-.11.13-.22.2-.32.06-.1.13-.2.22-.29.04-.08.11-.15.18-.22.05-.06.1-.11.15-.15.06-.06.12-.11.18-.16.09-.08.19-.16.3-.23.1-.07.21-.13.32-.19,1.3-.68,3.25-.21,6.37,1.13.11.05.22.09.33.14,1.72.75,3.81,1.76,6.32,2.98,6.55,3.18,11.62,6.42,14.98,8.75,0,0,11.92,3.51,13,13,4.51,39.73,5.99,159.63-2.14,206.93Z"/>
  <path class="cls-38" d="M1343.62,2223.87c-1.88,10.51-5.02,22.07-7.62,28.13-8.54,10.51-19.9,13.79-36,18-40.61,10.63-67.32,15.66-88,20-40.56,8.51-65.3,15.88-79.69,10.02-2.38-.96-4.47-2.28-6.31-4.02-2.36-2.24-10.65-9.12-14-8-3.05,1.02-8.97,5.67-13.32,8.58-2.08,1.4-3.8,2.39-4.68,2.42-61.74,1.48-178.6-2.4-232.53-12.14-.67-.12-1.32-.24-1.97-.36-3.43-.65-9.13-13.83-19-14-7.13-.12-10.22,9.12-17.8,10.08-.98.13-2.04.11-3.2-.08-12-2-23.11-2.26-29-5-1.17-.54-29.11-7.36-85-21-56.73-13.84-93.3-17.81-107-31-.23-.22-.55-.54-.95-.92-2.42-2.3-7.93-7.08-16.05-9.08-5-1.23-9.47-1.03-12.47-.64-1.71.23-2.94.51-3.53.64-28.88,6.09-116.56-38.15-170-63-5.27-2.45-16.28-7.53-25-19-6.43-8.45-11.57-17.55-12-32-.06-2.2-.13-4.35-.19-6.45,23.97,2.79,59.69,8.98,108.19,17.45,26.5,4.63,39.96,7.01,50,10,55.73,16.6,91.09,47.24,102,56,55.11,44.25,139.83,54.98,290,74,75.79,9.6,168.01,20.63,288,4,58.87-8.16,108.71-20.8,147.12-32.63Z"/>
  <path class="cls-21" d="M861.47,2286.86c-.67-.12-1.32-.24-1.97-.36-3.43-.65-9.13-13.83-19-14-7.13-.12-10.22,9.12-17.8,10.08,2.51-16.96,4.91-29.37,8.8-37.08,7.89-15.65,13.57-16.9,16-17,8.64-.37,15.94,4.05,17,15,1.48,15.29-.45,30.59-3.03,43.36Z"/>
  <path class="cls-21" d="M597.55,2224.58c4.71-15.4,8.93-27.68,8.95-36.08.01-7.18.04-21.94-6-24-7.37-2.51-19.29,15.42-21,18-4.12,6.18-7.12,17.15-10.47,32.36"/>
  <path class="cls-21" d="M1132.31,2300.02c-2.38-.96-4.47-2.28-6.31-4.02-2.36-2.24-10.65-9.12-14-8-3.05,1.02-8.97,5.67-13.32,8.58-.55-14.88-.77-25.49,1.82-32.08,1.84-4.68,8.83-22.49,17-22,6.69.4,10.92,12.87,13,19,2.74,8.08,2.72,20.87,1.81,38.52Z"/>
  <path class="cls-18" d="M2021.28,1236.65c-10.23,4.68-20.49,12.77-26.78,22.85-5.25,8.4-6.54,16.27-7,19-3.3,19.6-11.63,59.26-23.56,113.89-1.91,8.77-3.92,17.92-6.01,27.44-3.96.95-7.57,1.42-10.43,1.67-1.53,12.74-3.32,24.19-5.19,34.51h0c-5.45,30.2-11.57,50.84-13.81,66.49-4.13,28.94-1,61-1,88,0,1.24-1,2.99-2.36,5.03-2.96,4.42-7.64,10.18-7.64,14.97,0,10.21,6.04,17.87,7,20,2.48,5.51,5.65,14.91,9.19,26.71,9.34,31.03,21.24,78.61,29.81,115.29,11.07,47.36,6.93,105.96-3.7,155.84-53.66,21.3-99.26,30.11-131.3,34.16-78.94,9.97-156.51,1.24-203-4-52.79-5.95-44.57-8.85-67-9-54.11-.37-86.52,16.62-219,76-77.07,34.54-89.08,39.09-110,43-47.74,8.92-81.36,3.19-140-4-139.98-17.16-121.07-5.68-192-18-56.8-9.87-153.77-31.96-261-86-92.25-46.49-140.09-70.6-152-121-.19-.78-.36-1.57-.52-2.35,17.89-28.47,54.78-74.58,118.52-98.65,55.17-20.84,156.08-24.2,179-20,.63-1.37,1.33-2.84,2.09-4.39,3.82-7.71,9.39-17.45,17.37-27.62,2.58-3.3,5.43-6.65,8.54-9.99,20.21-21.66,40.51-30.66,63.6-40.76h.01c19.84-8.69,41.74-18.19,67.39-37.24,14.62-10.85,30.37-22.55,46-43,45.62-59.68,41.27-130.31,41-139-1-32-1-42-24-107-6.81-19.26-3-40-4-67-.33-9.01,7.87-31.07,27-45,8.64-6.29,17.32-8.91,22.91-10.17,1.67-.38,3.06-.63,4.09-.83,38.45-7.34,63.37-25.56,105-41,134.77-49.97,262-63,262-63,192.11-19.21,359.32,26.08,392,49,3.43,2.4,16.68,9.18,38,13,18.26,3.27,32.52.79,42,2,51.34,6.53,87,14.81,116.73,41.92,2.12,1.93,4.21,3.95,6.27,6.08,4.64,4.79,5.75,11.89,5.78,22.15Z"/>
  <path class="cls-37" d="M1933.69,1677.21c-13.85-4.27-25.55-9.11-35.19-13.71-6.01-2.87-52.38-25-49-38,1.57-6.04,13.77-9.75,62-10,4.32-.02,8.87-.02,13.64.03-2.96,4.42-7.64,10.18-7.64,14.97,0,10.21,6.04,17.87,7,20,2.48,5.51,5.65,14.91,9.19,26.71Z"/>
  <path class="cls-34" d="M1983,2210c-1.91,1.17-7.84,5.09-16.82,9.79,2.11-71.1,4.21-142.19,6.32-213.29-25.16,2.29-50.33,4.58-75.49,6.86,2.77-1.68,3.61-3.31,5.81-5.19.11-.1.24-.2.36-.3.05-.04.11-.09.17-.13.11-.09.23-.18.35-.27.09-.07.18-.14.28-.21.19-.14.39-.28.6-.42.32-.21.66-.43,1.03-.64.12-.08.25-.15.37-.22.65-.37,1.38-.75,2.2-1.15.16-.07.33-.15.5-.23,1.04-.48,2.22-.98,3.58-1.49.23-.09.46-.17.69-.26.48-.17.97-.35,1.48-.53.26-.09.52-.18.79-.27.27-.09.55-.18.82-.27.56-.19,1.14-.37,1.74-.56h.01c.61-.19,1.23-.39,1.89-.58.05-.02.11-.03.17-.05.6-.18,1.22-.36,1.87-.54.12-.04.25-.08.38-.11.39-.11.78-.22,1.19-.33,2.43-.67,5.16-1.37,8.21-2.11,3.25-.78,8.99-2.12,13-7,.76-.92,1.39-1.9,1.92-2.91.42-.81.77-1.64,1.07-2.49.46-1.32.78-2.68.99-4.06.1-.57.17-1.16.23-1.74.18-1.85.21-3.7.16-5.5-.01-.88-.05-1.74-.09-2.59,0-.08-.01-.16-.01-.25-.06-1.21-.13-2.38-.17-3.5,0-.09-.02-.18,0-.27-.06-1.12-.08-2.18-.04-3.16,3.16-1.65,6.21-3.24,9.15-4.76,1.72.75,3.81,1.76,6.32,2.98,6.55,3.18,11.62,6.42,14.98,8.75,0,0,11.92,3.51,13,13,5.5,48.5,6.5,216.5-9,226Z"/>
  <path class="cls-33" d="M2009.23,1208.42c-10.1,14.4-21.91,27.53-34.73,38.08-44.74,36.8-99.29,40.05-132,42-90.1,5.36-124.7-32.51-237-23-5.45.46-25.2,2.19-50,7-111.72,21.65-176.5,75.58-251,119-46.61,27.16-117.69,62.25-216,88,6.26-92.36-1.75-156.11-8-191-4.1-22.85-8.83-41.1-19-61-3.87-7.57-7.94-14.24-12.09-20.17,1.67-.38,3.06-.63,4.09-.83,38.45-7.34,63.37-25.56,105-41,134.77-49.97,262-63,262-63,192.11-19.21,359.32,26.08,392,49,3.43,2.4,16.68,9.18,38,13,18.26,3.27,32.52.79,42,2,51.34,6.53,87,14.81,116.73,41.92Z"/>
  <path class="cls-24" d="M956.5,1755.5c-2.72,4.1-16.91-1.93-42-10-35.26-11.34-33.8-7.98-57-16-25.28-8.75-44.46-15.38-56.54-23.01,2.58-3.3,5.43-6.65,8.54-9.99,20.21-21.66,40.51-30.66,63.6-40.76h.01c14.09,11.32,28.61,27.34,44.39,44.76,5.04,5.57,11.03,13.38,23,29,15.6,20.36,17.3,24.04,16,26Z"/>
  <path class="cls-23" d="M1107.5,1743.5c-26.86-13.08-58.27-26.35-94-38-30.17-9.84-58.43-16.89-84-22,13-13.33,26-26.67,39-40,59.33,19.33,118.67,38.67,178,58l-39,42Z"/>
  <path class="cls-32" d="M781.5,1738.5c-22.92-4.2-123.83-.84-179,20-63.74,24.07-100.63,70.18-118.52,98.65-5.21-24.71-.4-49.15,8.78-71.19,7.29-6.44,15.19-12.64,23.74-18.46,68.62-46.73,144.38-40.44,210-36,23.05,1.56,42.03,4.56,55,7Z"/>
  <path class="cls-10" d="M1917.79,2001.22c.61-.19,1.23-.39,1.89-.58-.66.19-1.29.38-1.89.58Z"/>
  <path class="cls-10" d="M783.59,1734.11c-.49,1.45-1.18,2.91-2.09,4.39.63-1.37,1.33-2.84,2.09-4.39Z"/>
  <path class="cls-34" d="M2021.28,1236.65c.02,7.94-.61,17.76-.78,29.85-.48,34.81-7.18,34.96-25,113-.38,1.67-.81,3.57-1.37,5.61-1.76,6.44-4.8,14.36-11.63,21.39-7.48,7.69-16.71,11.46-24.57,13.33,2.09-9.52,4.1-18.67,6.01-27.44,11.93-54.63,20.26-94.29,23.56-113.89.46-2.73,1.75-10.6,7-19,6.29-10.08,16.55-18.17,26.78-22.85Z"/>
  <path class="cls-25" d="M1959.8,1948.34c-.78,3.65-1.59,7.25-2.43,10.79-3.12-1.34-5.07-1.81-6.37-1.13-.11.06-.22.12-.32.19-.11.07-.21.14-.3.23-.06.05-.13.1-.18.16-.05.05-.1.1-.15.15-.07.07-.14.14-.18.22-.09.09-.16.19-.22.29-.07.1-.14.21-.2.32,0,0-.01,0-.01.02-.06.11-.11.22-.16.34-.06.12-.11.24-.15.37-.15.38-.26.8-.34,1.25-.03.13-.05.26-.07.4-.03.17-.05.36-.07.54-.02.13-.03.26-.04.4-.02.2-.04.41-.04.62-.01.17-.02.35-.02.53-.04.98-.02,2.04.04,3.16-.01.09,0,.18,0,.27.04,1.12.11,2.29.17,3.5,0,.09.01.17.01.25.04.85.08,1.71.09,2.59.05,1.8.02,3.65-.16,5.5-.06.58-.13,1.16-.23,1.74-.21,1.38-.53,2.74-.99,4.06-.3.85-.65,1.68-1.07,2.49-.53,1.01-1.16,1.99-1.92,2.91-4.01,4.88-9.75,6.22-13,7-3.05.74-5.78,1.44-8.21,2.11-.41.11-.8.22-1.19.33-.13.03-.26.07-.38.11-.65.18-1.27.36-1.87.54-.06.02-.12.03-.17.05-.66.19-1.29.38-1.89.58h-.01c-.6.18-1.18.37-1.74.56-.27.09-.55.18-.82.27-.27.09-.53.18-.79.27-.51.18-1,.36-1.48.53-.24.09-.47.17-.69.26-1.36.51-2.54,1.01-3.58,1.49-.17.07-.34.15-.5.23-.82.4-1.55.78-2.2,1.15-.13.07-.25.14-.37.22-.37.21-.71.43-1.03.64-.21.14-.41.28-.6.42-.1.07-.19.14-.28.21-.12.09-.24.18-.35.27-.06.04-.12.09-.17.13-.13.1-.24.2-.36.3-2.2,1.88-3.04,3.51-5.81,5.19-.03.01-.05.03-.08.05-.16.09-.31.18-.48.27-2.03,1.13-5.03,2.28-10,3.54-.23.06-.47.12-.72.18-.36.09-.72.18-1.1.27-.93.22-1.93.44-3,.67-.5.11-1.03.22-1.57.34-4.86,1-11.02,2.08-18.86,3.28-.82.12-1.65.25-2.51.38-1.05.15-2.13.31-3.24.47-.43.06-.87.13-1.32.19-.63.09-1.26.18-1.9.27-2.4.34-4.93.69-7.6,1.04-.64.09-1.3.18-1.96.26-2.65.35-5.44.71-8.36,1.08-2.19.28-4.46.56-6.81.85-65.79,8.07-98.69,12.1-150,13-88.32,1.54-79.66-6.9-128-3-75.99,6.13-136.12,30.1-181,48-61.75,24.62-77.67,39.64-135,54-8.73,2.19-43.81,10.72-92,14-140.29,9.56-266.37-33.88-326-55-119.2-42.21-188-74-188-74,0,0-56.81-26.25-120-37-1.41-.24-29.37-4.83-66-3-19.83.99-29.76,3.24-36.72,5.74-.68-14.64-.16-31.45,2.72-49.74,1.22-7.72,9.63-53.08,39.99-100.4,11.6-18.09,26.42-36.47,45.27-53.14-9.18,22.04-13.99,46.48-8.78,71.19.16.78.33,1.57.52,2.35,11.91,50.4,59.75,74.51,152,121,107.23,54.04,204.2,76.13,261,86,70.93,12.32,52.02.84,192,18,58.64,7.19,92.26,12.92,140,4,20.92-3.91,32.93-8.46,110-43,132.48-59.38,164.89-76.37,219-76,22.43.15,14.21,3.05,67,9,46.49,5.24,124.06,13.97,203,4,32.04-4.05,77.64-12.86,131.3-34.16Z"/>
  <path class="cls-39" d="M1989.86,2190.93c-1.79,10.44-4.06,17.35-6.86,19.07-1.91,1.17-7.84,5.09-16.82,9.79-6.79,3.57-15.33,7.59-25.18,11.21-8.7,3.2-16.1,5.27-23.15,6.95-4.68,1.12-9.21,2.06-13.85,3.05-4.9,1.05-9.35,2.02-13.4,2.94-42.91,9.7-41.16,12.33-62.6,15.06-44.42,5.66-64.5,5.04-75.68,3.75-7.58-.86-11.09-2.03-15.32-1.75-3.38.23-6.05,1.57-13.24,3.11-8.75,1.89-24.19,4.07-55.76,4.89-27.49.72-38.36.33-46-1-16.87-2.94-40.01-6.98-55-25-4.67-5.61-7.2-10.97-15-38-4.23-14.66-9.37-33.48-14.68-55.68,11.76-2.05,27.02-5.17,47.18-10.82,5.56-1.56,16.72-4.77,28,0,11.31,4.79,16.93,15.15,20,21,11.08,21.1,1.81,31.12,13,58,4.73,11.36,10.15,18.61,18,22,5.86,2.53,11.25,2.13,13,2,55.29-3.98,55.49,11.03,153-8,59.58-11.63,117.21-28.49,160.36-42.57Z"/>
  <path class="cls-21" d="M1917.85,2237.95c-4.68,1.12-9.21,2.06-13.85,3.05-4.9,1.05-9.35,2.02-13.4,2.94-.34-8.96-.1-16.43-.1-22.44,0-7-1-24,10-24,9,0,12.49,15.2,14,19,1.96,4.93,2.96,12.18,3.35,21.45Z"/>
  <path class="cls-21" d="M1752.5,2245.5c0,4.28,0,10.07-.18,17.25-7.58-.86-11.09-2.03-15.32-1.75-3.38.23-6.05,1.57-13.24,3.11-.42-7.53-.66-13.85-.26-18.61.56-6.67,5.9-23.6,13-24,8.23-.47,16,14,16,24Z"/>
  <path class="cls-4" d="M1941.84,1705.95s-203.34,88.55-207.48,330.85"/>
  <path class="cls-4" d="M1947.63,1727.85s-193.01,78.77-194.07,307.21"/>
  <path class="cls-4" d="M981.06,2142.96s97.56-301.75-288.5-415.11"/>
  <path class="cls-4" d="M1003.99,2146.63s91.18-308.23-255.65-409.68"/>
  <path class="cls-4" d="M1192.85,2146.68s11.35-34.65,0-80.91-77.26-199.75-77.26-199.75c0,0-58.96-108.51,48.47-165.51s180.43-124,213.43-202"/>
  <path class="cls-4" d="M781.5,1738.5s41.56,27,117.78-38,146.22-122,146.22-122l105-96"/>
  <path class="cls-13" d="M1248.5,1726.5c-64.08-41.43-121.54-66.13-163-81,0,0-43.39-15.56-166-34-.69-.1-3.87-.56-8,0-15.75,2.13-29.5,16.89-27,23,1.17,2.85,5.65,3.31,11,4,14.79,1.9,29.11,7.23,44,8,34.35,1.77,117.47,27.72,128,31,37.52,11.71,90.38,31.69,152,67,9.67-6,19.33-12,29-18Z"/>
  <circle class="cls-40" cx="1229.5" cy="1771.5" r="57"/>
  <circle class="cls-36" cx="1229.5" cy="1760.5" r="23"/>
  <path class="cls-40" d="M916.5,1608.5c12.89,12.33,6.16,42.29-10,58-20.56,19.99-59.41,19.88-69,4-8.65-14.32,6.87-40.85,25-54,14.56-10.56,41.33-20.11,54-8Z"/>
  <path class="cls-36" d="M908.5,1624.5c3.51,5.12-3.12,16.72-11,23-12.12,9.66-31.74,10.32-35,4-2.99-5.78,7.42-18.05,18-24,9.43-5.31,24.21-8.53,28-3Z"/>
  <path class="cls-3" d="M1989.86,2190.93c-1.79,10.44-4.06,17.35-6.86,19.07-1.91,1.17-7.84,5.09-16.82,9.79-6.79,3.57-15.33,7.59-25.18,11.21-8.7,3.2-16.1,5.27-23.15,6.95-4.68,1.12-9.21,2.06-13.85,3.05-4.9,1.05-9.35,2.02-13.4,2.94-42.91,9.7-41.16,12.33-62.6,15.06-44.42,5.66-64.5,5.04-75.68,3.75-7.58-.86-11.09-2.03-15.32-1.75-3.38.23-6.05,1.57-13.24,3.11-8.75,1.89-24.19,4.07-55.76,4.89-27.49.72-38.36.33-46-1-16.87-2.94-40.01-6.98-55-25-4.67-5.61-7.2-10.97-15-38-4.23-14.66-9.37-33.48-14.68-55.68-.11-.44-.21-.88-.32-1.32-25.94,2.79-56.09,7.87-89,17-41.11,11.4-75.64,26.1-103,40,.69,4.03,0,11.17-1.38,18.87-1.88,10.51-5.02,22.07-7.62,28.13-8.54,10.51-19.9,13.79-36,18-40.61,10.63-67.32,15.66-88,20-40.56,8.51-65.3,15.88-79.69,10.02-2.38-.96-4.47-2.28-6.31-4.02-2.36-2.24-10.65-9.12-14-8-3.05,1.02-8.97,5.67-13.32,8.58-2.08,1.4-3.8,2.39-4.68,2.42-61.74,1.48-178.6-2.4-232.53-12.14-.67-.12-1.32-.24-1.97-.36-3.43-.65-9.13-13.83-19-14-7.13-.12-10.22,9.12-17.8,10.08-.98.13-2.04.11-3.2-.08-12-2-23.11-2.26-29-5-1.17-.54-29.11-7.36-85-21-56.73-13.84-93.3-17.81-107-31-.23-.22-.55-.54-.95-.92-2.42-2.3-7.93-7.08-16.05-9.08-5-1.23-9.47-1.03-12.47-.64-1.71.23-2.94.51-3.53.64-28.88,6.09-116.56-38.15-170-63-5.27-2.45-16.28-7.53-25-19-6.43-8.45-11.57-17.55-12-32-.06-2.2-.13-4.35-.19-6.45-.9-30.3-1.29-50.36,6.19-76.55,5.92-20.71,30.21-25.2,37-28,1.03-.42,2.11-.85,3.28-1.26,6.96-2.5,16.89-4.75,36.72-5.74,36.63-1.83,64.59,2.76,66,3,63.19,10.75,120,37,120,37,0,0,68.8,31.79,188,74,59.63,21.12,185.71,64.56,326,55,48.19-3.28,83.27-11.81,92-14,57.33-14.36,73.25-29.38,135-54,44.88-17.9,105.01-41.87,181-48,48.34-3.9,39.68,4.54,128,3,51.31-.9,84.21-4.93,150-13,2.35-.29,4.62-.57,6.81-.85,2.92-.37,5.71-.73,8.36-1.08.66-.08,1.32-.17,1.96-.26,2.67-.35,5.2-.7,7.6-1.04.64-.09,1.28-.18,1.9-.27.45-.06.89-.13,1.32-.19,1.11-.16,2.19-.32,3.24-.47.86-.13,1.69-.26,2.51-.38,7.84-1.2,14-2.28,18.86-3.28.54-.12,1.06-.23,1.57-.34,1.07-.23,2.07-.45,3-.67.38-.09.75-.18,1.1-.27.25-.06.49-.12.72-.18,4.97-1.26,7.97-2.41,10-3.54.17-.09.33-.18.48-.27.03-.02.05-.04.08-.05,2.77-1.68,3.61-3.31,5.81-5.19.11-.1.24-.2.36-.3.05-.04.11-.09.17-.13.11-.09.23-.18.35-.27.09-.07.18-.14.28-.21.19-.14.39-.28.6-.42.32-.21.66-.43,1.03-.64.12-.08.25-.15.37-.22.65-.37,1.38-.75,2.2-1.15.16-.07.33-.15.5-.23,1.04-.48,2.22-.98,3.58-1.49.23-.09.46-.17.69-.26.48-.17.97-.35,1.48-.53.26-.09.52-.18.79-.27.27-.09.55-.18.82-.27.56-.19,1.14-.37,1.74-.56h.01c.61-.19,1.23-.39,1.89-.58.05-.02.11-.03.17-.05.6-.18,1.22-.36,1.87-.54.12-.04.25-.08.38-.11.39-.11.78-.22,1.19-.33,2.43-.67,5.16-1.37,8.21-2.11,3.25-.78,8.99-2.12,13-7,.76-.92,1.39-1.9,1.92-2.91.42-.81.78-1.64,1.07-2.49.46-1.32.78-2.68.99-4.06.1-.57.17-1.16.23-1.74.18-1.85.21-3.7.16-5.5-.01-.88-.05-1.74-.09-2.59,0-.08-.01-.16-.01-.25-.06-1.21-.12-2.39-.17-3.5,0-.09-.02-.18,0-.27-.05-1.12-.07-2.18-.04-3.16.01-.18.01-.36.02-.53,0-.21.02-.42.04-.62.01-.14.03-.27.04-.4.02-.18.04-.37.07-.54.02-.13.05-.27.07-.4.08-.45.19-.87.34-1.25.05-.13.1-.25.15-.37s.11-.23.16-.34c0-.01.01-.01.01-.02.06-.11.13-.22.2-.32.06-.1.13-.2.22-.29.04-.08.11-.15.18-.22.05-.06.1-.11.15-.15.06-.06.12-.11.18-.16.09-.08.19-.16.3-.23.1-.07.21-.13.32-.19,1.3-.68,3.25-.21,6.37,1.13.11.05.22.09.33.14,1.72.75,3.81,1.76,6.32,2.98,6.55,3.18,11.62,6.42,14.98,8.75,0,0,11.92,3.51,13,13,4.51,39.73,5.99,159.63-2.14,206.93Z"/>
  <path class="cls-23" d="M1258.49,1643c-32.72-13.25-70.99-26.71-114.52-38.51-36.75-9.97-71.19-17.12-102.34-22.3,15.84-13.51,31.68-27.03,47.51-40.54,72.29,19.6,144.58,39.19,216.86,58.79-15.84,14.19-31.68,28.38-47.51,42.57Z"/>
  <path class="cls-13" d="M1354.5,1620.5c-7,7.33-14,14.67-21,22-31.31-22.58-91.12-59.32-175-74-65.87-11.52-121.11-4.99-156,2,5.33-11,10.67-22,16-33,37.66-4.48,91.46-6.5,154,6,84.39,16.86,146.23,52.45,182,77Z"/>
  <path class="cls-40" d="M1023.29,1522.33c12.89,12.33,6.16,42.29-10,58-20.56,19.99-59.41,19.88-69,4-8.65-14.32,6.87-40.85,25-54,14.56-10.56,41.33-20.11,54-8Z"/>
  <circle class="cls-40" cx="1348.5" cy="1664.5" r="53"/>
  <circle class="cls-36" cx="1344.5" cy="1656.5" r="24"/>
  <path class="cls-36" d="M1015.29,1538.33c3.51,5.12-3.12,16.72-11,23-12.12,9.66-31.74,10.32-35,4-2.99-5.78,7.42-18.05,18-24,9.43-5.31,24.21-8.53,28-3Z"/>
  <path class="cls-2" d="M2020.5,1266.5c-.48,34.81-7.18,34.96-25,113-1.58,6.92-4,17.73-13,27-11.25,11.57-26.47,14.26-35,15-6,50-16,80-19,101-4.13,28.94-1,61-1,88,0,3.92-10,13-10,20,0,10.21,6.04,17.87,7,20,9,20,27.17,91.38,39,142,11.88,50.82,6.24,114.58-6.13,166.63-3.12-1.34-5.07-1.81-6.37-1.13-6.3,3.31,2.57,21.46-6.5,32.5-4.01,4.88-9.75,6.22-13,7-59.63,14.38,6.33,15.47-104,29-65.79,8.07-98.69,12.1-150,13-88.32,1.54-79.66-6.9-128-3-75.99,6.13-136.12,30.1-181,48-61.75,24.62-77.67,39.64-135,54-8.73,2.19-43.81,10.72-92,14-140.29,9.56-266.37-33.88-326-55-119.2-42.21-188-74-188-74,0,0-56.81-26.25-120-37-1.41-.24-29.37-4.83-66-3-19.83.99-29.76,3.24-36.72,5.74-.68-14.64-.16-31.45,2.72-49.74,1.86-11.81,20.57-111.78,109-172,68.62-46.73,144.38-40.44,210-36,23.05,1.56,42.03,4.56,55,7,4.79-10.42,13.35-26.3,28-42,37.58-40.27,75.5-36.78,131-78,14.62-10.85,30.37-22.55,46-43,45.62-59.68,41.27-130.31,41-139-1-32-1-42-24-107-6.81-19.26-3-40-4-67-.33-9.01,7.87-31.07,27-45,11.22-8.17,22.5-10.14,27-11,38.45-7.34,63.37-25.56,105-41,134.77-49.97,262-63,262-63,192.11-19.21,359.32,26.08,392,49,3.43,2.4,16.68,9.18,38,13,18.26,3.27,32.52.79,42,2,55,7,92,16,123,48,8.23,8.5,5.38,24.29,5,52Z"/>
  <path class="cls-1" d="M1458,1133c9.77,22.77,22.02,58.33,25,103,3.24,48.58,9.33,140-52,180-59.77,38.98-158.91,13.03-190-43-20.72-37.34-7.44-81.21,14-152,13.7-45.23,31.1-81.06,45-106,52.67,6,105.33,12,158,18Z"/>
  <path class="cls-14" d="M1419,1109c-9.77,26.53,49.34,50.62,48,110-.42,18.78-9.28,35.86-27,70-21.44,41.31-32.91,49.53-68,105-23.22,36.7-34.63,59.09-44,83-10.89,27.79-20.12,60.47-8,85,2.77,5.6,6.28,12.7,14,17,12.98,7.22,24.27-1.04,36,7,7.83,5.37,5.3,10.76,12,16,13.45,10.51,40.06,1.63,57-9,17.18-10.78,20.04-20.6,42-47,18.66-22.44,25.61-26.17,41-43,36.99-40.44,56.36-83.86,64-103,4.23-10.61,21.08-54.43,24-114,1.36-27.74-.84-47.94-4-77-5.84-53.65-21.75-79.47-33-94-38.74-50.06-141.48-40-154-6Z"/>
  <path class="cls-14" d="M1228,1130c-32,65-90,133-105,194-34.6,140.72,32.91,239.89,54,256,16.08,12.28,30,12,30,12,11.42-.23,13.98-5.91,28-8,17.02-2.54,22.59,4.43,35,3,18.33-2.11,30.35-20.07,37-30,31.68-47.33-11-153-30-222-14.7-53.37,15.93-106.24,20-119,21.39-67.09,49.87-97.5,38-112-13.34-16.3-86.12-16.41-107,26Z"/>
  <path class="cls-15" d="M1278,1340c15.84,57.54,48.16,140.58,40.08,194.02-1.61,10.65-4.82,20.12-10.08,27.98-6.65,9.93-18.67,27.89-37,30-12.41,1.43-17.98-5.54-35-3-14.02,2.09-16.58,7.77-28,8,0,0-13.92.28-30-12-4.24-3.24-10.35-9.82-17.12-19.43-26.97-38.2-64.53-124.12-36.88-236.57"/>
  <path class="cls-15" d="M1570.97,1441.03c-10.6,19.1-25.29,41.46-44.97,62.97-15.39,16.83-22.34,20.56-41,43-21.96,26.4-24.82,36.22-42,47-3.86,2.42-8.23,4.76-12.83,6.79-15.56,6.88-33.79,10.32-44.17,2.21-6.7-5.24-4.17-10.63-12-16-11.73-8.04-23.02.22-36-7-7.72-4.3-11.23-11.4-14-17-6.13-12.41-6.8-26.9-4.55-41.78,2.19-14.55,7.17-29.48,12.55-43.22,9.37-23.91,20.78-46.3,44-83,5.39-8.53,10.23-15.94,14.62-22.52,38.88,22.73,73.62,37.15,100.38,46.52,30.17,10.56,57.76,20.02,79.97,22.03Z"/>
  <path class="cls-28" d="M1606.61,1287c-1.36,28.9-5.85,54.1-10.59,73.59-33.99-11.43-69.5-24.53-106.25-39.59-17.4-7.13-34.31-14.38-50.71-21.72,1.53-2.91,3.1-5.99,4.74-9.28,0,0,12.45-15,30.65-25l112.85-111.23c13.25,36.78,15.49,56.23,15.49,56.23,3.03,29.06,5.13,49.26,3.83,77Z"/>
  <path class="cls-26" d="M1599.94,1360.59c-5.24,20.69-10.76,34.95-12.94,40.41-3.58,8.96-9.72,23.23-19.03,40.03-22.21-2.01-49.8-11.47-79.97-22.03-26.76-9.37-61.5-23.79-100.38-46.52,21.95-32.85,33.05-45.18,48.43-73.2,17.13,7.34,34.78,14.59,52.95,21.72,38.37,15.06,75.45,28.16,110.94,39.59Z"/>
  <path class="cls-17" d="M1317.08,1532.02c-1.61,10.65-4.82,20.12-10.08,27.98-6.65,9.93-18.67,27.89-37,30-12.41,1.43-17.98-5.54-35-3-14.02,2.09-41.92,8.28-58-4-4.24-3.24-10.35-9.82-17.12-19.43-1.23-4.53-1.88-9.24-1.88-14.07,0-36.17,36.26-65.5,81-65.5,37.25,0,68.62,20.33,78.08,48.02Z"/>
  <path class="cls-17" d="M1430.17,1600.79c-15.56,6.88-33.79,10.32-44.17,2.21-6.7-5.24-4.17-10.63-12-16-11.73-8.04-23.02.22-36-7-7.72-4.3-11.23-11.4-14-17-6.13-12.41-6.8-26.9-4.55-41.78,21.51-21.15,57.21-24.11,85.16-5.4,29.35,19.65,39.85,56.32,25.56,84.97Z"/>
  <path class="cls-8" d="M1277,1338c15.84,57.54,48.16,140.58,40.08,194.02-1.61,10.65-4.82,20.12-10.08,27.98-6.65,9.93-18.67,27.89-37,30-12.41,1.43-17.98-5.54-35-3-14.02,2.09-16.58,7.77-28,8,0,0-13.92.28-30-12-4.24-3.24-10.35-9.82-17.12-19.43-26.97-38.2-64.53-124.12-36.88-236.57"/>
  <path class="cls-8" d="M1570.97,1441.03c-10.6,19.1-25.29,41.46-44.97,62.97-15.39,16.83-22.34,20.56-41,43-21.96,26.4-24.82,36.22-42,47-3.86,2.42-8.23,4.76-12.83,6.79-15.56,6.88-33.79,10.32-44.17,2.21-6.7-5.24-4.17-10.63-12-16-11.73-8.04-23.02.22-36-7-7.72-4.3-11.23-11.4-14-17-6.13-12.41-6.8-26.9-4.55-41.78,2.19-14.55,7.17-29.48,12.55-43.22,9.37-23.91,20.78-46.3,44-83,5.39-8.53,10.23-15.94,14.62-22.52,38.88,22.73,73.62,37.15,100.38,46.52,30.17,10.56,57.76,20.02,79.97,22.03Z"/>
  <path class="cls-5" d="M2017.5,1230.5c-66.83,1.5-149.82-9.17-187-11-49.76-2.45-88.23-6.09-141,6-43.26,9.91-66.7,23.66-83,43-12.86,15.26-17.85,29.93-24,48-10.12,29.76-9.58,47.91-14,113-4.36,64.22-6,62.85-4,69"/>
  <path class="cls-28" d="M1788.62,952.99c-.22,2.86-.51,5.76-.87,8.67-1.29,10.62-3.44,21.51-6.75,32.34-24.34,79.66-100.24,118.58-142,140-82.55,42.34-156.41,43.57-242,44-106.24.54-214.69,1.09-309-70-14.93-11.25-85.23-64.25-95.3-126.18,11.36-1.67,23.01-4.32,34.67-7.8,39.66-11.82,79.37-33.25,108.13-58.52,35.46-31.15,49.73-64.14,111-104,24.13-15.69,50.07-32.26,88-39,56.78-10.1,101.63,7.63,122,16,72.7,29.85,92.93,76.61,136,112,35.94,29.53,93.3,55.67,190.07,52.71,2-.06,4.01-.13,6.05-.22Z"/>
  <path class="cls-9" d="M1341,896c14.04-.09,35.69,5.26,38,17,2.51,12.78-18.11,32.02-39,31-19.5-.95-37.97-19.49-35-32,2.79-11.75,23.96-15.92,36-16Z"/>
  <path class="cls-26" d="M1788.62,952.99c-100.44,4.26-159.44-22.35-196.12-52.49-43.07-35.39-63.3-82.15-136-112-20.37-8.37-65.22-26.1-122-16-37.93,6.74-63.87,23.31-88,39-61.27,39.86-75.54,72.85-111,104-37.21,32.69-92.76,58.96-142.8,66.32-1.27-7.82-1.58-15.78-.7-23.82.42-3.86,1.24-7.99,2.5-12.7,2.68-10.1,7.34-22.86,14.33-41.3,1.3-3.46,2.7-7.12,4.17-11,14.58-38.37,28.79-69.14,39-90-12.26-41.75-26.49-103.8-29-180-2.15-65.31,16-178,36-184,17.27-5.18,59.39,17.66,127,73,43.9,35.93,77.7,69.78,101.5,95.5,6.34-2.37,13.58-4.86,21.64-7.25,10.8-3.22,23.09-6.28,36.69-8.7,7.84-1.39,16.11-2.58,24.79-3.45,8.27-.84,16.9-1.4,25.88-1.6,6.79-.15,13.38-.09,19.77.15,5.61.21,11.06.55,16.34,1.01,12.96,1.12,24.89,2.92,35.66,5.05,11.23,2.21,21.2,4.78,29.73,7.29,18.98-26.61,46.4-62.18,83-101,57.83-61.35,97.22-89.69,112-86,20,5,51.81,108.26,60,187,8.32,80.01,4.87,147.16,0,194,9.61,17.19,21.69,42.96,29,76,1.81,8.17,6.63,29.97,7.31,57.24.21,8.17.05,16.82-.69,25.75Z"/>
  <path class="cls-20" d="M1679,467c-20.94,17.48-48.06,43.87-73,81-22.93,34.14-36.64,66.38-45,91,17.7,8.93,39.04,21.73,61,40,30.32,25.23,50.79,51.73,64,72,10.76-33.86,23.2-87.23,20-153-2.7-55.42-15.55-100.34-27-131Z"/>
  <path class="cls-19" d="M1514,837c29.95-.95,50.25,15.71,57,22,16.68,15.53,26.35,38.14,22,42-3.29,2.92-11.89-7.33-34-15-17.84-6.18-33-6.71-44-7-16.82-.45-29.48-.79-44,5-19.33,7.71-26.89,20.28-30,18-3.83-2.8,3.44-24.91,19-41,21.8-22.54,50.79-23.9,54-24Z"/>
  <path class="cls-19" d="M1203,830c3.65.5,26.96,4.07,44,24,14.66,17.14,20.86,41.94,15,46-3.55,2.46-9.08-4.41-29-14-12.82-6.17-23.66-11.4-38-13-3.54-.4-21.52-2.16-42,6-20.05,7.99-27.51,19.52-31,17-4.44-3.2,2.12-25.77,17-42,2.61-2.85,27.46-29.03,64-24Z"/>
  <path class="cls-22" d="M1688.97,738.27c-1,3.4-1.99,6.65-2.97,9.73-13.21-20.27-33.68-46.77-64-72-21.96-18.27-43.3-31.07-61-40,8.36-24.62,22.07-56.86,45-91,0,0,34.93,108.55,82.97,193.27Z"/>
  <path class="cls-16" d="M1340,944v25.32s42,69.68,88-4.32"/>
  <path class="cls-16" d="M1340,969.32s-56,70.68-87-6.32"/>
  <path class="cls-20" d="M1061,475c22.72,24.05,46.25,50.67,70,80,24.29,30,45.87,59.2,65,87-16.8,8.96-38.78,22.88-61,44-21.54,20.48-36.27,41.03-46,57-14.85-26.17-38.09-75.21-43-141-4.12-55.24,6.36-99.91,15-127Z"/>
  <path class="cls-22" d="M1199,642c-16.8,8.96-38.78,22.88-61,44-21.54,20.48-36.27,41.03-46,57-1.53-2.7-3.15-5.64-4.83-8.82,40.91-64.41,60.14-160.95,60.38-162.17,18.85,24.03,35.95,47.47,51.45,69.99Z"/>
  <path class="cls-7" d="M1679,464c-20.94,17.48-48.06,43.87-73,81-22.93,34.14-36.64,66.38-45,91,17.7,8.93,39.04,21.73,61,40,30.32,25.23,50.79,51.73,64,72,10.76-33.86,23.2-87.23,20-153-2.7-55.42-15.55-100.34-27-131Z"/>
  <path class="cls-7" d="M1064,475c22.72,24.05,46.25,50.67,70,80,24.29,30,45.87,59.2,65,87-16.8,8.96-38.78,22.88-61,44-21.54,20.48-36.27,41.03-46,57-14.85-26.17-38.09-75.21-43-141-4.12-55.24,6.36-99.91,15-127Z"/>
  <path class="cls-29" d="M1963.94,1392.39c-1.91,8.77-3.92,17.92-6.01,27.44-3.96.95-7.57,1.42-10.43,1.67-1.53,12.74-3.32,24.19-5.19,34.51h0c-14.13,4.47-25.85,7.82-37.81,10.49-36.69,8.19-75.79,5.79-154,1-27.31-1.67-54.57-4.13-88-14-8.02-2.37-22.99-.55-29-10-5.09-8-2.94-20.94,4-28,7.65-7.79,19.03-6.28,34-6,31.91.59,31.46-5.3,62-6,41.5-.95,41.51,9.95,84,12,35.99,1.74,66.12-4.63,101-12,12.54-2.65,13.84-3.35,45-11,.15-.04.3-.07.44-.11Z"/>
  <path class="cls-4" d="M1663.18,1288.68s-22.53,24.48-39.6,110.15-4.08,143.67-111.08,295.67-312,230.25-368,221.62"/>
  <path class="cls-17" d="M1788.62,952.99c-.22,2.86-.51,5.76-.87,8.67-1.29,10.62-3.44,21.51-6.75,32.34-24.34,79.66-100.24,118.58-142,140-82.55,42.34-156.41,43.57-242,44-106.24.54-214.69,1.09-309-70-14.93-11.25-85.23-64.25-95.3-126.18,11.36-1.67,23.01-4.32,34.67-7.8,15.42,27.31,36.29,55.25,65.63,80.98,52.58,46.11,107.79,63.59,147,76,126.44,40.02,234.43,17.88,289,6,57.62-12.55,102.17-22.25,150-56,52.52-37.06,84.32-85.71,103.57-127.79,2-.06,4.01-.13,6.05-.22Z"/>
  <path class="cls-4" d="M1947.5,1421.5s-13,17-90,20-100-14-144-17-80.84,1.27-107.42,7.64"/>
  <path class="cls-6" d="M1787.75,961.66c-1.29,10.62-3.44,21.51-6.75,32.34-24.34,79.66-100.24,118.58-142,140-82.55,42.34-156.41,43.57-242,44-106.24.54-214.69,1.09-309-70-16.81-12.67-103.87-78.3-96-150,.42-3.86,1.24-7.99,2.5-12.7,2.68-10.1,7.34-22.86,14.33-41.3,1.3-3.46,2.7-7.12,4.17-11,14.58-38.37,28.79-69.14,39-90-12.26-41.75-26.49-103.8-29-180-2.15-65.31,16-178,36-184,17.27-5.18,59.39,17.66,127,73,43.9,35.93,77.7,69.78,101.5,95.5,6.34-2.37,13.58-4.86,21.64-7.25,10.8-3.22,23.09-6.28,36.69-8.7,7.84-1.39,16.11-2.58,24.79-3.45,8.27-.84,16.9-1.4,25.88-1.6,6.79-.15,13.38-.09,19.77.15,5.61.21,11.06.55,16.34,1.01,12.96,1.12,24.89,2.92,35.66,5.05,11.23,2.21,21.2,4.78,29.73,7.29,18.98-26.61,46.4-62.18,83-101,57.83-61.35,97.22-89.69,112-86,20,5,51.81,108.26,60,187,8.32,80.01,4.87,147.16,0,194,9.61,17.19,21.69,42.96,29,76,1.81,8.17,6.63,29.97,7.31,57.24.28,10.79-.1,22.43-1.56,34.42Z"/>
  <g>
    <path class="cls-28" d="M1171.63,797.29s8.38,6.56,8.38,6.56l-.78.58c-7.95-16.13-17.9-31.27-28.51-45.76-53.39-72.58-127.24-129.19-209.31-165.84-32.86-14.87-67-26.92-101.87-36.31l.1-.39c35.02,8.89,69.39,20.46,102.56,34.9,62.12,27.1,120.15,65.04,167.78,113.45,12.4,12.85,24.67,27.05,35.28,41.37,13.47,18.15,25.87,37.41,34.88,58.18,0,0,.86,2.02.86,2.02s-1.64-1.44-1.64-1.44c0,0-7.99-7.02-7.99-7.02,0,0,.26-.31.26-.31h0Z"/>
    <path class="cls-28" d="M1163.83,819.1c-36.76-50.8-94.5-83.99-154.87-98.4-102.85-24.23-209.78,4.59-304.19,46.48,83.6-39.99,179.98-66.97,273.98-55.79,62.67,7.37,123.65,35.45,166.33,82.48,6.99,7.83,13.66,16.01,19.09,25.02,0,0-.34.21-.34.21h0Z"/>
    <path class="cls-28" d="M1139.22,716.45c-16.65,5.06-13.16,24.04-7.53,36.44,5.42,12.92,14.87,25.36,22.98,36.77,5.61,7.91,11.48,15.65,16.98,23.78,0,0-.3.26-.3.26-1.81-1.66-3.54-3.39-5.28-5.12-4.96-4.96-10.18-11.03-14.6-16.52-11.06-14.43-28.13-41.54-26.05-60.06.65-7.64,6.1-14.54,13.73-15.93,0,0,.07.39.07.39h0Z"/>
    <path class="cls-28" d="M1148.75,825.63c-46.39-6.8-98.39-2.94-136.28,27.03-15.12,12.1-26.62,28.31-34.38,45.98-1.73,3.93-3.41,8.46-4.85,12.53-7.63,22.7-10.59,46.83-10.87,70.83h-.4c-.31-35.84,5.04-73.52,24.55-104.4,19.53-31.55,53.86-51.08,90.21-56.07,18.05-2.61,36.36-2.34,54.36.16,5.97.91,11.92,1.95,17.75,3.55,0,0-.09.39-.09.39h0Z"/>
    <path class="cls-28" d="M1148.72,840.05c-33.31-9.76-68.77-12.08-103.19-8.15-61.17,7.1-108.56,38.2-148.19,82.98,36.55-46.26,88.75-79.11,147.68-86.9,23.21-3.14,47.16-2.45,70.14,2.03,11.5,2.24,22.88,5.21,33.71,9.68l-.14.37h0Z"/>
  </g>
  <path class="cls-35" d="M1128.99,958.25c-26.78.72-53.49,1.33-80.24,1.84-44.48.71-89.22,4.3-132.68,14.16,0,0-.13-.48-.13-.48,43.19-11.87,88.04-16.2,132.65-18.62,17.82-.94,35.87-.71,53.68.27,8.94.48,17.86,1.19,26.76,2.35l-.03.5h0Z"/>
  <g>
    <path class="cls-28" d="M1532.81,830.95c2.62-17.76,5.47-37.38,7.78-55.24,1.91-15.58,7.51-63.33-14.02-66.22-6.1-.71-12.11,1.9-17.46,4.68,0,0-.2-.35-.2-.35,5.38-3.14,11.34-6.05,17.79-5.56,26.63,2.24,18.45,67.95,15.39,86.44-1.1,6.15-2.34,12.26-3.8,18.33-1.46,6.06-3.08,12.09-5.08,18.01l-.39-.09h0Z"/>
    <path class="cls-28" d="M1543.93,825.77c18.56-58.78,58.22-106.53,113.95-133.37,61.88-30.17,133.13-35.94,200.82-28.45,8.48,1.01,16.95,2.19,25.33,3.86l-.08.39c-8.38-1.54-16.86-2.58-25.34-3.46-63.24-5.92-129.12-.58-187.68,25.33-42.53,19-79.51,50.41-103.96,90.17-4.45,7.22-8.66,14.62-12.33,22.29-3.88,7.58-7.1,15.47-10.35,23.36l-.38-.13h0Z"/>
    <path class="cls-28" d="M1539.84,829.33c21.11-44.05,73.44-95.11,121.79-55.82,9.19,7.48,16.88,16.64,23.54,26.37,0,0-.33.23-.33.23-6.95-9.45-14.85-18.24-24.19-25.34-50.52-37.67-93.28,17.11-120.8,54.56h0Z"/>
    <path class="cls-28" d="M1935.03,669.2c-91.15,17.46-305.4,67.64-360.16,141.32-5.09,6.99-8.86,14.97-10.68,23.51,0,0-.39-.06-.39-.06,1.23-8.72,4.77-17.06,9.57-24.47,31.23-45.56,106.62-73.38,157.71-90.62,49.92-16.5,100.9-29.42,152.32-40.19,17.14-3.57,34.31-6.93,51.57-9.87,0,0,.07.39.07.39h0Z"/>
    <path class="cls-28" d="M1883.88,872.16c-35.46-22.84-75.15-39.25-116.21-48.77-57.96-13.57-120.8-7.95-173.55,20.3-9.33,4.95-18.27,10.51-27.01,16.46,0,0-.24-.32-.24-.32,12.35-10.03,25.9-18.69,40.15-25.77,62.8-31.5,137.67-24.97,201.79-.75,19.84,7.48,39.05,16.58,57.38,27.22,6.1,3.56,12.11,7.25,17.91,11.29l-.23.33h0Z"/>
  </g>
  <path class="cls-12" d="M1206,1576l1,16"/>
  <path class="cls-12" d="M1270.83,1571.95l2.83,15.78"/>
  <path class="cls-12" d="M1344.56,1563.68l-10.96,11.7"/>
  <path class="cls-12" d="M1398.92,1590.32l-7.13,14.36"/>
  <path class="cls-35" d="M1123.58,988.86c-24.58,5.86-52.2,12.04-76.9,17.32-17.12,3.57-34.15,7.67-50.97,12.45-18.87,5.41-37.71,11.45-55.49,19.85-3.93,1.9-7.78,3.96-11.56,6.17-1.87,1.13-3.67,2.37-5.51,3.55,0,0-.3-.4-.3-.4,14.14-10.55,30.6-17.43,46.96-23.75,16.47-6.16,33.31-11.29,50.26-15.96,25.38-7.16,51.1-13.09,77.23-16.71,8.7-1.26,17.42-2.34,26.2-3.01,0,0,.08.49.08.49h0Z"/>
  <path class="cls-35" d="M1580.9,957.77c7.31-3.03,15.34-4.43,23.16-5.38,6.54-.77,13.24-1.17,19.81-1.23,9.01-.09,18.75.45,27.74,1.2,7.29.9,16.35,1.91,23.52,3.32,14.89,2.65,31.69,6.32,46.29,10.25,7.62,1.89,22.88,6.21,30.36,8.6,4.19,1.3,10.94,3.22,15.06,4.67,6.63,2.29,19.51,6.71,26.09,8.98,1.74.62,30.6,11.62,33.15,12.58,0,0-.18.47-.18.47-2.31-.8-32.34-11.14-33.5-11.51-12.95-3.95-28.35-8.97-41.43-12.43-20.64-5.88-43.89-11.32-65.01-14.97-5.95-.85-13.43-2.13-19.36-2.93-3.87-.43-11.67-1.4-15.53-1.91-4.56-.46-10.95-1-15.56-1.48,0,0-7.8-.42-7.8-.42-.96-.05-4.85-.29-5.85-.34-5.8-.04-11.76-.23-17.56.08-7.75.29-15.7.92-23.21,2.9,0,0-.19-.46-.19-.46h0Z"/>
  <path class="cls-35" d="M1812.83,1068.18c-10.89-9.11-23.74-16.38-36.24-23.04-25.51-13.15-52.54-23.05-80.03-31.13-7.96-2.08-19.78-5.44-27.72-7.25-6.97-1.66-13.86-3.66-20.86-5.21-16.27-3.96-32.71-7.36-49.01-11.3,0,0,.08-.49.08-.49,9.56.91,19.11,2.08,28.65,3.37,16.57,2.71,33.19,6.02,49.43,10.36,10.82,3.16,23.83,7.15,34.41,10.94,24.96,8.7,49.51,19.03,72.26,32.57,1.53.86,4.69,2.78,6.16,3.75,8.16,5.08,16.09,10.58,23.23,17.07,0,0-.34.36-.34.36h0Z"/>
  <path class="cls-35" d="M1581.08,1009.23c14.49,3.66,28.62,8.99,42.37,14.83,17.56,7.34,34.84,16.91,51.2,26.64,29.46,17.28,57.39,37.27,83.19,59.62,0,0-.32.38-.32.38,0,0-10.13-7.79-10.13-7.79l-5.05-3.91c-20.39-15.15-42.04-29.19-64.09-41.76-24.12-13.46-49.11-25.21-74.03-37.07-7.73-3.53-15.47-7.07-23.3-10.47,0,0,.15-.48.15-.48h0Z"/>
  <path class="cls-35" d="M1141.09,1001.23c-18.58,9.54-36.58,19.77-54.48,30.39-10.66,6.44-21.43,12.72-31.68,19.82-13.72,9.27-27.12,19.37-39.68,30.19-5.63,4.67-13.23,11.57-18.54,16.72-2.78,2.52-6.28,6.07-8.85,8.82,0,0-8.68,9.01-8.68,9.01,0,0-.38-.33-.38-.33,2.86-3.27,9.68-10.99,12.44-14.1,2.79-2.92,10.21-10.42,13.17-13.44,4.37-4.13,9.35-8.69,13.81-12.8,14.26-12.3,29.11-24,44.67-34.61,15.43-10.86,31.75-20.45,48.86-28.41,9.47-4.47,19.16-8.53,29.15-11.71,0,0,.18.46.18.46h0Z"/>
  <g>
    <path class="cls-11" d="M2244.2,1903.77c18.6,0,26.1-5.7,37.2-5.7,14.7,0,28.5,4.5,28.5,27,0,20.7-12.3,24.9-28.5,24.9-9.9,0-32.7-1.2-49.5-1.2-27.6,0-26.1,8.1-41.1,8.1-8.1,0-19.5-3.9-19.5-23.7,0-17.1,9.9-26.1,20.4-27-12.6-5.1-20.4-12.9-20.4-33s15.9-34.8,38.1-34.8c19.8,0,33.3,8.7,33.3,24.9,0,9-4.5,16.2-12.9,16.2s-12.6,3-12.6,11.1c0,9.9,8.4,13.2,27,13.2Z"/>
    <path class="cls-11" d="M2205.5,1823.67c-8.4-9.9-23.7-26.7-32.7-31.2-13.2-6.6-16.2-16.8-16.2-23.7,0-10.5,9.3-23.1,21.3-23.1,4.8,0,8.4,2.4,10.2,3.9,18.9-14.7,33-47.4,72.3-47.4,29.1,0,49.5,18.9,49.5,58.8,0,31.5-17.7,51.6-36.3,51.6-13.8,0-23.7-9-23.7-25.5,0-18.6,15.9-11.7,15.9-24.6,0-7.8-4.8-13.8-12.6-13.8-12.3,0-19.5,17.1-31.8,27.9,11.1,11.4,23.1,16.2,23.1,36.9,0,12.3-12.9,18.6-20.1,18.6-5.7,0-13.5-2.1-18.9-8.4Z"/>
    <path class="cls-11" d="M2171.3,1629.57c0-17.4,7.8-27,16.8-33.3-8.4-1.8-16.5-8.1-16.5-21,0-17.4,10.8-25.5,22.8-25.5,9,0,18.6,6.3,33.6,6.3h13.8c10.5,0,15.9-2.1,22.2-8.4,3.3-3.3,10.5-7.5,21-7.5,15.9,0,24.6,12.9,24.6,24.6,0,18-7.8,25.5-23.4,29.7,11.7,4.8,23.4,14.4,23.4,38.7,0,40.5-29.4,55.2-65.7,55.2-42.3,0-72.6-20.1-72.6-58.8ZM2265.5,1619.97c0-14.4-12.9-18.9-26.1-18.9s-21.9,3.6-21.9,19.2,10.8,20.1,25.5,20.1c13.2,0,22.5-5.1,22.5-20.4Z"/>
    <path class="cls-11" d="M2253.5,1391.37h26.4c17.4-.3,30,6,30,23.1,0,23.1-17.1,23.1-26.4,23.1h-30c-17.4,0-36.3.3-36.3,20.4,0,17.1,18,18.3,36,18.3,8.7,0,21-3.9,32.1-3.9,14.7,0,24.6,8.4,24.6,24.3,0,23.7-12.3,26.7-28.5,26.7-9.9,0-32.7-.9-49.5-.9-33.6,0-26.4,5.1-41.1,5.1s-19.5-14.4-19.5-25.5c0-9,6.9-18.6,16.8-23.7-9.6-8.4-16.8-18.3-16.8-37.5,0-20.7,6.9-29.4,19.5-36.6-13.2-9.6-19.5-23.4-19.5-41.4,0-48.9,32.7-54.3,66.6-54.3h29.7c7.2-.3,11.4-4.5,22.2-4.5,12.6,0,20.1,6.9,20.1,21.6,0,28.5-15.3,29.7-32.7,29.7h-23.7c-18.6,0-36.3,1.2-36.3,15.9,0,12.3,17.1,20.1,36.3,20.1Z"/>
    <path class="cls-11" d="M2350.7,1232.97c15,0,23.7,9.3,23.7,26.4,0,15.6-8.7,25.8-23.4,25.8-8.1,0-19.8-1.8-32.4-1.8h-99.6c-12.3,0-19.8,3-27,3-11.1,0-20.7-5.7-20.7-21,0-16.8,7.8-21.3,23.1-22.5-12.9-3.9-23.1-14.7-23.1-36.3,0-41.4,29.1-60.6,69.6-60.6s68.7,25.2,68.7,60.9c0,13.8-4.2,26.1-11.1,31.8l27.9-.3c7.2,0,16.5-5.4,24.3-5.4ZM2216.3,1216.17c0,16.2,14.7,20.4,28.5,20.4s22.2-8.1,22.2-20.7c0-16.5-12.9-21.9-25.8-21.9-16.5,0-24.9,8.7-24.9,22.2Z"/>
    <path class="cls-11" d="M2126.9,1129.78c-16.5,0-27-8.4-27-25.8,0-18.3,10.5-26.7,22.5-26.7s18.3,2.4,35.7,2.4l97.8.6c3.6,0,8.7-1.5,8.7-4.8,0-4.2-.9-3.6-.6-9,.3-5.4,3.6-15,19.2-15,20.4,0,26.4,15.3,26.4,35.4,0,17.1-8.1,40.2-41.7,39.9l-117.6-.6c-6.6,0-16.2,3.6-23.4,3.6Z"/>
    <path class="cls-11" d="M2171.3,975.28c0-28.5,13.8-52.8,46.5-52.8,22.5,0,37.8,13.8,37.8,42.6,0,22.2-8.1,30.9-19.2,30.9-10.2,0-14.7-9-14.7-14.1,0-6.6,1.8-8.4,1.8-10.8,0-1.8-1.5-4.5-4.5-4.5-3.3,0-6.3,2.1-6.3,10.2,0,11.7,4.8,27.3,24.6,27.3,17.7,0,29.4-10.8,29.4-36.9,0-6.9-6-20.1-6-29.4,0-12.3,7.8-18.3,18.3-18.3,17.1,0,30.9,13.5,30.9,54,0,46.2-26.7,72.3-69.9,72.3-34.5,0-68.7-23.7-68.7-70.5Z"/>
  </g>
</svg>