<?xml version="1.0" encoding="UTF-8"?>
<svg id="stacks" xmlns="http://www.w3.org/2000/svg" viewBox="0 0 2521 2911">
  <defs>
    <style>
      .cls-1, .cls-2, .cls-3, .cls-4, .cls-5, .cls-6, .cls-7, .cls-8, .cls-9, .cls-10, .cls-11, .cls-12, .cls-13, .cls-14 {
        stroke: #441400;
      }

      .cls-1, .cls-2, .cls-4, .cls-5, .cls-8, .cls-9, .cls-10, .cls-12, .cls-14 {
        stroke-linecap: round;
      }

      .cls-1, .cls-3, .cls-6, .cls-7, .cls-12, .cls-14 {
        stroke-width: 13px;
      }

      .cls-1, .cls-7, .cls-8, .cls-15 {
        fill: #c7b299;
      }

      .cls-1, .cls-12, .cls-14 {
        stroke-linejoin: round;
      }

      .cls-16 {
        fill: #f8ffff;
      }

      .cls-17 {
        fill: #662111;
      }

      .cls-18 {
        fill: #f89389;
      }

      .cls-2, .cls-3, .cls-19, .cls-4, .cls-5, .cls-6, .cls-7, .cls-8, .cls-9, .cls-10, .cls-11, .cls-13 {
        stroke-miterlimit: 10;
      }

      .cls-2, .cls-6, .cls-12 {
        fill: #c69c6d;
      }

      .cls-2, .cls-8, .cls-10 {
        stroke-width: 11.58px;
      }

      .cls-3, .cls-9, .cls-10, .cls-14 {
        fill: #ccc;
      }

      .cls-19 {
        stroke: #8ac2b5;
        stroke-width: 15px;
      }

      .cls-19, .cls-20 {
        fill: #c7e7e0;
      }

      .cls-4 {
        stroke-width: 7.36px;
      }

      .cls-4, .cls-5 {
        fill: none;
      }

      .cls-5 {
        stroke-width: 10px;
      }

      .cls-21 {
        fill: #ceaab0;
      }

      .cls-9 {
        stroke-width: 10.93px;
      }

      .cls-11 {
        fill: #e4614f;
        stroke-width: 7.36px;
      }

      .cls-22 {
        fill: #3d0000;
      }

      .cls-23, .cls-13 {
        fill: #ebcdd8;
      }

      .cls-13 {
        stroke-width: 5.57px;
      }

      .cls-24 {
        fill: #e1f5f5;
      }
    </style>
  </defs>
  <polygon class="cls-24" points=".22 729.52 .22 2183.84 1259.7 2911 2519.17 2183.84 2519.17 729.52 1259.7 2.36 .22 729.52"/>
  <path class="cls-20" d="M1259.7,2.36L.22,729.52v1454.32l1259.48,727.16,1259.47-727.16V729.52L1259.7,2.36ZM2412.1,2122.02l-1152.4,665.35L107.29,2122.02V791.34L1259.7,126l1152.4,665.34v1330.68Z"/>
  <path class="cls-3" d="M1176,1777c2.16,5.36,1.59,16.75-1,53-2,28-28,39-44,39-15,0-37-5-40-39s-13.34-67.44,16-80c20.64-8.84,50.26,1.47,69,27Z"/>
  <path class="cls-3" d="M1176,1182c2.16,5.36,1.59,16.75-1,53-2,28-28,39-44,39-15,0-37-5-40-39s-13.34-67.44,16-80c20.64-8.84,50.26,1.47,69,27Z"/>
  <g>
    <g>
      <path class="cls-15" d="M635.13,515.34c94.61,78.48,189.21,156.96,283.82,235.44"/>
      <path class="cls-7" d="M729,528c35-10,62-4,84-1,13.91,1.9,35.96,12.19,54,34,2.99,3.62,20.5,17.54,21,44,1,53-3,77-4,111-.5,17.12,18.82,38.55,62,58l-3,27c-28.6,1.95-51.89-.4-68-3-24.37-3.93-37.12-8.32-49-19-7.92-7.12-16.43-16.29-22-50-11.11-67.2,5-79-16-108-11.39-15.73-38-13-59-16-5.69-.81-26.72-16.89-27-38-.29-21.96,22.44-37.7,27-39Z"/>
      <path class="cls-7" d="M888.84,1019.3c-2.86-17.78-2.75-31.92-2.56-56.24.43-56.27,11.14-98.14,11.72-107.06,3-46,23.24-104.93,69-153,58.25-61.2,118.52-89.78,190-96,30.73-2.67,60.81-4.96,99.67-6.02,16.36-.44,29.1-.56,34.67-.59,35.81-.23,64.84.74,90.37,1.63.9.03,13.1.46,25.29.98,60.51,2.6,143.58,8.57,172.61,10.7,21.06-37.73,48.01-58.77,67.39-55.7,23.6,3.73,47.72,45.09,49.75,105.7,2.6,3.23,5.02,6.66,7.25,10.3,54,88,76,153,67,248-3.21,33.88-22.37,151.04-120,225-17.5,13.26-35.07,23.97-55.36,32.66-.89,11.99-3.43,28.7-6.64,47.34-5,29-17.13,45.02-45,42-17.86-1.94-34-15-35-34-.57-10.94.9-22.4,4.37-33.05-12.32,1.81-28.82,4.03-48.37,6.05-8.12.84-29.05,2.91-63.1,4.77-39.63,2.16-70.23,2.57-82.83,2.71-113.71,1.28-170.56,1.93-232.07-6.48-6.28-.86-16.12-2.14-28.41-4.98,0,0-25.23-5.82-47.09-15.52-38.3-16.99-108.32-80.03-122.66-169.2Z"/>
    </g>
    <path class="cls-22" d="M1682.63,863.52c-7.44,16.9-27.34,16.86-30.6,16.71-2.58-.12-23.97-1.46-30.12-20.01-6.02-18.15,11.74-67.36,32.27-66.2,20.5,1.16,36.07,52.19,28.45,69.5Z"/>
    <path class="cls-16" d="M1665.79,827.75c-.29,4.62-3.16,8.03-6.43,7.63s-5.68-4.47-5.39-9.09c.29-4.62,3.16-8.03,6.43-7.63s5.68,4.47,5.39,9.09Z"/>
    <path class="cls-16" d="M1646.95,826.15c-3.06,4.37-7.62,5-10.18,1.41s-2.16-10.04.9-14.42c3.06-4.37,7.62-5,10.18-1.41,2.56,3.59,2.16,10.04-.9,14.42Z"/>
    <path class="cls-17" d="M1675.19,849.12c-1.93,15.2-6.37,27.08-22.88,26.65-22.98-.6-24.72-23.84-24.72-23.84,0,0,8.51,10.04,26.73,10.61,9.54.3,13.63-2.24,20.87-13.42Z"/>
    <path class="cls-11" d="M1579.44,896.71c3.23,9.17-22.05,30.39-34.95,30.18-11.99-.19-36.57-20.59-33.41-29.7,5.09-14.69,63.28-14.93,68.37-.49Z"/>
    <path class="cls-4" d="M1544.97,926.47c-.44,6.89-.89,13.77-1.33,20.66-20.45,33.3-54.23,18.34-61.63-2.62"/>
    <path class="cls-4" d="M1543.64,947.13c15.41,24.43,47.08,31.82,66.36-3.89"/>
    <path class="cls-18" d="M1206,517c44.75,44.25,89.51,88.49,134.26,132.74"/>
    <path class="cls-22" d="M1461.02,871.5c-7.44,16.9-27.34,16.86-30.6,16.71-2.58-.12-23.97-1.46-30.12-20.01-6.02-18.15,11.74-67.36,32.27-66.2,20.5,1.16,36.07,52.19,28.45,69.5Z"/>
    <path class="cls-16" d="M1444.17,835.72c-.29,4.62-3.16,8.03-6.43,7.63s-5.68-4.47-5.39-9.09c.29-4.62,3.16-8.03,6.43-7.63s5.68,4.47,5.39,9.09Z"/>
    <path class="cls-16" d="M1425.33,834.13c-3.06,4.37-7.62,5-10.18,1.41s-2.16-10.04.9-14.42c3.06-4.37,7.62-5,10.18-1.41,2.56,3.59,2.16,10.04-.9,14.42Z"/>
    <path class="cls-17" d="M1453.57,857.1c-1.93,15.2-6.37,27.08-22.88,26.65-22.98-.6-24.72-23.84-24.72-23.84,0,0,8.51,10.04,26.73,10.61,9.54.3,13.63-2.24,20.87-13.42Z"/>
    <path class="cls-13" d="M1566.09,966.53c-.32,16.82-10.16,30.31-22.26,30.31s-22.05-13.64-22.27-30.58c7.93-2.18,15.79-7.9,22.3-18.49,5.67,9,13.56,15.69,22.23,18.76Z"/>
    <ellipse class="cls-23" cx="1373" cy="915" rx="33" ry="19"/>
    <ellipse class="cls-23" cx="1696" cy="911" rx="33" ry="19"/>
    <path class="cls-5" d="M1297,922c-11-14-43.66-23.67-73-21"/>
    <path class="cls-5" d="M1820.55,911.79c-15.29-9.12-49.25-6.43-75.68,6.58"/>
    <path class="cls-5" d="M1814.13,979.59c-11-14-43.66-23.67-73-21"/>
    <path class="cls-5" d="M1286.37,961.09c-15.68-8.43-49.49-4.21-75.3,9.97"/>
    <path class="cls-8" d="M1480.02,652c5.93-61.57-16.05-107.24-37.42-110.47-21.72-3.29-57.43,35.06-68.6,98.89"/>
    <path class="cls-21" d="M1432,597c12.8,2.9,20,48,9,51-14.76,4.02-29.44-.13-40-6-9-5,17.17-48.13,31-45Z"/>
    <path class="cls-21" d="M1642.44,606.18c12.8,2.9,20,48,9,51-14.76,4.02-29.44-.13-40-6-9-5,17.17-48.13,31-45Z"/>
  </g>
  <path class="cls-18" d="M1206,1112c44.75,44.25,89.51,88.49,134.26,132.74"/>
  <g>
    <g>
      <path class="cls-18" d="M635.13,1110.34c94.61,78.48,189.21,156.96,283.82,235.44"/>
      <path class="cls-6" d="M729,1123c35-10,62-4,84-1,13.91,1.9,35.96,12.19,54,34,2.99,3.62,20.5,17.54,21,44,1,53-3,77-4,111-.5,17.12,18.82,38.55,62,58l-3,27c-28.6,1.95-51.89-.4-68-3-24.37-3.93-37.12-8.32-49-19-7.92-7.12-16.43-16.29-22-50-11.11-67.2,5-79-16-108-11.39-15.73-38-13-59-16-5.69-.81-26.72-16.89-27-38-.29-21.96,22.44-37.7,27-39Z"/>
      <path class="cls-6" d="M906.5,1691.5c-16.39-31.21-17.12-61.92-17.66-77.2-1.81-50.95,4.57-92.85,9.16-163.3,3-46,23.24-104.93,69-153,58.25-61.2,118.52-89.78,190-96,30.73-2.67,60.81-4.96,99.67-6.02,16.36-.44,29.1-.56,34.67-.59,35.81-.23,64.84.74,90.37,1.63.9.03,13.1.46,25.29.98,60.51,2.6,143.58,8.57,172.61,10.7,21.06-37.73,48.01-58.77,67.39-55.7,23.6,3.73,47.72,45.09,49.75,105.7,2.6,3.23,5.02,6.66,7.25,10.3,54,88,76,153,67,248-3.21,33.88-22.37,151.04-120,225-17.5,13.26-35.07,23.97-55.36,32.66-.89,11.99-3.43,28.7-6.64,47.34-5,29-17.13,45.02-45,42-17.86-1.94-34-15-35-34-.57-10.94.9-22.4,4.37-33.05-12.32,1.81-28.82,4.03-48.37,6.05-8.12.84-29.05,2.91-63.1,4.77-39.63,2.16-70.23,2.57-82.83,2.71-113.71,1.28-170.56,1.93-232.07-6.48-20.2-2.76-54.75,2.98-87.15-16.34-67.35-40.16-72.35-56.16-93.35-96.16Z"/>
    </g>
    <path class="cls-22" d="M1682.63,1458.52c-7.44,16.9-27.34,16.86-30.6,16.71-2.58-.12-23.97-1.46-30.12-20.01-6.02-18.15,11.74-67.36,32.27-66.2,20.5,1.16,36.07,52.19,28.45,69.5Z"/>
    <path class="cls-16" d="M1665.79,1422.75c-.29,4.62-3.16,8.03-6.43,7.63s-5.68-4.47-5.39-9.09c.29-4.62,3.16-8.03,6.43-7.63s5.68,4.47,5.39,9.09Z"/>
    <path class="cls-16" d="M1646.95,1421.15c-3.06,4.37-7.62,5-10.18,1.41s-2.16-10.04.9-14.42c3.06-4.37,7.62-5,10.18-1.41,2.56,3.59,2.16,10.04-.9,14.42Z"/>
    <path class="cls-17" d="M1675.19,1444.12c-1.93,15.2-6.37,27.08-22.88,26.65-22.98-.6-24.72-23.84-24.72-23.84,0,0,8.51,10.04,26.73,10.61,9.54.3,13.63-2.24,20.87-13.42Z"/>
    <path class="cls-11" d="M1579.44,1491.71c3.23,9.17-22.05,30.39-34.95,30.18-11.99-.19-36.57-20.59-33.41-29.7,5.09-14.69,63.28-14.93,68.37-.49Z"/>
    <path class="cls-4" d="M1544.97,1521.47c-.44,6.89-.89,13.77-1.33,20.66-20.45,33.3-54.23,18.34-61.63-2.62"/>
    <path class="cls-4" d="M1543.64,1542.13c15.41,24.43,47.08,31.82,66.36-3.89"/>
    <path class="cls-22" d="M1461.02,1466.5c-7.44,16.9-27.34,16.86-30.6,16.71-2.58-.12-23.97-1.46-30.12-20.01-6.02-18.15,11.74-67.36,32.27-66.2,20.5,1.16,36.07,52.19,28.45,69.5Z"/>
    <path class="cls-16" d="M1444.17,1430.72c-.29,4.62-3.16,8.03-6.43,7.63s-5.68-4.47-5.39-9.09c.29-4.62,3.16-8.03,6.43-7.63s5.68,4.47,5.39,9.09Z"/>
    <path class="cls-16" d="M1425.33,1429.13c-3.06,4.37-7.62,5-10.18,1.41s-2.16-10.04.9-14.42c3.06-4.37,7.62-5,10.18-1.41,2.56,3.59,2.16,10.04-.9,14.42Z"/>
    <path class="cls-17" d="M1453.57,1452.1c-1.93,15.2-6.37,27.08-22.88,26.65-22.98-.6-24.72-23.84-24.72-23.84,0,0,8.51,10.04,26.73,10.61,9.54.3,13.63-2.24,20.87-13.42Z"/>
    <path class="cls-13" d="M1566.09,1561.53c-.32,16.82-10.16,30.31-22.26,30.31s-22.05-13.64-22.27-30.58c7.93-2.18,15.79-7.9,22.3-18.49,5.67,9,13.56,15.69,22.23,18.76Z"/>
    <ellipse class="cls-23" cx="1373" cy="1510" rx="33" ry="19"/>
    <ellipse class="cls-23" cx="1696" cy="1506" rx="33" ry="19"/>
    <path class="cls-5" d="M1297,1517c-11-14-43.66-23.67-73-21"/>
    <path class="cls-5" d="M1820.55,1506.79c-15.29-9.12-49.25-6.43-75.68,6.58"/>
    <path class="cls-5" d="M1814.13,1574.59c-11-14-43.66-23.67-73-21"/>
    <path class="cls-5" d="M1286.37,1556.09c-15.68-8.43-49.49-4.21-75.3,9.97"/>
    <path class="cls-2" d="M1480.02,1247c5.93-61.57-16.05-107.24-37.42-110.47-21.72-3.29-57.43,35.06-68.6,98.89"/>
    <path class="cls-21" d="M1432,1192c12.8,2.9,20,48,9,51-14.76,4.02-29.44-.13-40-6-9-5,17.17-48.13,31-45Z"/>
    <path class="cls-21" d="M1642.44,1201.18c12.8,2.9,20,48,9,51-14.76,4.02-29.44-.13-40-6-9-5,17.17-48.13,31-45Z"/>
  </g>
  <path class="cls-1" d="M1322,1146c4,21,9.31,50.74,3,97-3,22-16.61,35.83-36,37-21.71,1.31-40-11-42-36-3.29-41.06-4.74-78.81,0-91"/>
  <g>
    <path class="cls-3" d="M1150,2365c2.16,5.36,1.59,16.75-1,53-2,28-28,39-44,39-15,0-37-5-40-39s-13.34-67.44,16-80c20.64-8.84,50.26,1.47,69,27Z"/>
    <g>
      <path class="cls-18" d="M609.13,1698.34c94.61,78.48,189.21,156.96,283.82,235.44"/>
      <path class="cls-3" d="M703,1711c35-10,62-4,84-1,13.91,1.9,35.96,12.19,54,34,2.99,3.62,20.5,17.54,21,44,1,53-3,77-4,111-.5,17.12,18.82,38.55,62,58l-3,27c-28.6,1.95-51.89-.4-68-3-24.37-3.93-37.12-8.32-49-19-7.92-7.12-16.43-16.29-22-50-11.11-67.2,5-79-16-108-11.39-15.73-38-13-59-16-5.69-.81-26.72-16.89-27-38-.29-21.96,22.44-37.7,27-39Z"/>
      <path class="cls-3" d="M1293.07,2398.48c-113.71,1.28-170.56,1.93-232.07-6.48-20.2-2.76-50.45-7.6-87.15-16.34.34,8.45.4,17.58.15,27.34-.43,16.69-8.59,39.39-25,45-20.51,7.01-41-5-49-23-12.9-29.03-19.08-66.09-22-107-.47-6.58-.62-12.42-.48-17.6-3.09-6.88-5.29-14.02-6.52-21.4-16-96-5.64-138.2,1-240,3-46,23.24-104.93,69-153,58.25-61.2,118.52-89.78,190-96,30.73-2.67,60.81-4.96,99.67-6.02,16.36-.44,29.1-.56,34.67-.59,35.81-.23,64.84.74,90.37,1.63.9.03,13.1.46,25.29.98,60.51,2.6,143.58,8.57,172.61,10.7,21.06-37.73,48.01-58.77,67.39-55.7,23.6,3.73,47.72,45.09,49.75,105.7,2.6,3.23,5.02,6.66,7.25,10.3,54,88,76,153,67,248-3.21,33.88-22.37,151.04-120,225-17.5,13.26-35.07,23.97-55.36,32.66-.89,11.99-3.43,28.7-6.64,47.34-5,29-17.13,45.02-45,42-17.86-1.94-34-15-35-34-.57-10.94.9-22.4,4.37-33.05-12.32,1.81-28.82,4.03-48.37,6.05-8.12.84-29.05,2.91-63.1,4.77-39.63,2.16-70.23,2.57-82.83,2.71Z"/>
    </g>
    <path class="cls-22" d="M1656.63,2046.52c-7.44,16.9-27.34,16.86-30.6,16.71-2.58-.12-23.97-1.46-30.12-20.01-6.02-18.15,11.74-67.36,32.27-66.2,20.5,1.16,36.07,52.19,28.45,69.5Z"/>
    <path class="cls-16" d="M1639.79,2010.75c-.29,4.62-3.16,8.03-6.43,7.63s-5.68-4.47-5.39-9.09c.29-4.62,3.16-8.03,6.43-7.63s5.68,4.47,5.39,9.09Z"/>
    <path class="cls-16" d="M1620.95,2009.15c-3.06,4.37-7.62,5-10.18,1.41s-2.16-10.04.9-14.42c3.06-4.37,7.62-5,10.18-1.41,2.56,3.59,2.16,10.04-.9,14.42Z"/>
    <path class="cls-17" d="M1649.19,2032.12c-1.93,15.2-6.37,27.08-22.88,26.65-22.98-.6-24.72-23.84-24.72-23.84,0,0,8.51,10.04,26.73,10.61,9.54.3,13.63-2.24,20.87-13.42Z"/>
    <path class="cls-11" d="M1553.44,2079.71c3.23,9.17-22.05,30.39-34.95,30.18-11.99-.19-36.57-20.59-33.41-29.7,5.09-14.69,63.28-14.93,68.37-.49Z"/>
    <path class="cls-4" d="M1518.97,2109.47c-.44,6.89-.89,13.77-1.33,20.66-20.45,33.3-54.23,18.34-61.63-2.62"/>
    <path class="cls-4" d="M1517.64,2130.13c15.41,24.43,47.08,31.82,66.36-3.89"/>
    <path class="cls-18" d="M1180,1700c44.75,44.25,89.51,88.49,134.26,132.74"/>
    <path class="cls-22" d="M1435.02,2054.5c-7.44,16.9-27.34,16.86-30.6,16.71-2.58-.12-23.97-1.46-30.12-20.01-6.02-18.15,11.74-67.36,32.27-66.2,20.5,1.16,36.07,52.19,28.45,69.5Z"/>
    <path class="cls-16" d="M1418.17,2018.72c-.29,4.62-3.16,8.03-6.43,7.63s-5.68-4.47-5.39-9.09c.29-4.62,3.16-8.03,6.43-7.63s5.68,4.47,5.39,9.09Z"/>
    <path class="cls-16" d="M1399.33,2017.13c-3.06,4.37-7.62,5-10.18,1.41s-2.16-10.04.9-14.42c3.06-4.37,7.62-5,10.18-1.41,2.56,3.59,2.16,10.04-.9,14.42Z"/>
    <path class="cls-17" d="M1427.57,2040.1c-1.93,15.2-6.37,27.08-22.88,26.65-22.98-.6-24.72-23.84-24.72-23.84,0,0,8.51,10.04,26.73,10.61,9.54.3,13.63-2.24,20.87-13.42Z"/>
    <path class="cls-13" d="M1540.09,2149.53c-.32,16.82-10.16,30.31-22.26,30.31s-22.05-13.64-22.27-30.58c7.93-2.18,15.79-7.9,22.3-18.49,5.67,9,13.56,15.69,22.23,18.76Z"/>
    <ellipse class="cls-23" cx="1347" cy="2098" rx="33" ry="19"/>
    <ellipse class="cls-23" cx="1670" cy="2094" rx="33" ry="19"/>
    <path class="cls-5" d="M1271,2105c-11-14-43.66-23.67-73-21"/>
    <path class="cls-5" d="M1794.55,2094.79c-15.29-9.12-49.25-6.43-75.68,6.58"/>
    <path class="cls-5" d="M1788.13,2162.59c-11-14-43.66-23.67-73-21"/>
    <path class="cls-5" d="M1260.37,2144.09c-15.68-8.43-49.49-4.21-75.3,9.97"/>
    <path class="cls-14" d="M1296,2329c4,21,9.31,50.74,3,97-3,22-16.61,35.83-36,37-21.71,1.31-40-11-42-36-3.29-41.06-4.74-78.81,0-91"/>
    <path class="cls-10" d="M1454.02,1835c5.93-61.57-16.05-107.24-37.42-110.47-21.72-3.29-57.43,35.06-68.6,98.89"/>
    <path class="cls-21" d="M1406,1780c12.8,2.9,20,48,9,51-14.76,4.02-29.44-.13-40-6-9-5,17.17-48.13,31-45Z"/>
    <path class="cls-21" d="M1616.44,1789.18c12.8,2.9,20,48,9,51-14.76,4.02-29.44-.13-40-6-9-5,17.17-48.13,31-45Z"/>
    <path class="cls-9" d="M973.5,2375.5c-.83-16.83-1.65-33.67-2.48-50.5"/>
  </g>
  <path class="cls-12" d="M1322,1741c4,21,9.31,50.74,3,97-3,22-16.61,35.83-36,37-21.71,1.31-40-11-42-36-3.29-41.06-4.74-78.81,0-91"/>
  <path class="cls-12" d="M1044.91,1738.94c4,21,9.31,50.74,3,97-3,22-16.61,35.83-36,37-21.71,1.31-40-11-42-36-3.29-41.06-4.74-78.81,0-91"/>
  <path class="cls-1" d="M1082.83,1145.78c4,21,9.31,50.74,3,97-3,22-16.61,35.83-36,37-21.71,1.31-40-11-42-36-3.29-41.06-4.74-78.81,0-91"/>
  <g>
    <path class="cls-19" d="M2251.99,1898.59c-8.4-9.9-23.7-26.7-32.7-31.2-13.2-6.6-16.2-16.8-16.2-23.7,0-10.5,9.3-23.1,21.3-23.1,4.8,0,8.4,2.4,10.2,3.9,18.9-14.7,33-47.4,72.3-47.4,29.1,0,49.5,18.9,49.5,58.8,0,31.5-17.7,51.6-36.3,51.6-13.8,0-23.7-9-23.7-25.5,0-18.6,15.9-11.7,15.9-24.6,0-7.8-4.8-13.8-12.6-13.8-12.3,0-19.5,17.1-31.8,27.9,11.1,11.4,23.1,16.2,23.1,36.9,0,12.3-12.9,18.6-20.1,18.6-5.7,0-13.5-2.1-18.9-8.4Z"/>
    <path class="cls-19" d="M2262.49,1759.99c0,8.4-6.9,18-18.6,18-17.4,0-23.4-8.4-23.4-18.3,0-3.6.6-7.2.6-10.2-5.7,0-15,1.8-23.7,1.8-11.1,0-23.7-6.3-23.7-24.6,0-21.3,10.5-27.3,20.1-27.3,10.2,0,18,2.4,27.3,2.4,0-10.2-.9-18.6-.9-29.4,0-14.7,6.9-19.8,21.3-19.8,13.5,0,21.3,7.5,21.3,19.8s-1.2,22.2-1.2,30.6c13.5.6,27.3,2.7,40.8,1.5,3.6-.3,9.3-.9,9.3-7.2,0-5.4-3-8.4-9.3-8.4-10.5,0-14.1-7.8-14.1-17.7,0-16.5,8.1-22.5,19.8-22.5,24.9,0,47.7,13.2,47.7,52.2,0,36.6-22.2,52.5-53.4,50.4-13.5-.9-27-1.8-40.5-1.2,0,0,.6,4.8.6,9.9Z"/>
    <path class="cls-19" d="M2217.79,1578.19c0-17.4,7.8-27,16.8-33.3-8.4-1.8-16.5-8.1-16.5-21,0-17.4,10.8-25.5,22.8-25.5,9,0,18.6,6.3,33.6,6.3h13.8c10.5,0,15.9-2.1,22.2-8.4,3.3-3.3,10.5-7.5,21-7.5,15.9,0,24.6,12.9,24.6,24.6,0,18-7.8,25.5-23.4,29.7,11.7,4.8,23.4,14.4,23.4,38.7,0,40.5-29.4,55.2-65.7,55.2-42.3,0-72.6-20.1-72.6-58.8ZM2311.99,1568.59c0-14.4-12.9-18.9-26.1-18.9s-21.9,3.6-21.9,19.2,10.8,20.1,25.5,20.1c13.2,0,22.5-5.1,22.5-20.4Z"/>
    <path class="cls-19" d="M2217.79,1407.8c0-27.6,15.6-54,43.8-54,16.2,0,26.7,8.4,26.7,21.9,0,17.7-9,21.9-17.4,21.9-5.4,0-7.2,3-7.2,10.2,0,15.3,9.3,22.5,23.1,22.5,12.6,0,24.6-6,24.6-21,0-19.8-8.1-21.6-8.1-33.6,0-16.5,14.1-21.9,22.5-21.9,18,0,30.6,19.8,30.6,54.9,0,41.4-26.7,69.3-69.9,69.3-34.5,0-68.7-23.7-68.7-70.2Z"/>
    <path class="cls-19" d="M2209.69,1334.6c-36,0-63-13.8-63-51.3s18.9-45.9,35.1-45.9c17.4,0,25.5,9.3,25.5,23.1,0,9.9-5.7,15.3-11.4,15.3-2.1,0-2.7-.6-4.8-.6s-3.9,2.1-3.9,5.4c0,7.2,9,8.7,18,8.7,8.4,0,25.8-1.5,25.8-1.5-7.2-7.5-13.2-17.1-13.2-34.5,0-39.3,22.8-54.3,37.8-54.3,28.2,0,36.6,18.9,44.7,30.9,4.5-2.1,11.1-8.1,11.1-13.5,0-4.5-1.5-5.1-1.5-10.5,0-6.6,3.9-17.4,19.5-17.4s26.1,8.4,26.1,27.9-9.9,38.4-32.7,51c-12.3,6.9-21,9.3-33,9.3-9.3,0-13.2-7.2-13.2-15.6v-4.5c0-6.3-2.7-10.2-8.1-10.2-6.3,0-10.2,4.2-10.2,15.6,0,14.4,7.5,25.2,25.8,25.2s21.6-3.3,35.7-3.3c18.9,0,35.7,3.6,35.7,24.9s-15,25.5-35.7,25.5c-12.6,0-24-1.2-41.1-1.2,0,0-57,1.5-69,1.5Z"/>
    <path class="cls-19" d="M2251.99,1176.2c-8.4-9.9-23.7-26.7-32.7-31.2-13.2-6.6-16.2-16.8-16.2-23.7,0-10.5,9.3-23.1,21.3-23.1,4.8,0,8.4,2.4,10.2,3.9,18.9-14.7,33-47.4,72.3-47.4,29.1,0,49.5,18.9,49.5,58.8,0,31.5-17.7,51.6-36.3,51.6-13.8,0-23.7-9-23.7-25.5,0-18.6,15.9-11.7,15.9-24.6,0-7.8-4.8-13.8-12.6-13.8-12.3,0-19.5,17.1-31.8,27.9,11.1,11.4,23.1,16.2,23.1,36.9,0,12.3-12.9,18.6-20.1,18.6-5.7,0-13.5-2.1-18.9-8.4Z"/>
  </g>
</svg>