<?xml version="1.0" encoding="UTF-8"?>
<svg id="tidyclust" xmlns="http://www.w3.org/2000/svg" xmlns:xlink="http://www.w3.org/1999/xlink" viewBox="0 0 2521 2911">
  <defs>
    <style>
      .cls-1, .cls-2 {
        fill: #7537a5;
      }

      .cls-1, .cls-2, .cls-3, .cls-4, .cls-5, .cls-6, .cls-7, .cls-8, .cls-9, .cls-10, .cls-11, .cls-12, .cls-13, .cls-14, .cls-15, .cls-16, .cls-17 {
        stroke-miterlimit: 10;
      }

      .cls-1, .cls-2, .cls-5, .cls-6, .cls-7, .cls-9, .cls-11, .cls-12, .cls-13, .cls-14, .cls-15, .cls-16, .cls-17 {
        stroke: #000;
      }

      .cls-1, .cls-6, .cls-9, .cls-10, .cls-12, .cls-14, .cls-16 {
        stroke-width: 10px;
      }

      .cls-2, .cls-4, .cls-5, .cls-7, .cls-8, .cls-11, .cls-13, .cls-15, .cls-17 {
        stroke-width: 7px;
      }

      .cls-3 {
        stroke: #4f687d;
        stroke-width: 15px;
      }

      .cls-3, .cls-18 {
        fill: #85a1b8;
      }

      .cls-4, .cls-8, .cls-10 {
        stroke: #57342e;
      }

      .cls-4, .cls-10, .cls-13 {
        fill: none;
      }

      .cls-19 {
        fill: #894dd1;
      }

      .cls-20 {
        fill: #f4bc67;
      }

      .cls-21 {
        fill: #dbe8f7;
      }

      .cls-22 {
        fill: #ba4254;
      }

      .cls-23 {
        fill: #c9cbd9;
      }

      .cls-24 {
        fill: #ed7462;
      }

      .cls-25 {
        fill: #1a238f;
      }

      .cls-5, .cls-6 {
        fill: #324cb8;
      }

      .cls-26 {
        fill: url(#radial-gradient);
      }

      .cls-27 {
        fill: #727274;
      }

      .cls-28 {
        fill: #f3ae7a;
      }

      .cls-29 {
        fill: #3352b5;
      }

      .cls-7, .cls-9 {
        fill: #fae28e;
      }

      .cls-8 {
        fill: #57342e;
      }

      .cls-30 {
        fill: #4d2b28;
      }

      .cls-31 {
        fill: #e28189;
      }

      .cls-32 {
        fill: #6fc563;
      }

      .cls-33 {
        fill: #3c1e81;
      }

      .cls-34 {
        fill: #2c2b30;
      }

      .cls-35 {
        fill: #448a51;
      }

      .cls-10 {
        stroke-linecap: round;
      }

      .cls-36 {
        fill: #fff;
      }

      .cls-37 {
        fill: #f09262;
      }

      .cls-38 {
        fill: #f8d77b;
      }

      .cls-39 {
        fill: #d0505f;
      }

      .cls-40 {
        fill: #c43a39;
      }

      .cls-41 {
        fill: #519e47;
      }

      .cls-11, .cls-12 {
        fill: #f19e6c;
      }

      .cls-42 {
        fill: #4c79d3;
      }

      .cls-43 {
        fill: #fbe894;
      }

      .cls-14, .cls-15 {
        fill: #bc3b4c;
      }

      .cls-44 {
        fill: #b17b4c;
      }

      .cls-45 {
        fill: #764231;
      }

      .cls-46 {
        fill: #1b1b22;
      }

      .cls-47 {
        fill: #612ba2;
      }

      .cls-48 {
        fill: #b7332e;
      }

      .cls-16, .cls-17 {
        fill: #529e5b;
      }
    </style>
    <radialGradient id="radial-gradient" cx="1259.69" cy="1456.68" fx="1259.69" fy="1456.68" r="1360.39" gradientUnits="userSpaceOnUse">
      <stop offset="0" stop-color="#c1ddf5"/>
      <stop offset="1" stop-color="#96bcf0"/>
    </radialGradient>
  </defs>
  <polygon class="cls-26" points="2519.17 729.52 2519.17 2183.84 2233.25 2348.92 2080.57 2437.07 2074.79 2440.4 1259.7 2911 857.66 2678.88 633.4 2549.4 633.39 2549.4 628.48 2546.57 628.48 2546.56 628.47 2546.56 407.53 2419 270.05 2339.63 188.39 2292.48 .22 2183.84 .22 729.52 436.3 477.76 436.31 477.75 441.28 474.87 441.29 474.87 1259.7 2.36 1422.09 96.12 1422.1 96.12 1429.77 100.55 1459.03 117.44 1466.9 121.99 1503.93 143.37 1557.14 174.09 1611.28 205.34 1630.26 216.31 1666.04 236.96 1708.49 261.47 1744.07 282.01 1753.76 287.61 1753.77 287.61 2519.17 729.52"/>
  <path class="cls-36" d="M2465,1032c-8.2-1.29-70.49-10.03-120,35-59.95,54.52-43.73,135.63-43,139-12.2,1.12-104.99,11.27-159,94-8.74,13.4-59.34,94.36-22,179,30.44,69,106.99,112.46,191,107,49-.33,98-.67,147-1,2-184.33,4-368.67,6-553Z"/>
  <path class="cls-21" d="M2438,1213c-8.04.32-40.92,2.55-67,29-35.99,36.5-26.89,86.56-26,91-14.01-.92-51.93-1.4-85,24-52.49,40.32-46.91,110.6-46,122,3.02,38.01,19.62,65.64,29,79,65,2.33,130,4.67,195,7v-352Z"/>
  <path class="cls-36" d="M2431,1685c-11.92,1.85-32.63,3.5-57-3-21.23-5.66-36.73-15.23-46-22-5.84,4.84-16.94,12.76-33,17-14.44,3.81-26.73,3.02-34,2-3.37,7.42-16.33,33.59-47,48-38.39,18.04-74.29,3.44-80,1-3.67,4.66-9.8,11.03-19,15-11.06,4.78-17.31,2.09-42,1-7.36-.32-13.41-.38-18.42-.37-15.71.03-21.31.65-25.58-4.63-5.13-6.34-5.17-17.27-1-24,4.28-6.92,10.42-5.21,20-14,6.81-6.26,6.58-9.76,12-16,4.8-5.52,13.23-12.28,29-16-7.7-49.93,13.49-96.58,51-116,29.61-15.33,59.82-8.72,70-6,1.17-5.03,5.59-21.2,21-33,10.17-7.78,20.54-10.16,26-11,2.5-17.46,14.02-32.11,30-38,20.09-7.4,37.62,2.59,40,4,5.07-4.69,25.9-22.9,53-20,22.56,2.41,36.82,18.1,44,26,17.94,19.73,24.4,50.64,25.14,82.74h0c1.34,58.44-16.27,120.86-18.14,127.26Z"/>
  <path class="cls-21" d="M2431,1685c-11.92,1.85-32.63,3.5-57-3-21.23-5.66-36.73-15.23-46-22-5.84,4.84-16.94,12.76-33,17-14.44,3.81-26.73,3.02-34,2-3.37,7.42-16.33,33.59-47,48-38.39,18.04-74.29,3.44-80,1-3.67,4.66-9.8,11.03-19,15-11.06,4.78-17.31,2.09-42,1-7.36-.32-13.41-.38-18.42-.37-.25-6.4.69-18.25,9.42-28.63,9.33-11.09,21.64-13.47,25-14,1.18-2.79,7.09-15.98,22-22,10.13-4.09,19.21-2.78,23-2-.36-1.02-7.26-22.04,7-39,12.95-15.41,32.17-14.15,34-14,.09-1.23,1.75-18.81,17-27,12.28-6.59,28.11-4.27,39,6,2.39-9.01,7.69-24.11,20-39,17.06-20.62,37.71-28.91,47-32,3.42-5.1,25.65-37.18,62-39,31.85-1.59,54.21,21.07,65,32,9.15,9.27,17.26,20.39,24.14,32.74h0c1.34,58.44-16.27,120.86-18.14,127.26Z"/>
  <path class="cls-36" d="M769,1787c-.17,3.36-1.83,6.51-4.59,9.43-11.19,11.88-40.35,19.94-59.41,22.57-27.66,3.83-50.79-1.45-65-6-3.05,2.76-19.79,17.38-45,16-26.17-1.43-41.48-19-44-22-5.03,4.99-41.63,40.03-97,35-53.26-4.84-82.56-43.01-87-49-17.37,42.23-57.82,70.49-103,72-43.22,1.45-83.89-21.81-105-60-5.36,6.48-19.33,21.59-43,29-28.57,8.94-52.63.82-60-2,4.41-200.67,8.81-401.34,13.22-602.01l3.78-171.99c9.29-2.06,78.98-16.3,138,31,45.8,36.7,55.8,86.92,58,100,61.15-3.99,118.25,28.29,144,81,33.95,69.5-5.2,136.41-8,141,37.35,1.33,70.55,23.59,85,57,20,46.24-7.06,88.11-9,91,41.87-3.98,82.03,15.48,103,50,26.54,43.69,9.11,89.71,7,95,3.04-1.04,22.89-7.43,43,4,19.12,10.87,24.18,29.74,25,33,3.41-1.32,18.13-6.55,35,0,15.81,6.14,23.14,18.58,25,22,2.43-.83,17.83-5.78,33,3,2.17,1.25,17.53,10.15,17,21Z"/>
  <path class="cls-21" d="M764.41,1796.43c-11.19,11.88-40.35,19.94-59.41,22.57-27.66,3.83-50.79-1.45-65-6-3.05,2.76-19.79,17.38-45,16-26.17-1.43-41.48-19-44-22-5.03,4.99-41.63,40.03-97,35-53.26-4.84-82.56-43.01-87-49-17.37,42.23-57.82,70.49-103,72-43.22,1.45-83.89-21.81-105-60-5.36,6.48-19.33,21.59-43,29-28.57,8.94-52.63.82-60-2,4.41-200.67,8.81-401.34,13.22-602.01,3.82-6.67,7.75-13.33,11.78-19.99,9.16.6,41.45,3.83,69,30,23.36,22.19,30.01,48.25,32,58,3.24-.92,53.06-14.19,90,19,30.72,27.6,39.17,75.34,19,116,42.86-6.83,85.86,11.55,110,47,25.41,37.31,25.45,86.98,0,125,3.4-.24,21.16-1.16,36,12,18.24,16.18,16.25,39.6,16,42,26.05-9.9,55.61-2.69,74,18,17.97,20.21,21.94,49.55,10,74,5.51-2.78,20.39-9.33,39-6,30.56,5.47,44.46,32.83,46,36,1.14-1.45,16.32-20.05,41-18,22.9,1.9,34.72,19.97,36,22,8.64-1.5,20.45-2.4,34,0,12.22,2.17,22.7,6.47,31.41,11.43Z"/>
  <path class="cls-36" d="M83,1478c40.56-44.16,102.88-52.56,144-25,43.27,29,44.01,85.06,44,90,10.6-.51,36.18-.15,57,17,30.07,24.77,38.29,74.75,16,121-.16-4.26-2.55-47.39-40-72-27.53-18.09-63.4-19.2-93-3,1.38-4.35,5.6-15.62,17-24,6.89-5.06,13.74-7.1,18-8-3.08-5.74-25.14-45.24-74-56-49.1-10.81-85.85,16.09-91,20,.67-20,1.33-40,2-60Z"/>
  <path class="cls-21" d="M331,2116c63.56-48.48,148.17-43.47,208-10,83.58,46.76,98.35,137.64,100,149,56.63-59.28,141.34-81.57,217-57,85.47,27.76,144.48,110.47,144,204,15.04-16.11,62.19-62.34,136-71,82.77-9.71,166.45,31.64,218,106,3.63-4.71,36.07-45.24,92-45,55.32.24,87.27,40.17,91,45,4.08-6.93,24.1-39.22,66-51,45.44-12.78,81.88,8.32,88,12-1.09-5.4-15.6-84.71,43-141,49.09-47.15,111.78-41.93,121-41,5.73-29.77,26.72-54.27,55-64,40.41-13.91,74,9.8,77,12-22.58-90.96,14.16-185.29,89-233,85.59-54.57,204.36-37.54,276,44l75,153c-390,238.67-780,477.33-1170,716-332.67-194.33-665.33-388.67-998-583,.4-11.89,4.48-93.5,72-145Z"/>
  <path class="cls-36" d="M2458,1978c-96.04-40.08-205.82-26.09-286,37-89.16,70.16-127.36,189.77-96,302-10.12-3.21-57.27-16.98-105,8-44.37,23.22-72.24,71.04-73,124-35.75-20.69-79.59-20.8-114,0-39.37,23.79-59.98,71.06-51,118,243.67-145.67,487.33-291.33,731-437-2-50.67-4-101.33-6-152Z"/>
  <path class="cls-36" d="M974,2665c-.33-5.57-8.2-107.31-100-156-94.32-50.03-185.31,4.69-189,7,96.33,49.67,192.67,99.33,289,149Z"/>
  <path class="cls-36" d="M540,2395c.6-8.9,8.72-169.86-119-260-100.75-71.11-242.36-67.32-348,12,155.67,82.67,311.33,165.33,467,248Z"/>
  <g>
    <line class="cls-13" x1="1471.96" y1="1373.78" x2="1311" y2="1714"/>
    <polyline class="cls-13" points="1291.87 1315.02 1311 1714 1484.86 1159.54"/>
    <polyline class="cls-13" points="1166.5 1231.5 1311 1714 1137.74 1391.18"/>
    <line class="cls-13" x1="1666.2" y1="1035.19" x2="1311" y2="1714"/>
    <line class="cls-13" x1="1324.11" y1="929.81" x2="1311" y2="1714"/>
    <polyline class="cls-13" points="1480.66 868.59 1311 1714 812.36 1104.48"/>
    <polyline class="cls-13" points="1184.05 762.51 1311 1714 977.1 829.38"/>
    <g>
      <path class="cls-15" d="M1295.06,1237.77c28.93,11.74,48.17,32.9,48.21,54.82,0,2.96.03,20.66-12.87,28.55-10.52,6.44-26.04,4.16-38.53-6.12-.72.91-12.81,15.72-29,13.3-14.57-2.18-22.93-16.89-24.73-26.48-3.98-21.2,18.25-48.2,56.93-64.07Z"/>
      <circle class="cls-14" cx="1277.86" cy="1029.19" r="255"/>
      <path class="cls-39" d="M1444.2,875.97c-4.69-1.53-9.7-2.51-15-2.72-5.93-.23-14.81-.45-21.87,5.17-13.92,11.09-9.05,35.59-8.83,51.28.77,53.27-50.73,95.98-62.45,105.7-41.61,34.51-113.32,56.77-175.96,26.07-15.91-7.79-62.42-34.29-75.85-89.76-4.82-19.88-4.64-40.48,0-60.37,44.54-74.86,130.75-120,222.57-107.81,55.14,7.32,102.92,34.07,137.39,72.43Z"/>
      <path class="cls-48" d="M1499.81,1055.63c-16.32,122.91-129.18,209.32-252.09,193.01-88.61-11.76-158.26-73.72-184.1-153.43,15.32,20.24,38.33,44.66,71.28,64.81,15.86,9.7,97.12,57.01,197.73,30.28,26.2-6.96,80.34-26.01,124.39-78.31,23.45-27.85,36.89-56.64,44.68-80.28-.2,7.91-.83,15.9-1.89,23.92Z"/>
      <path class="cls-40" d="M1501.71,1031.71c-7.79,23.64-21.23,52.43-44.68,80.28-44.05,52.3-98.18,71.35-124.39,78.31-100.61,26.72-181.87-20.58-197.73-30.28-32.95-20.15-55.96-44.57-71.28-64.81-10.01-30.84-13.46-64.36-8.9-98.66,4.13-31.1,14.43-59.85,29.52-85.2-4.64,19.88-4.81,40.49,0,60.37,13.43,55.47,59.93,81.97,75.85,89.76,62.64,30.7,134.35,8.44,175.96-26.07,11.72-9.72,63.22-52.43,62.45-105.7-.23-15.7-5.1-40.19,8.83-51.28,7.06-5.62,15.94-5.4,21.87-5.17,5.3.21,10.31,1.19,15,2.72,37.35,41.58,59.06,96.8,57.51,155.74Z"/>
      <path class="cls-39" d="M1449.62,992.98c10.65.44,19.37,19.26,18.59,34.75-.74,14.58-10.17,31.71-20.33,31.6-10.71-.12-20.69-19.41-19.45-35.87,1.08-14.32,10.98-30.9,21.19-30.48Z"/>
      <path class="cls-39" d="M1158.55,1133.9c7.69-6.81,3.5-24.8-5.44-35.02-9.75-11.16-28.58-16.98-36.02-9.83-7.46,7.17-2.14,26.08,8.28,36.41,9.04,8.95,25.64,15.12,33.18,8.44Z"/>
      <path class="cls-36" d="M1314.46,840.87c-4.78-6.57-15.82-6.37-22.07-.91-5.7,4.98-8.02,14.86-2.76,20.82,5.05,5.72,14.47,4.83,20.09.65,6.18-4.59,9.31-14.28,4.75-20.55Z"/>
      <path class="cls-36" d="M1163.64,920.72c4.65,5.4,1.68,15.38-3.75,20.69-5.31,5.19-15.22,8.1-20.62,3.32-5.6-4.97-3.87-16.04,1.9-21.94,6.03-6.16,17.55-7.77,22.47-2.06Z"/>
      <path class="cls-36" d="M1194.85,830.03c20.5-12.76,53.46-16.11,64.63-.5,11.73,16.39-4.12,48.75-25.67,64.18-21.53,15.41-56.64,19.56-68.13,4.07-12.15-16.39,4.1-52.15,29.17-67.75Z"/>
    </g>
    <g>
      <path class="cls-2" d="M1101.88,1322.68c30.92-4.29,58.17,4.41,69.16,23.37,1.48,2.56,10.36,17.88,3.13,31.16-5.89,10.83-20.47,16.63-36.43,13.96-.17,1.15-3.23,20.02-18.47,26.02-13.71,5.4-28.3-3.16-34.66-10.57-14.05-16.37-8.3-50.87,17.27-83.95Z"/>
      <circle class="cls-1" cx="982.7" cy="1150.65" r="255"/>
      <path class="cls-19" d="M1050.14,934.78c-4.83,1.02-9.66,2.68-14.35,5.15-5.25,2.76-13.05,7.01-16.36,15.41-6.51,16.57,9.95,35.35,18,48.83,27.3,45.75,4.05,108.49-1.24,122.77-18.78,50.7-69.75,105.82-139.35,110.56-17.68,1.21-71.2,1.51-110.57-39.81-14.11-14.81-24.26-32.74-30.19-52.28,1.14-87.1,53.23-169.29,138.85-204.65,51.41-21.23,106.17-21.95,155.2-5.97Z"/>
      <path class="cls-33" d="M1188.13,1062.57c47.32,114.6-7.21,245.87-121.82,293.19-82.62,34.12-173.91,15.29-236.15-40.83,23.39,9.87,55.52,19.52,94.14,20.49,18.59.47,112.61.81,186.39-72.64,19.21-19.13,56.57-62.7,68.57-130.01,6.38-35.84,3.63-67.5-1.44-91.86,3.78,6.95,7.23,14.18,10.32,21.66Z"/>
      <path class="cls-47" d="M1177.81,1040.91c5.07,24.37,7.83,56.02,1.44,91.86-12,67.31-49.36,110.88-68.57,130.01-73.77,73.45-167.8,73.11-186.39,72.64-38.62-.98-70.75-10.62-94.14-20.49-24.09-21.71-43.83-49.01-57.04-80.99-11.97-29-17.43-59.05-17.03-88.54,5.93,19.54,16.08,37.47,30.19,52.28,39.36,41.32,92.89,41.02,110.57,39.81,69.6-4.73,120.57-59.86,139.35-110.56,5.29-14.28,28.54-77.01,1.24-122.77-8.04-13.48-24.51-32.26-18-48.83,3.3-8.4,11.1-12.65,16.36-15.41,4.69-2.47,9.53-4.13,14.35-5.15,53.14,17.33,99.55,54.3,127.67,106.13Z"/>
      <path class="cls-19" d="M1113.34,1033.41c9.45-4.95,26.41,7,33.47,20.8,6.65,12.99,7.05,32.55-1.81,37.53-9.34,5.25-27.62-6.46-34.78-21.34-6.23-12.94-5.94-32.25,3.12-36.99Z"/>
      <path class="cls-19" d="M931.72,1300.99c3.25-9.74-9.37-23.22-22.22-27.61-14.02-4.79-33.24-.41-36.11,9.5-2.88,9.94,11.19,23.66,25.37,27.39,12.3,3.23,29.76.28,32.95-9.28Z"/>
      <path class="cls-36" d="M920.24,969.25c-7.43-3.3-16.89,2.39-19.57,10.25-2.44,7.16.48,16.88,8.02,19.41,7.24,2.43,14.94-3.05,17.72-9.48,3.05-7.06.92-17.03-6.17-20.17Z"/>
      <path class="cls-36" d="M829.54,1113.81c6.73,2.35,9.14,12.48,7.09,19.79-2.01,7.15-9.13,14.62-16.2,13.18-7.34-1.5-11.38-11.96-9.32-19.95,2.15-8.35,11.32-15.5,18.43-13.02Z"/>
      <path class="cls-36" d="M811.23,1019.68c11.38-21.3,38.25-40.68,55.72-32.75,18.35,8.33,20.81,44.28,9.86,68.42-10.94,24.11-39.27,45.26-56.97,37.59-18.72-8.12-22.53-47.21-8.61-73.26Z"/>
    </g>
    <g>
      <path class="cls-17" d="M1505.73,1304.23c21.83,22.32,31.03,49.4,22.31,69.51-1.18,2.72-8.22,18.95-23.2,21.04-12.21,1.7-25.54-6.58-32.88-21-1.03.55-18.02,9.3-31.9.61-12.49-7.82-14.28-24.64-12.1-34.16,4.81-21.03,35.98-36.91,77.77-36.01Z"/>
      <circle class="cls-16" cx="1573.23" cy="1106.13" r="255"/>
      <path class="cls-32" d="M1786.92,1032.06c-3.69-3.28-7.9-6.17-12.67-8.48-5.34-2.58-13.4-6.33-22.11-3.99-17.19,4.61-22.51,29.01-28.57,43.5-20.57,49.15-84.83,67.74-99.46,71.98-51.93,15.03-126.56,6.81-171.74-46.35-11.48-13.5-43.54-56.36-33.7-112.58,3.52-20.15,11.91-38.97,24.1-55.35,70.72-50.85,167.79-57.82,247.11-9.98,47.63,28.72,80.76,72.33,97.05,121.26Z"/>
      <path class="cls-35" d="M1766.17,1218.98c-64.03,106.18-202.01,140.34-308.18,76.31-76.55-46.16-115.66-130.77-107.53-214.17,5.96,24.68,17.31,56.25,39.48,87.88,10.67,15.23,66.29,91.04,169.2,106.71,26.8,4.08,84.05,8.23,145.31-22.14,32.62-16.17,56.44-37.2,73.02-55.76-3.35,7.17-7.11,14.25-11.29,21.17Z"/>
      <path class="cls-41" d="M1777.46,1197.81c-16.58,18.57-40.4,39.59-73.02,55.76-61.26,30.36-118.51,26.22-145.31,22.14-102.91-15.67-158.53-91.49-169.2-106.71-22.17-31.63-33.51-63.21-39.48-87.88,3.14-32.28,13.36-64.38,31.23-94.01,16.2-26.86,37.13-49.11,61.08-66.33-12.19,16.38-20.58,35.2-24.1,55.35-9.84,56.22,22.22,99.08,33.7,112.58,45.18,53.16,119.8,61.38,171.74,46.35,14.63-4.23,78.89-22.83,99.46-71.98,6.06-14.48,11.37-38.88,28.57-43.5,8.72-2.33,16.77,1.41,22.11,3.99,4.77,2.31,8.98,5.21,12.67,8.48,17.65,53.03,15.5,112.34-9.46,165.75Z"/>
      <path class="cls-32" d="M1745.17,1141.5c9.59,4.65,10.07,25.4,3.17,39.28-6.5,13.07-21.99,25.02-31.26,20.85-9.77-4.39-11.22-26.05-3.51-40.65,6.71-12.7,22.4-23.94,31.6-19.48Z"/>
      <path class="cls-32" d="M1422.03,1154.49c9.77-3.17,13.11-21.34,9-34.28-4.49-14.12-19.42-26.98-29.1-23.39-9.7,3.59-12.38,23.06-6.94,36.69,4.71,11.82,17.47,24.1,27.05,20.98Z"/>
      <path class="cls-36" d="M1681.98,948.08c-1.76-7.93-11.96-12.16-19.87-9.65-7.21,2.29-13.29,10.42-10.85,17.98,2.35,7.27,11.34,10.2,18.16,8.62,7.5-1.74,14.24-9.38,12.56-16.95Z"/>
      <path class="cls-36" d="M1511.82,961.07c2.11,6.81-4.6,14.77-11.7,17.47-6.94,2.63-17.19,1.35-20.23-5.19-3.15-6.79,2.85-16.26,10.51-19.36,7.99-3.24,19.2-.11,21.42,7.08Z"/>
      <path class="cls-36" d="M1576.64,890.39c23.89-3.51,55.45,6.58,59.45,25.34,4.21,19.71-23.24,43.06-49.16,48.59-25.89,5.53-59.74-4.68-64.09-23.47-4.59-19.88,24.58-46.18,53.79-50.47Z"/>
    </g>
    <g>
      <path class="cls-7" d="M1506.08,795.57c24.29,19.61,36.59,45.43,30.27,66.43-.85,2.84-5.95,19.78-20.58,23.61-11.93,3.12-26.13-3.55-35.11-17.01-.96.67-16.81,11.34-31.61,4.34-13.32-6.31-17.06-22.8-16.01-32.51,2.32-21.44,31.42-40.86,73.03-44.85Z"/>
      <circle class="cls-9" cx="1549.98" cy="590.94" r="255"/>
      <path class="cls-43" d="M1753.55,492.42c-4.05-2.82-8.56-5.21-13.57-6.94-5.61-1.94-14.04-4.72-22.43-1.38-16.54,6.59-18.97,31.44-23.29,46.53-14.69,51.22-76.34,77.19-90.37,83.1-49.82,20.99-124.9,21.54-175.98-25.98-12.98-12.06-49.82-50.89-46.62-107.87,1.14-20.42,7.27-40.09,17.47-57.78,64.3-58.76,159.88-77.02,244.25-38.77,50.66,22.96,88.65,62.4,110.55,109.1Z"/>
      <path class="cls-20" d="M1754.78,680.49c-51.19,112.93-184.24,162.97-297.16,111.78-81.42-36.91-130.14-116.37-131.81-200.15,8.8,23.81,23.76,53.84,49.47,82.67,12.37,13.88,76.47,82.68,180.51,86.22,27.1.92,84.43-1.65,141.73-38.96,30.5-19.87,51.71-43.53,66.01-63.91-2.48,7.51-5.4,14.98-8.74,22.35Z"/>
      <path class="cls-38" d="M1763.52,658.14c-14.3,20.37-35.5,44.04-66.01,63.91-57.3,37.31-114.63,39.88-141.73,38.96-104.04-3.54-168.13-72.34-180.51-86.22-25.71-28.83-40.66-58.86-49.47-82.67-.65-32.42,5.75-65.5,20.03-97.01,12.95-28.57,31.14-53.11,52.91-73.01-10.19,17.69-16.32,37.36-17.47,57.78-3.2,56.98,33.64,95.81,46.62,107.87,51.08,47.52,126.15,46.97,175.98,25.98,14.03-5.91,75.69-31.88,90.37-83.1,4.33-15.09,6.76-39.94,23.29-46.53,8.39-3.34,16.82-.56,22.43,1.38,5.01,1.73,9.53,4.12,13.57,6.94,23.72,50.61,28.52,109.76,9.97,165.72Z"/>
      <path class="cls-43" d="M1724.87,605.99c10.07,3.5,12.97,24.05,7.74,38.64-4.92,13.74-18.92,27.41-28.61,24.36-10.22-3.22-14.19-24.56-8.23-39.97,5.18-13.4,19.45-26.4,29.11-23.04Z"/>
      <path class="cls-43" d="M1405.46,656.63c9.33-4.29,10.52-22.73,4.93-35.1-6.11-13.5-22.44-24.52-31.63-19.83-9.21,4.7-9.6,24.35-2.61,37.24,6.06,11.18,20.16,21.89,29.32,17.68Z"/>
      <path class="cls-36" d="M1639.52,421.27c-2.68-7.67-13.3-10.68-20.86-7.26-6.89,3.12-11.98,11.9-8.67,19.13,3.18,6.94,12.45,8.81,19.04,6.44,7.24-2.61,13.05-10.98,10.49-18.3Z"/>
      <path class="cls-36" d="M1472.05,454.05c2.89,6.52-2.85,15.21-9.58,18.71-6.58,3.43-16.91,3.35-20.69-2.79-3.93-6.38.94-16.48,8.17-20.45,7.56-4.15,19.05-2.35,22.1,4.53Z"/>
      <path class="cls-36" d="M1528.16,376.28c23.32-6.28,55.84.06,62.01,18.23,6.48,19.08-18.05,45.48-43.15,54-25.07,8.52-59.88,2.33-66.39-15.82-6.89-19.21,19.02-48.73,47.53-56.41Z"/>
    </g>
    <g>
      <path class="cls-11" d="M938.64,762.31c30.73-5.48,58.3,2.17,70,20.7,1.58,2.5,11.04,17.47,4.33,31.02-5.47,11.05-19.82,17.4-35.87,15.35-.12,1.16-2.46,20.13-17.45,26.71-13.49,5.92-28.4-2.07-35.04-9.23-14.67-15.82-10.25-50.51,14.03-84.55Z"/>
      <circle class="cls-12" cx="812.93" cy="594.98" r="255"/>
      <path class="cls-28" d="M872.03,376.68c-4.78,1.2-9.55,3.05-14.14,5.7-5.14,2.96-12.77,7.51-15.75,16.03-5.87,16.81,11.31,34.94,19.86,48.1,29.04,44.67,8.22,108.25,3.48,122.72-16.82,51.38-65.63,108.42-135,115.83-17.62,1.89-71.09,4.25-112.01-35.54-14.67-14.25-25.5-31.78-32.17-51.08-2.2-87.08,46.69-171.22,130.89-209.83,50.56-23.19,105.25-26.02,154.86-11.93Z"/>
      <path class="cls-24" d="M1014.83,499.07c51.69,112.7,2.24,245.96-110.46,297.65-81.25,37.27-173.2,21.96-237.54-31.72,23.75,8.96,56.23,17.37,94.86,16.86,18.59-.24,112.56-3.52,183.46-79.75,18.46-19.86,54.12-64.83,63.52-132.55,5-36.06,1.04-67.59-4.97-91.74,4.04,6.8,7.77,13.9,11.14,21.25Z"/>
      <path class="cls-37" d="M1003.69,477.83c6.01,24.15,9.97,55.68,4.97,91.74-9.4,67.73-45.06,112.7-63.52,132.55-70.9,76.23-164.87,79.5-183.46,79.75-38.62.51-71.11-7.89-94.86-16.86-24.91-20.77-45.68-47.29-60.11-78.74-13.08-28.51-19.68-58.34-20.42-87.82,6.67,19.3,17.51,36.82,32.17,51.08,40.92,39.78,94.4,37.42,112.01,35.54,69.37-7.4,118.18-64.45,135-115.83,4.74-14.47,25.56-78.05-3.48-122.72-8.56-13.16-25.73-31.29-19.86-48.1,2.98-8.52,10.61-13.06,15.75-16.03,4.6-2.65,9.36-4.49,14.14-5.7,53.76,15.28,101.57,50.44,131.65,101.14Z"/>
      <path class="cls-28" d="M938.97,472.81c9.25-5.31,26.66,5.98,34.25,19.5,7.14,12.73,8.29,32.26-.37,37.57-9.13,5.61-27.85-5.4-35.57-19.99-6.72-12.69-7.17-31.99,1.69-37.08Z"/>
      <path class="cls-28" d="M767.77,747.17c2.88-9.86-10.26-22.85-23.26-26.74-14.2-4.24-33.23.86-35.72,10.88-2.49,10.04,12.09,23.21,26.41,26.39,12.42,2.76,29.75-.87,32.57-10.54Z"/>
      <path class="cls-36" d="M743.55,416.12c-7.55-3.01-16.78,3.04-19.16,10.99-2.17,7.25,1.13,16.85,8.76,19.09,7.33,2.15,14.81-3.63,17.35-10.16,2.78-7.18.27-17.05-6.94-19.92Z"/>
      <path class="cls-36" d="M658.48,564.06c6.81,2.09,9.62,12.12,7.85,19.5-1.73,7.22-8.56,14.96-15.68,13.79-7.39-1.22-11.83-11.51-10.08-19.58,1.82-8.42,10.71-15.93,17.91-13.72Z"/>
      <path class="cls-36" d="M636.56,470.7c10.55-21.72,36.65-42.12,54.42-34.86,18.66,7.62,22.5,43.45,12.48,67.99-10.01,24.51-37.51,46.74-55.48,39.75-19.02-7.4-24.33-46.31-11.42-72.87Z"/>
    </g>
    <g>
      <path class="cls-5" d="M1180.43,685.28c29.85,9.15,50.88,28.54,52.84,50.37.26,2.95,1.85,20.58-10.31,29.58-9.91,7.34-25.58,6.44-38.92-2.71-.64.97-11.38,16.79-27.72,15.8-14.71-.89-24.32-14.81-26.96-24.21-5.83-20.77,13.94-49.62,51.07-68.82Z"/>
      <circle class="cls-6" cx="1144.95" cy="479.02" r="255"/>
      <path class="cls-42" d="M1297.17,311.76c-4.81-1.11-9.89-1.65-15.18-1.39-5.93.29-14.79.85-21.33,7.07-12.89,12.28-5.89,36.25-4.28,51.86,5.45,53-42.09,100.07-52.91,110.78-38.42,38.04-107.88,66.52-172.99,41.45-16.54-6.36-65.19-28.67-83.45-82.74-6.55-19.38-8.19-39.92-5.32-60.13,37.78-78.49,119.69-131.03,212.23-126.97,55.57,2.44,105.52,24.89,143.23,60.07Z"/>
      <path class="cls-25" d="M1368.37,485.84c-5.44,123.87-110.27,219.87-234.14,214.43-89.3-3.92-164.13-59.51-196.88-136.65,17.04,18.82,42.11,41.12,76.7,58.29,16.65,8.27,101.76,48.24,199.63,12.78,25.49-9.24,77.74-32.98,117.02-88.95,20.91-29.8,31.77-59.66,37.45-83.9.49,7.9.57,15.91.22,23.99Z"/>
      <path class="cls-29" d="M1368.15,461.84c-5.68,24.23-16.54,54.1-37.45,83.9-39.28,55.97-91.53,79.71-117.02,88.95-97.87,35.47-182.98-4.51-199.63-12.78-34.6-17.18-59.66-39.48-76.7-58.29-12.68-29.85-19.07-62.93-17.55-97.49,1.38-31.34,9.11-60.89,21.91-87.46-2.87,20.21-1.23,40.76,5.32,60.13,18.25,54.07,66.91,76.38,83.45,82.74,65.1,25.07,134.57-3.41,172.99-41.45,10.82-10.72,58.36-57.78,52.91-110.78-1.61-15.62-8.61-39.59,4.28-51.86,6.54-6.22,15.4-6.78,21.33-7.07,5.3-.26,10.38.28,15.18,1.39,40.87,38.13,67.35,91.24,70.98,150.08Z"/>
      <path class="cls-42" d="M1312.86,427.84c10.65-.5,20.99,17.48,21.57,32.98.55,14.58-7.34,32.49-17.48,33.26-10.68.82-22.32-17.51-22.53-34.02-.18-14.36,8.22-31.74,18.43-32.22Z"/>
      <path class="cls-42" d="M1035.31,593.82c7.06-7.46,1.3-25.01-8.5-34.41-10.7-10.26-29.96-14.4-36.74-6.62-6.8,7.8.16,26.17,11.45,35.54,9.79,8.12,26.87,12.81,33.79,5.49Z"/>
      <path class="cls-36" d="M1164.85,288.21c-5.34-6.12-16.32-4.96-22.07,1.03-5.24,5.46-6.68,15.51-.92,20.98,5.54,5.26,14.84,3.54,20.07-1.12,5.75-5.12,8.02-15.05,2.92-20.89Z"/>
      <path class="cls-36" d="M1021.64,381.01c5.11,4.97,3.02,15.17-1.92,20.94-4.83,5.63-14.45,9.41-20.24,5.12-6.02-4.45-5.27-15.64-.03-22.02,5.47-6.66,16.8-9.28,22.2-4.03Z"/>
      <path class="cls-36" d="M1044.75,287.94c19.3-14.51,51.84-20.75,64.33-6.18,13.12,15.3.19,48.93-19.93,66.19-20.09,17.24-54.7,24.47-67.51,10.05-13.54-15.26-.51-52.31,23.1-70.05Z"/>
    </g>
    <g>
      <path class="cls-2" d="M766.56,1042.18c29.92-8.91,58.17-4.43,71.89,12.66,1.85,2.31,12.94,16.11,7.8,30.33-4.19,11.6-17.73,19.53-33.9,19.3,0,1.17-.17,20.28-14.32,28.51-12.74,7.41-28.45,1.15-35.86-5.21-16.36-14.06-15.89-49.03,4.39-85.59Z"/>
      <circle class="cls-1" cx="622.76" cy="890.13" r="255"/>
      <path class="cls-19" d="M656.81,666.56c-4.62,1.74-9.14,4.11-13.41,7.26-4.77,3.53-11.84,8.9-13.84,17.7-3.93,17.36,15.18,33.44,25.17,45.55,33.9,41.1,20.4,106.63,17.33,121.54-10.91,52.95-52.96,115.15-121.05,130.34-17.29,3.87-70.16,12.25-115.31-22.65-16.18-12.5-28.93-28.7-37.74-47.11-12.03-86.27,27.04-175.39,106.34-223.28,47.61-28.75,101.63-37.74,152.52-29.35Z"/>
      <path class="cls-33" d="M812.52,772.03c64.1,106.14,30.02,244.13-76.12,308.23-76.52,46.21-169.61,41.39-239.61-4.68,24.61,6.22,57.83,10.9,96.15,6.03,18.44-2.34,111.44-16.22,173.27-99.97,16.1-21.81,46.45-70.53,48.14-138.88.9-36.39-6.61-67.27-15.3-90.59,4.79,6.3,9.29,12.93,13.47,19.85Z"/>
      <path class="cls-47" d="M799.05,752.17c8.7,23.32,16.2,54.2,15.3,90.59-1.69,68.35-32.04,117.07-48.14,138.88-61.83,83.75-154.83,97.62-173.27,99.97-38.32,4.87-71.54.19-96.15-6.03-27.09-17.82-50.74-41.82-68.62-71.44-16.22-26.85-26.15-55.74-30.22-84.95,8.81,18.42,21.56,34.61,37.74,47.11,45.15,34.9,98.02,26.52,115.31,22.65,68.09-15.2,110.14-77.39,121.05-130.34,3.07-14.92,16.57-80.44-17.33-121.54-9.99-12.11-29.1-28.18-25.17-45.55,2-8.8,9.07-14.18,13.84-17.7,4.27-3.15,8.79-5.52,13.41-7.26,55.15,9.1,106.62,38.64,142.24,85.62Z"/>
      <path class="cls-19" d="M734.19,754.5c8.59-6.32,27.16,2.93,36.23,15.5,8.54,11.84,11.88,31.11,3.88,37.38-8.44,6.6-28.28-2.21-37.6-15.84-8.11-11.85-10.74-30.98-2.51-37.04Z"/>
      <path class="cls-19" d="M595.08,1046.45c1.74-10.12-12.77-21.54-26.14-23.94-14.59-2.61-32.92,4.61-34.26,14.85-1.34,10.26,14.63,21.7,29.22,23.24,12.65,1.34,29.46-4.22,31.17-14.15Z"/>
      <path class="cls-36" d="M533.6,720.26c-7.84-2.14-16.33,4.92-17.8,13.08-1.33,7.45,3.03,16.61,10.86,17.98,7.52,1.31,14.31-5.28,16.09-12.05,1.95-7.44-1.66-16.97-9.14-19.01Z"/>
      <path class="cls-36" d="M465.8,876.86c7.01,1.31,10.92,10.96,10,18.49-.9,7.37-6.82,15.84-14.02,15.48-7.48-.37-13.05-10.1-12.23-18.32.86-8.58,8.85-17.04,16.25-15.65Z"/>
      <path class="cls-36" d="M433.47,786.57c8.03-22.77,31.66-45.99,50.13-40.79,19.4,5.46,27.26,40.63,20.08,66.14-7.17,25.49-31.99,50.68-50.63,45.76-19.73-5.2-29.4-43.27-19.58-71.12Z"/>
    </g>
    <g>
      <path class="cls-17" d="M1062.36,929.16c31.22-.46,57.19,11.53,65.76,31.7,1.16,2.73,8.08,19.02-.72,31.31-7.18,10.03-22.36,13.98-37.87,9.38-.31,1.12-5.67,19.47-21.53,23.55-14.27,3.67-27.7-6.62-33.1-14.75-11.93-17.97-1.98-51.5,27.46-81.19Z"/>
      <circle class="cls-16" cx="965.23" cy="743.78" r="255"/>
      <path class="cls-32" d="M1058.71,537.85c-4.92.42-9.91,1.47-14.88,3.34-5.55,2.1-13.82,5.35-18.13,13.28-8.5,15.64,5.53,36.3,11.86,50.67,21.47,48.76-9.32,108.16-16.32,121.68-24.87,48-82.23,96.44-151.89,92.58-17.69-.97-70.85-7.26-104.83-53.11-12.18-16.43-20.05-35.47-23.53-55.59,11.84-86.3,73.65-161.46,162.96-186.02,53.63-14.75,108.06-8.73,154.76,13.16Z"/>
      <path class="cls-35" d="M1179.94,681.63c32.87,119.55-37.39,243.11-156.95,275.99-86.19,23.7-174.47-6.22-229.34-69.56,22,12.67,52.7,26.2,90.9,31.91,18.39,2.75,111.66,14.65,193.9-49.17,21.42-16.62,63.85-55.27,84.03-120.59,10.74-34.78,11.91-66.54,9.87-91.34,2.9,7.37,5.43,14.97,7.58,22.77Z"/>
      <path class="cls-41" d="M1172.36,658.87c2.04,24.81.88,56.56-9.87,91.34-20.18,65.33-62.62,103.97-84.03,120.59-82.24,63.82-175.52,51.92-193.9,49.17-38.2-5.72-68.91-19.24-90.9-31.91-21.24-24.51-37.48-54.03-46.65-87.39-8.32-30.25-10.03-60.74-6.02-89.96,3.48,20.12,11.35,39.16,23.53,55.59,33.98,45.85,87.14,52.13,104.83,53.11,69.66,3.86,127.02-44.58,151.89-92.58,7.01-13.52,37.79-72.92,16.32-121.68-6.33-14.37-20.35-35.03-11.86-50.67,4.31-7.93,12.57-11.18,18.13-13.28,4.96-1.87,9.96-2.93,14.88-3.34,50.6,23.73,92.12,66.13,113.65,121.02Z"/>
      <path class="cls-32" d="M1109.3,643.49c9.98-3.75,25.35,10.19,30.66,24.76,5,13.71,2.99,33.17-6.41,37.03-9.91,4.06-26.62-9.81-31.89-25.46-4.59-13.61-1.93-32.73,7.64-36.33Z"/>
      <path class="cls-32" d="M896.15,886.71c4.43-9.27-6.45-24.2-18.66-30.13-13.33-6.47-32.94-4.5-37,4.99-4.08,9.51,8.19,24.86,21.81,30.3,11.81,4.72,29.5,3.93,33.84-5.16Z"/>
      <path class="cls-36" d="M925.55,556.08c-6.96-4.19-17.05.3-20.68,7.76-3.31,6.8-1.6,16.81,5.57,20.25,6.88,3.3,15.2-1.19,18.75-7.23,3.9-6.63,3.01-16.78-3.64-20.78Z"/>
      <path class="cls-36" d="M817.77,688.39c6.39,3.16,7.54,13.51,4.6,20.51-2.87,6.84-10.86,13.39-17.69,11.09-7.1-2.39-9.82-13.27-6.8-20.95,3.16-8.02,13.14-13.99,19.89-10.65Z"/>
      <path class="cls-36" d="M811.17,592.72c13.91-19.74,42.96-35.67,59.32-25.65,17.19,10.53,15.21,46.5,1.37,69.11-13.82,22.58-44.54,40.09-61.16,30.3-17.58-10.36-16.55-49.62.46-73.76Z"/>
    </g>
    <g>
      <path class="cls-2" d="M1694.29,963.16c23.55,20.5,34.89,46.75,27.81,67.5-.96,2.8-6.68,19.55-21.44,22.83-12.04,2.68-25.99-4.51-34.46-18.3-.98.63-17.22,10.72-31.75,3.17-13.08-6.79-16.21-23.42-14.8-33.08,3.11-21.34,32.9-39.67,74.64-42.13Z"/>
      <circle class="cls-1" cx="1745.7" cy="760.29" r="255"/>
      <path class="cls-19" d="M1952.77,669.33c-3.94-2.97-8.36-5.52-13.31-7.44-5.53-2.14-13.86-5.23-22.36-2.21-16.77,5.98-20.11,30.72-24.99,45.64-16.56,50.64-79.13,74.32-93.37,79.71-50.56,19.14-125.61,16.93-174.9-32.44-12.52-12.53-47.91-52.69-42.61-109.52,1.89-20.36,8.75-39.8,19.58-57.1,66.42-56.36,162.61-71.07,245.51-29.74,49.78,24.82,86.29,65.63,106.45,113.1Z"/>
      <path class="cls-33" d="M1947.06,857.32c-55.32,110.96-190.12,156.07-301.08,100.75-80-39.88-125.77-121.08-124.35-204.87,7.92,24.12,21.76,54.68,46.39,84.44,11.85,14.32,73.37,85.44,177.21,92.81,27.05,1.92,84.44,1.47,143.07-33.71,31.22-18.73,53.28-41.6,68.32-61.43-2.76,7.42-5.94,14.77-9.55,22.01Z"/>
      <path class="cls-47" d="M1956.62,835.31c-15.04,19.83-37.1,42.7-68.32,61.43-58.63,35.17-116.02,35.63-143.07,33.71-103.84-7.37-165.35-78.49-177.21-92.81-24.63-29.76-38.47-60.32-46.39-84.44.54-32.42,8.16-65.24,23.59-96.21,14-28.07,33.07-51.93,55.57-71.01-10.84,17.3-17.69,36.74-19.58,57.1-5.3,56.82,30.09,96.98,42.61,109.52,49.29,49.37,124.34,51.58,174.9,32.44,14.24-5.39,76.81-29.07,93.37-79.71,4.88-14.92,8.22-39.67,24.99-45.64,8.5-3.02,16.83.07,22.36,2.21,4.94,1.92,9.37,4.47,13.31,7.44,21.84,51.45,24.45,110.73,3.85,165.97Z"/>
      <path class="cls-19" d="M1919.92,781.77c9.94,3.87,12.07,24.51,6.31,38.9-5.43,13.55-19.91,26.7-29.49,23.29-10.09-3.59-13.27-25.07-6.76-40.24,5.67-13.2,20.41-25.66,29.94-21.95Z"/>
      <path class="cls-19" d="M1598.87,820.61c9.48-3.95,11.35-22.32,6.22-34.89-5.6-13.72-21.52-25.33-30.88-20.98-9.38,4.36-10.49,23.98-3.98,37.12,5.65,11.4,19.34,22.62,28.64,18.75Z"/>
      <path class="cls-36" d="M1841.44,594.03c-2.39-7.77-12.9-11.16-20.58-8.03-7,2.86-12.41,11.45-9.37,18.79,2.92,7.05,12.12,9.26,18.79,7.13,7.33-2.34,13.44-10.49,11.16-17.9Z"/>
      <path class="cls-36" d="M1672.87,620.62c2.65,6.62-3.41,15.09-10.26,18.35-6.71,3.18-17.02,2.72-20.58-3.55-3.69-6.52,1.54-16.43,8.92-20.14,7.7-3.87,19.12-1.65,21.92,5.34Z"/>
      <path class="cls-36" d="M1731.81,544.97c23.53-5.41,55.8,2.11,61.29,20.5,5.77,19.31-19.71,44.78-45.11,52.38-25.37,7.59-59.93.12-65.76-18.26-6.17-19.45,20.8-48,49.58-54.62Z"/>
    </g>
    <g>
      <path class="cls-15" d="M1767.88,1208.68c20.16,23.84,27.37,51.51,17.22,70.94-1.37,2.62-9.57,18.31-24.66,19.31-12.3.81-25-8.41-31.27-23.32-1.06.47-18.65,7.97-31.86-1.7-11.89-8.7-12.46-25.61-9.59-34.94,6.32-20.62,38.55-34.21,80.17-30.28Z"/>
      <circle class="cls-14" cx="1849.55" cy="1015.99" r="255"/>
      <path class="cls-39" d="M2068.04,957.58c-3.44-3.53-7.43-6.73-12.02-9.38-5.14-2.96-12.9-7.28-21.77-5.59-17.48,3.36-24.55,27.31-31.64,41.31-24.07,47.53-89.51,61.42-104.41,64.59-52.88,11.23-126.72-2.37-167.93-58.66-10.47-14.29-39.34-59.37-25.46-114.72,4.97-19.84,14.7-38.01,28.04-53.46,74.22-45.6,171.53-45.52,247.18,7.94,45.42,32.1,75.31,77.99,88.01,127.97Z"/>
      <path class="cls-48" d="M2033.81,1142.52c-71.55,101.26-211.64,125.34-312.9,53.79-73-51.59-105.89-138.8-91.74-221.4,4.16,25.04,13.19,57.36,33.01,90.51,9.54,15.96,59.52,95.6,161.03,118.68,26.44,6.01,83.23,14.29,146.53-11.56,33.7-13.76,58.98-33.01,76.86-50.33-3.86,6.91-8.12,13.69-12.79,20.3Z"/>
      <path class="cls-40" d="M2046.6,1122.21c-17.88,17.32-43.16,36.56-76.86,50.33-63.3,25.85-120.09,17.57-146.53,11.56-101.51-23.08-151.49-102.72-161.03-118.68-19.82-33.16-28.85-65.47-33.01-90.51,5.47-31.96,17.98-63.25,37.95-91.5,18.1-25.62,40.59-46.29,65.72-61.73-13.34,15.45-23.07,33.62-28.04,53.46-13.88,55.36,14.99,100.43,25.46,114.72,41.21,56.29,115.05,69.89,167.93,58.66,14.9-3.16,80.34-17.05,104.41-64.59,7.09-14,14.16-37.96,31.64-41.31,8.86-1.7,16.62,2.62,21.77,5.59,4.6,2.65,8.58,5.84,12.02,9.38,13.76,54.17,7.33,113.16-21.43,164.63Z"/>
      <path class="cls-39" d="M2018.47,1063.72c9.23,5.34,8.21,26.06.32,39.41-7.43,12.56-23.74,23.36-32.69,18.53-9.43-5.09-9.31-26.8-.56-40.8,7.61-12.18,24.08-22.26,32.93-17.14Z"/>
      <path class="cls-39" d="M1695.25,1053.28c9.97-2.46,14.62-20.34,11.45-33.54-3.45-14.41-17.42-28.31-27.33-25.44-9.94,2.88-14.02,22.1-9.58,36.09,3.85,12.13,15.68,25.3,25.46,22.89Z"/>
      <path class="cls-36" d="M1969.46,866.23c-1.18-8.04-11.05-12.99-19.12-11.06-7.36,1.76-14.01,9.43-12.12,17.15,1.82,7.42,10.57,11,17.49,9.91,7.6-1.19,14.88-8.32,13.75-16Z"/>
      <path class="cls-36" d="M1798.81,866.87c1.61,6.94-5.66,14.4-12.94,16.57-7.11,2.13-17.24.1-19.8-6.64-2.65-7,4.02-16.01,11.88-18.54,8.2-2.65,19.15,1.28,20.85,8.61Z"/>
      <path class="cls-36" d="M1868.57,801.06c24.08-1.77,54.83,10.57,57.46,29.58,2.77,19.96-26.3,41.26-52.55,44.91-26.23,3.64-59.25-8.99-62.22-28.05-3.14-20.16,27.86-44.28,57.31-46.44Z"/>
    </g>
    <g>
      <path class="cls-11" d="M1337.97,853.74c27.02,15.64,43.15,39.25,40.15,60.97-.41,2.93-2.83,20.47-16.7,26.5-11.31,4.92-26.37.52-37.31-11.4-.84.8-14.86,13.8-30.56,9.15-14.13-4.18-20.37-19.9-20.82-29.65-1.01-21.55,24.75-45.21,65.25-55.57Z"/>
      <circle class="cls-12" cx="1349.82" cy="644.79" r="255"/>
      <path class="cls-28" d="M1535.78,516.08c-4.43-2.17-9.26-3.83-14.48-4.77-5.84-1.05-14.6-2.5-22.37,2.09-15.32,9.06-13.89,33.99-15.84,49.57-6.62,52.87-63.53,88.03-76.49,96.03-45.99,28.42-120.09,40.53-177.88,1.45-14.68-9.92-57.07-42.61-62.69-99.4-2.02-20.35,1.01-40.74,8.35-59.78,54.48-67.97,146.11-100.74,235.36-75.95,53.59,14.88,97.21,47.99,126.04,90.76Z"/>
      <path class="cls-24" d="M1565.97,701.71c-33.18,119.47-156.92,189.41-276.39,156.23-86.13-23.92-146.52-94.92-161.08-177.45,12.37,22.17,31.77,49.54,61.62,74.06,14.36,11.8,88.29,69.91,191.64,57.38,26.92-3.27,83.17-14.64,134.03-60.33,27.08-24.33,44.38-50.98,55.37-73.32-1.3,7.81-3.02,15.63-5.19,23.43Z"/>
      <path class="cls-37" d="M1571.16,678.29c-10.99,22.33-28.29,48.99-55.37,73.32-50.86,45.7-107.12,57.07-134.03,60.33-103.34,12.53-177.27-45.57-191.64-57.38-29.85-24.52-49.25-51.89-61.62-74.06-5.64-31.93-4.42-65.6,4.84-98.94,8.39-30.23,22.58-57.28,41.03-80.29-7.35,19.05-10.37,39.43-8.35,59.78,5.62,56.79,48.01,89.48,62.69,99.4,57.79,39.08,131.88,26.97,177.88-1.45,12.95-8.01,69.87-43.17,76.49-96.03,1.95-15.58.52-40.51,15.84-49.57,7.77-4.59,16.53-3.14,22.37-2.09,5.22.94,10.05,2.6,14.48,4.77,31.24,46.35,45.09,104.05,35.38,162.21Z"/>
      <path class="cls-28" d="M1524.94,632.72c10.49,1.91,16.52,21.76,13.6,36.99-2.75,14.33-14.47,30-24.52,28.48-10.59-1.6-17.8-22.09-14.29-38.22,3.05-14.03,15.15-29.08,25.21-27.25Z"/>
      <path class="cls-28" d="M1217.15,731.97c8.56-5.68,6.9-24.08-.54-35.44-8.11-12.4-25.95-20.77-34.31-14.72-8.38,6.07-5.74,25.54,3.16,37.2,7.71,10.12,23.3,18.52,31.69,12.95Z"/>
      <path class="cls-36" d="M1412.15,463.36c-3.83-7.17-14.79-8.5-21.73-3.96-6.33,4.14-10,13.61-5.62,20.23,4.21,6.37,13.66,6.78,19.81,3.43,6.75-3.69,11.2-12.85,7.55-19.7Z"/>
      <path class="cls-36" d="M1251.72,521.55c3.86,5.99-.47,15.47-6.58,19.97-5.98,4.4-16.19,5.91-20.88.43-4.86-5.69-1.61-16.43,4.92-21.47,6.83-5.26,18.46-5.26,22.54,1.07Z"/>
      <path class="cls-36" d="M1295.19,436.06c22.07-9.79,55.18-8.55,64.07,8.46,9.34,17.86-10.83,47.71-34.31,60.01-23.46,12.28-58.81,11.53-68.04-5.4-9.76-17.92,11.28-51.08,38.27-63.06Z"/>
    </g>
    <g>
      <path class="cls-15" d="M905.47,1239.22c30.78-5.23,58.28,2.63,69.84,21.25,1.56,2.52,10.9,17.55,4.08,31.05-5.56,11.01-19.96,17.25-35.99,15.07-.13,1.16-2.62,20.11-17.66,26.57-13.54,5.81-28.39-2.3-34.97-9.51-14.54-15.93-9.85-50.59,14.7-84.43Z"/>
      <circle class="cls-14" cx="781.09" cy="1070.91" r="255"/>
      <path class="cls-39" d="M841.91,853.09c-4.79,1.17-9.57,2.97-14.19,5.58-5.17,2.92-12.83,7.41-15.88,15.9-6,16.76,11.03,35.03,19.48,48.25,28.68,44.9,7.36,108.31,2.51,122.75-17.23,51.25-66.49,107.9-135.91,114.76-17.63,1.75-71.12,3.68-111.73-36.42-14.55-14.37-25.25-31.98-31.77-51.33-1.52-87.09,48.04-170.84,132.54-208.79,50.74-22.79,105.45-25.19,154.95-10.71Z"/>
      <path class="cls-48" d="M983.74,976.6c50.8,113.11.3,245.97-112.81,296.77-81.54,36.63-173.36,20.59-237.29-33.6,23.68,9.15,56.09,17.81,94.72,17.61,18.59-.1,112.59-2.63,184.08-78.3,18.62-19.71,54.63-64.4,64.57-132.05,5.29-36.02,1.57-67.58-4.25-91.78,3.99,6.84,7.66,13.96,10.98,21.34Z"/>
      <path class="cls-40" d="M972.76,955.26c5.82,24.2,9.53,55.76,4.25,91.78-9.93,67.65-45.95,112.34-64.57,132.05-71.49,75.67-165.49,78.2-184.08,78.3-38.63.2-71.04-8.45-94.72-17.61-24.74-20.96-45.31-47.65-59.49-79.21-12.85-28.62-19.22-58.49-19.73-87.98,6.52,19.35,17.22,36.96,31.77,51.33,40.61,40.1,94.1,38.17,111.73,36.42,69.43-6.86,118.69-63.51,135.91-114.76,4.85-14.44,26.17-77.85-2.51-122.75-8.45-13.23-25.48-31.49-19.48-48.25,3.05-8.49,10.71-12.98,15.88-15.9,4.62-2.61,9.39-4.42,14.19-5.58,53.64,15.7,101.17,51.24,130.85,102.18Z"/>
      <path class="cls-39" d="M908.09,949.74c9.29-5.23,26.61,6.19,34.09,19.77,7.04,12.78,8.04,32.32-.66,37.57-9.17,5.53-27.81-5.62-35.41-20.27-6.62-12.75-6.92-32.05,1.99-37.07Z"/>
      <path class="cls-39" d="M734.72,1222.73c2.96-9.84-10.08-22.93-23.05-26.92-14.16-4.36-33.24.6-35.8,10.6-2.57,10.02,11.9,23.31,26.2,26.6,12.4,2.85,29.76-.63,32.65-10.28Z"/>
      <path class="cls-36" d="M713.12,891.51c-7.52-3.07-16.81,2.91-19.25,10.84-2.22,7.23,1,16.86,8.6,19.16,7.31,2.21,14.84-3.51,17.42-10.02,2.84-7.15.4-17.05-6.78-19.98Z"/>
      <path class="cls-36" d="M626.88,1038.77c6.8,2.15,9.52,12.2,7.69,19.57-1.79,7.2-8.68,14.9-15.79,13.67-7.38-1.27-11.74-11.61-9.93-19.66,1.89-8.41,10.84-15.84,18.02-13.57Z"/>
      <path class="cls-36" d="M605.7,945.24c10.72-21.63,36.99-41.83,54.69-34.43,18.6,7.77,22.15,43.62,11.94,68.08-10.2,24.43-37.87,46.44-55.79,39.31-18.96-7.55-23.96-46.5-10.85-72.96Z"/>
    </g>
    <g>
      <path class="cls-5" d="M1513.61,1087.77c23.36,20.71,34.46,47.07,27.19,67.75-.98,2.79-6.86,19.49-21.65,22.64-12.06,2.56-25.94-4.75-34.29-18.61-.99.62-17.32,10.56-31.78,2.88-13.01-6.91-15.99-23.56-14.49-33.21,3.31-21.31,33.27-39.37,75.02-41.44Z"/>
      <circle class="cls-6" cx="1566.88" cy="885.37" r="255"/>
      <path class="cls-42" d="M1774.77,796.33c-3.91-3.01-8.31-5.6-13.24-7.56-5.51-2.2-13.81-5.36-22.34-2.41-16.82,5.82-20.39,30.54-25.41,45.41-17.03,50.49-79.81,73.59-94.1,78.85-50.74,18.68-125.76,15.77-174.59-34.04-12.41-12.65-47.43-53.13-41.61-109.9,2.08-20.35,9.11-39.72,20.11-56.92,66.94-55.74,163.26-69.58,245.78-27.49,49.55,25.27,85.69,66.41,105.41,114.07Z"/>
      <path class="cls-25" d="M1767.34,984.25c-56.34,110.45-191.54,154.32-301.99,97.99-79.63-40.61-124.65-122.23-122.46-206,7.7,24.19,21.26,54.88,45.61,84.86,11.72,14.43,72.58,86.11,176.35,94.43,27.03,2.17,84.42,2.24,143.37-32.4,31.39-18.44,53.66-41.11,68.88-60.8-2.83,7.39-6.08,14.71-9.75,21.92Z"/>
      <path class="cls-29" d="M1777.1,962.33c-15.22,19.69-37.49,42.36-68.88,60.8-58.95,34.64-116.35,34.56-143.37,32.4-103.77-8.33-164.62-80-176.35-94.43-24.36-29.98-37.91-60.67-45.61-84.86.84-32.42,8.75-65.17,24.48-95.99,14.25-27.95,33.55-51.62,56.22-70.49-11,17.2-18.03,36.57-20.11,56.92-5.82,56.77,29.2,97.26,41.61,109.9,48.84,49.82,123.86,52.72,174.59,34.04,14.29-5.26,77.07-28.37,94.1-78.85,5.02-14.88,8.59-39.59,25.41-45.41,8.53-2.95,16.83.22,22.34,2.41,4.93,1.96,9.33,4.56,13.24,7.56,21.37,51.65,23.44,110.95,2.33,166Z"/>
      <path class="cls-42" d="M1740.89,908.46c9.9,3.96,11.85,24.62,5.95,38.96-5.55,13.5-20.16,26.51-29.7,23.02-10.06-3.68-13.04-25.19-6.39-40.3,5.79-13.14,20.64-25.47,30.14-21.67Z"/>
      <path class="cls-42" d="M1419.5,944.35c9.52-3.86,11.56-22.22,6.54-34.83-5.48-13.77-21.29-25.53-30.69-21.27-9.42,4.27-10.71,23.88-4.32,37.09,5.54,11.45,19.14,22.8,28.47,19.01Z"/>
      <path class="cls-36" d="M1664.14,720.01c-2.32-7.79-12.79-11.28-20.51-8.21-7.03,2.8-12.51,11.34-9.54,18.71,2.86,7.08,12.03,9.37,18.73,7.31,7.35-2.27,13.54-10.36,11.32-17.8Z"/>
      <path class="cls-36" d="M1495.33,745.04c2.59,6.64-3.54,15.06-10.43,18.25-6.73,3.12-17.05,2.57-20.54-3.74-3.63-6.55,1.69-16.42,9.1-20.05,7.74-3.8,19.14-1.47,21.87,5.54Z"/>
      <path class="cls-36" d="M1554.97,669.94c23.58-5.2,55.77,2.62,61.1,21.06,5.6,19.36-20.12,44.6-45.59,51.96-25.43,7.36-59.93-.43-65.59-18.86-5.99-19.5,21.24-47.81,50.08-54.16Z"/>
    </g>
    <g>
      <path class="cls-7" d="M1159.5,1154.5c30.22,7.84,52.08,26.27,55,48,.39,2.94,2.75,20.48-9,30-9.58,7.76-25.27,7.56-39-1-.6,1-10.63,17.27-27,17-14.73-.25-24.95-13.73-28-23-6.74-20.49,11.75-50.19,48-71Z"/>
      <circle class="cls-9" cx="1115" cy="950" r="255"/>
      <path class="cls-43" d="M1259.73,776.22c-4.85-.9-9.95-1.21-15.23-.72-5.91.55-14.74,1.5-21,8-12.34,12.83-4.29,36.47-2,52,7.77,52.71-37.66,101.82-48,113-36.71,39.69-104.86,71.19-171,49-16.8-5.63-66.39-25.78-87-79-7.39-19.07-9.93-39.52-7.95-59.84,34.3-80.07,113.82-136.16,206.45-136.16,55.62,0,106.51,20.23,145.73,53.72Z"/>
      <path class="cls-20" d="M1338.5,947c0,123.99-100.51,224.5-224.5,224.5-89.39,0-166.58-52.25-202.69-127.87,17.85,18.05,43.87,39.23,79.19,54.87,17,7.53,103.78,43.73,200,4,25.06-10.35,76.22-36.36,113-94,19.58-30.69,29.12-61,33.73-85.46.84,7.87,1.27,15.87,1.27,23.96Z"/>
      <path class="cls-38" d="M1337.23,923.04c-4.61,24.46-14.15,54.77-33.73,85.46-36.78,57.64-87.94,83.65-113,94-96.22,39.73-183,3.53-200-4-35.32-15.64-61.34-36.82-79.19-54.87-13.98-29.26-21.81-62.03-21.81-96.63,0-31.37,6.43-61.23,18.05-88.34-1.98,20.32.56,40.77,7.95,59.84,20.61,53.22,70.2,73.37,87,79,66.14,22.19,134.29-9.31,171-49,10.34-11.18,55.77-60.29,48-113-2.29-15.53-10.34-39.17,2-52,6.26-6.5,15.09-7.45,21-8,5.28-.49,10.38-.18,15.23.72,42.5,36.3,71.29,88.19,77.5,146.82Z"/>
      <path class="cls-43" d="M1280.5,891.5c10.62-.97,21.74,16.55,23,32,1.19,14.55-5.91,32.78-16,34-10.64,1.29-23.06-16.52-24-33-.81-14.34,6.82-32.07,17-33Z"/>
      <path class="cls-43" d="M1010.5,1069.5c6.73-7.76.2-25.04-10-34-11.14-9.78-30.56-13.07-37-5-6.45,8.09,1.31,26.14,13,35,10.14,7.68,27.4,11.61,34,4Z"/>
      <path class="cls-36" d="M1126.5,758.5c-5.61-5.88-16.52-4.24-22,2-4.99,5.68-6,15.79,0,21,5.76,5.01,14.98,2.88,20-2,5.52-5.36,7.35-15.38,2-21Z"/>
      <path class="cls-36" d="M987.5,857.5c5.32,4.74,3.69,15.03-1,21-4.58,5.84-14.02,10.03-20,6-6.21-4.19-5.95-15.39-1-22,5.17-6.9,16.38-10.01,22-5Z"/>
      <path class="cls-36" d="M1006.5,763.5c18.65-15.34,50.88-23,64-9,13.78,14.71,2.34,48.87-17,67-19.32,18.11-53.58,26.85-67,13-14.2-14.65-2.8-52.24,20-71Z"/>
    </g>
    <line class="cls-13" x1="943.4" y1="1306.6" x2="1323.5" y2="1722.5"/>
    <line class="cls-13" x1="1166.5" y1="1231.5" x2="1295.5" y2="1722.5"/>
    <line class="cls-13" x1="1729.16" y1="1275.6" x2="1329.5" y2="1708.5"/>
    <line class="cls-5" x1="1484.86" y1="1159.54" x2="1299.5" y2="1742.5"/>
  </g>
  <g id="cat">
    <g>
      <path class="cls-34" d="M1218.34,1927.14c-1.4,27.06-6.63,48.21-11.34,62.86-5.85,18.18-12.85,32.38-25,57-4.44,8.99-8.18,16.58-11.62,23.25-4.9-.62-10.1-1.9-15.38-4.25-12.9-5.74-13.64-12.24-26-19-8.91-4.88-17.28-6.29-40-7-2.98-.09-6.12-.17-9.42-.23,28.19-32.04,42.89-62.93,50.42-78.77,8.85-18.62,20.02-47.1,26-85,20.78,17.05,41.56,34.09,62.34,51.14Z"/>
      <path class="cls-46" d="M1284,1981c-20.04,26.36-37.14,47.04-49,61-8.77,10.32-14.06,16.26-18.85,21.6-6.46,2.71-14.65,5.3-25.15,6.4-5.48.58-12.66,1.27-20.62.25,3.44-6.67,7.18-14.26,11.62-23.25,12.15-24.62,19.15-38.82,25-57,4.71-14.65,9.94-35.8,11.34-62.86,21.89,17.95,43.77,35.91,65.66,53.86Z"/>
      <path class="cls-23" d="M1216.15,2063.6c-5.96,6.64-11.12,12.35-21.15,24.4-29.78,35.77-29.66,39.9-45,54-19,17.46-34.5,31.7-58,34-19.43,1.9-49.04-3.91-61-26-.89-1.63-1.64-3.29-2.27-4.96,5.46,3.74,11.86,6.94,19.27,8.96,17.6,4.78,32.41.56,41-2,28.47-8.5,45.23-28.84,59-46,8.73-10.88,14.82-21.09,22.38-35.75,7.96,1.02,15.14.33,20.62-.25,10.5-1.1,18.69-3.69,25.15-6.4Z"/>
      <path class="cls-36" d="M1170.38,2070.25c-7.56,14.66-13.65,24.87-22.38,35.75-13.77,17.16-30.53,37.5-59,46-8.59,2.56-23.4,6.78-41,2-7.41-2.02-13.81-5.22-19.27-8.96-7.64-20.2,2.41-42.34,7.27-53.04,9.11-20.06,19.96-26.9,37-45,2.27-2.41,4.47-4.83,6.58-7.23,3.3.06,6.44.14,9.42.23,22.72.71,31.09,2.12,40,7,12.36,6.76,13.1,13.26,26,19,5.28,2.35,10.48,3.63,15.38,4.25Z"/>
      <path class="cls-10" d="M1156,1876c-5.98,37.9-17.15,66.38-26,85-8.1,17.03-24.48,51.46-57,86-17.04,18.1-27.89,24.94-37,45-5.26,11.58-16.6,36.58-5,58,11.96,22.09,41.57,27.9,61,26,23.5-2.3,39-16.54,58-34,15.34-14.1,15.22-18.23,45-54,18.1-21.74,20.34-22.86,40-46,11.86-13.96,28.96-34.64,49-61-42.67-35-85.33-70-128-105Z"/>
      <path class="cls-10" d="M1093,2122s-4,45,39,33"/>
      <path class="cls-10" d="M1057,2126s-15,35,17,48"/>
    </g>
    <g>
      <path class="cls-23" d="M1617,2153c-19.51,15.59-46.04,5.76-48,5-18.78-7.33-28.44-24.24-38-41-13.74-24.09-10.82-34.14-25-47-.78-.71-1.54-1.36-2.28-1.96,17.47-1.48,34.22-7.52,48.28-18.04,16.1-12.05,25.4-27.51,30.75-41.72.08.24.16.48.25.72,5.91,16.63,11.24,22.25,28,52,20.59,36.54,21.84,44.58,22,51,.14,5.82.67,27.68-16,41Z"/>
      <path class="cls-46" d="M1582.75,2008.28c-5.35,14.21-14.65,29.67-30.75,41.72-14.06,10.52-30.81,16.56-48.28,18.04-9.65-7.81-16.56-7.36-27.72-14.04-12.88-7.71-28.86-23.38-39-59,46-7.33,92-14.67,138-22,.81,8.23,2.69,20.81,7.75,35.28Z"/>
      <path class="cls-10" d="M1575,1973c.82,8.37,2.75,21.23,8,36,5.91,16.63,11.24,22.25,28,52,20.59,36.54,21.84,44.58,22,51,.14,5.82.67,27.68-16,41-19.51,15.59-46.04,5.76-48,5-18.78-7.33-28.44-24.24-38-41-13.74-24.09-10.82-34.14-25-47-10.89-9.88-17.98-8.81-30-16-12.88-7.71-28.86-23.38-39-59,46-7.33,92-14.67,138-22Z"/>
      <path class="cls-10" d="M1599,2117s6,18,26,24"/>
      <path class="cls-10" d="M1570,2131s12,22,26,29"/>
    </g>
    <g>
      <path class="cls-34" d="M1809.64,1671.94c-.43,13.24-2.49,27.79-7.64,43.06-7.19,21.29-16.59,32.63-23,39-18.47,18.34-40.13,23.15-49,25-31.92,6.66-57.95-3.45-68-8-.32,26.22,5.38,44.49,11.75,56.75-6.28-.67-10.46-1.48-11.75-1.75-46.29-59.01-51.05-79.8-45-87,9.04-10.76,39.68,11.82,82-2,9.33-3.05,30.54-9.97,41-30,5.14-9.83,7.01-21.52,6.13-32.69,10.46-6.25,25.34-11.9,42.87-9.31,7.29,1.08,14.24,3.46,20.64,6.94Z"/>
      <path class="cls-36" d="M1809.64,1671.94c-6.4-3.48-13.35-5.86-20.64-6.94-17.53-2.59-32.41,3.06-42.87,9.31-.5-6.42-1.91-12.68-4.13-18.31-5.49-13.94-12.88-16.33-14-29-.91-10.27,2.58-24.2,12-30,17.11-10.52,45.19,11.07,49,14,6.62,5.09,12.39,11.05,17.34,17.65,1.72,11.39,3.86,26.25,3.3,43.29Z"/>
      <path class="cls-23" d="M1828.58,1687.24c-5.43-6.25-11.84-11.45-18.94-15.3.56-17.04-1.58-31.9-3.3-43.29,12.66,16.85,19.96,37.78,22.24,58.59Z"/>
      <path class="cls-46" d="M1829,1711c-3.39,44.57-30.26,73.14-36,79-40.01,40.82-95.1,40.34-119.25,37.75-6.37-12.26-12.07-30.53-11.75-56.75,10.05,4.55,36.08,14.66,68,8,8.87-1.85,30.53-6.66,49-25,6.41-6.37,15.81-17.71,23-39,5.15-15.27,7.21-29.82,7.64-43.06,7.1,3.85,13.51,9.05,18.94,15.3.88,8.02,1.01,16.02.42,23.76Z"/>
      <path class="cls-10" d="M1617,1739c9.04-10.76,39.68,11.82,82-2,9.33-3.05,30.54-9.97,41-30,8.09-15.48,8.08-35.57,2-51-5.49-13.94-12.88-16.33-14-29-.91-10.27,2.58-24.2,12-30,17.11-10.52,45.19,11.07,49,14,30.04,23.1,42.72,64.32,40,100-3.39,44.57-30.26,73.14-36,79-50.42,51.44-124.77,37.29-131,36-46.29-59.01-51.05-79.8-45-87Z"/>
    </g>
    <g>
      <path class="cls-34" d="M1774,1979c-3.73,4.34-8.01,8.2-12.76,11.56-7.59-4.01-17.14-7.22-31.24-12.56-4.43-1.68-29.12-11.06-49.9-20.32-6.71-3-13.01-5.98-18.1-8.68-14.43-7.68-32.78-20.44-51.2-43.07-4.61-5.67-9.23-11.95-13.8-18.93-1.16,6.87-3.57,16.64-9.15,26.72-3.45,1.08-7.07,2.18-10.85,3.28-16,4.64-70.35,20.46-126.97,21.04,1.15-9.84,1.7-18.28,1.97-25.04,1.27-31.83-3.18-36.35-6-38-9.49-5.54-25.88,6.63-29,9-6.57,6.07-32.06,28.58-71.11,36.91-34.95-11.83-63.39-27.58-82.89-39.91-35.06-13.58-69.78-13.43-94.55-2.63-.43-5.76-.51-10.95-.45-15.37l235.5-118.5c6.68-4.42,15.97-10.1,27.61-15.81,9.47-4.65,20.51-9.32,32.99-13.34,15.89-5.13,34.12-9.2,54.4-10.85,22.84-1.85,78.86-5.61,133,28,38.95,24.18,81.7,70.67,89,112,.58,3.29,1.19,6.32,1.82,9.13,3.93,17.48,9.1,27.06,18.18,43.87,2.58,4.78,7.09,12.58,16,19,5.87,4.23,10.33,4.61,15.76,6.38.16,15.44-2.74,38.08-18.26,56.12Z"/>
      <path class="cls-27" d="M1742.32,1853.63c-3.27-4.41-6.71-8.96-10.32-13.63-35.89-46.44-53.83-69.66-81-87-50.93-32.52-104.23-32.31-123-32-25.73.43-48.01,5-65.79,10.43.78-5.14,1.42-10.5,1.89-16.08,15.89-5.13,34.12-9.2,54.4-10.85,22.84-1.85,78.86-5.61,133,28,38.95,24.18,81.7,70.67,89,112,.58,3.29,1.19,6.32,1.82,9.13Z"/>
      <path class="cls-46" d="M1464.1,1715.35c-.47,5.58-1.11,10.94-1.89,16.08-6.29,41.4-21.75,68.52-31.21,82.57-27.87,41.37-65.39,60.87-133,96-36.97,19.21-56.24,29.23-86,35-7.19,1.39-14.23,2.4-21.1,3.06-.64-1-1.28-2.02-1.9-3.06-18.91-31.41-21.26-63.44-21-82l235.5-118.5c6.68-4.42,15.97-10.1,27.61-15.81,2.96-1.45,6.07-2.91,9.33-4.34.66-.29,1.31-.58,1.98-.86,1.3-.56,2.63-1.12,3.98-1.67.71-.3,1.43-.59,2.16-.88,1.4-.55,2.82-1.11,4.27-1.65.66-.25,1.33-.5,2.01-.75.43-.16.86-.32,1.3-.47.67-.25,1.35-.49,2.03-.72,1.94-.68,3.91-1.35,5.93-2Z"/>
      <path class="cls-36" d="M1876.92,2067.9c-9.99,1.38-21.94,1.41-34.92-1.9-6.46-1.65-27.85-7.4-44-26-13.5-15.54-9.24-23.83-22-38-4.55-5.05-9.11-8.47-14.76-11.44,4.75-3.36,9.03-7.22,12.76-11.56,15.52-18.04,18.42-40.68,18.26-56.12,1.92.62,3.97,1.42,6.24,2.62,10.7,5.67,15.42,14.6,20.5,20.5q31,36,51,65c5.81,8.42,16.17,34.99,6.92,56.9Z"/>
      <path class="cls-36" d="M1587.85,1913.72c-1.89,3.42-4.15,6.89-6.85,10.28-16.34,20.52-39.05,26.35-65,33-15.8,4.05-39.86,8.43-70,7,1.83-9.43,3.13-18.14,4.03-25.96,56.62-.58,110.97-16.4,126.97-21.04,3.78-1.1,7.4-2.2,10.85-3.28Z"/>
      <path class="cls-23" d="M1637,1957c-12.76,9.71-31.54,22.47-56,34-26.32,12.41-52.12,20.06-84,26-68.42,12.75-124,23.11-190,4-33.48-9.7-85.34-24.71-116.1-72.94-.64-1-1.28-2.02-1.9-3.06-10.39-17.26-15.78-34.71-18.49-50-1.04-5.91-1.69-11.5-2.06-16.63,24.77-10.8,59.49-10.95,94.55,2.63,19.5,12.33,47.94,28.08,82.89,39.91,27.95,9.47,60.07,16.41,95.11,17.09,3.01.06,6.02.07,9.03.04-.9,7.82-2.2,16.53-4.03,25.96,30.14,1.43,54.2-2.95,70-7,25.95-6.65,48.66-12.48,65-33,2.7-3.39,4.96-6.86,6.85-10.28,6.98-2.19,13.26-4.33,18.73-6.27,17.23,37.3,30.42,49.55,30.42,49.55Z"/>
      <path class="cls-23" d="M1876.41,2067.97c.23-.03.4.2.31.41-1.62,3.72-3.82,7.3-6.72,10.62-15.34,17.64-50.73,11.14-69-3-3.26-2.53-12.51-14.68-31-39-10.2-13.41-13.64-18.27-21-23-8.54-5.49-17.21-7.49-24.33-8.29-.34-.04-.35-.52,0-.58,13.66-2.26,26.13-7.19,36.43-14.47.09-.06.21-.07.31-.02,5.58,2.95,10.09,6.35,14.6,11.36,12.76,14.17,8.5,22.46,22,38,16.15,18.6,37.54,24.35,44,26,12.76,3.25,24.52,3.28,34.41,1.97Z"/>
      <path class="cls-46" d="M1761.24,1990.56c-10.9,7.74-24.24,12.84-38.86,14.92-3.76-.32-6.98-.35-9.38-.48-12.14-.65-28.09-5.25-47.78-20.69-8.68-6.8-18.09-15.71-28.22-27.31,0,0-13.19-12.25-30.42-49.55-5.47,1.94-11.75,4.08-18.73,6.27,5.58-10.08,7.99-19.85,9.15-26.72,4.57,6.98,9.19,13.26,13.8,18.93,18.42,22.63,36.77,35.39,51.2,43.07,5.09,2.7,11.39,5.68,18.1,8.68,20.78,9.26,45.47,18.64,49.9,20.32,14.1,5.34,23.65,8.55,31.24,12.56Z"/>
      <path class="cls-46" d="M1452,1913c-.27,6.76-.82,15.2-1.97,25.04-3.01.03-6.02.02-9.03-.04-35.04-.68-67.16-7.62-95.11-17.09,39.05-8.33,64.54-30.84,71.11-36.91,3.12-2.37,19.51-14.54,29-9,2.82,1.65,7.27,6.17,6,38Z"/>
      <path class="cls-10" d="M1403.5,1744.5c19.06-12.6,59.27-35.48,115-40,22.84-1.85,78.86-5.61,133,28,38.95,24.18,81.7,70.67,89,112,4.19,23.71,9.46,33.48,20,53,2.58,4.78,7.09,12.58,16,19,7.95,5.73,13.3,4.39,22,9,10.7,5.67,15.42,14.6,20.5,20.5q31,36,51,65c6.84,9.91,20,45,0,68-15.34,17.64-50.73,11.14-69-3-3.26-2.53-12.51-14.68-31-39-10.2-13.41-13.64-18.27-21-23-14.22-9.14-28.8-8.61-36-9-17.49-.94-42.9-10.08-76-48-12.76,9.71-31.54,22.47-56,34-26.32,12.41-52.12,20.06-84,26-68.42,12.75-124,23.11-190,4-34.18-9.9-87.51-25.34-118-76-18.91-31.41-21.26-63.44-21-82l235.5-118.5Z"/>
      <path class="cls-10" d="M1637,1957s-24-27-40-70"/>
      <path class="cls-10" d="M1876,2052s-14-5-22-19"/>
      <path class="cls-10" d="M1856,2084s-13-4-28-31"/>
    </g>
    <g>
      <path class="cls-34" d="M1451.9,1669.19c-18.98-3.72-39.62-6.27-60.2-8.81-55.97-6.9-72.23,2.26-116.04-13.65-47.28-17.17-77.04-39.98-77.04-39.98-29.77-22.82-40.4-42.06-55.58-39-11.57,2.33-17.71,16.01-29.25,48.75-30.62,86.88-26.06,100.27-43.88,126.77-8.85,13.15-13.36,14.89-71.18,59.48-10.1,7.79-19.66,15.21-28.61,22.2-1.67-4.81-2.9-9.95-3.62-15.45-3.09-23.59-6.7-46.33-4-93,1.45-25.1,4.33-46.4,7.04-62.47.16-.97-1.19-1.37-1.59-.46-6.48,14.91-14.41,46.72-24.95,76.46.35-3.12.76-6.22,1.22-9.29-12.44-34.36-21.17-72.27-24.97-92.05-7.06-36.75-18.18-94.61,9.75-115.06,14.34-10.49,33.36-7.03,69.24,0,23.59,4.62,44.33,10.91,61.86,17.43,29.25-23.99,55.21-37.71,66.36-42.3,4.8-1.96,40.3-19.12,97-20.45,7.31-11.53,15.82-23.88,24.89-37.08,29.45-42.79,48.23-70.07,73.14-69.23,38.71,1.3,64.73,69.58,80.93,112.14,8.66,22.73,14.32,37.57,14.93,49.32,3.7,2.25,7.27,4.75,10.7,7.46,9.62,16.38,20.85,40.67,25.45,71.58,3.73,25,2.12,47.61-1.6,66.69Z"/>
      <path class="cls-36" d="M1451.9,1669.19c-5.25,26.91-14.72,46.77-19.4,56.31-34.09,69.54-95.55,99.75-151,127-59.14,29.07-121.98,59.95-197,42-9.97-2.38-94.17-11.04-114.38-69.55,8.95-6.99,18.51-14.41,28.61-22.2,57.82-44.59,62.33-46.33,71.18-59.48,17.82-26.5,13.26-39.89,43.88-126.77,11.54-32.74,17.68-46.42,29.25-48.75,15.18-3.06,25.81,16.18,55.58,39,0,0,29.76,22.81,77.04,39.98,43.81,15.91,60.07,6.75,116.04,13.65,20.58,2.54,41.22,5.09,60.2,8.81Z"/>
      <path class="cls-27" d="M970.12,1824.95c-4.03,3.15-7.94,6.21-11.72,9.18-15.76-32.16-19.26-69.51-15.4-104.1,10.54-29.74,18.47-61.55,24.95-76.46.4-.91,1.75-.51,1.59.46-2.71,16.07-5.59,37.37-7.04,62.47-2.7,46.67.91,69.41,4,93,.72,5.5,1.95,10.64,3.62,15.45Z"/>
      <path class="cls-23" d="M1480.2,1676.19c-3.05,22.34-10.7,44.22-23.66,63.67-90.01,135.01-220.75,195.92-375.42,174.54-65.47-9.04-103.35-40.73-122.72-80.27,3.78-2.97,7.69-6.03,11.72-9.18,20.21,58.51,104.41,67.17,114.38,69.55,75.02,17.95,137.86-12.93,197-42,55.45-27.25,116.91-57.46,151-127,4.68-9.54,14.15-29.4,19.4-56.31,9.98,1.95,19.5,4.23,28.3,7Z"/>
      <path class="cls-46" d="M1480.2,1676.19c-8.8-2.77-18.32-5.05-28.3-7,3.72-19.08,5.33-41.69,1.6-66.69-4.6-30.91-15.83-55.2-25.45-71.58,38.62,30.58,59.78,89.36,52.15,145.27Z"/>
      <path class="cls-10" d="M1456.54,1739.86c-90.01,135.01-220.75,195.92-375.42,174.55-123.54-17.06-148.85-114.74-136.91-193.66-12.43-34.36-21.17-72.28-24.96-92.05-7.06-36.75-18.19-94.62,9.75-115.06,14.33-10.49,33.36-7.03,69.23,0,23.59,4.62,44.33,10.91,61.86,17.43,29.25-23.99,55.21-37.71,66.37-42.29,4.8-1.97,40.29-19.12,96.99-20.46,7.31-11.53,15.82-23.88,24.89-37.07,29.45-42.79,48.23-70.07,73.13-69.23,38.71,1.3,64.73,69.58,80.93,112.14,8.66,22.73,14.31,37.57,14.93,49.32,61.96,37.69,87.49,143.95,39.19,216.4Z"/>
      <path class="cls-10" d="M1403.5,1603.5s25-27,97-26"/>
      <path class="cls-10" d="M1411.5,1630.5s32-16,90-6"/>
      <path class="cls-10" d="M1420.5,1658.5s34-6,88,17"/>
      <path class="cls-10" d="M974.5,1771.5s-39-3-71,25"/>
      <path class="cls-10" d="M982.5,1794.5s-42,7-68,39"/>
      <path class="cls-10" d="M992.5,1816.5s-47,26-51,54"/>
      <path class="cls-10" d="M1017.5,1582.5s-19-30-68-38"/>
      <path class="cls-10" d="M1321.5,1395.5s-35,30-30,88"/>
      <g>
        <path class="cls-4" d="M1128.5,1713.5c5.1,7.9,12.81,12.77,19.86,13.5,2.14.23,4.22.07,6.14-.5,11.06-3.27,16-20,10-39,6,19,22.35,30.37,35,26,3.01-1.04,5.79-2.93,8.15-5.45,5.73-6.14,8.94-16.04,6.85-26.55"/>
        <path class="cls-8" d="M1175.5,1681.5c-2.18-4.19-12.54-2.1-13-2-4.63.98-12.06,4.12-12,8,.07,4.18,8.85,9.23,16,7,6.27-1.96,10.87-9.4,9-13Z"/>
        <path class="cls-22" d="M1219.66,1736.57c-9.87-.22-19.7,2.44-28.16,7.93-11.49,7.45-19.19,19.31-21.77,32.53-4.57-6.48-7.97-13.6-11.23-20.53-3.33-7.1-7.28-17.02-10.14-29.5,2.14.23,4.22.07,6.14-.5,11.06-3.27,16-20,10-39,6,19,22.35,30.37,35,26,3.01-1.04,5.79-2.93,8.15-5.45,3.52,7.63,6.45,14.5,8.85,20.45,1.17,2.9,2.22,5.58,3.16,8.07Z"/>
        <path class="cls-31" d="M1226.5,1771.5c-.58,3.84-3.36,22.43-16,27-8.65,3.13-17.54-1.91-23-5-7.69-4.35-13.29-10.1-17.77-16.47,2.58-13.22,10.28-25.08,21.77-32.53,8.46-5.49,18.29-8.15,28.16-7.93,7.38,19.53,7.98,27.37,6.84,34.93Z"/>
        <path class="cls-4" d="M1226.5,1771.5c-.58,3.84-3.36,22.43-16,27-8.65,3.13-17.54-1.91-23-5-15.51-8.78-22.54-23.26-29-37-3.33-7.1-7.28-17.02-10.14-29.5,2.14.23,4.22.07,6.14-.5,11.06-3.27,16-20,10-39,6,19,22.35,30.37,35,26,3.01-1.04,5.79-2.93,8.15-5.45,3.52,7.63,6.45,14.5,8.85,20.45,10.36,25.6,11.28,34.47,10,43Z"/>
      </g>
      <g>
        <path class="cls-30" d="M1268.64,1560.13c40.31-17.06,91.66,10.95,101.54,54.95,8.26,36.78-13.5,80.1-53.76,89.59-40.61,9.57-79.17-20.22-88.4-57.34-8.51-34.22,8.19-73.48,40.62-87.2Z"/>
        <path class="cls-36" d="M1275.81,1572.08c12.29,0,23.03,10.23,22.7,22.7-.32,12.06-10.87,21.5-22.7,21.5s-22.38-9.44-22.7-21.5c-.33-12.46,10.41-22.7,22.7-22.7Z"/>
        <path class="cls-44" d="M1345.89,1607.62c.17-1.32,1.82-1.8,2.68-.79,4.07,4.77,10.56,14.11,12.05,27.36,2.18,19.4-7.93,33.28-10.75,37.03-10.92,14.51-26.02,19.29-33.39,20.86-1.35.29-2.35-1.2-1.58-2.34,6.06-8.98,12.61-20.33,18.25-34.04,7.53-18.31,11.06-35.03,12.74-48.08Z"/>
        <path class="cls-45" d="M1345.09,1666.45c-.89-6.4-10.32-12.34-17.92-11.95-6.48.33-7.13,5.03-14.33,5.97-9.24,1.2-11.87-6.05-21.5-4.78-5.91.78-10.79,4.28-13.14,5.97-6.08,4.37-7.05,7.93-10.75,8.36-2.64.31-6.54-.98-11.95-8.36-.34,4.24-.22,11.19,3.58,17.92,9.14,16.18,31.43,16.63,35.84,16.72,25.78.53,51.79-18.21,50.17-29.86Z"/>
        <path class="cls-36" d="M1331.77,1625.24c8.75-.28,16.93,8.44,15.25,16.78-1.32,6.55-8.39,11.2-15.25,10.68-7.57-.57-14.55-7.39-13.73-15.25.73-6.99,7.34-12,13.73-12.2Z"/>
        <path class="cls-36" d="M1297.75,1634.79c6.99.11,12.13,5.88,11.7,11.7-.42,5.7-6.14,10.77-11.7,9.75-4.58-.84-7.5-5.52-7.8-9.75-.35-4.9,2.77-9.7,7.8-11.7Z"/>
        <path class="cls-44" d="M1278.8,1665.85c2.23-2.84,5.98-3.1,13.14-3.58,10.85-.74,17.78-1.21,21.5,3.58,4.33,5.57,2.49,15.85-3.58,21.5-7.11,6.62-18.42,5.38-25.09,0-6.79-5.49-10.03-16.33-5.97-21.5Z"/>
      </g>
      <g>
        <path class="cls-30" d="M1044.57,1652.81c-43.13.54-78.41,46.14-69.93,89.76,7.09,36.46,43.87,66.97,83.96,59.62,40.44-7.42,63.47-49.56,57.12-86.72-5.85-34.26-36.46-63.09-71.15-62.66Z"/>
        <path class="cls-36" d="M1042.82,1666.42c-11.09,4.86-16.74,18.34-11.51,29.47,5.06,10.76,18.32,15.11,28.99,10.43,10.67-4.68,16.47-17.37,11.98-28.39-4.63-11.38-18.37-16.37-29.47-11.51Z"/>
        <path class="cls-44" d="M993.61,1726.23c-.68-1.12-2.35-.91-2.73.35-1.79,5.91-3.95,16.92-.05,29.47,5.71,18.38,20.32,26.91,24.35,29.18,15.6,8.78,31.12,7.12,38.39,5.62,1.33-.27,1.65-2.02.5-2.74-9.02-5.71-19.42-13.36-29.94-23.51-14.04-13.55-23.84-27.25-30.52-38.36Z"/>
        <path class="cls-45" d="M1017.6,1779.02c-1.73-6.12,4.44-15.22,11.45-17.87,5.98-2.26,8.43,1.73,15.3-.28,8.82-2.57,8.33-10.16,17.52-12.82,5.64-1.63,11.43-.4,14.22.19,7.22,1.54,9.5,4.37,13.01,3.3,2.5-.76,5.52-3.48,7.48-12.27,1.99,3.69,4.62,10.02,3.85,17.59-1.86,18.22-21.79,27.44-25.74,29.27-23.07,10.67-53.95,4.05-57.1-7.12Z"/>
        <path class="cls-36" d="M1013.33,1736.55c-8.01,3.21-11.95,14.31-7.13,21.18,3.78,5.39,12,6.79,17.99,3.61,6.61-3.51,10.21-12.43,6.36-19.2-3.42-6.03-11.37-7.93-17.22-5.59Z"/>
        <path class="cls-36" d="M1047.82,1731.72c-6.27,2.87-8.62,10.11-5.93,15.19,2.63,4.98,9.8,7.3,14.42,4.17,3.8-2.57,4.58-7.95,3.19-11.89-1.62-4.57-6.33-7.66-11.67-7.48Z"/>
        <path class="cls-44" d="M1077.21,1752.26c-3.14-1.68-6.62-.43-13.28,1.96-10.09,3.63-16.52,5.94-17.99,11.74-1.71,6.74,4.03,15.29,11.74,17.99,9.03,3.16,18.76-2.43,22.65-9.92,3.96-7.64,2.59-18.71-3.11-21.77Z"/>
      </g>
      <path class="cls-10" d="M970,1654s-17,29-26,67"/>
    </g>
    <g>
      <path class="cls-34" d="M1445,1871c-2.15,11.22-4.45,21.69-6.8,31.34-2.67-4.64-5.18-8.44-7.2-11.34-10.86,27.06-20.36,50.39-28,69-4.05,9.86-7.24,17.59-9.92,23.9-2.54-1.32-4.9-2.63-7.08-3.9-15.78-9.23-23.56-17.43-41-21-6.47-1.32-16.43-2.45-44,3-7.43,1.47-16.14,3.42-25.92,6.05,13.45-24.21,32.38-55.63,57.92-91.05,37.33-2,74.67-4,112-6Z"/>
      <path class="cls-36" d="M1393.08,1983.9c-6.45,15.22-9.9,22.24-15.08,31.1-17.74,30.31-33.7,44.5-46,53-11.9,8.23-21.19,14.45-33,13-19.35-2.38-30.4-24.78-35-34-5.89-11.82-8.81-23.98-9.84-35.69h0c4.09-11.54,10.6-24.58,19.84-41.31.36-.64.72-1.29,1.08-1.95,9.78-2.63,18.49-4.58,25.92-6.05,27.57-5.45,37.53-4.32,44-3,17.44,3.57,25.22,11.77,41,21,2.18,1.27,4.54,2.58,7.08,3.9Z"/>
      <path class="cls-46" d="M1438.2,1902.34h0c-4.19,17.34-8.49,32.02-12.2,43.66-5,15.69-9.84,30.74-15.8,45.57-6.46-2.47-12.14-5.09-17.12-7.67,2.68-6.31,5.87-14.04,9.92-23.9,7.64-18.61,17.14-41.94,28-69,2.02,2.9,4.53,6.7,7.2,11.34Z"/>
      <path class="cls-23" d="M1408.66,1990.97c.84.33,1.27,1.29.93,2.13-7.74,19.02-17.38,37.69-31.58,56.9-25.33,34.28-44.67,42.57-51,45-8.89,3.42-35.41,13.63-56,0-19.27-12.76-21.26-38.41-22-48-.75-9.73.13-18.72,2.88-28.54.47-1.69,2.9-1.54,3.17.2,1.47,9.4,4.28,18.98,8.94,28.34,4.6,9.22,15.65,31.62,35,34,11.81,1.45,21.1-4.77,33-13,12.3-8.5,28.26-22.69,46-53,5-8.54,8.38-15.38,14.4-29.5.37-.86,1.39-1.23,2.23-.81,4.19,2.11,8.85,4.24,14.03,6.28Z"/>
      <path class="cls-10" d="M1445,1871c-6,31.37-13.23,56.87-19,75-11.58,36.36-22.36,69.3-48,104-25.33,34.28-44.67,42.57-51,45-8.89,3.42-35.41,13.63-56,0-19.27-12.76-21.26-38.41-22-48-1.78-22.93,5.54-41.77,25-77,13.51-24.46,32.77-56.62,59-93"/>
      <path class="cls-10" d="M1321,2044s-2,47,38,26"/>
      <path class="cls-10" d="M1283,2046s-6,59,41,48"/>
    </g>
  </g>
  <path class="cls-18" d="M1892.82,492.27c-.09-.08-.18-.16-.27-.24-.1-.09-.2-.18-.28-.28-.03-.03-.06-.06-.08-.09-.13-.13-.24-.26-.34-.4-.02-.01-.02-.02-.03-.03-.07-.09-.13-.18-.2-.27,0-.01-.01-.01-.02-.02-.01-.03-.03-.05-.05-.08-.01-.01-.01-.03-.02-.04-.02-.03-.04-.05-.05-.08-.09-.12-.16-.24-.23-.36-.09-.17-.17-.34-.25-.51-.05-.11-.09-.21-.13-.32-.03-.07-.05-.14-.08-.21-.04-.13-.08-.26-.12-.4-.01-.03-.01-.04-.02-.07-.04.07-.09.13-.13.19-.05.07-.09.13-.14.2-.09.14-.19.27-.3.39h0c-.11.14-.21.26-.32.37-.11.12-.22.24-.34.35l3.78,2.19c-.13-.09-.26-.19-.38-.29ZM1892.82,492.27c-.09-.08-.18-.16-.27-.24-.1-.09-.2-.18-.28-.28-.03-.03-.06-.06-.08-.09-.13-.13-.24-.26-.34-.4-.02-.01-.02-.02-.03-.03-.07-.09-.13-.18-.2-.27,0-.01-.01-.01-.02-.02-.01-.03-.03-.05-.05-.08-.01-.01-.01-.03-.02-.04-.02-.03-.04-.05-.05-.08-.09-.12-.16-.24-.23-.36-.09-.17-.17-.34-.25-.51-.05-.11-.09-.21-.13-.32-.03-.07-.05-.14-.08-.21-.04-.13-.08-.26-.12-.4-.01-.03-.01-.04-.02-.07-.04.07-.09.13-.13.19-.05.07-.09.13-.14.2-.09.14-.19.27-.3.39h0c-.11.14-.21.26-.32.37-.11.12-.22.24-.34.35l3.78,2.19c-.13-.09-.26-.19-.38-.29ZM1892.82,492.27c-.09-.08-.18-.16-.27-.24-.1-.09-.2-.18-.28-.28-.03-.03-.06-.06-.08-.09-.13-.13-.24-.26-.34-.4-.02-.01-.02-.02-.03-.03-.07-.09-.13-.18-.2-.27,0-.01-.01-.01-.02-.02-.01-.03-.03-.05-.05-.08-.01-.01-.01-.03-.02-.04-.02-.03-.04-.05-.05-.08-.09-.12-.16-.24-.23-.36-.09-.17-.17-.34-.25-.51-.05-.11-.09-.21-.13-.32-.03-.07-.05-.14-.08-.21-.04-.13-.08-.26-.12-.4-.01-.03-.01-.04-.02-.07-.04.07-.09.13-.13.19-.05.07-.09.13-.14.2-.09.14-.19.27-.3.39h0c-.11.14-.21.26-.32.37-.11.12-.22.24-.34.35l3.78,2.19c-.13-.09-.26-.19-.38-.29ZM1892.82,492.27c-.09-.08-.18-.16-.27-.24-.1-.09-.2-.18-.28-.28-.03-.03-.06-.06-.08-.09-.13-.13-.24-.26-.34-.4-.02-.01-.02-.02-.03-.03-.07-.09-.13-.18-.2-.27,0-.01-.01-.01-.02-.02-.01-.03-.03-.05-.05-.08-.01-.01-.01-.03-.02-.04-.02-.03-.04-.05-.05-.08-.09-.12-.16-.24-.23-.36-.09-.17-.17-.34-.25-.51-.05-.11-.09-.21-.13-.32-.03-.07-.05-.14-.08-.21-.04-.13-.08-.26-.12-.4-.01-.03-.01-.04-.02-.07-.04.07-.09.13-.13.19-.05.07-.09.13-.14.2-.09.14-.19.27-.3.39h0c-.11.14-.21.26-.32.37-.11.12-.22.24-.34.35l3.78,2.19c-.13-.09-.26-.19-.38-.29ZM1892.82,492.27c-.09-.08-.18-.16-.27-.24-.1-.09-.2-.18-.28-.28-.03-.03-.06-.06-.08-.09-.13-.13-.24-.26-.34-.4-.02-.01-.02-.02-.03-.03-.07-.09-.13-.18-.2-.27,0-.01-.01-.01-.02-.02-.01-.03-.03-.05-.05-.08-.01-.01-.01-.03-.02-.04-.02-.03-.04-.05-.05-.08-.09-.12-.16-.24-.23-.36-.09-.17-.17-.34-.25-.51-.05-.11-.09-.21-.13-.32-.03-.07-.05-.14-.08-.21-.04-.13-.08-.26-.12-.4-.01-.03-.01-.04-.02-.07-.04.07-.09.13-.13.19-.05.07-.09.13-.14.2-.09.14-.19.27-.3.39h0c-.11.14-.21.26-.32.37-.11.12-.22.24-.34.35l3.78,2.19c-.13-.09-.26-.19-.38-.29ZM1892.82,492.27c-.09-.08-.18-.16-.27-.24-.1-.09-.2-.18-.28-.28-.03-.03-.06-.06-.08-.09-.13-.13-.24-.26-.34-.4-.02-.01-.02-.02-.03-.03-.07-.09-.13-.18-.2-.27,0-.01-.01-.01-.02-.02-.01-.03-.03-.05-.05-.08-.01-.01-.01-.03-.02-.04-.02-.03-.04-.05-.05-.08-.09-.12-.16-.24-.23-.36-.09-.17-.17-.34-.25-.51-.05-.11-.09-.21-.13-.32-.03-.07-.05-.14-.08-.21-.04-.13-.08-.26-.12-.4-.01-.03-.01-.04-.02-.07-.04.07-.09.13-.13.19-.05.07-.09.13-.14.2-.09.13-.19.26-.3.39h0c-.11.14-.21.26-.32.37-.11.12-.22.24-.34.35l3.78,2.19c-.13-.09-.26-.19-.38-.29ZM521.38,2403.56c38.25,48.35,100.1,45.12,108.57,44.54,9.04-.62,18.18-2.97,28.45-7.1l-160.24-92.52c2.49,17.59,8.99,37.08,23.22,55.08ZM1753.3,288.13h-.01l-9.69-5.6-35.58-20.54-42.45-24.51-35.78-20.65-18.98-10.97-54.14-31.25-53.21-30.72-37.03-21.38-7.87-4.55-29.26-16.89-7.67-4.43h0L1259.23,2.88,440.82,475.4h-.01l-4.97,2.88h-.01S-.25,730.04-.25,730.04v1454.32l188.17,108.64,81.66,47.15,137.48,79.37,220.94,127.56h.01s4.91,2.84,4.91,2.84h.01l224.26,129.48,402.04,232.12,815.09-470.6,5.78-3.33,152.68-88.15,285.92-165.08V730.04l-765.4-441.91ZM2411.63,2122.54l-322.08,185.96-172.96,99.86-22.27,12.86-141.3,81.57-9.22,5.33-107.95,62.33-13.08,7.55-89.34,51.58-11.95,6.9-262.25,151.41-1.59-.92-10.15-5.86-267.27-154.31-80.26-46.33-55.93-32.3-67.37-38.9-118.26-68.27-160.24-92.52-66.04-38.13-102.77-59.33-57.52-33.21-99.79-57.62-.34-.19-4.25-2.45-16.62-9.59h0l-.03-.03-4.35-2.51h-.01s-39.61-22.88-39.61-22.88V791.86l391.5-226.03,11.11-6.42,157.82-91.11,12.57-7.26,44.64-25.77,8.25-4.77,86.25-49.79h.02s4.87-2.83,4.87-2.83h.01s.01,0,.01,0l435.36-251.35,88.17,50.91,8.05,4.64,20.07,11.59,103.81,59.93,71.28,41.16,75.14,43.38,33.33,19.25,38.38,22.15,15.11,8.73,7.87,4.54h.01s72.37,41.79,72.37,41.79l2.45,1.41,9.36,5.41,10.81,6.24,60.55,34.96,13.43,7.75,3.78,2.19.04.02,1.01.58,17.11,9.88,8.32,4.8,481.15,277.79,10.8,6.24v1330.68ZM1892.82,492.27c-.09-.08-.18-.16-.27-.24-.1-.09-.2-.18-.28-.28-.03-.03-.06-.06-.08-.09-.13-.13-.24-.26-.34-.4-.02-.01-.02-.02-.03-.03-.07-.09-.13-.18-.2-.27,0-.01-.01-.01-.02-.02-.01-.03-.03-.05-.05-.08-.01-.01-.01-.03-.02-.04-.02-.03-.04-.05-.05-.08-.09-.12-.16-.24-.23-.36-.09-.17-.17-.34-.25-.51-.05-.11-.09-.21-.13-.32-.03-.07-.05-.14-.08-.21-.04-.13-.08-.26-.12-.4-.01-.03-.01-.04-.02-.07-.04.07-.09.13-.13.19-.05.07-.09.13-.14.2-.09.14-.19.27-.3.39h0c-.11.14-.21.26-.32.37-.11.12-.22.24-.34.35l3.78,2.19c-.13-.09-.26-.19-.38-.29ZM1892.82,492.27c-.09-.08-.18-.16-.27-.24-.1-.09-.2-.18-.28-.28-.03-.03-.06-.06-.08-.09-.13-.13-.24-.26-.34-.4-.02-.01-.02-.02-.03-.03-.07-.09-.13-.18-.2-.27,0-.01-.01-.01-.02-.02-.01-.03-.03-.05-.05-.08-.01-.01-.01-.03-.02-.04-.02-.03-.04-.05-.05-.08-.09-.12-.16-.24-.23-.36-.09-.17-.17-.34-.25-.51-.05-.11-.09-.21-.13-.32-.03-.07-.05-.14-.08-.21-.04-.13-.08-.26-.12-.4-.01-.03-.01-.04-.02-.07-.04.07-.09.13-.13.19-.05.07-.09.13-.14.2-.09.14-.19.27-.3.39h0c-.11.14-.21.26-.32.37-.11.12-.22.24-.34.35l3.78,2.19c-.13-.09-.26-.19-.38-.29ZM1892.82,492.27c-.09-.08-.18-.16-.27-.24-.1-.09-.2-.18-.28-.28-.03-.03-.06-.06-.08-.09-.13-.13-.24-.26-.34-.4-.02-.01-.02-.02-.03-.03-.07-.09-.13-.18-.2-.27,0-.01-.01-.01-.02-.02-.01-.03-.03-.05-.05-.08-.01-.01-.01-.03-.02-.04-.02-.03-.04-.05-.05-.08-.09-.12-.16-.24-.23-.36-.09-.17-.17-.34-.25-.51-.05-.11-.09-.21-.13-.32-.03-.07-.05-.14-.08-.21-.04-.13-.08-.26-.12-.4-.01-.03-.01-.04-.02-.07-.04.07-.09.13-.13.19-.05.07-.09.13-.14.2-.09.14-.19.27-.3.39h0c-.11.14-.21.26-.32.37-.11.12-.22.24-.34.35l3.78,2.19c-.13-.09-.26-.19-.38-.29ZM1892.82,492.27c-.09-.08-.18-.16-.27-.24-.1-.09-.2-.18-.28-.28-.03-.03-.06-.06-.08-.09-.13-.13-.24-.26-.34-.4-.02-.01-.02-.02-.03-.03-.07-.09-.13-.18-.2-.27,0-.01-.01-.01-.02-.02-.01-.03-.03-.05-.05-.08-.01-.01-.01-.03-.02-.04-.02-.03-.04-.05-.05-.08-.09-.12-.16-.24-.23-.36-.09-.17-.17-.34-.25-.51-.05-.11-.09-.21-.13-.32-.03-.07-.05-.14-.08-.21-.04-.13-.08-.26-.12-.4-.01-.03-.01-.04-.02-.07-.04.07-.09.13-.13.19-.05.07-.09.13-.14.2-.09.14-.19.27-.3.39h0c-.11.14-.21.26-.32.37-.11.12-.22.24-.34.35l3.78,2.19c-.13-.09-.26-.19-.38-.29ZM1892.82,492.27c-.09-.08-.18-.16-.27-.24-.1-.09-.2-.18-.28-.28-.03-.03-.06-.06-.08-.09-.13-.13-.24-.26-.34-.4-.02-.01-.02-.02-.03-.03-.07-.09-.13-.18-.2-.27,0-.01-.01-.01-.02-.02-.01-.03-.03-.05-.05-.08-.01-.01-.01-.03-.02-.04-.02-.03-.04-.05-.05-.08-.09-.12-.16-.24-.23-.36-.09-.17-.17-.34-.25-.51-.05-.11-.09-.21-.13-.32-.03-.07-.05-.14-.08-.21-.04-.13-.08-.26-.12-.4-.01-.03-.01-.04-.02-.07-.04.07-.09.13-.13.19-.05.07-.09.13-.14.2-.09.14-.19.27-.3.39h0c-.11.14-.21.26-.32.37-.11.12-.22.24-.34.35l3.78,2.19c-.13-.09-.26-.19-.38-.29Z"/>
  <g>
    <path class="cls-3" d="M815.3,2352.85c-8.64,0-13.2-4.8-13.2-11.52,0-8.4,3.36-14.88,13.44-14.88,3.84,0,8.16.48,11.04.48,0-6-.96-14.4-.96-21.12,0-8.4,5.76-15.6,15.12-15.6,11.76,0,17.52,5.52,17.52,15.6,0,5.28-1.92,12.48-1.92,21.12,9.36,0,17.04-.72,26.4-.72s13.2,5.04,13.2,13.2-5.52,13.68-13.2,13.68c-6,0-23.76-1.2-27.36-.96-.96,12.96-1.92,26.88-1.2,39.84.48,7.44,3.12,13.2,9.36,13.2s8.16-4.8,8.16-12.96c0-9.12,5.76-11.76,12.72-11.76,9.84,0,14.4,6,14.4,15.36,0,18.96-9.84,35.52-36.96,35.52-24.72,0-37.92-17.52-36.72-39.12.72-13.2,1.2-26.88,1.2-39.84,0,0-6.72.48-11.04.48Z"/>
    <path class="cls-3" d="M932.18,2271.49c11.52,0,18.96,4.56,18.96,16.32,0,8.64-5.04,18.48-16.8,18.48-6.48,0-22.56-2.16-22.56-17.28,0-10.56,10.32-17.52,20.4-17.52Z"/>
    <path class="cls-3" d="M914.18,2341.81c0-12.72,8.16-17.04,15.6-17.04,9.36,0,17.52,4.32,17.52,12.72,0,11.04-2.64,15.12-2.64,29.04v24.96c0,9.6,3.84,12,8.88,12,2.4,0,4.8-1.68,8.64-1.68,5.52,0,10.8,3.36,10.8,12,0,11.76-6.72,17.52-24,17.52-15.6,0-32.88-7.44-32.64-36l.24-33.36c0-5.52-2.4-13.44-2.4-20.16Z"/>
    <path class="cls-3" d="M1086.26,2403.25c-5.28-.96-6.72-3.12-6.72-14.4l-.24-84c0-10.56,1.44-16.08,1.44-27.12,0-8.16-7.2-13.92-16.56-13.92s-16.08,4.8-16.08,16.32c0,7.92,3.12,12,3.36,18.24l.48,36.49c0,.08-.09.12-.14.06-4.12-4.77-12.01-10.63-24.81-10.63-30.24,0-47.52,24-47.52,53.52,0,27.84,13.92,53.28,43.92,53.28,16.14,0,25.71-6.96,30.19-15.54.56-1.08,2.12-.94,2.49.21,3.85,12.16,10.85,15.57,24.68,15.57s17.04-7.92,17.04-15.36c0-10.56-6.48-11.52-11.52-12.72ZM1031.06,2404.69c-13.92,0-21.12-12.24-21.12-26.88,0-16.56,5.52-27.12,20.64-27.12,12.48,0,20.88,7.68,20.88,23.28,0,17.28-5.76,30.72-20.4,30.72Z"/>
    <path class="cls-3" d="M1207.7,2395.57c0-17.28.96-34.56,1.2-49.2.24-12.72-4.08-22.08-16.32-22.08s-16.8,10.8-16.8,22.08c0,8.4,2.4,19.44,2.4,33.84,0,12.72-3.12,24-18.48,24s-17.76-8.16-17.52-24.24c0-10.32,1.44-20.16,1.68-30.24.24-14.88-6.72-25.44-20.16-25.44-11.04,0-17.28,4.8-17.28,14.4,0,8.4,6.96,9.12,6.96,14.88l-.25,28.08c-.41,23.18,4.9,38.23,22.62,43.17,2.61.73,3.32,4.06,1.21,5.76-6.69,5.43-10.63,13.18-10.63,21.63,0,18.24,12.96,31.2,40.8,31.2s42.24-20.4,42.24-45.84c0-9.84-1.68-24.24-1.68-42ZM1181.54,2435.17c-.48,14.88-4.32,23.76-15.6,23.76-7.44,0-12-3.36-12-11.04,0-9.36,5.76-14.4,14.64-19.92l10.15-6.16c1.41-.86,3.22.19,3.17,1.85l-.36,11.52Z"/>
    <path class="cls-3" d="M1279.69,2324.29c20.16,0,39.6,12,39.6,33.84,0,10.8-6.24,17.52-15.84,17.52-12,0-13.68-11.04-13.68-16.32,0-6-2.88-8.16-10.08-8.16-14.64,0-21.6,10.56-21.6,25.44s5.76,27.84,20.4,27.84c17.52,0,16.32-7.2,27.84-7.2,9.36,0,13.2,7.68,13.2,14.4,0,11.04-15.12,19.68-40.56,19.68-30,0-50.64-20.64-50.64-53.76,0-26.64,17.52-53.28,51.36-53.28Z"/>
    <path class="cls-3" d="M1337.53,2281.09c0-12,6.72-17.52,15.84-17.52,10.56,0,17.52,5.52,17.52,13.68,0,9.84-1.92,15.12-1.92,29.52l-.72,84.96c0,8.4,2.4,11.76,7.2,11.76,3.12,0,4.8-1.92,9.12-1.68,4.56.24,11.04,2.88,11.04,12,0,12.48-7.92,17.76-24.48,17.76-14.16,0-31.44-6.96-31.2-34.56l.48-96.72c0-5.28-2.88-13.2-2.88-19.2Z"/>
    <path class="cls-3" d="M1473.13,2378.29c0-16.08-1.44-24.48-1.44-32.88,0-11.28,2.64-21.12,15.84-21.12s16.08,8.64,16.08,21.12c0,7.44-1.92,22.08-1.92,39.12,0,22.08,8.64,21.84,8.64,33.12,0,7.2-4.08,13.68-15.12,13.68-13.45,0-16.93-9.05-17.95-17.8-.02-.13-.18-.16-.24-.04-4.44,9.21-15.18,17.84-32.21,17.84-25.92,0-37.44-17.52-37.44-42.24,0-14.88,1.2-26.88,1.2-36.72,0-5.52-4.56-6.96-4.56-15.12,0-8.64,6.48-12.96,17.04-12.96,12,0,16.56,10.8,16.56,25.44,0,9.36-1.68,18.96-1.68,32.88s4.8,21.36,16.8,21.36c13.68,0,20.4-10.8,20.4-25.68Z"/>
    <path class="cls-3" d="M1529.53,2350.93c5.76-5.04,19.44-18.48,22.8-25.44,5.04-10.08,11.52-11.76,16.8-11.76,7.92,0,14.16,7.2,14.16,12.96,0,3.6-1.68,6.48-2.88,7.92,11.04,14.64,39.6,28.32,39.6,58.56,0,22.56-14.16,38.16-44.16,38.16-23.52,0-38.4-13.68-38.4-28.08,0-8.88,7.2-15.6,16.08-15.6,15.36,0,7.68,17.52,21.84,17.52,8.64,0,14.88-5.28,14.88-14.16,0-17.04-19.44-26.16-27.6-35.76-10.8,12.48-12.24,22.56-27.6,22.56-7.92,0-12-7.44-12-12.96,0-4.32,1.68-9.6,6.48-13.92Z"/>
    <path class="cls-3" d="M1634.65,2352.85c-8.64,0-13.2-4.8-13.2-11.52,0-8.4,3.36-14.88,13.44-14.88,3.84,0,8.16.48,11.04.48,0-6-.96-14.4-.96-21.12,0-8.4,5.76-15.6,15.12-15.6,11.76,0,17.52,5.52,17.52,15.6,0,5.28-1.92,12.48-1.92,21.12,9.36,0,17.04-.72,26.4-.72s13.2,5.04,13.2,13.2-5.52,13.68-13.2,13.68c-6,0-23.76-1.2-27.36-.96-.96,12.96-1.92,26.88-1.2,39.84.48,7.44,3.12,13.2,9.36,13.2s8.16-4.8,8.16-12.96c0-9.12,5.76-11.76,12.72-11.76,9.84,0,14.4,6,14.4,15.36,0,18.96-9.84,35.52-36.96,35.52-24.72,0-37.92-17.52-36.72-39.12.72-13.2,1.2-26.88,1.2-39.84,0,0-6.72.48-11.04.48Z"/>
  </g>
</svg>