<?xml version="1.0" encoding="UTF-8"?>
<svg id="tune" xmlns="http://www.w3.org/2000/svg" viewBox="0 0 2521 2911">
  <defs>
    <style>
      .cls-1 {
        fill: #edd6e9;
      }

      .cls-2 {
        fill: #1e4cf5;
      }

      .cls-2, .cls-3, .cls-4, .cls-5, .cls-6, .cls-7, .cls-8, .cls-9, .cls-10, .cls-11, .cls-12, .cls-13, .cls-14, .cls-15 {
        stroke-miterlimit: 10;
      }

      .cls-2, .cls-7, .cls-8, .cls-9, .cls-13, .cls-15 {
        stroke: #a554b8;
        stroke-width: 2px;
      }

      .cls-16 {
        fill: #dea56e;
      }

      .cls-17 {
        fill: #c78c59;
      }

      .cls-18 {
        fill: #ec867f;
      }

      .cls-19 {
        fill: #f1c388;
      }

      .cls-3 {
        fill: #c0384a;
        stroke-width: 6px;
      }

      .cls-3, .cls-4, .cls-5, .cls-6, .cls-10, .cls-11, .cls-12 {
        stroke: #43100c;
      }

      .cls-20 {
        fill: #a12f3c;
      }

      .cls-21 {
        fill: #e88685;
      }

      .cls-4, .cls-5, .cls-6, .cls-10, .cls-11, .cls-12 {
        fill: none;
      }

      .cls-4, .cls-12 {
        stroke-width: 10px;
      }

      .cls-5, .cls-10 {
        stroke-width: 5px;
      }

      .cls-6 {
        stroke-width: 12px;
      }

      .cls-22 {
        fill: #b84c53;
      }

      .cls-23 {
        fill: #f4e8f2;
      }

      .cls-24 {
        fill: #fbfbf0;
      }

      .cls-25 {
        fill: #fff;
      }

      .cls-7 {
        fill: #377e33;
      }

      .cls-26 {
        fill: #79202c;
      }

      .cls-27 {
        fill: #cd7073;
      }

      .cls-28 {
        fill: #43100c;
      }

      .cls-8 {
        fill: #fce800;
      }

      .cls-9 {
        fill: #d12d20;
      }

      .cls-10, .cls-11, .cls-12 {
        stroke-linecap: round;
      }

      .cls-11 {
        stroke-width: 7.5px;
      }

      .cls-13 {
        fill: #f09235;
      }

      .cls-14 {
        fill: #f2d5ea;
        stroke: #ed8edd;
        stroke-width: 15px;
      }

      .cls-29 {
        fill: #f2dbd7;
      }

      .cls-15 {
        fill: #6b1682;
      }
    </style>
  </defs>
  <polygon class="cls-23" points="2519.17 729.52 2519.17 2183.84 1857.58 2565.81 1259.7 2911 608.38 2534.96 .22 2183.84 .22 729.52 1259.7 2.36 2519.17 729.52"/>
  <path class="cls-1" d="M1259.7,2.36L.22,729.52v1454.32l1259.48,727.16,1259.47-727.16V729.52L1259.7,2.36ZM2412.1,2122.02l-1152.4,665.35L107.29,2122.02V791.34L1259.7,126l1152.4,665.34v1330.68Z"/>
  <g>
    <path class="cls-24" d="M1810.5,1705.5c-12.61,21.66-37.32,27.83-42,29-6.09,1.52-6.09.63-11,2-5.82,1.62-10.95,4.32-15.42,7.52-12.71,9.09-20.08,22.23-22.58,26.48-22.81,38.83-62.56,64.82-93,98-24.08,26.25-60.36,61.89-112,100,.16.59.33,1.19.49,1.78,1.86,6.69,3.7,13.25,5.52,19.69,12.22,43.11,23.61,80.58,33.59,112.09,6.02,19.01,11.52,35.84,16.4,50.44,3.52,10.54,7.22,21.46,10.81,33.23,3.09,10.13,6.09,20.88,8.82,32.57l.03.12c3.29,14.16,6.19,29.68,8.34,47.08.91,7.37,1.59,14.35,2.09,20.96.46,5.97.76,11.63.94,16.97,1.22,36.77-3.41,58.87-5.03,66.07-4.48,19.94-8.33,37.02-14.16,51.43-.41,1.02-.84,2.02-1.28,3.01-5.3,12.15-12.25,22.3-22.56,30.56-16.96,13.59-31.05,30.76-49,43-1.67,1.14-6.96,4.66-9,11-.38,1.16-.6,2.29-.69,3.38-.4,4.12.87,7.77,1.69,11.62,0,0,3.25,15.19-2,30-6.61,18.65-25.58,23.61-30,25-7.37,2.32-15.05,4.73-21,1-2.67-1.68-5.02-4.6-8-4-2.4.49-2.87,2.78-5,5-3.32,3.45-9.26,3.68-21,4-8.64.24-13.03.31-16-2-2.83-2.2-3.59-4.93-6-5-2.86-.08-3.65,3.71-7,6-6.29,4.29-16.54-.18-23-3-7.47-3.26-12.43-5.42-18-10-2.34-1.92-4.77-4.25-8-4-3.76.3-4.73,3.78-8,5-1.68.63-6.21,1.49-19-10-11.76-10.56-17.68-15.89-21-26-3.47-10.58-1.9-19.73-1-25,.75-4.41,2.22-12.47,8-21,3.89-5.75,8.32-9.62,11.68-12.07.46-.34.9-.65,1.32-.93-2.67-2.83-6.13-7.13-9-13-3.29-6.73-4.51-12.86-5-17-21.02,2.81-55,4.73-95-5-37.17-9.04-64.89-24.58-82-36-8.38,11.37-20.86,28.34-36,49-38.16,52.08-37.24,51.27-39,53-4.47,4.39-9.13,8.37-13.94,11.97-48.59,36.43-111.08,34.28-122.06,33.03-6.79-.77-11.52-3.18-24-4-4.31-.28-10.05-.41-16-4-2.78-1.68-4.75-3.6-6-5-1.67,1-3.33,2-5,3-5.16,1.37-16.46,3.6-30,0-12.03-3.2-20.08-9.48-24-13-.76-2.69-2.2-6.2-5-7-2.3-.66-3.82,1-6,1-5,0-9.29-8.78-11-14-6.53-19.87,6.99-40.5,8-42,4.22-6.26,11.48-11.84,26-23,12.97-9.97,19.46-14.96,26-17,5.53-1.73,10.59-2.19,36,0,12.42,1.07,22.72,2.17,30,3-1.4-.94-2.87-1.97-4.4-3.08-9.18-6.61-20.55-16.13-31.46-29.27-2.76-3.31-5.48-6.86-8.14-10.65-5.1-7.28-24.87-36.77-30.89-100.25-.45-4.73-.82-9.64-1.11-14.75-.48-8.64-1.11-24.9,1.4-51.58,1.19-12.75,3.09-27.88,6.07-45.7,1.77-10.6,3.93-22.15,6.53-34.72,1.71-8.26,3.66-17.12,5.87-26.54,7.63-32.47,18.46-71.51,34.1-115.12.99-2.76,2-5.54,3.03-8.34-4.7,1.1-11.65,2.28-20,2-26.07-.89-44.98-15.34-56-24-60.41-47.45-90.61-71.18-106-89-25.11-29.08-26.55-38.06-65-83-5.07-5.93-15.66-23.18-35-39-3.7-3.03-7.94-6.46-12.92-9.88-6.31-4.33-13.85-8.65-23.08-12.12-8.46-3.18-10.05-2.54-17-6-17.57-8.75-26.32-22.31-28-25-2.56-4.1-7.54-12.25-9-24-.22-1.79-1.03-9.02,1-19,6.72-33.09,31-53,31-53,2.47-2.03,31.61-25.15,70-19,22.11,3.54,37.56,15.23,45,21,8.84,6.85,9.5,11.39,20,20,11.11,9.1,21.32,13.97,28,17,60.89,27.6,147.2,66.72,190,77,4.38,1.05,15.2,3.46,24,12,6.76,6.56,11.45,15.88,12,17,1.95,3.93,3.2,7.42,4,10-1.5-5.56-3.44-14.75-3-26,0,0,1.79-46.05,60-93,53.67-43.29,207.41-54.63,402-18,9,27.67,18,55.33,27,83,31.98-17.16,60-30.31,82-40,53.85-23.72,80.78-35.58,101-38,8.26-.99,22.35-2.06,39-10,16.68-7.95,19.22-14.83,34-24,8.04-4.99,31.53-19.57,60-16,34.95,4.38,55.03,33.28,59,39,5.52,7.95,13.74,22.44,16,42,1.31,11.38,3.15,27.29-6,43Z"/>
    <path class="cls-29" d="M921.5,1904.5c-3.04,16.47-9.09,39.63-22,65-4.7,9.25-10.08,19.82-16.03,29.34.99-2.76,2-5.54,3.03-8.34-4.7,1.1-11.65,2.28-20,2-26.07-.89-44.98-15.34-56-24-60.41-47.45-90.61-71.18-106-89-25.11-29.08-26.55-38.06-65-83-5.07-5.93-15.66-23.18-35-39-3.7-3.03-7.94-6.46-12.92-9.88,8.17-8.35,20.01-17.35,32.92-21.12,4.7-1.37,15.61-4.4,24,1,4.29,2.76,6.3,6.68,7,8,10.11,19.09,27.38,33.47,40,51,23,31.95,50.28,69.84,96,94,36.91,19.5,74.46,24.03,95,25,14.3.67,26.33-.09,35-1Z"/>
    <path class="cls-29" d="M1742.08,1744.02c-12.71,9.09-20.08,22.23-22.58,26.48-22.81,38.83-62.56,64.82-93,98-24.08,26.25-60.36,61.89-112,100,.16.59.33,1.19.49,1.78-5.46,1.86-11.7,3.96-18.49,6.22-33.15,11.02-37.74,11.81-44,11-21.51-2.78-35.76-20.95-46-34-6.75-8.6-17.08-24.13-23-47,5.42,1.48,13.33,3.25,23,4,8.8.69,32.42,1.57,63-11,47.87-19.68,94.16-64.69,128-98,24.64-24.25,53.52-43.77,80-66,9.21-7.74,16.06-13.54,26-14,13.42-.63,27.02,8.72,38.58,22.52Z"/>
    <path class="cls-29" d="M1596.5,2369.5c-4.48,19.94-8.33,37.02-14.16,51.43-5.47,13.49-12.69,24.64-23.84,33.57-16.96,13.59-31.05,30.76-49,43-1.67,1.14-6.96,4.66-9,11-.38,1.16-.6,2.29-.69,3.38-.4,4.12.87,7.77,1.69,11.62,0,0,3.25,15.19-2,30-6.61,18.65-25.58,23.61-30,25-7.37,2.32-15.05,4.73-21,1-2.67-1.68-5.02-4.6-8-4-2.4.49-2.87,2.78-5,5-3.32,3.45-9.26,3.68-21,4-8.64.24-13.03.31-16-2-2.83-2.2-3.59-4.93-6-5-2.86-.08-3.65,3.71-7,6-6.29,4.29-16.54-.18-23-3-7.47-3.26-12.43-5.42-18-10-2.34-1.92-4.77-4.25-8-4-3.76.3-4.73,3.78-8,5-1.68.63-6.21,1.49-19-10-11.76-10.56-17.68-15.89-21-26-3.47-10.58-1.9-19.73-1-25,.75-4.41,2.22-12.47,8-21,3.89-5.75,8.32-9.62,11.68-12.07.46-.34.9-.65,1.32-.93-2.67-2.83-6.13-7.13-9-13-3.29-6.73-4.51-12.86-5-17-21.02,2.81-55,4.73-95-5-37.17-9.04-64.89-24.58-82-36-8.38,11.37-20.86,28.34-36,49-38.16,52.08-37.24,51.27-39,53-4.47,4.39-9.13,8.37-13.94,11.97-48.59,36.43-111.08,34.28-122.06,33.03-6.79-.77-11.52-3.18-24-4-4.31-.28-10.05-.41-16-4-2.78-1.68-4.75-3.6-6-5-1.67,1-3.33,2-5,3-5.16,1.37-16.46,3.6-30,0-12.03-3.2-20.08-9.48-24-13-.76-2.69-2.2-6.2-5-7-2.3-.66-3.82,1-6,1-5,0-9.29-8.78-11-14-6.53-19.87,6.99-40.5,8-42,4.22-6.26,11.48-11.84,26-23,12.97-9.97,19.46-14.96,26-17,5.53-1.73,10.59-2.19,36,0,12.42,1.07,22.72,2.17,30,3-1.4-.94-2.87-1.97-4.4-3.08-9.18-6.61-20.55-16.13-31.46-29.27,50.04,33.13,98.41,38.83,120.86,20.35,13.03-10.73,24.58-35.56,28-59,2.47-16.94.13-29.34-2-43-3.58-22.91-7.59-55.81-9-98,96,2.67,192,5.33,288,8-4.48,14.56-29.66,101.03,19,169,8.71,12.17,27.74,37.83,62,49,51.73,16.86,97.59-11.95,112-21,25.34-15.92,42.71-36.69,55.4-57.8,11.6-19.27,19.3-38.82,25.6-55.2.4-1.03.78-2.05,1.16-3.06,13.68-36.59,17.5-66.1,19.5-89.02,3.29,14.16,6.19,29.68,8.34,47.08,1.73,14.02,2.65,26.67,3.03,37.93,1.22,36.77-3.41,58.87-5.03,66.07Z"/>
    <path class="cls-25" d="M1335.5,1859.5c28.33,132.85,29.64,148.99,30,167,1.08,53.53,2.74,135.43-49,211-17.57,25.67-53.37,77.95-121,94-70.97,16.84-129.19-17.55-143-26-61.37-37.55-84.11-97.64-98-136-36.55-100.91-18.3-187.32,19-353,30.56-135.73,53.23-158.36,68-170,64.12-50.53,174.46-47.48,232,5,17.18,15.67,24.2,30.77,62,208Z"/>
    <path class="cls-19" d="M1596.5,2369.5c-4.48,19.94-8.33,37.02-14.16,51.43-14.28-13.1-27.22-32.12-38.44-55.23-9.14-18.81-17.15-40.32-23.83-63.56-5.18-18.03-9.55-37.1-13.03-56.74-4.79-27.01-7.88-55.11-9.03-83.11-.69-16.68-.68-33.32.06-49.67.62-13.63,1.75-27.05,3.43-40.12,3.77-29.4,7.78-60.58,19.01-82.53,12.22,43.11,23.61,80.58,33.59,112.09,6.02,19.01,11.52,35.84,16.4,50.44,3.52,10.54,7.22,21.46,10.81,33.23,3.09,10.13,6.09,20.88,8.82,32.57l.03.12c3.29,14.16,6.19,29.68,8.34,47.08,1.73,14.02,2.65,26.67,3.03,37.93,1.22,36.77-3.41,58.87-5.03,66.07Z"/>
    <path class="cls-17" d="M1581.31,2185.73c-22.78-2.18-48.19-8.19-69.81-17.23-1.36-.57-6.74-2.85-13.49-6.21-15.27-7.61-37.48-20.72-35.51-31.79.9-5.07,6.73-8.93,23-14,4.24-1.32,8.43-2.63,12.57-3.88,19.38-5.86,37.82-10.6,56.03-10.56,6.02,19.01,11.52,35.84,16.4,50.44,3.52,10.54,7.22,21.46,10.81,33.23Z"/>
    <path class="cls-17" d="M1601.53,2303.43c-6.16,1.38-12.25,2.41-18.03,3.07-4.24.49-8.53.79-12.84.94-17.49.59-35.24-1.49-50.59-5.3-25.19-6.26-43.95-17.19-44.57-28.64-.57-10.45,14.03-20.11,31.54-28.1,14.47-6.61,30.93-12.07,42.46-15.9,13.55-4.49,27.17-8.92,40.63-11.2l.03.12c3.29,14.16,6.19,29.68,8.34,47.08,1.73,14.02,2.65,26.67,3.03,37.93Z"/>
    <path class="cls-17" d="M879.5,2140.5c.34,12.79-17.38,22.73-25,27-5.04,2.83-11.03,5.49-17.53,7.72,1.77-10.6,3.93-22.15,6.53-34.72,1.71-8.26,3.66-17.12,5.87-26.54,14.96,6.16,29.82,15,30.13,26.54Z"/>
    <path class="cls-17" d="M851.5,2277.5c-5.43,3.5-12.76,7.12-20.89,9.75-.45-4.73-.82-9.64-1.11-14.75-.48-8.64-1.11-24.9,1.4-51.58,4.35,1.17,8.59,2.41,12.6,3.58,15.55,4.54,29.45,8.78,32,19,3.9,15.62-21.85,32.61-24,34Z"/>
    <path class="cls-24" d="M1499.5,2553.5c-6.61,18.65-25.58,23.61-30,25-7.37,2.32-15.05,4.73-21,1-2.67-1.68-5.02-4.6-8-4-2.4.49-2.87,2.78-5,5-3.32,3.45-9.26,3.68-21,4-8.64.24-13.03.31-16-2-2.83-2.2-3.59-4.93-6-5-2.86-.08-3.65,3.71-7,6-6.29,4.29-16.54-.18-23-3-7.47-3.26-12.43-5.42-18-10-2.34-1.92-4.77-4.25-8-4-3.76.3-4.73,3.78-8,5-1.68.63-6.21,1.49-19-10-11.76-10.56-17.68-15.89-21-26-3.47-10.58-1.9-19.73-1-25,.75-4.41,2.22-12.47,8-21,3.89-5.75,8.32-9.62,11.68-12.07,34.51-7.55,63.06-7.93,82.32-6.93,28.18,1.45,54.64,3.13,83,20,10.79,6.42,19.81,13.82,27.31,21.38-.4,4.12.87,7.77,1.69,11.62,0,0,3.25,15.19-2,30Z"/>
    <path class="cls-24" d="M1028.56,2519.47c-48.59,36.43-111.08,34.28-122.06,33.03-6.79-.77-11.52-3.18-24-4-4.31-.28-10.05-.41-16-4-2.78-1.68-4.75-3.6-6-5-1.67,1-3.33,2-5,3-5.16,1.37-16.46,3.6-30,0-12.03-3.2-20.08-9.48-24-13-.76-2.69-2.2-6.2-5-7-2.3-.66-3.82,1-6,1-5,0-9.29-8.78-11-14-6.53-19.87,6.99-40.5,8-42,4.22-6.26,11.48-11.84,26-23,12.97-9.97,19.46-14.96,26-17,5.53-1.73,10.59-2.19,36,0,12.42,1.07,22.72,2.17,30,3-1.4-.94-2.87-1.97-4.4-3.08,21.6,6.17,42.95,14.6,61.4,26.08,34.92,21.74,55,49,55,49,4.27,5.8,7.93,11.51,11.06,16.97Z"/>
    <path class="cls-12" d="M1117.5,2405.5s-47-20-92-73"/>
    <path class="cls-12" d="M1294.5,2446.5s-28-34-17-127"/>
    <path class="cls-12" d="M1425.5,1709.5s-39,23-47,51"/>
    <path class="cls-12" d="M1514.99,1970.28s-31.49,20.22-62.49,17.22"/>
    <path class="cls-5" d="M1728.5,2370.5c-.24,25.89-6.32,48.19-14.1,66.23-53.28,3.39-99.01-3.94-133.34-12.79.44-.99.87-1.99,1.28-3.01,5.83-14.41,9.68-31.49,14.16-51.43,1.62-7.2,6.25-29.3,5.03-66.07-.18-5.34-.48-11-.94-16.97,6.71,3.21,14.02,6.28,21.91,9.04,11.61,4.07,43.85,14.27,85,12,3.07-.17,6.09-.4,9.08-.7,7.18,18.13,12.14,39.48,11.92,63.7Z"/>
    <path class="cls-17" d="M2053.5,2198.5c-8.61,37.27-26.86,62.13-44,85-13.14,17.53-38.32,47.69-79,77-81.37,58.62-166.05,71.51-201,75-59.75,5.97-110.91-1.88-148.44-11.56.44-.99.87-1.99,1.28-3.01,5.83-14.41,9.68-31.49,14.16-51.43,1.62-7.2,6.25-29.3,5.03-66.07-.18-5.34-.48-11-.94-16.97,6.71,3.21,14.02,6.28,21.91,9.04,11.61,4.07,43.85,14.27,85,12,92.96-5.12,151.67-69.45,161-80,16.96-19.18,39.61-45.48,47-81,1.28-6.14,2.29-13.49,7-23,6.73-13.57,23.09-35.76,52-42,26.22-5.66,53.85,3.74,70,22,24.54,27.75,15.31,67.71,9,95Z"/>
    <path class="cls-19" d="M1917.51,2369.45c-77.24,51.01-154.92,62.75-188.01,66.05-5.1.51-10.13.92-15.1,1.23,7.78-18.04,13.86-40.34,14.1-66.23.22-24.22-4.74-45.57-11.92-63.7,53.3-5.23,94.59-29.62,120.81-50.24,22.59,15.22,46.08,37.29,63.11,68.94,8.18,15.2,13.54,30.14,17.01,43.95Z"/>
    <path class="cls-24" d="M2053.5,2198.5c-4.02,17.44-10.17,32.16-17.31,45.23-5.28-10.22-12.31-20.6-21.69-30.23-26.64-27.36-65.33-41.6-107.4-41.33,3.58-7.97,6.49-16.51,8.4-25.67,1.28-6.14,2.29-13.49,7-23,6.73-13.57,23.09-35.76,52-42,26.22-5.66,53.85,3.74,70,22,24.54,27.75,15.31,67.71,9,95Z"/>
    <path class="cls-12" d="M1440.5,2575.5s10-28,6-68"/>
    <path class="cls-12" d="M1392.5,2577.5s-2.98-18-2.49-70"/>
    <path class="cls-12" d="M1336.5,2566.5s-5-5-5-65"/>
    <path class="cls-12" d="M796.5,2522.5s-12-51,40-71"/>
    <path class="cls-12" d="M860.5,2539.5s-22.01-36.8,23.49-69.4"/>
    <path class="cls-4" d="M1810.5,1705.5c-12.61,21.66-37.32,27.83-42,29-6.09,1.52-6.09.63-11,2-5.82,1.62-10.95,4.32-15.42,7.52-12.71,9.09-20.08,22.23-22.58,26.48-22.81,38.83-62.56,64.82-93,98-24.08,26.25-60.36,61.89-112,100h0c2.03,7.31,4.03,14.46,6.01,21.47,12.22,43.11,23.61,80.58,33.59,112.09,6.02,19.01,11.52,35.84,16.4,50.44,3.52,10.54,7.22,21.46,10.81,33.23,3.09,10.13,6.09,20.88,8.82,32.57l.03.12c3.29,14.16,6.19,29.68,8.34,47.08.91,7.37,1.59,14.35,2.09,20.96.46,5.97.76,11.63.94,16.97,1.22,36.77-3.41,58.87-5.03,66.07-4.48,19.94-8.33,37.02-14.16,51.43-.41,1.02-.84,2.02-1.28,3.01-5.3,12.15-12.25,22.3-22.56,30.56-16.96,13.59-31.05,30.76-49,43-1.67,1.14-6.96,4.66-9,11-.38,1.16-.6,2.29-.69,3.38-.4,4.12.87,7.77,1.69,11.62,0,0,3.25,15.19-2,30-6.61,18.65-25.58,23.61-30,25-7.37,2.32-15.05,4.73-21,1-2.67-1.68-5.02-4.6-8-4-2.4.49-2.87,2.78-5,5-3.32,3.45-9.26,3.68-21,4-8.64.24-13.03.31-16-2-2.83-2.2-3.59-4.93-6-5-2.86-.08-3.65,3.71-7,6-6.29,4.29-16.54-.18-23-3-7.47-3.26-12.43-5.42-18-10-2.34-1.92-4.77-4.25-8-4-3.76.3-4.73,3.78-8,5-1.68.63-6.21,1.49-19-10-11.76-10.56-17.68-15.89-21-26-3.47-10.58-1.9-19.73-1-25,.75-4.41,2.22-12.47,8-21,3.89-5.75,8.32-9.62,11.68-12.07.46-.34.9-.65,1.32-.93-2.67-2.83-6.13-7.13-9-13-3.29-6.73-4.51-12.86-5-17-21.02,2.81-55,4.73-95-5-37.17-9.04-64.89-24.58-82-36-8.38,11.37-20.86,28.34-36,49-38.16,52.08-37.24,51.27-39,53-4.47,4.39-9.13,8.37-13.94,11.97-48.59,36.43-111.08,34.28-122.06,33.03-6.79-.77-11.52-3.18-24-4-4.31-.28-10.05-.41-16-4-2.78-1.68-4.75-3.6-6-5-1.67,1-3.33,2-5,3-5.16,1.37-16.46,3.6-30,0-12.03-3.2-20.08-9.48-24-13-.76-2.69-2.2-6.2-5-7-2.3-.66-3.82,1-6,1-5,0-9.29-8.78-11-14-6.53-19.87,6.99-40.5,8-42,4.22-6.26,11.48-11.84,26-23,12.97-9.97,19.46-14.96,26-17,5.53-1.73,10.59-2.19,36,0,11.01.95,20.35,1.92,27.4,2.71.68.08,1.01-.79.45-1.18-.73-.51-1.48-1.05-2.25-1.6-9.18-6.61-20.55-16.13-31.46-29.27-2.76-3.31-5.48-6.86-8.14-10.65-5.1-7.28-24.87-36.77-30.89-100.25-.45-4.73-.82-9.64-1.11-14.75-.48-8.64-1.11-24.9,1.4-51.58,1.19-12.75,3.09-27.88,6.07-45.7,1.77-10.6,3.93-22.15,6.53-34.72,1.71-8.26,3.66-17.12,5.87-26.54,7.63-32.47,18.46-71.51,34.1-115.12.8-2.23,1.62-4.48,2.44-6.74.25-.69-.34-1.38-1.05-1.23-4.61.98-10.93,1.88-18.36,1.63-26.07-.89-44.98-15.34-56-24-60.41-47.45-90.61-71.18-106-89-25.11-29.08-26.55-38.06-65-83-5.07-5.93-15.66-23.18-35-39-3.7-3.03-7.94-6.46-12.92-9.88-6.31-4.33-13.85-8.65-23.08-12.12-8.46-3.18-10.05-2.54-17-6-17.57-8.75-26.32-22.31-28-25-2.56-4.1-7.54-12.25-9-24-.22-1.79-1.03-9.02,1-19,6.72-33.09,31-53,31-53,2.47-2.03,31.61-25.15,70-19,22.11,3.54,37.56,15.23,45,21,8.84,6.85,9.5,11.39,20,20,11.11,9.1,21.32,13.97,28,17,60.89,27.6,147.2,66.72,190,77,4.38,1.05,15.2,3.46,24,12,6.76,6.56,9.86,16.43,10.5,17.5,1.5,2.5,2.37,4.19,5.08,8.79.1.17.36.09.34-.11-.68-5.57-3.33-14.47-2.91-25.19,0,0,1.79-46.05,60-93,53.67-43.29,207.41-54.63,402-18,9,27.67,18,55.33,27,83,31.98-17.16,60-30.31,82-40,53.85-23.72,80.78-35.58,101-38,8.26-.99,22.35-2.06,39-10,16.68-7.95,19.22-14.83,34-24,8.04-4.99,31.53-19.57,60-16,34.95,4.38,55.03,33.28,59,39,5.52,7.95,13.74,22.44,16,42,1.31,11.38,3.15,27.29-6,43Z"/>
    <path class="cls-4" d="M2053.5,2198.5c-8.61,37.27-26.86,62.13-44,85-13.14,17.53-38.32,47.69-79,77-81.37,58.62-166.05,71.51-201,75-59.75,5.97-110.91-1.88-148.44-11.56.44-.99.87-1.99,1.28-3.01,5.83-14.41,9.68-31.49,14.16-51.43,1.62-7.2,6.25-29.3,5.03-66.07-.18-5.34-.48-11-.94-16.97,6.71,3.21,14.02,6.28,21.91,9.04,11.61,4.07,43.85,14.27,85,12,92.96-5.12,151.67-69.45,161-80,16.96-19.18,39.61-45.48,47-81,1.28-6.14,2.29-13.49,7-23,6.73-13.57,23.09-35.76,52-42,26.22-5.66,53.85,3.74,70,22,24.54,27.75,15.31,67.71,9,95Z"/>
  </g>
  <g>
    <path class="cls-19" d="M1460.5,1314.5c.83,10.3,32.58,16.82,67.38,20.19,18.39,1.78,37.64,2.69,53.62,2.81,24.43.19,51.55-1.38,77.04-4.56,21.09-2.63,41.06-6.36,57.47-11.11,1.93,5.71,3.69,11.7,5.19,17.95-14.63,2.68-33.45,8.23-59.78,14.45-12.75,3.02-27.27,6.19-43.92,9.27-15.62,2.89-29.55,5.04-41.85,6.71-49.79,6.77-72.98,5.7-74.15,14.29-2.08,15.28,68.73,37.81,121,48,8.28,1.61,17.12,3.34,26.24,4.97-6.31,16.48-15.83,33.63-30.24,49.03-23.15,24.72-49.1,34.48-76,44-96.28,34.09-144.42,51.13-211,64-107.35,20.75-161.03,31.12-229,29-48.78-1.52-139.41-5.22-238-51-78.82-36.6-87.69-65.26-163-114-13.2-8.54-28.44-17.7-44.98-26.92-4.67-13.1-8.54-27.3-11.13-42.59-1-5.84-1.8-11.84-2.39-17.99-.52-5.43-1.18-12.34-1.56-20.37-1.16-25.26.55-61.69,18.56-98.63.15-.31.31-.62.46-.94,1.87-3.7,4.26-7.78,7.26-12.4,9.19-14.17,24.08-33.38,46.75-61.9,5.1-6.43,10.61-13.33,16.53-20.76,14.14-17.72,25.97-32.22,34-42-11.13-53.83-21.93-140.57-3-244,14.06-76.83,39.93-137.77,62-180,43.93,19.74,96.19,47.6,151,87,46.4,33.36,84.12,67.43,114,98,5.89-2.56,13.47-5.64,22.54-8.79,32.82-11.4,85.24-23.69,148.46-15.21,29.45,3.95,55.25,11.59,76.98,20.37,28.71,11.58,50.36,25.1,64.02,34.63.47-.37.94-.74,1.42-1.1,38.6-30.02,90.03-64.5,154.58-94.9,71.06-33.47,136.14-51.67,187-62,13.36,65.43,25.6,165.52,8,285-13.47,91.49-40.25,165.82-64.53,219.44-14.45-.91-33.03.53-58.79,5.52-16.74,3.24-36.52,7.97-60.18,14.54-37.26,10.34-66.05,18.32-84.5,25.34-15.72,5.97-23.94,11.24-23.5,16.66Z"/>
    <path class="cls-16" d="M1752,1033c-13.47,91.49-40.25,165.82-64.53,219.44-14.45-.91-33.03.53-58.79,5.52-8.8-17.3-19.72-37.43-33.18-61.46-53.12-94.89-79.69-142.33-118-196-30.83-43.19-55.59-73.41-75.08-95.6,38.6-30.02,90.03-64.5,154.58-94.9,71.06-33.47,136.14-51.67,187-62,13.36,65.43,25.6,165.52,8,285Z"/>
    <path class="cls-18" d="M958.5,941.5c-3.94,2.38-7.87,4.77-11.78,7.19-3.73,2.3-7.45,4.62-11.15,6.97-38.03,24-74.18,49.97-105.51,79.53-17.54,16.55-33.56,34.22-47.56,53.31-5.64-51.25-9.09-123.23,2-208,4.23-32.32,21.34-163.12,54-165,3.54-.2,7.07,1.11,12.45,7.77,9.66,11.93,25.28,41.01,57.55,109.23,21.55,45.56,38.61,83.38,50,109Z"/>
    <path class="cls-18" d="M1720.5,973.5c-21.16,96.18-63.06,165.72-91,205-4.04-8.27-8.4-16.81-13.11-25.6-11.71-21.88-25.55-45.23-41.89-69.4-20.97-31.01-42.24-57.71-62.25-80.35-1.65-1.88-3.3-3.72-4.94-5.54-.94-1.05-1.88-2.08-2.81-3.11,16.44-34.75,46.21-86.75,98-137,32.29-31.33,64.8-53.88,92.67-69.96,11.72-6.77,22.62-12.39,32.33-17.04,6.75,45.56,11.75,117.77-7,203Z"/>
    <path class="cls-22" d="M935.57,955.66c-38.03,24-74.18,49.97-105.51,79.53-1.17-4.64-2.34-9.56-3.56-14.69-4.8-20.13-3.33-27.04,0-29,3.18-1.87,6.46,1.72,16,3,4.88.65,16.13,2.16,22-3,5.84-5.14,2.27-13.31,3-37,.55-17.98.93-27.03,6-30,6.62-3.88,16.76,4.08,36,16,6.93,4.3,15.66,9.49,26.07,15.16Z"/>
    <path class="cls-22" d="M1628.5,1121.5c-1.66,5.6-5.63,19.04-12.11,31.4-11.71-21.88-25.55-45.23-41.89-69.4-20.97-31.01-42.24-57.71-62.25-80.35,13.21-8.25,29.03-12.29,39.25-7.65,2.15.98,9.76,4.44,13,12,3.8,8.88-1.4,16.5,2,19,3.57,2.62,10.37-4.97,25-10,8.37-2.88,20.25-6.97,26-2,8.4,7.25-.01,30.51-2,36-6.38,17.65-15.19,25.01-12,30,3.73,5.85,17.37-1.78,25,5,8.43,7.49,2.79,26.56,0,36Z"/>
    <path class="cls-27" d="M1695.17,787.54c-9.29,28.29-23.8,60.56-46.67,92.96-45.57,64.57-102.97,99.36-141.19,117.11-.94-1.05-1.88-2.08-2.81-3.11,16.44-34.75,46.21-86.75,98-137,32.29-31.33,64.8-53.88,92.67-69.96Z"/>
    <path class="cls-24" d="M1648.74,1437.47c-6.31,16.48-15.83,33.63-30.24,49.03-23.15,24.72-49.1,34.48-76,44-96.28,34.09-144.42,51.13-211,64-107.35,20.75-161.03,31.12-229,29-48.78-1.52-139.41-5.22-238-51-78.82-36.6-87.69-65.26-163-114-13.2-8.54-28.44-17.7-44.98-26.92-4.67-13.1-8.54-27.3-11.13-42.59,39.46-26.87,76.76-56.42,104.11-85.49,16-17-3-42,44-102,27.26-34.8,49.43-47.74,80-57,12.41-3.76,66.97-20.29,103,6,11.86,8.66,19.26,20.17,32,19,16.27-1.49,26.19-22.25,27-24,8.28-17.9.05-27.79,2-51,2.73-32.41,22.87-61.7,33-60,10.35,1.74,8.05,35.47,21,38,7.42,1.45,11.11-9.06,28-20,14.73-9.54,38.64-18.86,47-11,8.73,8.22-3.64,31.31,3,35,5.9,3.28,17.26-14.07,25-11,3.95,1.56,7.18,8.53,5,45-2.54,42.53-8.34,56.71,0,65,7.42,7.37,20.15,4.27,35,2,0,0,46.72-7.14,100,1,41.03,6.27,68.83,30.54,98,56,33.94,29.63,40.51,48.08,51.5,63.34-15.72,5.97-23.94,11.24-23.5,16.66.83,10.3,32.58,16.82,67.38,20.19,14.66,10.87,30.84,22.93,47.77,35.52-49.79,6.77-72.98,5.7-74.15,14.29-2.08,15.28,68.73,37.81,121,48,8.28,1.61,17.12,3.34,26.24,4.97Z"/>
    <path class="cls-27" d="M958.5,941.5c-3.94,2.38-7.87,4.77-11.78,7.19-27.1-29.24-48.69-65.57-50.22-68.19-21.2-36.27-52.32-107.21-45.55-157.23,9.66,11.93,25.28,41.01,57.55,109.23,21.55,45.56,38.61,83.38,50,109Z"/>
    <path class="cls-28" d="M923.5,1147.5c17.96,2.21,55.88,15.27,70,18,1.56.3,5.31.96,7-1,1.72-1.99.45-5.7,0-7-2.79-8.12-34.16-30.04-75-32-61.12-2.93-98.02,31.9-105,40-1.93,2.24-7.58,8.79-6,11,1.56,2.18,9.38-.97,12-2,50.1-19.79,75.16-29.69,97-27Z"/>
    <path class="cls-28" d="M1339.5,1166.5c-67.43-15.66-110.92-1.02-120,10-1.52,1.84-6.53,7.92-5,10,1.41,1.92,7.73-.53,9-1,13.51-4.96,70.69-10.6,111,3,30.52,10.3,61.2,34.95,99,54,3.49,1.76,11.96,5.94,15,3,2.97-2.88-.73-11.15-2-14-5.89-13.18-34.83-48.24-107-65Z"/>
    <path class="cls-3" d="M1094.5,1146.5c16.12.9,43.4,7.67,46,22,3.11,17.16-29.17,45.33-60,41-22.63-3.18-45.06-23.94-42-40,3.3-17.33,35.32-24.16,56-23Z"/>
    <path class="cls-10" d="M958.5,1248.69c13.15,19.12,27.76,27.16,42.08,28.7,39,4.19,75.92-39.89,75.92-39.89l4-28"/>
    <path class="cls-10" d="M1220.5,1262.5c-10.54,8.3-20.68,14.17-30.35,18.06-68.37,27.54-113.65-43.06-113.65-43.06"/>
    <path class="cls-26" d="M1192.4,1362.56c-1.36,13.54-4.06,27.76-8.9,42.94-.68,2.12-1.35,4.23-2.04,6.35-8.97,27.81-19.24,55.05-46.96,71.65-3.31,1.98-41.61,24.1-79,7-20.93-9.57-31.86-26.99-39.29-41.51-1.34-2.61-2.56-5.13-3.71-7.49-3.08-6.35-7.29-16.19-10.1-39.59-2.14-17.81-3.47-43.46-2.9-81.41.26-17.75.5-31.91,1.08-43.11,39,4.19,75.92-39.89,75.92-39.89,0,0,45.28,70.6,113.65,43.06.44,5.19.88,10.82,1.35,16.94,1.59,20.59,3.22,41.82.9,65.06Z"/>
    <path class="cls-20" d="M1162.5,1351.5c-29.64-10.83-45.39-12.42-60-11-33.13,3.22-55.82,21.46-71,34-4.18,3.46-16.41,13.56-29.1,27.41,2.81,23.4,7.02,33.24,10.1,39.59,1.15,2.36,2.37,4.88,3.71,7.49,7.43,14.52,18.36,31.94,39.29,41.51,37.39,17.1,75.69-5.02,79-7,27.72-16.6,37.99-43.84,46.96-71.65.69-2.12,1.36-4.23,2.04-6.35,4.84-15.18,7.54-29.4,8.9-42.94-9.26-3.52-19.22-7.16-29.9-11.06Z"/>
    <path class="cls-21" d="M1181.46,1411.85c-8.97,27.81-19.24,55.05-46.96,71.65-3.31,1.98-41.61,24.1-79,7-20.93-9.57-31.86-26.99-39.29-41.51,6.26-14.58,15.91-28.32,27.29-38.49,24.67-22.06,53.96-24.25,64-25,28.19-2.11,49.56,6,59,11,5.12,2.71,10.18,8.27,14.96,15.35Z"/>
    <path class="cls-17" d="M808.5,1219.5c-1.08,13.93-69.14,18.5-77,19-16.97,1.07-40.41,1.47-63.78.16,9.19-14.17,24.08-33.38,46.75-61.9,11.97,4.61,26.13,10.15,43.03,16.74,39.42,15.38,51.46,20.04,51,26Z"/>
    <path class="cls-17" d="M692.5,1341.5c-17.37,3.58-34.77,7.16-51.06,9.13-1.16-25.26.55-61.69,18.56-98.63.15-.31.31-.62.46-.94,16.37,3.3,34.97,7.58,56.04,12.44,49.44,11.39,79.07,18.22,80,31,1.46,20.12-69.39,39.87-104,47Z"/>
    <path class="cls-17" d="M1716.01,1321.83c-16.41,4.75-36.38,8.48-57.47,11.11-25.49,3.18-52.61,4.75-77.04,4.56-15.98-.12-35.23-1.03-53.62-2.81-34.8-3.37-66.55-9.89-67.38-20.19-.44-5.42,7.78-10.69,23.5-16.66,18.45-7.02,47.24-15,84.5-25.34,23.66-6.57,43.44-11.3,60.18-14.54,25.76-4.99,44.34-6.43,58.79-5.52-1.16,2.57-2.32,5.09-3.47,7.56,7.55,10.51,22.06,32.36,32.01,61.83Z"/>
    <path class="cls-17" d="M1336.98,871.37c-9.97,11.02-26.19,27.79-52.48,54.13-32.1,32.17-52.03,51.37-62,46-9.38-5.05-3.53-28.42-10-30-6.12-1.5-13.48,18.85-34,45-13.89,17.7-25.36,32.31-35,30-11.83-2.83-16.24-30.02-16-48,.44-32.91,16.71-55.01,12-58-3.32-2.11-13.57,7.49-28,21-16.13,15.1-21.09,22.31-24,21-4.85-2.18.36-26.06,6-43,2.91-8.72,8.39-25.19,18.04-43.29,32.82-11.4,85.24-23.69,148.46-15.21,29.45,3.95,55.25,11.59,76.98,20.37Z"/>
    <path class="cls-17" d="M1010,983c5.71,3.68,3.15,17.82,0,26-6,15.56-21.81,29.48-29,26-6.72-3.26-6.64-22.11,1-35,7.01-11.82,21.79-21,28-17Z"/>
    <path class="cls-17" d="M1314,1009c8.84,2.3,12.58,15.72,12,25-.82,13.21-11.03,27.99-21,27-9.96-.99-18.01-17.56-15-31,2.65-11.84,14.39-23.5,24-21Z"/>
    <path class="cls-17" d="M1725,1407c-1.88,14.37-5.3,26.92-9.46,38.09-13.81-.14-28.61-1.65-43.3-3.77-7.93-1.14-15.82-2.46-23.5-3.85-9.12-1.63-17.96-3.36-26.24-4.97-52.27-10.19-123.08-32.72-121-48,1.17-8.59,24.36-7.52,74.15-14.29,12.3-1.67,26.23-3.82,41.85-6.71,16.65-3.08,31.17-6.25,43.92-9.27,26.33-6.22,45.15-11.77,59.78-14.45,4.81,20.04,7,42.75,3.8,67.22Z"/>
    <path class="cls-29" d="M1715.54,1445.09c-2.77,7.46-5.87,14.31-9.07,20.66-3.48,6.95-7.08,13.31-10.47,19.25-44.21,77.58-114.98,114.95-160,138-44.59,22.83-80.32,33.11-119,44-113.77,32.04-207.25,33.32-242,33-46.39-.43-123.96-1.73-219-31-73.64-22.67-170.24-52.42-243-142-15.1-18.59-40.46-50.53-56.48-95.42,16.54,9.22,31.78,18.38,44.98,26.92,75.31,48.74,84.18,77.4,163,114,98.59,45.78,189.22,49.48,238,51,67.97,2.12,121.65-8.25,229-29,66.58-12.87,114.72-29.91,211-64,26.9-9.52,52.85-19.28,76-44,14.41-15.4,23.93-32.55,30.24-49.03,7.68,1.39,15.57,2.71,23.5,3.85,14.69,2.12,29.49,3.63,43.3,3.77Z"/>
    <path class="cls-16" d="M1721.2,1339.78c-14.63,2.68-33.45,8.23-59.78,14.45-.38-6.96-1.3-13.93-2.88-21.29,21.09-2.63,41.06-6.36,57.47-11.11,1.93,5.71,3.69,11.7,5.19,17.95Z"/>
    <path class="cls-11" d="M867.86,1262.22s-175.36-65.72-346.36-91.72"/>
    <path class="cls-11" d="M831.6,1277.67s-162.1-17.17-354.1,25.83"/>
    <path class="cls-11" d="M840.68,1303.5s-140.18,12-337.18,100"/>
    <path class="cls-11" d="M1358.3,1286.94s265.2-8.44,433.2,89.56"/>
    <path class="cls-11" d="M1358.3,1314.36s259.2,32.14,413.2,156.14"/>
    <path class="cls-11" d="M1371.92,1353.5s267.73,69.07,361.66,204.53"/>
    <path class="cls-5" d="M1192.4,1362.56c-1.36,13.54-4.06,27.76-8.9,42.94-.68,2.12-1.35,4.23-2.04,6.35-8.97,27.81-19.24,55.05-46.96,71.65-3.31,1.98-41.61,24.1-79,7-20.93-9.57-31.86-26.99-39.29-41.51-1.34-2.61-2.56-5.13-3.71-7.49-3.08-6.35-7.29-16.19-10.1-39.59-2.14-17.81-3.47-43.46-2.9-81.41.26-17.75.5-31.91,1.08-43.11,39,4.19,75.92-39.89,75.92-39.89,0,0,45.28,70.6,113.65,43.06.44,5.19.88,10.82,1.35,16.94,1.59,20.59,3.22,41.82.9,65.06Z"/>
    <path class="cls-10" d="M838.5,715.5c3.54-.2,7.07,1.11,12.45,7.77,9.66,11.93,25.28,41.01,57.55,109.23,21.55,45.56,38.61,83.38,50,109-3.94,2.38-7.87,4.77-11.78,7.19-3.73,2.3-7.45,4.62-11.15,6.97-38.03,24-74.18,49.97-105.51,79.53-17.54,16.55-33.56,34.22-47.56,53.31"/>
    <path class="cls-10" d="M1629.5,1178.5c-4.04-8.27-8.4-16.81-13.11-25.6-11.71-21.88-25.55-45.23-41.89-69.4-20.97-31.01-42.24-57.71-62.25-80.35-1.65-1.88-3.3-3.72-4.94-5.54-.94-1.05-1.88-2.08-2.81-3.11,16.44-34.75,46.21-86.75,98-137,32.29-31.33,64.8-53.88,92.67-69.96,11.72-6.77,22.62-12.39,32.33-17.04"/>
    <path class="cls-6" d="M1687.47,1252.44c-1.16,2.57-2.32,5.09-3.47,7.56,7.55,10.51,22.06,32.36,32.01,61.83,1.93,5.71,3.69,11.7,5.19,17.95,4.81,20.04,7,42.75,3.8,67.22-1.88,14.37-5.3,26.92-9.46,38.09-2.77,7.46-5.87,14.31-9.07,20.66-3.48,6.95-7.08,13.31-10.47,19.25-44.21,77.58-114.98,114.95-160,138-44.59,22.83-80.32,33.11-119,44-113.77,32.04-207.25,33.32-242,33-46.39-.43-123.96-1.73-219-31-73.64-22.67-170.24-52.42-243-142-19.51-24.02-56.14-70.3-67.61-138.01-1-5.84-1.8-11.84-2.39-17.99-.52-5.43-1.18-12.34-1.56-20.37-1.16-25.26.55-61.69,18.56-98.63.15-.31.31-.62.46-.94,1.87-3.7,4.26-7.78,7.26-12.4,9.19-14.17,24.08-33.38,46.75-61.9,5.1-6.43,10.61-13.33,16.53-20.76,14.14-17.72,25.97-32.22,34-42-11.13-53.83-21.93-140.57-3-244,14.06-76.83,39.93-137.77,62-180,43.93,19.74,96.19,47.6,151,87,46.4,33.36,84.12,67.43,114,98,5.89-2.56,13.47-5.64,22.54-8.79,32.82-11.4,85.24-23.69,148.46-15.21,29.45,3.95,55.25,11.59,76.98,20.37,28.71,11.58,50.36,25.1,64.02,34.63,38.76-30.27,90.66-65.23,156-96,71.06-33.47,136.14-51.67,187-62,13.36,65.43,25.6,165.52,8,285-13.47,91.49-40.25,165.82-64.53,219.44Z"/>
  </g>
  <path class="cls-15" d="M2285.86,1170c4.67,1.77,35.13,13.92,48.02,48.02,13.14,34.75-2.47,64.55-4.8,68.82.39-5.47,1.5-29.73-16.01-49.62-9.04-10.27-19.43-15.25-25.61-17.61-12.27,51.22-24.54,102.44-36.81,153.65-7.07,35.7-36.55,60.04-67.22,59.22-24.11-.64-52.46-16.91-57.62-44.82-5.65-30.56,18.98-61.61,49.62-65.62,21.89-2.87,44.45,8.38,57.62,28.81,17.61-60.29,35.21-120.58,52.82-180.86Z"/>
  <path class="cls-2" d="M2187.5,837.5c-36.67,60-73.33,120-110,180-19.53,30.2-59.3,36-83,17-22.36-17.93-25.23-53.78-10-72,17.56-21.01,62.57-22.62,93,11,24.67-37.67,49.33-75.33,74-113-15.67-19.33-31.33-38.67-47-58-9,15.33-18,30.67-27,46-3-2.33-6-4.67-9-7,18.33-34,36.67-68,55-102,21.33,32.67,42.67,65.33,64,98Z"/>
  <path class="cls-7" d="M1659.5,530.5c-31.67-16.33-63.33-32.67-95-49-13,55.33-26,110.67-39,166-6.97,43.43-43.76,71.79-79,68-27.66-2.97-54.68-25.78-58-55-4.32-38.08,33.3-72.07,70-72,31.36.06,51.8,24.98,55,29,19.67-73.67,39.33-147.33,59-221,46,28.67,92,57.33,138,86-26.67,46.33-53.33,92.67-80,139l-6-6c11.67-28.33,23.33-56.67,35-85Z"/>
  <path class="cls-8" d="M1095.5,488.5c10.67,13.33,21.33,26.67,32,40,3.32,5.39,7.82,14.35,9,26,1.4,13.73-2.54,24.09-8,38-4.18,10.64-11.18,25.59-23,42-2.35,18.64-17.48,31.62-33,31-12.65-.51-26.35-10.07-28-24-1.89-15.99,13.02-29.97,28-31,13.11-.91,22.42,8.37,24,10,5.33-8,10.67-16,16-24,1.68-2.12,9.47-12.41,8-27-1.68-16.7-14.14-25.7-16-27-5-5.67-10-11.33-15-17-21.67,45.33-43.33,90.67-65,136-14.15,11.84-33.76,12.76-47,3-11.76-8.67-19.54-26.52-12-41,6.97-13.37,23.6-17.33,36-15,17,3.19,24.97,18,26,20,22.67-46.67,45.33-93.33,68-140Z"/>
  <path class="cls-13" d="M549.5,597.5c40.67.33,81.33.67,122,1,1.32-.24,10.94-1.81,19,5,9.04,7.63,8.1,19,8,20,.84,21.15.34,45.78-3,73-2.44,19.9-6.01,37.98-10,54-2.33-1-4.67-2-7-3,1.62-15.25,2.51-32.36,2-51-.29-10.59-1-20.61-2-30-.74-1.61-2.47-4.75-6-7-7.11-4.53-15.12-1.37-16-1l-81,3c7,41.67,14,83.33,21,125,2.77,11.31,10.2,47.87-10,79-7.84,12.08-16.59,18.34-19,20-15.11,10.4-44.02,20.88-67,6-19.43-12.58-22.57-35.48-23-39-4.42-36.39,29.94-59.97,33-62,6.1-4.04,22.91-15.19,44-11,11.6,2.31,19.75,8.31,24,12-9.67-64.67-19.33-129.33-29-194Z"/>
  <path class="cls-9" d="M217.5,1191.5c40.33,38.67,80.67,77.33,121,116,20.85,25.97,22.34,61.03,5,85-14.65,20.26-44.3,34.77-70,24-29.09-12.19-37.98-50.41-29-78,10.88-33.42,45.62-44.03,49-45-46-46.33-92-92.67-138-139-.41-.38-4.88-4.65-4-11,.63-4.5,3.7-8.33,8-10,42.67-25.33,85.33-50.67,128-76,2.49-1.05,8.01-2.98,15-2,5.07.71,8.84,2.66,11,4,13.34,17.23,28.48,39.86,42,68,12.09,25.17,19.88,48.49,25,68-3.33.67-6.67,1.33-10,2-3.52-10.85-8.83-23.99-17-38-10.57-18.11-22.38-31.6-32-41-34.67,24.33-69.33,48.67-104,73Z"/>
  <g>
    <path class="cls-14" d="M172.94,2023.16c-7.13-3.94-12.03-14.3-6.54-24.23,8.17-14.76,18.11-15.91,26.51-11.26,3.05,1.69,5.83,3.89,8.37,5.3,2.68-4.84,5.51-13.57,9.6-20.95,5.21-9.42,16.47-17.15,31.99-8.56,18.07,10,18.23,21.72,13.72,29.87-4.79,8.65-10.48,14.14-14.85,22.03,8.65,4.79,16.2,7.97,25.36,13.04,12.47,6.9,13.56,15.15,6.8,27.36-6.34,11.45-16.36,14.55-26.79,8.77s-18.27-11.44-25.39-15.38c-6.85,11.17-15.1,21.89-20.42,33.91-1.44,3.2-3.6,8.31,1.74,11.27,4.58,2.53,8.53,1.4,11.49-3.95,4.93-8.91,13.23-8.3,21.63-3.65,14,7.74,15.29,17.43,9.79,27.36-11.69,21.12-33.59,34.27-66.67,15.96-31.05-17.18-34.12-43.47-17.69-68.96,7.1-11.03,14.2-22.06,20.03-33.79,0,0-4.35-1.74-8.68-4.14Z"/>
    <path class="cls-14" d="M343.03,2139.88c4.93-8.91,8.78-20.07,13.99-29.49,6.9-12.47,17.84-25.03,35.91-15.03,19.6,10.84,15.21,25.37,7.61,39.11-4.65,8.4-15.84,23.81-23.86,38.32-8.17,14.76-6.06,23.57-13.1,36.3-5.07,9.16-13.56,16.1-28.58,7.79-16.29-9.01-16.25-19.3-11.18-31.45-11,7.87-29.28,9.06-45.57.05-30.03-16.62-30.27-42.01-12.67-73.82,6.76-12.22,13.49-23.78,19.97-35.49,3.38-6.11-.13-9.38,4.94-18.54,4.79-8.65,16.93-9.58,29.15-2.82,16.29,9.01,16.31,23.98,7.3,40.27-3.8,6.87-11.92,17.34-17.69,27.77-8.31,15.02-7.19,25.61,1.97,30.68,10.94,6.06,21.82,4.43,31.81-13.64Z"/>
    <path class="cls-14" d="M440.58,2207.48c-6.48,11.71-6.58,20.3-11.79,29.71-6.9,12.47-16.18,22.63-34.75,12.35-18.32-10.14-16.88-22.97-9.27-36.71,4.65-8.4,17.89-26.33,25.78-40.58,16.05-29.01,5.63-25.8,12.68-38.53,5.63-10.18,18.57-11.33,28.75-5.7,16.29,9.01,18.57,19.91,14.4,29.24,11.6-6.55,25.3-7.28,42.1,2.02,32.58,18.02,29.86,48.76,12.51,80.72l-14.25,26.35c-3.38,6.11-1.76,10.99-6.83,20.15-5.91,10.69-16.02,12.74-29.26,5.42-20.36-11.27-19.37-25.67-10.36-41.96,4.51-8.14,10.65-15.05,15.16-23.19,8.59-15.52,12.75-27.85-.23-35.03-14.76-8.17-25.34-1.06-34.63,15.74Z"/>
    <path class="cls-14" d="M628.34,2225.6c24.18,13.38,38.31,36.49,22.97,64.23-10.56,19.09-29.45,25.59-53.88,12.07-18.83-10.42-22.41-21.38-17.2-30.79,4.79-8.65,14.54-8.25,18.86-5.85,5.6,3.1,6.28,5.47,8.32,6.6,1.53.85,4.52.84,5.93-1.71,1.55-2.8,1.18-6.33-5.7-10.13-9.93-5.49-25.41-8.74-34.71,8.05-8.31,15.02-4.64,30.01,17.5,42.26,5.85,3.24,19.87,4.34,27.76,8.71,10.43,5.77,11.86,15.21,6.93,24.11-8.03,14.51-25.96,19.88-60.31.87-39.19-21.68-48.8-56.59-28.52-93.23,16.19-29.27,52.35-47.15,92.05-25.19Z"/>
  </g>
</svg>