<?xml version="1.0" encoding="UTF-8"?>
<svg id="workflows" xmlns="http://www.w3.org/2000/svg" viewBox="0 0 2521 2911">
  <defs>
    <style>
      .cls-1 {
        fill: #ba275f;
      }

      .cls-2 {
        fill: #452007;
      }

      .cls-2, .cls-3, .cls-4, .cls-5, .cls-6, .cls-7, .cls-8, .cls-9, .cls-10, .cls-11, .cls-12, .cls-13, .cls-14, .cls-15, .cls-16, .cls-17, .cls-18, .cls-19, .cls-20 {
        stroke-miterlimit: 10;
      }

      .cls-2, .cls-5 {
        stroke: #331a09;
      }

      .cls-2, .cls-5, .cls-10, .cls-11 {
        stroke-width: 1.71px;
      }

      .cls-21 {
        fill: #f1e5ce;
      }

      .cls-22 {
        fill: #e989ac;
      }

      .cls-3 {
        stroke: #b9878d;
        stroke-width: 9px;
      }

      .cls-3, .cls-4, .cls-7, .cls-8, .cls-9, .cls-10, .cls-14, .cls-15, .cls-16, .cls-17, .cls-19, .cls-20 {
        fill: none;
      }

      .cls-3, .cls-4, .cls-8, .cls-19, .cls-20 {
        stroke-linecap: round;
      }

      .cls-23 {
        fill: #d6d5dd;
      }

      .cls-24 {
        fill: #f9fcef;
      }

      .cls-4 {
        stroke: #dbcbb2;
      }

      .cls-4, .cls-8, .cls-13, .cls-14 {
        stroke-width: 2.46px;
      }

      .cls-25 {
        fill: #f5d8b7;
      }

      .cls-5, .cls-11 {
        fill: #ede7d5;
      }

      .cls-26 {
        fill: #434458;
      }

      .cls-27 {
        fill: #503529;
      }

      .cls-6 {
        fill: #edd180;
        stroke: #999;
        stroke-width: 2.24px;
      }

      .cls-28 {
        fill: #e06343;
      }

      .cls-7 {
        stroke: #fdf4e8;
      }

      .cls-7, .cls-17 {
        stroke-width: 3.74px;
      }

      .cls-29, .cls-12 {
        fill: #c8dae3;
      }

      .cls-30 {
        fill: #b5a882;
      }

      .cls-31 {
        fill: #543928;
      }

      .cls-32 {
        fill: #efebda;
      }

      .cls-33 {
        fill: #e67848;
      }

      .cls-34 {
        fill: #e37285;
      }

      .cls-35 {
        fill: #9c214f;
      }

      .cls-36 {
        fill: #eaeaf4;
      }

      .cls-8 {
        stroke: #5a6f1f;
      }

      .cls-37 {
        fill: #ede2c2;
      }

      .cls-38 {
        fill: #f1f2fa;
      }

      .cls-9 {
        stroke: #a6996f;
        stroke-width: 1.87px;
      }

      .cls-39 {
        fill: #5a5e97;
      }

      .cls-10 {
        stroke: #7a1a3e;
      }

      .cls-11 {
        stroke: #333;
      }

      .cls-40 {
        fill: #fdfff1;
      }

      .cls-41 {
        fill: #fff;
      }

      .cls-42 {
        fill: #ec9d51;
      }

      .cls-43 {
        fill: #3c0000;
      }

      .cls-44 {
        fill: #d8dae1;
      }

      .cls-45 {
        fill: #aba8b9;
      }

      .cls-12 {
        stroke: #81a2b3;
        stroke-width: 15px;
      }

      .cls-46 {
        fill: #444656;
      }

      .cls-47 {
        fill: #e59685;
      }

      .cls-48 {
        fill: #fdf7e7;
      }

      .cls-13 {
        fill: #9cba48;
        stroke: #768c36;
      }

      .cls-14 {
        stroke: #d4c28e;
      }

      .cls-15, .cls-16, .cls-18, .cls-19, .cls-20 {
        stroke: #000;
      }

      .cls-15, .cls-18 {
        stroke-width: 10px;
      }

      .cls-16 {
        stroke-width: 12px;
      }

      .cls-49 {
        fill: #fbeaf8;
      }

      .cls-50 {
        fill: #4b352d;
      }

      .cls-51 {
        fill: #acabbd;
      }

      .cls-52 {
        fill: #e5f1f5;
      }

      .cls-53 {
        fill: #f1d15f;
      }

      .cls-17 {
        stroke: #a09181;
      }

      .cls-18 {
        fill: #ed8979;
      }

      .cls-54 {
        fill: #d06c7d;
      }

      .cls-19 {
        stroke-width: 9.99px;
      }

      .cls-55 {
        fill: #ce8975;
      }

      .cls-56 {
        fill: #aeabbf;
      }

      .cls-20 {
        stroke-width: 5px;
      }

      .cls-57 {
        fill: #f4e3cf;
      }

      .cls-58 {
        fill: #44435e;
      }

      .cls-59 {
        fill: #aba8bf;
      }

      .cls-60 {
        fill: #fdf58a;
      }

      .cls-61 {
        fill: #abaab9;
      }
    </style>
  </defs>
  <polygon class="cls-52" points="2519.17 729.52 2519.17 2183.84 1259.7 2911 .22 2183.84 .22 729.52 429.44 481.71 502.86 439.32 504.02 438.65 1259.7 2.36 1876.27 358.34 1876.28 358.34 1880.53 360.8 1958.34 405.73 2519.17 729.52"/>
  <g>
    <path class="cls-42" d="M2077.2,1527.5c-.88,1.49-1.78,3.01-2.7,4.56-18.93,31.78-47.3,75.38-86.78,123.18-19.34,23.42-41.34,47.86-66.21,72.4-1.26,1.24-2.53,2.49-3.81,3.73-1.05,1.03-2.1,2.05-3.16,3.08-2.8,2.7-5.64,5.41-8.51,8.12-1.32,1.25-2.65,2.49-3.99,3.74-4,3.73-8.07,7.46-12.21,11.19-1.42,1.28-2.86,2.56-4.3,3.84-1.02.9-2.04,1.8-3.06,2.7-2.15,1.91-4.33,3.8-6.52,5.69-1.07.93-2.15,1.86-3.24,2.79-4.73,4.06-9.55,8.1-14.45,12.12-1.82,1.5-3.66,3-5.51,4.49-1.84,1.5-3.7,2.99-5.57,4.47-1.6,1.27-3.21,2.55-4.83,3.82-3.75,2.94-7.54,5.87-11.38,8.79-.93.71-1.87,1.42-2.81,2.12-1.57,1.19-3.16,2.37-4.75,3.56-1.69,1.26-3.39,2.51-5.11,3.77-.35.26-.71.52-1.06.78-1.65,1.2-3.32,2.41-4.99,3.61-4.02,2.9-8.09,5.78-12.21,8.64-2.17,1.51-4.36,3.02-6.56,4.52-2.17,1.48-4.36,2.96-6.56,4.44-.02.01-.05.03-.08.05-1.95,1.3-3.91,2.61-5.88,3.91-2.53,1.66-5.08,3.32-7.64,4.97-1.14.74-2.29,1.47-3.44,2.2-6.29,4.02-12.69,7.98-19.19,11.9-1.38.83-2.77,1.67-4.17,2.5-2.8,1.66-5.62,3.32-8.46,4.97-1.4.81-2.8,1.62-4.2,2.42-1.43.82-2.85,1.63-4.28,2.44-1.43.81-2.87,1.62-4.31,2.42-1.44.81-2.89,1.61-4.34,2.41-9.43,5.2-19.06,10.28-28.89,15.25-2.27,1.14-4.55,2.28-6.84,3.41-175.48,86.68-334.2,93.59-407,96-66.72,2.21-198.8.24-355-49-17.04-5.37-35.78-11.34-55.85-18.33-1.55-.54-3.1-1.08-4.66-1.63-12.47-4.39-25.42-9.18-38.78-14.47-1.67-.66-3.35-1.33-5.03-2.01-1.68-.67-3.37-1.36-5.06-2.05-1.48-.61-2.97-1.22-4.46-1.84-3.98-1.64-8-3.34-12.05-5.09-1.36-.59-2.72-1.18-4.09-1.78-1.69-.74-3.39-1.49-5.09-2.24-.15-.06-.29-.13-.44-.2-1.58-.7-3.17-1.42-4.76-2.13-2.1-.95-4.2-1.91-6.32-2.9-1.48-.68-2.98-1.38-4.47-2.08-.89-.41-1.78-.83-2.67-1.26-.89-.42-1.78-.84-2.67-1.27-1.78-.84-3.56-1.7-5.34-2.57-.91-.44-1.81-.88-2.72-1.34-.9-.44-1.8-.88-2.7-1.33-.9-.44-1.8-.89-2.7-1.35-1.81-.89-3.62-1.81-5.43-2.74-.9-.46-1.81-.92-2.72-1.39-1.5-.77-3.01-1.55-4.52-2.34-15.79-8.26-31.84-17.32-48.03-27.31-1.24-.76-2.48-1.53-3.72-2.31-.62-.39-1.25-.78-1.88-1.18-1.66-1.04-3.32-2.1-4.98-3.16-4.2-2.69-8.41-5.45-12.62-8.26-1.31-.88-2.61-1.75-3.91-2.64-1.31-.88-2.61-1.77-3.91-2.67-1.31-.9-2.61-1.8-3.92-2.71-1.3-.91-2.61-1.82-3.91-2.75-2.61-1.84-5.23-3.71-7.84-5.61-1.31-.95-2.61-1.91-3.92-2.87-.03-.03-.07-.05-.1-.07-1.27-.94-2.55-1.89-3.82-2.84l-2.76-2.07c-.93-.7-1.85-1.4-2.77-2.1-1.85-1.4-3.69-2.82-5.53-4.25-.92-.72-1.84-1.44-2.77-2.16-.92-.72-1.84-1.45-2.76-2.18-7.72-6.11-15.43-12.47-23.12-19.08-1.49-1.29-2.99-2.58-4.48-3.89-8.94-7.82-17.85-16-26.72-24.55-5.94-5.73-11.69-11.46-17.24-17.18-40.36-41.54-70.76-82.45-93.21-117.18-7.78-12.03-14.6-23.32-20.55-33.64,4-10.57,7.99-21.29,11.95-32.16,15.8-43.28,31.26-88.92,46.05-136.84,18.36-59.49,33.86-116.65,47-171-43.26-76.49-106.49-210.79-128-390-16.79-139.82-2.45-259.31,16.24-345.79l73.42-42.39c.04-.39.09-.79.13-1.18.34.16.69.33,1.03.51,2.05,1.01,4.11,2.04,6.17,3.08,4.82,2.4,9.66,4.85,14.54,7.35,2.44,1.25,4.88,2.5,7.34,3.76,4.9,2.52,9.82,5.09,14.78,7.7,4.95,2.6,9.94,5.24,14.95,7.94,12.52,6.71,25.19,13.67,38.01,20.9,2.56,1.44,5.13,2.9,7.7,4.36,2.58,1.47,5.16,2.94,7.75,4.43,2.58,1.49,5.17,2.98,7.77,4.49,2.6,1.51,5.2,3.03,7.8,4.55.03.02.06.04.09.05,2.58,1.52,5.16,3.04,7.75,4.57,2.32,1.38,4.64,2.76,6.96,4.14,5.55,3.32,11.12,6.69,16.72,10.11,2.26,1.38,4.53,2.77,6.8,4.17.75.46,1.51.92,2.27,1.4,2.28,1.41,4.57,2.83,6.86,4.26,2.35,1.46,4.7,2.93,7.06,4.41.32.2.64.4.95.6,2.35,1.48,4.7,2.96,7.05,4.46.68.43,1.35.86,2.03,1.29,2.33,1.48,4.67,2.98,7.01,4.48,2.62,1.69,5.25,3.39,7.89,5.1.12.07.24.15.36.23,5.34,3.46,10.69,6.97,16.06,10.53,4.75,3.14,9.51,6.33,14.28,9.55,1.71,1.15,3.41,2.3,5.11,3.46,1.71,1.15,3.41,2.31,5.12,3.48,91.92,62.79,169.6,126.74,234,186,26.03-9.27,57.97-19.09,95.03-27.2,44.16-9.65,95.6-16.87,152.97-17.8,72.56-1.18,135.26,8.02,184.63,19.26,9.64,2.18,18.77,4.45,27.37,6.74,52.79-70.41,125.05-154.3,221-238,4.49-3.92,8.98-7.79,13.46-11.6,1.4-1.2,2.81-2.39,4.21-3.58,1.76-1.49,3.53-2.98,5.29-4.45,1.75-1.48,3.51-2.94,5.27-4.41,3.51-2.91,7.02-5.8,10.53-8.67,1.75-1.43,3.5-2.85,5.25-4.26,6.41-5.19,12.79-10.27,19.15-15.25.58-.45,1.16-.9,1.73-1.35,1.74-1.36,3.47-2.7,5.19-4.04,10.38-8.03,20.67-15.78,30.87-23.28,1.13-.84,2.27-1.66,3.4-2.49s2.26-1.65,3.39-2.47,2.25-1.64,3.38-2.45c9.68-7,19.27-13.75,28.75-20.28,1.55-1.07,3.1-2.13,4.64-3.18,2.2-1.5,4.4-2.99,6.58-4.47,1.43-.97,2.86-1.93,4.29-2.89,2.93-1.97,5.85-3.91,8.76-5.83,2.05-1.35,4.09-2.7,6.13-4.03.34-.23.68-.45,1.02-.67,1.02-.66,2.03-1.32,3.05-1.98,3.04-1.98,6.06-3.93,9.07-5.85,1.77-1.13,3.54-2.26,5.3-3.38.11-.07.21-.13.32-.2.51-.32,1.01-.64,1.52-.96.23-.15.46-.29.69-.43,1.61-1.02,3.21-2.03,4.81-3.03,2.02-1.27,4.04-2.53,6.05-3.78.99-.61,1.98-1.22,2.97-1.83,1.15-.71,2.3-1.41,3.44-2.11.52-.33,1.04-.64,1.56-.96h.01c1.53-.95,3.06-1.88,4.59-2.8-.11,1.75-.22,3.51-.34,5.26l77.81,44.93c24.59,84.07,46.62,196.49,44.36,329.27-3.11,182.17-50.59,324.59-85.91,408.79-.03.07-.06.14-.09.21,24.69,59.29,50.5,119.49,77.5,180.5,19.02,42.99,38.14,85.27,57.32,126.84,8.55,18.53,17.11,36.92,25.68,55.16Z"/>
    <path class="cls-55" d="M834.75,883.41c-29.31,22.58-60.95,50.26-96.55,86.09-29.15,29.34-54.26,57.31-76.2,84.06-58.7-439.42-200.18-536.29-200.18-536.29,1.27-7.81,2.57-15.24,3.88-22.27,66.94,47.71,146.53,113.26,226,201,59.58,65.78,106.46,130.08,143.05,187.41Z"/>
    <path class="cls-47" d="M662,1053.56h0c-28.31,34.53-51.33,67.01-70.9,97.8-44.18-70.18-98.94-178.25-125.4-319.36-24.21-129.12-16.03-239.45-3.88-314.73,0,0,141.48,96.87,200.18,536.29Z"/>
    <path class="cls-31" d="M985.2,790.5c-49.13,26.44-95.75,50.79-150.45,92.91-36.59-57.33-83.47-121.63-143.05-187.41-1.24-1.37-2.48-2.74-3.73-4.1-1.24-1.36-2.48-2.71-3.72-4.06-1.24-1.35-2.48-2.69-3.73-4.03-2.73-2.95-5.46-5.87-8.18-8.76-1-1.05-1.99-2.1-2.99-3.15-12.59-13.26-25.16-25.98-37.65-38.17-2.27-2.22-4.54-4.41-6.8-6.59-2.95-2.84-5.9-5.66-8.84-8.44-1.77-1.68-3.55-3.35-5.32-5-.3-.29-.6-.57-.91-.85-2.07-1.94-4.14-3.86-6.21-5.77-1.04-.97-2.07-1.92-3.1-2.85-1.03-.95-2.06-1.9-3.09-2.83-1.03-.94-2.06-1.88-3.09-2.81-31.01-28.13-61.2-52.99-89.74-74.84-1.11-.86-2.22-1.7-3.33-2.54-1.57-1.2-3.13-2.39-4.69-3.56,2.1-19.11,4.19-38.22,6.28-57.33.04-.39.09-.79.13-1.18.34.16.69.33,1.03.51,2.05,1.01,4.11,2.04,6.17,3.08,4.82,2.41,9.67,4.86,14.54,7.35,2.44,1.25,4.88,2.5,7.34,3.76,4.9,2.53,9.83,5.1,14.78,7.7,4.96,2.61,9.94,5.26,14.95,7.94,12.51,6.71,25.19,13.68,38.01,20.9,2.56,1.44,5.13,2.9,7.7,4.36,2.58,1.47,5.16,2.94,7.75,4.43,2.58,1.49,5.17,2.98,7.77,4.49,2.6,1.51,5.2,3.03,7.8,4.55.03.02.06.04.09.05,2.58,1.52,5.16,3.04,7.75,4.57,2.32,1.38,4.64,2.76,6.96,4.14,5.55,3.32,11.12,6.69,16.72,10.11,2.26,1.38,4.53,2.77,6.8,4.17.75.46,1.51.92,2.27,1.4,2.28,1.41,4.57,2.83,6.86,4.26,2.35,1.46,4.7,2.93,7.06,4.41.32.2.64.4.95.6,2.35,1.48,4.7,2.96,7.05,4.46.68.43,1.35.86,2.03,1.29,2.33,1.48,4.67,2.98,7.01,4.48,2.62,1.69,5.25,3.39,7.89,5.1.12.07.24.15.36.23,5.34,3.46,10.69,6.97,16.06,10.53,4.75,3.14,9.51,6.33,14.28,9.55,1.71,1.15,3.41,2.3,5.11,3.46,1.71,1.15,3.41,2.31,5.12,3.48,91.92,62.79,169.6,126.74,234,186Z"/>
    <path class="cls-47" d="M1895.9,1130.22c-31.33-48.85-70.6-96.91-131.38-153.27,12.81-326.05,143.38-536.88,143.38-536.88,21.95,72.81,45.01,175.93,46.8,299.93,1.64,113.2-13.81,288.12-58.8,390.22Z"/>
    <path class="cls-55" d="M1907.9,440.07s-130.57,210.83-143.38,536.88c-15.19-14.08-31.73-28.69-49.82-43.95-43.57-36.76-80.04-64.39-112.43-85.89,20.79-60.8,51.51-131.11,97.43-204.11,67.55-107.37,143.62-181.81,200-229,2.69,8.2,5.44,16.89,8.2,26.07Z"/>
    <path class="cls-31" d="M1880.87,376.54c-.11,1.75-.22,3.51-.34,5.26-1.09,17.2-2.19,34.4-3.3,51.6-4.98,4.43-10.07,9.05-15.26,13.87-.87.81-1.73,1.61-2.6,2.43-1.1,1.01-2.2,2.05-3.31,3.1-1.52,1.43-3.05,2.88-4.58,4.35-1.77,1.69-3.55,3.4-5.33,5.14-.89.86-1.78,1.73-2.68,2.61-.94.92-1.89,1.84-2.83,2.78-1.75,1.73-3.52,3.48-5.29,5.26-2.74,2.73-5.48,5.5-8.22,8.33-.92.94-1.84,1.89-2.76,2.84-1.85,1.91-3.7,3.84-5.55,5.79-.93.97-1.86,1.95-2.79,2.94-5.62,5.94-11.27,12.09-16.96,18.43-.92,1.03-1.84,2.05-2.75,3.09-2.9,3.25-5.79,6.55-8.69,9.9-1.69,1.96-3.39,3.94-5.1,5.94-4.91,5.78-9.85,11.71-14.78,17.79-1.91,2.35-3.82,4.73-5.73,7.14-.96,1.2-1.92,2.41-2.87,3.62-.83,1.05-1.66,2.11-2.48,3.17-1.78,2.27-3.56,4.56-5.33,6.88-.81,1.04-1.61,2.1-2.41,3.15-4.75,6.24-9.48,12.62-14.21,19.16-.83,1.15-1.66,2.3-2.49,3.46-1.2,1.68-2.4,3.37-3.6,5.07-.93,1.31-1.85,2.63-2.78,3.95-2.5,3.57-4.99,7.19-7.47,10.85-.91,1.33-1.81,2.66-2.7,4-1.03,1.52-2.05,3.06-3.08,4.6-2.19,3.3-4.37,6.63-6.54,9.99-.69,1.07-1.39,2.15-2.08,3.23-.51.79-1.01,1.58-1.51,2.37-.93,1.45-1.85,2.91-2.77,4.37-45.92,73-76.64,143.31-97.43,204.11-59.87-39.76-105.82-58.6-157.07-75.61,52.79-70.41,125.05-154.3,221-238,4.49-3.92,8.98-7.79,13.46-11.6,1.4-1.2,2.81-2.39,4.21-3.58,1.76-1.49,3.53-2.98,5.29-4.45,1.75-1.48,3.51-2.94,5.27-4.41,3.51-2.91,7.02-5.8,10.53-8.67,1.75-1.43,3.5-2.85,5.25-4.26,6.41-5.19,12.79-10.27,19.15-15.25.58-.45,1.16-.9,1.73-1.35,1.74-1.36,3.47-2.7,5.19-4.04,10.38-8.03,20.67-15.78,30.87-23.28,1.13-.84,2.27-1.66,3.4-2.49s2.26-1.65,3.39-2.47,2.25-1.64,3.38-2.45c9.68-7,19.27-13.75,28.75-20.28,1.55-1.07,3.1-2.13,4.64-3.18,2.2-1.5,4.4-2.99,6.58-4.47,1.43-.97,2.86-1.93,4.29-2.89,2.93-1.97,5.85-3.91,8.76-5.83,2.05-1.35,4.09-2.7,6.13-4.03.34-.23.68-.45,1.02-.67,1.02-.66,2.03-1.32,3.05-1.98,3.04-1.98,6.06-3.93,9.07-5.85,1.77-1.13,3.54-2.26,5.3-3.38.11-.07.21-.13.32-.2.51-.32,1.01-.64,1.52-.96.23-.15.46-.29.69-.43,1.61-1.02,3.21-2.03,4.81-3.03,2.02-1.27,4.04-2.53,6.05-3.78.99-.61,1.98-1.22,2.97-1.83,1.15-.71,2.3-1.41,3.44-2.11.52-.33,1.04-.64,1.56-.96h.01c1.53-.95,3.06-1.88,4.59-2.8Z"/>
    <path class="cls-41" d="M1451.7,1063c18.87-4,42.97,2.95,49,17,3.81,8.87-2.67,13.37,0,29,2.86,16.71,11.48,18.65,13,31,2.02,16.4-10.42,35.27-27,44-27.6,14.53-55.53-4.94-57-6-28.95-20.91-23.37-59.68-23-62,3.58-22.25,19.51-47.6,45-53Z"/>
    <path class="cls-41" d="M1044.7,1079c-4.82-2.68-5.98-.74-46,2-24.02,1.65-28.97,1.31-34,6-7.99,7.45-3.89,16.11-8,41-5,30.27-13.75,33.68-10,46,5.22,17.16,27.67,28.48,47,29,31.92.85,51.21-27.85,54-32,21.41-31.84,17.47-80.61-3-92Z"/>
    <path class="cls-50" d="M2077.2,1527.5c-.88,1.49-1.78,3.01-2.7,4.56-14.36,3.47-27.76,8.66-38.8,12.94-27.7,10.73-26.85,16.57-64,34-38.58,18.1-59.02,27.69-88,27-34.8-.83-58.32-15.93-74-26-20.77-13.33-21.23-20.37-21-23,.6-6.77,8.26-11.34,35-24,23.57-11.16,35.36-16.74,44-20,18.22-6.87,46.22-16.3,87-25,22.19-4.73,37.47-6.97,65-11,11.59-1.7,22.16-3.25,31.82-4.66,8.55,18.53,17.11,36.92,25.68,55.16Z"/>
    <path class="cls-50" d="M732.7,1611c-.34,5.86-5.45,9.99-8,12-33.28,26.19-49.92,39.29-65,43-29.22,7.19-52.6-.84-88-13-36.58-12.56-37.13-20.36-67-30-8.24-2.66-26.5-8.55-47.95-10.86-7.78-12.03-14.6-23.32-20.55-33.64,4-10.57,7.99-21.29,11.95-32.16,12.36.37,26.73.63,43.55.66,11.57.02,43.03-.03,86,1,45.82,1.1,60.25,2.37,79,8,20.15,6.05,34.43,16.36,63,37,4.66,3.36,13.47,9.95,13,18Z"/>
    <path class="cls-41" d="M1921.51,1727.64c-60.73,59.94-138.54,120.57-236.31,168.86-175.48,86.68-334.2,93.59-407,96-66.72,2.21-198.8.24-355-49-83.88-26.44-209.2-67.42-329.28-172.45,27.96-19.15,52.82-31.27,81.78-38.05,34.42-8.06,66.38-8.34,142-28,45.16-11.74,67.38-20.38,74-23,44.06-17.46,80.77-32.01,114-65,9.19-9.13,59.59-60.83,66-136,3.99-46.77-13.14-54.69-10-125,1.21-27.11,2.66-54.62,15-86,16.63-42.29,39.17-56.37,62-86,34.79-45.16,41.86-89.77,56-179,7.23-45.63,13.18-112.28,4-193,12.27,38.1,25.25,76.78,39,116,43.73,124.73,51.24,155.55,76,202,31.25,58.64,51.8,97.2,84,114,3.85,2.01,14.73,7.29,21,19,12.53,23.41-3.37,53.79-9,66-30.02,65.07-27.27,175.04,17,223,9.76,10.57,41.51,22.05,105,45,59.66,21.57,76.84,22.41,108,43,36.13,23.88,34.75,37.1,64,56,41.35,26.71,79.57,23.21,133,26,28.82,1.5,57.79,3.01,84.81,5.64Z"/>
    <path class="cls-18" d="M1336.7,1605.97c-9.11-27.02-72.43-26.12-83-25.97-8.55.12-74.15,1.05-82,27.97-7.58,25.96,77.02,74.66,88,73.92,13-.88,85.54-50.59,77-75.91Z"/>
    <path class="cls-27" d="M1414.7,999c-28.17,36.26-63.82,51.82-81,58l3-66c-5.72,10.61-14.1,24.34-26,39-17.7,21.81-27.55,33.95-35,32-14.45-3.77-5.36-56.63-14-119-7.2-51.93-24.25-92.9-38-120-.66,16.38-3.23,41.02-13,69-9.33,26.72-18.39,36.95-27,59-7.66,19.61-15.27,49.39-12,91-17.52-6.64-47.86-20.95-73-51-53.68-64.16-38.86-146.53-35-168,2.6-14.48,6.58-36.59,16.53-59.7,44.16-9.65,95.6-16.87,152.97-17.8,72.56-1.18,135.26,8.02,184.63,19.26,28.81,46.19,32.26,93.46,32.87,105.24,1.04,20.08,4.03,77.48-36,129Z"/>
    <path class="cls-15" d="M1259.7,1681.88l2.7,54.63s-58.7,97.48-138.7,47.48"/>
    <path class="cls-15" d="M1262.4,1736.52s63.3,89.48,135.3,37.48"/>
    <path class="cls-19" d="M1526.7,1656s265-80,587,36"/>
    <path class="cls-19" d="M1532.41,1698.8s321.29,15.2,559.29,133.2"/>
    <path class="cls-19" d="M1526.7,1736.52s244,38.48,490,222.48"/>
    <path class="cls-19" d="M1001.7,1687s-254-56-571,89"/>
    <path class="cls-19" d="M994.7,1719s-270,0-510,179"/>
    <path class="cls-19" d="M1006.7,1753s-281.48,99.69-422.24,296.35"/>
    <path class="cls-43" d="M1709.84,1491.45c16.92-51.62-15.82-129.26-61.59-165.24-37.96-29.85-101.24-44.46-148.43,3.35-32.72,33.15-57.48,96.08-42.95,144.16,21.44,70.96,115.18,65.63,148.44,63.74,36.04-2.05,102.78-40.67,104.53-46Z"/>
    <path class="cls-43" d="M798.43,1506.61c-5.85-8.58.17-92.46,47.06-142.09,43.7-46.26,119.33-72.86,169.47-23.78,23.9,23.39,47.97,69.72,40.3,122.2-10.11,69.15-77,86.16-86.17,90.67-46.27,22.8-78.67,14.48-116.93-3.73-29.13-13.87-45.99-31.9-53.74-43.27Z"/>
    <path class="cls-40" d="M924.87,1458.9c5.61-10.91,19.11-19.54,31.78-11.55,13.1,8.27,17.39,29.33,14.13,43-4.3,18.01-23.02,28.72-36.54,19.06-13.29-9.49-17.1-35.48-9.37-50.51Z"/>
    <path class="cls-40" d="M1552.35,1424.65c-12.72-11.97-34.98-1.83-41.21,18.08-4.2,13.42-1.79,33.46,8.73,42.57,12.76,11.04,31.91,1.23,38.74-15.82,5.61-14,3.86-35.31-6.26-44.83Z"/>
    <path class="cls-20" d="M1895.9,1130.22c-39.16-61.06-90.72-120.88-181.2-197.22-43.57-36.76-80.04-64.39-112.43-85.89,20.79-60.8,51.51-131.11,97.43-204.11,67.55-107.37,143.62-181.81,200-229"/>
    <path class="cls-20" d="M465.7,495c66.94,47.71,146.53,113.26,226,201,59.58,65.78,106.46,130.08,143.05,187.41-29.31,22.58-60.95,50.26-96.55,86.09-66.75,67.21-112.37,127.21-147.1,181.86"/>
    <path class="cls-16" d="M2077.2,1527.5c-.88,1.49-1.78,3.01-2.7,4.56-18.93,31.78-47.3,75.38-86.78,123.18-19.34,23.42-41.34,47.86-66.21,72.4-1.26,1.24-2.53,2.49-3.81,3.73-1.05,1.03-2.1,2.05-3.16,3.08-2.8,2.7-5.64,5.41-8.51,8.12-1.32,1.25-2.65,2.49-3.99,3.74-4,3.73-8.07,7.46-12.21,11.19-1.42,1.28-2.86,2.56-4.3,3.84-1.02.9-2.04,1.8-3.06,2.7-2.15,1.91-4.33,3.8-6.52,5.69-1.07.93-2.15,1.86-3.24,2.79-4.73,4.06-9.55,8.1-14.45,12.12-1.82,1.5-3.66,3-5.51,4.49-1.84,1.5-3.7,2.99-5.57,4.47-1.6,1.27-3.21,2.55-4.83,3.82-3.75,2.94-7.54,5.87-11.38,8.79-.93.71-1.87,1.42-2.81,2.12-1.57,1.19-3.16,2.37-4.75,3.56-1.69,1.26-3.39,2.51-5.11,3.77-.35.26-.71.52-1.06.78-1.65,1.2-3.32,2.41-4.99,3.61-4.02,2.9-8.09,5.78-12.21,8.64-2.17,1.51-4.36,3.02-6.56,4.52-2.17,1.48-4.36,2.96-6.56,4.44-.02.01-.05.03-.08.05-1.95,1.3-3.91,2.61-5.88,3.91-2.53,1.66-5.08,3.32-7.64,4.97-1.14.74-2.29,1.47-3.44,2.2-6.29,4.02-12.69,7.98-19.19,11.9-1.38.83-2.77,1.67-4.17,2.5-2.8,1.66-5.62,3.32-8.46,4.97-1.4.81-2.8,1.62-4.2,2.42-1.43.82-2.85,1.63-4.28,2.44-1.43.81-2.87,1.62-4.31,2.42-1.44.81-2.89,1.61-4.34,2.41-9.43,5.2-19.06,10.28-28.89,15.25-2.27,1.14-4.55,2.28-6.84,3.41-175.48,86.68-334.2,93.59-407,96-66.72,2.21-198.8.24-355-49-17.04-5.37-35.78-11.34-55.85-18.33-1.55-.54-3.1-1.08-4.66-1.63-12.47-4.39-25.42-9.18-38.78-14.47-1.67-.66-3.35-1.33-5.03-2.01-1.68-.67-3.37-1.36-5.06-2.05-1.48-.61-2.97-1.22-4.46-1.84-3.98-1.64-8-3.34-12.05-5.09-1.36-.59-2.72-1.18-4.09-1.78-1.69-.74-3.39-1.49-5.09-2.24-.15-.06-.29-.13-.44-.2-1.58-.7-3.17-1.42-4.76-2.13-2.1-.95-4.2-1.91-6.32-2.9-1.48-.68-2.98-1.38-4.47-2.08-.89-.41-1.78-.83-2.67-1.26-.89-.42-1.78-.84-2.67-1.27-1.78-.84-3.56-1.7-5.34-2.57-.91-.44-1.81-.88-2.72-1.34-.9-.44-1.8-.88-2.7-1.33-.9-.44-1.8-.89-2.7-1.35-1.81-.89-3.62-1.81-5.43-2.74-.9-.46-1.81-.92-2.72-1.39-1.5-.77-3.01-1.55-4.52-2.34-15.79-8.26-31.84-17.32-48.03-27.31-1.24-.76-2.48-1.53-3.72-2.31-.62-.39-1.25-.78-1.88-1.18-1.66-1.04-3.32-2.1-4.98-3.16-4.2-2.69-8.41-5.45-12.62-8.26-1.31-.88-2.61-1.75-3.91-2.64-1.31-.88-2.61-1.77-3.91-2.67-1.31-.9-2.61-1.8-3.92-2.71-1.3-.91-2.61-1.82-3.91-2.75-2.61-1.84-5.23-3.71-7.84-5.61-1.31-.95-2.61-1.91-3.92-2.87-.03-.03-.07-.05-.1-.07-1.27-.94-2.55-1.89-3.82-2.84l-2.76-2.07c-.93-.7-1.85-1.4-2.77-2.1-1.85-1.4-3.69-2.82-5.53-4.25-.92-.72-1.84-1.44-2.77-2.16-.92-.72-1.84-1.45-2.76-2.18-7.72-6.11-15.43-12.47-23.12-19.08-1.49-1.29-2.99-2.58-4.48-3.89-8.94-7.82-17.85-16-26.72-24.55-5.94-5.73-11.69-11.46-17.24-17.18-40.36-41.54-70.76-82.45-93.21-117.18-7.78-12.03-14.6-23.32-20.55-33.64,4-10.57,7.99-21.29,11.95-32.16,15.8-43.28,31.26-88.92,46.05-136.84,18.36-59.49,33.86-116.65,47-171-43.26-76.49-106.49-210.79-128-390-16.79-139.82-2.45-259.31,16.24-345.79l73.42-42.39c.04-.39.09-.79.13-1.18.34.16.69.33,1.03.51,2.05,1.01,4.11,2.04,6.17,3.08,4.82,2.4,9.66,4.85,14.54,7.35,2.44,1.25,4.88,2.5,7.34,3.76,4.9,2.52,9.82,5.09,14.78,7.7,4.95,2.6,9.94,5.24,14.95,7.94,12.52,6.71,25.19,13.67,38.01,20.9,2.56,1.44,5.13,2.9,7.7,4.36,2.58,1.47,5.16,2.94,7.75,4.43,2.58,1.49,5.17,2.98,7.77,4.49,2.6,1.51,5.2,3.03,7.8,4.55.03.02.06.04.09.05,2.58,1.52,5.16,3.04,7.75,4.57,2.32,1.38,4.64,2.76,6.96,4.14,5.55,3.32,11.12,6.69,16.72,10.11,2.26,1.38,4.53,2.77,6.8,4.17.75.46,1.51.92,2.27,1.4,2.28,1.41,4.57,2.83,6.86,4.26,2.35,1.46,4.7,2.93,7.06,4.41.32.2.64.4.95.6,2.35,1.48,4.7,2.96,7.05,4.46.68.43,1.35.86,2.03,1.29,2.33,1.48,4.67,2.98,7.01,4.48,2.62,1.69,5.25,3.39,7.89,5.1.12.07.24.15.36.23,5.34,3.46,10.69,6.97,16.06,10.53,4.75,3.14,9.51,6.33,14.28,9.55,1.71,1.15,3.41,2.3,5.11,3.46,1.71,1.15,3.41,2.31,5.12,3.48,91.92,62.79,169.6,126.74,234,186,26.03-9.27,57.97-19.09,95.03-27.2,44.16-9.65,95.6-16.87,152.97-17.8,72.56-1.18,135.26,8.02,184.63,19.26,9.64,2.18,18.77,4.45,27.37,6.74,52.79-70.41,125.05-154.3,221-238,4.49-3.92,8.98-7.79,13.46-11.6,1.4-1.2,2.81-2.39,4.21-3.58,1.76-1.49,3.53-2.98,5.29-4.45,1.75-1.48,3.51-2.94,5.27-4.41,3.51-2.91,7.02-5.8,10.53-8.67,1.75-1.43,3.5-2.85,5.25-4.26,6.41-5.19,12.79-10.27,19.15-15.25.58-.45,1.16-.9,1.73-1.35,1.74-1.36,3.47-2.7,5.19-4.04,10.38-8.03,20.67-15.78,30.87-23.28,1.13-.84,2.27-1.66,3.4-2.49s2.26-1.65,3.39-2.47,2.25-1.64,3.38-2.45c9.68-7,19.27-13.75,28.75-20.28,1.55-1.07,3.1-2.13,4.64-3.18,2.2-1.5,4.4-2.99,6.58-4.47,1.43-.97,2.86-1.93,4.29-2.89,2.93-1.97,5.85-3.91,8.76-5.83,2.05-1.35,4.09-2.7,6.13-4.03.34-.23.68-.45,1.02-.67,1.02-.66,2.03-1.32,3.05-1.98,3.04-1.98,6.06-3.93,9.07-5.85,1.77-1.13,3.54-2.26,5.3-3.38.11-.07.21-.13.32-.2.51-.32,1.01-.64,1.52-.96.23-.15.46-.29.69-.43,1.61-1.02,3.21-2.03,4.81-3.03,2.02-1.27,4.04-2.53,6.05-3.78.99-.61,1.98-1.22,2.97-1.83,1.15-.71,2.3-1.41,3.44-2.11.52-.33,1.04-.64,1.56-.96h.01c1.53-.95,3.06-1.88,4.59-2.8-.11,1.75-.22,3.51-.34,5.26l77.81,44.93c24.59,84.07,46.62,196.49,44.36,329.27-3.11,182.17-50.59,324.59-85.91,408.79-.03.07-.06.14-.09.21,24.69,59.29,50.5,119.49,77.5,180.5,19.02,42.99,38.14,85.27,57.32,126.84,8.55,18.53,17.11,36.92,25.68,55.16Z"/>
  </g>
  <g>
    <polygon class="cls-59" points="2519.17 2038 2434.89 2232.5 1259.7 2911 84.5 2232.5 83.63 2232 .22 2183.84 .22 2038 2519.17 2038"/>
    <g>
      <rect class="cls-45" x=".22" y="1926" width="2123.78" height="48.5"/>
      <polygon class="cls-26" points="2124 2167.5 2124 2232 83.63 2232 .22 2183.84 .22 2167.5 2124 2167.5"/>
      <rect class="cls-36" x=".22" y="1974.5" width="2123.78" height="193"/>
      <circle class="cls-61" cx="1048.5" cy="2070.5" r="42"/>
      <circle class="cls-61" cx="119.5" cy="2070.5" r="42"/>
      <circle class="cls-61" cx="395.5" cy="2071.5" r="42"/>
      <circle class="cls-61" cx="721.5" cy="2071.5" r="42"/>
      <circle class="cls-61" cx="2026.5" cy="2071.5" r="42"/>
      <circle class="cls-61" cx="1700.5" cy="2071.5" r="42"/>
      <circle class="cls-61" cx="1373.5" cy="2071.5" r="42"/>
    </g>
    <g>
      <polygon class="cls-59" points="2519.17 746.59 2519.17 872.04 2456.5 937.74 2456.5 1103 2314.5 1103 2314.5 933.2 2150.54 760 2133.5 742 2330.71 744.35 2519.17 746.59"/>
      <path class="cls-44" d="M2519.17,2038v-972.5h-275.27c-28.11,0-50.9,22.79-50.9,50.9v1116.1h241.89l84.28-194.5Z"/>
      <polygon class="cls-46" points="2193.5 1434 2072.5 1503 2072.5 2232 2193.5 2232 2193.5 1434"/>
      <circle class="cls-39" cx="2381.5" cy="1231" r="93"/>
      <circle class="cls-38" cx="2381.5" cy="1231" r="54"/>
      <line class="cls-3" x1="2357" y1="1255.5" x2="2381.5" y2="1231"/>
      <circle class="cls-39" cx="2381.5" cy="1231" r="18"/>
      <circle class="cls-39" cx="2380.27" cy="1445.61" r="93"/>
      <circle class="cls-38" cx="2380.27" cy="1445.61" r="54"/>
      <line class="cls-3" x1="2380.27" y1="1407.61" x2="2380.27" y2="1445.61"/>
      <circle class="cls-39" cx="2380.27" cy="1445.61" r="18"/>
      <path class="cls-23" d="M2519.17,729.52v30.48h-393.67c-14.36,0-26-11.64-26-26,0-7.18,2.91-13.68,7.62-18.38,4.7-4.71,11.2-7.62,18.38-7.62h356.4l37.27,21.52Z"/>
    </g>
    <g>
      <path class="cls-53" d="M205.07,930.22v125.2H58.63v-125.2c0-40.44,32.78-73.22,73.22-73.22s73.22,32.78,73.22,73.22Z"/>
      <path class="cls-60" d="M205.07,950.97v92.4h-73.22v-92.4c0-29.84,16.39-54.04,36.61-54.04s36.61,24.19,36.61,54.04Z"/>
      <rect class="cls-56" x="37" y="1000.11" width="188.04" height="69.89"/>
      <polygon class="cls-46" points="300.55 1434 421.55 1503 421.55 2232 300.55 2232 300.55 1434"/>
      <path class="cls-44" d="M301.05,1116.4v1116.1H84.5l-.87-.5L.22,2183.84v-1118.34h249.92c28.12,0,50.91,22.79,50.91,50.9Z"/>
      <rect class="cls-58" x="106.91" y="1272" width="68.69" height="401" rx="34.34" ry="34.34"/>
      <rect class="cls-51" x="120.5" y="1383.85" width="40.07" height="137.53" rx="20.03" ry="20.03"/>
      <rect class="cls-54" x="37.5" y="1345.74" width="207.5" height="82.85" rx="41.43" ry="41.43"/>
    </g>
  </g>
  <path class="cls-29" d="M2481.9,708L1259.7,2.36.22,729.52v1454.32l83.41,48.16.87.5,1175.2,678.5,1175.19-678.5,84.28-48.66V729.52l-37.27-21.52ZM2412.1,2122.02l-191.35,110.48-961.05,554.87-961.05-554.87-.87-.5-111.72-64.5-78.77-45.48V791.34L1259.7,126l1008.05,582,62.96,36.35,27.11,15.65,54.28,31.34v1330.68Z"/>
  <g>
    <path class="cls-11" d="M767.25,1833.09c2.48-3.27,8.09-10.67,6.82-19.79-1.39-10.04-10.29-16.18-13.31-18.09-59.26-6.14-118.52-12.28-177.78-18.43-1.59.77-14.14,7.12-17.4,21.84-3.65,16.48,7.67,28.47,8.53,29.35,19.66,18.81,38.87,27.84,51.53,32.42,63.01,22.8,125.55-6.11,141.61-27.3Z"/>
    <path class="cls-2" d="M735.69,1938.02c-12.7,5.69-36.14,14.21-66.54,13.99-28.71-.21-50.95-8.12-63.47-13.65-5.45-17.47-11.56-35.59-18.43-54.26-8.17-22.2-16.66-43.14-25.25-62.79.77-2.11,2.64-3.55,4.61-3.58,2.58-.05,5.06,2.31,5.12,5.46.31-.26,3.2-2.61,6.82-1.71,3.13.78,5.5,3.66,5.8,7.17.49-.54,3.72-3.98,8.53-3.75,4.66.22,8.87,3.78,10.24,8.87,1.37-1.12,4.77-3.56,9.55-3.75,9.51-.39,15.12,8.49,15.36,8.87,2.8-4.9,8.03-7.91,13.65-7.85,5.76.07,11.04,3.37,13.65,8.53.49-.77,5.87-8.78,16.04-9.21,10.47-.45,16.58,7.53,17.06,8.19,3.11-4.91,8.59-7.79,14.33-7.51,8.36.41,12.64,7.3,12.97,7.85.19-.33,4.71-7.84,13.31-7.85,7.11,0,11.39,5.11,11.94,5.8.4-6.45,5.22-11.31,10.58-11.6,3.84-.21,7.61,1.96,9.9,5.46.51-4.29,3.67-7.64,7.51-8.19,4.46-.64,7.6,2.79,7.85,3.07-13.71,37.48-27.41,74.96-41.12,112.44Z"/>
    <path class="cls-1" d="M782.61,1786c-2.35,10.93-13.18,16.08-17.4,18.09-7.76,3.69-14.62,3.95-21.84,4.09-26.4.53-39.6.79-61.42-2.05-4.32-.56-15.17-2.04-29-4.78-26.82-5.3-30.2-8.48-44.02-9.21-2.82-.15-10.35-.43-20.13-2.73-4.11-.97-7.41-2.01-9.55-2.73-3.02-1.18-10.92-4.74-16.38-13.31-8.33-13.07-4.08-26.94-3.41-29,1.09-3.35,2.61-6.26,4.36-8.77,6.35-9.09,15.71-12.95,18.5-14.1,8.9-3.66,16.88-3.28,20.13-3.07,46.08,2.9,83.92,27.98,125.91,31.39,0,0,13.78,1.12,41.63,12.63,3.22,1.33,6.53,3.19,9.21,6.82,2.13,2.89,3.12,6.04,3.54,8.82.62,4.16-.04,7.5-.13,7.9Z"/>
    <path class="cls-35" d="M782.61,1786c-2.35,10.93-13.18,16.08-17.4,18.09-7.76,3.69-14.62,3.95-21.84,4.09-26.4.53-39.6.79-61.42-2.05-4.32-.56-15.17-2.04-29-4.78-26.82-5.3-30.2-8.48-44.02-9.21-2.82-.15-10.35-.43-20.13-2.73-4.11-.97-7.41-2.01-9.55-2.73-3.02-1.18-10.92-4.74-16.38-13.31-8.33-13.07-4.08-26.94-3.41-29,1.09-3.35,2.61-6.26,4.36-8.77.13,4.17.8,8.89,2.46,13.88.9,2.71,4.93,14.01,16.04,22.86,7.44,5.93,14.78,8.15,18.43,9.21,45.69,13.31,108.85,18.77,108.85,18.77,30.95,2.67,37.51,2.82,46.75-1.02,11.83-4.92,20.38-13.2,26.4-21.21.62,4.16-.04,7.5-.13,7.9Z"/>
    <path class="cls-10" d="M782.61,1786c-2.35,10.93-13.18,16.08-17.4,18.09-7.76,3.69-14.62,3.95-21.84,4.09-26.4.53-39.6.79-61.42-2.05-4.32-.56-15.17-2.04-29-4.78-26.82-5.3-30.2-8.48-44.02-9.21-2.82-.15-10.35-.43-20.13-2.73-4.11-.97-7.41-2.01-9.55-2.73-3.02-1.18-10.92-4.74-16.38-13.31-8.33-13.07-4.08-26.94-3.41-29,1.09-3.35,2.61-6.26,4.36-8.77,6.35-9.09,15.71-12.95,18.5-14.1,8.9-3.66,16.88-3.28,20.13-3.07,46.08,2.9,83.92,27.98,125.91,31.39,0,0,13.78,1.12,41.63,12.63,3.22,1.33,6.53,3.19,9.21,6.82,2.13,2.89,3.12,6.04,3.54,8.82.62,4.16-.04,7.5-.13,7.9Z"/>
    <path class="cls-1" d="M769.64,1756.65c-.47,1.55-2.22,6.41-6.82,8.87-1.54.82-2.88,1.1-4.44,1.36-8.37,1.42-15.52,1.09-24.91,1.02-3.91-.03-4.71.02-6.48,0-29.89-.27-75.07-10.58-75.07-10.58,0,0-35.23-8.04-53.57-20.47-2.15-1.46-5.94-4.29-8.53-9.21-4.08-7.76-2.54-15.64-2.05-17.74,1.77-7.65,6.46-12.13,11.26-16.72,1.55-1.48,4.19-3.96,7.96-6.31,2.84-1.77,6.33-3.47,10.47-4.61,0,0,4.13-1.14,8.53-1.36,15.71-.81,41.95,14.09,58.69,22.52,21.77,10.96,52.62,23.65,63.13,26.27.66.17,3.74.92,7.51,2.73,3.93,1.89,8.46,4.07,11.6,8.87.77,1.18,2.79,4.53,3.29,8.84.24,2.01.14,4.22-.56,6.51Z"/>
    <path class="cls-10" d="M769.64,1756.65c-.47,1.55-2.22,6.41-6.82,8.87-1.54.82-2.88,1.1-4.44,1.36-8.37,1.42-15.52,1.09-24.91,1.02-3.91-.03-4.71.02-6.48,0-29.89-.27-75.07-10.58-75.07-10.58,0,0-35.23-8.04-53.57-20.47-2.15-1.46-5.94-4.29-8.53-9.21-4.08-7.76-2.54-15.64-2.05-17.74,1.77-7.65,6.46-12.13,11.26-16.72,1.55-1.48,4.19-3.96,7.96-6.31,2.84-1.77,6.33-3.47,10.47-4.61,0,0,4.13-1.14,8.53-1.36,15.71-.81,41.95,14.09,58.69,22.52,21.77,10.96,52.62,23.65,63.13,26.27.66.17,3.74.92,7.51,2.73,3.93,1.89,8.46,4.07,11.6,8.87.77,1.18,2.79,4.53,3.29,8.84.24,2.01.14,4.22-.56,6.51Z"/>
    <path class="cls-35" d="M769.64,1756.65c-.47,1.55-2.22,6.41-6.82,8.87-1.54.82-2.88,1.1-4.44,1.36-8.37,1.42-15.52,1.09-24.91,1.02-3.91-.03-4.71.02-6.48,0-29.89-.27-75.07-10.58-75.07-10.58,0,0-35.23-8.04-53.57-20.47-2.15-1.46-5.94-4.29-8.53-9.21-4.08-7.76-2.54-15.64-2.05-17.74,1.77-7.65,6.46-12.13,11.26-16.72,1.55-1.48,4.19-3.96,7.96-6.31-2.07,3.98-3.9,8.73-4.89,14.5-.83,4.86-2.3,14.26,2.39,22.86,5.03,9.22,14.71,13.06,21.5,15.36,34.52,11.71,65.56,17.1,110.22,21.84,1.73.18,3.73.39,6.48.34,12.44-.21,20.79-6.05,27.52-11.63.24,2.01.14,4.22-.56,6.51Z"/>
    <path class="cls-1" d="M747.8,1731.74c-1.14.67-2.28.68-2.73.68-22.53.02-33.8.02-37.88-.68-4.76-.83-19.58-3.54-38.56-9.9,0,0-11.64-3.9-27.3-11.94-8.04-4.13-13.77-7.66-17.06-14.33-1.02-2.06-2.95-5.99-2.05-10.58.33-1.69,1.07-3.6,4.84-7.54,1.49-1.56,3.47-3.45,6.08-5.77,4.58-4.06,8.25-6.92,9.9-8.19,11.99-9.27,12.1-8.81,19.11-14.33,7.57-5.96,11.03-9.33,18.43-12.97,7.88-3.88,9.28-2.68,9.55-2.39,1.79,1.86-3.23,7.12-4.78,17.74-.59,4.06-1.11,7.34.34,10.92.95,2.36,2.43,4.15,11.6,10.58,9.78,6.84,14.66,10.26,18.09,11.94,1.56.76,4.81,2.29,8.19,5.46,1.94,1.83,3.28,3.59,4.09,4.78,2.63.49,12.97,2.74,19.11,11.94.59.88,3.09,4.77,3.98,10.4.04.28.09.57.12.86.21,1.72,1.31,10.74-3.07,13.31Z"/>
    <path class="cls-35" d="M747.8,1731.74c-1.14.67-2.28.68-2.73.68-22.53.02-33.8.02-37.88-.68-4.76-.83-19.58-3.54-38.56-9.9,0,0-11.64-3.9-27.3-11.94-8.04-4.13-13.77-7.66-17.06-14.33-1.02-2.06-2.95-5.99-2.05-10.58.33-1.69,1.07-3.6,4.84-7.54,5.48,8.06,13.17,17.12,23.82,25.28,0,0,28.48,21.83,68.59,22.52,7.51.13,14.95.18,23.54-3.41,3.18-1.33,5.67-2.8,7.73-4.27.04.28.09.57.12.86.21,1.72,1.31,10.74-3.07,13.31Z"/>
    <path class="cls-10" d="M747.8,1731.74c-1.14.67-2.28.68-2.73.68-22.53.02-33.8.02-37.88-.68-4.76-.83-19.58-3.54-38.56-9.9,0,0-11.64-3.9-27.3-11.94-8.04-4.13-13.77-7.66-17.06-14.33-1.02-2.06-2.95-5.99-2.05-10.58.33-1.69,1.07-3.6,4.84-7.54,1.49-1.56,3.47-3.45,6.08-5.77,4.58-4.06,8.25-6.92,9.9-8.19,11.99-9.27,12.1-8.81,19.11-14.33,7.57-5.96,11.03-9.33,18.43-12.97,7.88-3.88,9.28-2.68,9.55-2.39,1.79,1.86-3.23,7.12-4.78,17.74-.59,4.06-1.11,7.34.34,10.92.95,2.36,2.43,4.15,11.6,10.58,9.78,6.84,14.66,10.26,18.09,11.94,1.56.76,4.81,2.29,8.19,5.46,1.94,1.83,3.28,3.59,4.09,4.78,2.63.49,12.97,2.74,19.11,11.94.59.88,3.09,4.77,3.98,10.4.04.28.09.57.12.86.21,1.72,1.31,10.74-3.07,13.31Z"/>
    <line class="cls-5" x1="571.73" y1="1823.19" x2="610.26" y2="1940.3"/>
    <line class="cls-5" x1="584.35" y1="1828.65" x2="616.18" y2="1942.56"/>
    <line class="cls-5" x1="603.12" y1="1833.77" x2="629.23" y2="1946.63"/>
    <line class="cls-5" x1="628.03" y1="1838.89" x2="645.35" y2="1950.05"/>
    <line class="cls-5" x1="655.33" y1="1839.57" x2="662.67" y2="1951.83"/>
    <line class="cls-5" x1="688.43" y1="1838.55" x2="680.95" y2="1952.01"/>
    <line class="cls-5" x1="715.73" y1="1838.89" x2="698.1" y2="1949.57"/>
    <line class="cls-5" x1="740.98" y1="1836.84" x2="713.68" y2="1946.63"/>
    <line class="cls-5" x1="761.45" y1="1830.7" x2="726.06" y2="1942.56"/>
  </g>
  <g>
    <line class="cls-17" x1="1877.4" y1="1664.58" x2="1844.64" y2="1736.21"/>
    <line class="cls-7" x1="1875.12" y1="1664.58" x2="1842.37" y2="1736.21"/>
    <line class="cls-7" x1="1798.09" y1="1657.73" x2="1803.69" y2="1732.62"/>
    <line class="cls-17" x1="1800.28" y1="1657.42" x2="1805.88" y2="1732.31"/>
    <line class="cls-17" x1="1718.25" y1="1670.39" x2="1767.17" y2="1737.64"/>
    <line class="cls-7" x1="1716.6" y1="1671.45" x2="1765.52" y2="1738.7"/>
    <path class="cls-37" d="M1971.66,1848.49c-.22,3.47-.52,8.24-1.5,13.89-2.77,15.95-10.96,38.82-38.04,58.51-7.51,5.46-32.43,23.58-70.44,28.03-30.56,3.58-37.22-5.45-85.89-2.46-10.38.64-23.88,1.89-42.26-.31,0,0-17.9-2.14-33.63-7.39-14.43-4.82-26.07-12.37-35.31-20.61-20.63-18.4-29.25-40.22-30.13-42.54-15.51-41.1,8.92-75.1,14.09-81.94,28.48-37.68,87.17-64.28,152.24-65.92,17.33-.44,82.71-.31,129.98,34.5,44.28,32.61,41.74,72.89,40.9,86.26Z"/>
    <path class="cls-30" d="M1970.17,1862.38c-2.77,15.95-10.96,38.82-38.04,58.51-7.51,5.46-32.43,23.58-70.44,28.03-30.56,3.58-37.22-5.45-85.89-2.46-10.38.64-23.88,1.89-42.26-.31,0,0-17.9-2.14-33.63-7.39-14.43-4.82-26.07-12.37-35.31-20.61,4.93,1.42,10.46,3.05,16.68,4.9,43.05,12.82,47.09,15.08,60.9,16.33,21.57,1.95,23.42-2.5,59.99-3.7,41.29-1.36,44.26,4.14,65.44.92,30.61-4.64,49.58-19.93,67.26-34.19,16.48-13.29,27.68-27.18,35.32-40.02Z"/>
    <path class="cls-9" d="M1800.79,1727.73c17.33-.44,82.71-.31,129.98,34.5,44.28,32.61,41.74,72.89,40.9,86.26-.83,13.27-2.88,45.74-39.54,72.39-7.51,5.46-32.42,23.57-70.44,28.03-30.56,3.58-37.22-5.45-85.89-2.46-10.38.64-23.88,1.89-42.26-.31,0,0-17.9-2.14-33.63-7.39-46.66-15.58-64.17-59.79-65.44-63.15-15.51-41.1,8.92-75.1,14.09-81.94,28.48-37.68,87.17-64.28,152.24-65.92Z"/>
    <path class="cls-34" d="M1742.61,1656.88c0,11.91-14.24,21.56-31.81,21.56-12.28,0-22.93-4.72-28.24-11.62-2.29-2.98-3.58-6.36-3.58-9.94,0-11.91,14.24-21.56,31.81-21.56,3.18,0,6.26.32,9.16.91,13.11,2.66,22.65,10.9,22.65,20.66Z"/>
    <path class="cls-22" d="M1725.35,1647.95c0,11.4-13.63,20.64-30.45,20.64-4.39,0-8.56-.63-12.33-1.76-2.29-2.98-3.58-6.36-3.58-9.94,0-11.91,14.24-21.56,31.81-21.56,3.18,0,6.26.32,9.16.91,3.39,3.33,5.39,7.37,5.39,11.72Z"/>
    <ellipse class="cls-49" cx="1696.26" cy="1650.41" rx="5.45" ry="3.7"/>
    <path class="cls-21" d="M1823.96,1643.02c0,8.85-10.58,16.02-23.63,16.02-9.88,0-18.34-4.11-21.87-9.94-1.14-1.88-1.76-3.93-1.76-6.08,0-8.85,10.58-16.02,23.63-16.02,2.01,0,3.97.17,5.84.49,10.23,1.76,17.79,8.04,17.79,15.53Z"/>
    <path class="cls-32" d="M1811.24,1636.86c0,8-9.56,14.48-21.36,14.48-4.2,0-8.11-.82-11.42-2.24-1.14-1.88-1.76-3.93-1.76-6.08,0-8.85,10.58-16.02,23.63-16.02,2.01,0,3.97.17,5.84.49,3.16,2.52,5.07,5.79,5.07,9.36Z"/>
    <ellipse class="cls-24" cx="1791.24" cy="1637.47" rx="4.54" ry="3.08"/>
    <path class="cls-28" d="M1903.95,1654.11c0,8.34-9.97,15.09-22.27,15.09-8.56,0-15.99-3.27-19.72-8.08h0c-1.63-2.1-2.55-4.49-2.55-7.02,0-8.34,9.97-15.09,22.27-15.09,2.9,0,5.67.38,8.22,1.06,8.23,2.22,14.05,7.66,14.05,14.04Z"/>
    <path class="cls-33" d="M1893.95,1648.56c0,8-9.56,14.48-21.36,14.48-3.87,0-7.5-.7-10.63-1.92h0c-1.63-2.1-2.55-4.49-2.55-7.02,0-8.34,9.97-15.09,22.27-15.09,2.9,0,5.67.38,8.22,1.06,2.55,2.38,4.05,5.32,4.05,8.49Z"/>
    <ellipse class="cls-57" cx="1870.32" cy="1646.41" rx="5" ry="3.39"/>
    <polygon class="cls-6" points="1720.35 1780.1 1791.7 1789.96 1770.23 1838.71 1700.35 1828.47 1720.35 1780.1"/>
    <line class="cls-6" x1="1740.34" y1="1777.33" x2="1735.34" y2="1788.73"/>
    <line class="cls-6" x1="1758.52" y1="1780.1" x2="1753.52" y2="1792.43"/>
    <line class="cls-6" x1="1781.24" y1="1782.88" x2="1775.79" y2="1793.97"/>
    <line class="cls-6" x1="1794.88" y1="1804.75" x2="1775.79" y2="1802.9"/>
    <line class="cls-6" x1="1769.43" y1="1812.76" x2="1789.42" y2="1816.46"/>
    <line class="cls-6" x1="1782.15" y1="1831.24" x2="1765.34" y2="1826.31"/>
    <line class="cls-6" x1="1754.43" y1="1830.01" x2="1750.8" y2="1842.02"/>
    <line class="cls-6" x1="1735.8" y1="1826.93" x2="1729.89" y2="1838.64"/>
    <line class="cls-6" x1="1718.53" y1="1823.23" x2="1712.17" y2="1834.01"/>
    <line class="cls-6" x1="1725.35" y1="1796.12" x2="1707.62" y2="1792.73"/>
    <line class="cls-6" x1="1717.62" y1="1804.75" x2="1703.08" y2="1803.83"/>
    <line class="cls-6" x1="1712.62" y1="1815.84" x2="1698.53" y2="1815.84"/>
  </g>
  <g>
    <path class="cls-13" d="M1350.94,1767.37c.65-4.55,2.16-10.82,5.85-17.42,1.51-2.7,3.13-5,4.68-6.93-1-.29-6.34-1.94-9.23-7.43-3.6-6.83-.23-13.57.1-14.19-4.78-4.25-7.45-8.53-8.93-11.38-1.79-3.46-3.09-6.09-2.53-9.43.72-4.25,4-6.86,5.24-7.74.13-2.16.46-5.36,1.43-9.13,1.39-5.41,2.68-10.47,5.94-11.42,2.8-.82,4.03,2.28,8.17,1.96,4.24-.32,5.55-3.77,8.21-3.36,1.69.27,3.84,2.08,5.67,9.18,1.76-8.69,10.32-13.58,17.27-11.48,5.57,1.68,9.63,7.7,9.18,14.52,4.42-6.05,12.67-6.97,17.48-3.02,3.84,3.15,5.13,9.11,2.77,14.34,1.49,1.02,6.49,4.72,7.84,11.24,1.58,7.68-2.57,16.13-10.51,20.8-.67,3.19-2.48,9.02-7.58,12.09-5.73,3.45-12.95,1.81-17.19.84-7.05-1.6-8.46-4.12-12.67-3.22-4.86,1.04-7.83,5.44-9.19,7.44-2.98,4.41-2.96,7.61-4.31,12.52-2.99,10.83-10.36,21.57-14.05,20.78-1.27-.27-2.84-2.06-3.62-9.57Z"/>
    <path class="cls-13" d="M1347.21,1773.76c6.54-.42,15.74-1.44,26.49-4.05,16.34-3.97,24.51-5.96,31.87-12.88.93-.88.15-.23,16.38-21.58,4.26-5.61,7.71-10.01,13.44-11.1,4.14-.79,7.85.46,10.22,1.57,1.13-1.58,4.51-5.85,10.56-7.71.43-.13,10.6-3.07,18.39,3.53.98.83,6.54,5.55,6.33,12.59-.07,2.4-.8,4.33-1.4,5.58,1.27.19,9.32,1.52,14.13,8.96,4.31,6.68,3,13.6,2.62,15.43-1.57,7.59-6.73,11.82-8.14,12.91,1,.79,5.83,4.77,6.47,11.5.61,6.42-2.76,13.44-9.25,16.31-7.48,3.31-14.51-.94-15.13-1.33-.6,2.16-2.13,6.31-6.06,8.96-5.23,3.53-11.43,2.18-15.7,1.26-4.46-.97-7.38-2.56-11.56-4.85-4.43-2.42-5.64-3.71-17.52-11.85-3.07-2.1-4.61-3.16-4.89-3.31-7.74-4.14-15.75-2.94-23.73-1.8-8.48,1.21-17.81,2.48-30.72,4.16-4.27-7.44-8.54-14.88-12.81-22.32Z"/>
    <path class="cls-13" d="M1363.56,1797.88c6.44.96,15.16,2.94,24.78,7.26,9.31,4.18,16.4,9.18,21.33,13.24,8.07.28,14.07.44,17.46.53,1.2.03,10.84.27,19.35,2.99,1.6.51,4.13,1.42,5.7,3.86,1.21,1.87,1.35,3.87,1.33,5.06.82-.04,6.33-.25,10.34,4.03,3.34,3.56,4.35,8.85,2.64,13.66,1.21,1.58,3.66,5.28,3.34,9.98-.48,7.04-6.99,13.52-16.2,15.17.11,1.07,1,11.12-6.53,17.55-1.08.93-6.18,5.29-12.99,4.28-6.36-.95-11.71-6.21-13.55-13.32-1.22.85-6.68,4.48-12.57,2.78-8.3-2.39-10.44-13.34-10.81-15.62-.26-1.62-.26-2.75-.24-4.91.09-10.36,2.51-17.13,3.75-30.12.19-2.04.34-4.01-.5-6.28-1.61-4.36-5.66-6.62-8.27-7.97-11.67-6.05-28.7-11.61-31.84-12.63,1.16-3.18,2.32-6.35,3.47-9.53Z"/>
    <path class="cls-8" d="M1355.3,1767.94s12.63-11.65,15.41-39.46c2.78-27.81,14.03-37.42,14.03-37.42"/>
    <path class="cls-8" d="M1353.18,1799.17s58.97,5.29,88.21,74.73"/>
    <path class="cls-8" d="M1363.53,1781.23s40.32-8.77,75.82-14.79c16.45-2.79,31.88-4.98,41.77-5.43"/>
    <path class="cls-48" d="M1316.04,1926.07c-50.54,37.84-108.71,33.03-129.27,31.33-23.39-1.93-75.72-6.26-111.07-37.72-12.96-11.53-29.43-20.56-62.36-38.62-1.2-.66-3.22-1.75-5.88-2.61-2.42-.79-5.36-1.39-8.69-1.31-13.44.31-23.23,11.4-27.26,16.6,5.72-18.19,14.28-28.49,20.97-34.51,9.42-8.49,18.04-11.1,30.04-24.22,6.46-7.06,10.11-13.03,12.11-16.15,13.59-21.17,34.32-40.22,52.09-56.81,35.08-32.76,56.9-53.14,92.38-64.59,15.21-4.91,59.24-18.4,107.63,1.54,10.48,4.32,46.11,19.62,68.5,59.39,4.95,8.79,22.1,40.38,16.69,80.63-.53,4-1.29,8.08-2.31,12.23-10.39,42.49-41,65.4-53.57,74.81Z"/>
    <path class="cls-4" d="M1216.79,1712.85s44.16,26.9,51.21,74.42"/>
    <path class="cls-4" d="M1212.33,1788.81s37.12,17.98,35.53,92.32"/>
    <path class="cls-4" d="M1131.59,1805.46s29.97,26.8,24.87,75.61"/>
    <path class="cls-25" d="M1316.04,1926.07c-50.54,37.84-108.71,33.03-129.27,31.33-23.39-1.93-75.72-6.26-111.07-37.72-12.96-11.53-29.43-20.56-62.36-38.62-1.2-.66-3.22-1.75-5.88-2.61,16.53-6.4,35.34-9.69,53.26-3.35,12.75,4.51,18.87,13.3,25.67,17.36,26.48,15.81,80.41,48.01,146.67,38.64,55.88-7.91,92.37-41.41,108.15-56.3,12.61-11.89,22.68-24.17,30.7-35.78-.53,4-1.29,8.08-2.31,12.23-10.39,42.49-41,65.4-53.57,74.81Z"/>
    <path class="cls-8" d="M1370.71,1728.48s3.26-8.34,20.56-19.87,17.19-15.76,17.19-15.76"/>
    <path class="cls-8" d="M1372.8,1715.68s-3.18-7.53-3.83-12.72"/>
    <path class="cls-8" d="M1379.69,1717.54s6.1-3.04,13.74-1.81"/>
    <path class="cls-8" d="M1439.36,1766.44s11.77-6.72,17.16-17.33"/>
    <path class="cls-8" d="M1429.39,1768.18s24.06,4.4,28.42,19.22"/>
    <path class="cls-8" d="M1417.41,1835.26s12.2.16,29.22,5.73"/>
    <path class="cls-8" d="M1424.77,1844.34s-10.34,5.72-7.35,24.09"/>
    <path class="cls-14" d="M1316.04,1926.07c-50.54,37.84-108.71,33.03-129.27,31.33-23.39-1.93-75.72-6.26-111.07-37.72-12.96-11.53-29.43-20.56-62.36-38.62-1.2-.66-3.22-1.75-5.88-2.61-2.42-.79-5.36-1.39-8.69-1.31-13.44.31-23.23,11.4-27.26,16.6,5.72-18.19,14.28-28.49,20.97-34.51,9.42-8.49,18.04-11.1,30.04-24.22,6.46-7.06,10.11-13.03,12.11-16.15,13.59-21.17,34.32-40.22,52.09-56.81,35.08-32.76,56.9-53.14,92.38-64.59,15.21-4.91,59.24-18.4,107.63,1.54,10.48,4.32,46.11,19.62,68.5,59.39,4.95,8.79,22.1,40.38,16.69,80.63-.53,4-1.29,8.08-2.31,12.23-10.39,42.49-41,65.4-53.57,74.81Z"/>
  </g>
  <g>
    <path class="cls-12" d="M785.93,2409.7c-5.45,8.53-9.95,20.84-11.13,24.4-3.08,9.47-3.55,19.9-22.03,19.9-16.58,0-18.24-7.11-22.74-19.9-5.45-15.63-16.82-46.19-22.5-60.88-6.87-17.53,1.66-28.66,14.45-28.66s20.84,3.55,23.92,20.37c2.37,12.55,4.74,25.11,8.53,37.66,5.21-11.61,10.66-19.66,13.5-31.27-2.37-5.69-4.5-6.63-4.5-13.5,0-6.4,4.97-13.27,15.63-13.27,15.16,0,22.5,3.55,27.71,21.56,3.32,11.37,6.87,25.11,11.37,36.48,4.03-13.26,5.92-26.53,8.53-39.79,2.84-14.21,11.84-18.24,23.21-18.24,15.4,0,26.06,12.55,17.77,29.14-9,18-20.13,46.43-25.35,60.4-3.32,9-2.61,19.9-20.84,19.9-16.58,0-19.42-6.87-23.92-19.9-1.42-4.03-7.34-17.05-11.61-24.4Z"/>
    <path class="cls-12" d="M901.76,2350.25c10.42,0,15.4,5.92,15.4,15.87,0,12.79-4.5,13.5-4.5,29.85,0,13.5,7.34,22.98,19.19,22.98,13.98,0,18.71-10.66,18.71-24.87,0-9.71-2.61-13.27-6.63-13.27-2.61,0-3.79.71-6.87.71-6.63,0-14.21-2.84-14.21-17.06,0-12.79,7.82-20.37,23.69-20.37,22.5,0,38.37,19.42,38.37,47.85,0,38.61-22.5,60.88-53.06,60.88-35.29,0-54.48-22.27-54.48-55.9,0-26.53,7.34-46.66,24.4-46.66Z"/>
    <path class="cls-12" d="M1037.96,2402.13c0,14.69,4.5,20.61,4.5,29.37,0,11.61-3.55,22.5-21.32,22.5-16.34,0-19.66-9.71-19.66-22.5,0-7.82.95-25.82.95-39.08,0-21.79-6.4-20.61-6.4-32.45,0-6.4,3.08-15.4,18.71-15.4,13.5,0,20.61,7.82,21.32,16.11,4.03-9.95,10.19-16.11,26.06-16.11s27.48,12.55,27.48,30.08c0,15.63-6.87,26.29-19.66,26.29-7.11,0-12.79-3.55-12.79-10.19s-2.37-9.95-8.76-9.95c-7.82,0-10.42,6.63-10.42,21.32Z"/>
    <path class="cls-12" d="M1100.25,2338.17c0-28.42,10.9-49.74,40.51-49.74s36.24,14.92,36.24,27.71c0,13.74-7.34,20.13-18.24,20.13-7.82,0-12.08-4.5-12.08-9,0-1.66.47-2.13.47-3.79s-1.66-3.08-4.26-3.08c-5.68,0-6.87,7.11-6.87,14.21,0,6.63,1.18,20.37,1.18,20.37,5.92-5.69,13.5-10.42,27.24-10.42,31.03,0,42.87,18,42.87,29.85,0,22.27-14.92,28.9-24.4,35.29,1.66,3.55,6.4,8.76,10.66,8.76,3.55,0,4.03-1.18,8.29-1.18,5.21,0,13.74,3.08,13.74,15.4s-6.63,20.61-22.03,20.61-30.32-7.82-40.27-25.82c-5.45-9.71-7.34-16.58-7.34-26.06,0-7.34,5.68-10.42,12.32-10.42h3.55c4.97,0,8.05-2.13,8.05-6.4,0-4.97-3.32-8.05-12.32-8.05-11.37,0-19.9,5.92-19.9,20.37s2.61,17.06,2.61,28.19c0,14.92-2.84,28.19-19.66,28.19s-20.13-11.84-20.13-28.19c0-9.95.95-18.95.95-32.45,0,0-1.18-45.01-1.18-54.48Z"/>
    <path class="cls-12" d="M1316.28,2362.8c0,15.4-10.66,18-17.53,18-2.84,0-13.03-.71-24.16-1.42.47,4.74.71,9,.71,12.32.47,22.03,3.55,36.95,3.55,43.58,0,12.32-10.9,18-19.42,18-12.55,0-23.45-6.87-23.45-19.42,0-3.08,2.37-18.95,2.61-30.79.24-7.34,0-14.69-.24-22.74-1.66.24-3.55.24-5.69.24-7.11,0-14.92-4.74-14.92-15.16,0-12.55,6.63-16.82,14.92-16.82,1.66,0,3.08.24,4.5.24-.24-6.16-.24-13.26-.24-20.84,0-18.24,11.13-37.43,41.22-37.43,20.13,0,38.37,8.05,38.37,26.29,0,10.66-4.26,19.19-16.58,19.66-4.97.24-8.05-.95-9.71-2.13-1.89-1.18-2.84-3.32-3.55-5.69-.71-2.13-2.37-3.08-6.16-3.08-5.68,0-7.82,4.74-7.82,8.53,0,5.69.24,10.9.24,16.11,9.47-.71,19.42-1.89,25.82-1.89,8.76,0,17.53,2.37,17.53,14.45Z"/>
    <path class="cls-12" d="M1323.86,2309.51c0-13.03,6.63-21.32,20.37-21.32,14.45,0,21.08,8.29,21.08,17.77s-1.9,14.45-1.9,28.19l-.47,77.22c0,2.84,1.18,6.87,3.79,6.87,3.32,0,2.84-.71,7.11-.47s11.84,2.84,11.84,15.16c0,16.11-12.08,20.84-27.95,20.84-13.5,0-31.74-6.4-31.5-32.93l.47-92.85c0-5.21-2.84-12.79-2.84-18.48Z"/>
    <path class="cls-12" d="M1415.05,2350.25c10.42,0,15.4,5.92,15.4,15.87,0,12.79-4.5,13.5-4.5,29.85,0,13.5,7.34,22.98,19.19,22.98,13.98,0,18.71-10.66,18.71-24.87,0-9.71-2.61-13.27-6.63-13.27-2.61,0-3.79.71-6.87.71-6.63,0-14.21-2.84-14.21-17.06,0-12.79,7.82-20.37,23.69-20.37,22.5,0,38.37,19.42,38.37,47.85,0,38.61-22.5,60.88-53.06,60.88-35.29,0-54.48-22.27-54.48-55.9,0-26.53,7.34-46.66,24.4-46.66Z"/>
    <path class="cls-12" d="M1587.26,2409.7c-5.45,8.53-9.95,20.84-11.13,24.4-3.08,9.47-3.55,19.9-22.03,19.9-16.58,0-18.24-7.11-22.74-19.9-5.45-15.63-16.82-46.19-22.5-60.88-6.87-17.53,1.66-28.66,14.45-28.66s20.84,3.55,23.92,20.37c2.37,12.55,4.74,25.11,8.53,37.66,5.21-11.61,10.66-19.66,13.5-31.27-2.37-5.69-4.5-6.63-4.5-13.5,0-6.4,4.97-13.27,15.63-13.27,15.16,0,22.5,3.55,27.71,21.56,3.32,11.37,6.87,25.11,11.37,36.48,4.03-13.26,5.92-26.53,8.53-39.79,2.84-14.21,11.84-18.24,23.21-18.24,15.4,0,26.06,12.55,17.77,29.14-9,18-20.13,46.43-25.35,60.4-3.32,9-2.61,19.9-20.84,19.9-16.58,0-19.42-6.87-23.92-19.9-1.42-4.03-7.34-17.05-11.61-24.4Z"/>
    <path class="cls-12" d="M1682.24,2371.57c7.82-6.63,21.08-18.71,24.63-25.82,5.21-10.42,13.26-12.79,18.71-12.79,8.29,0,18.24,7.34,18.24,16.82,0,3.79-1.9,6.63-3.08,8.05,11.61,14.92,37.43,26.06,37.43,57.09,0,22.98-14.92,39.08-46.43,39.08-24.87,0-40.74-13.98-40.74-28.66,0-10.9,7.11-18.71,20.13-18.71,14.69,0,9.24,12.55,19.42,12.55,6.16,0,10.9-3.79,10.9-9.95,0-9.71-13.5-15.4-22.03-25.11-9,8.76-12.79,18.24-29.14,18.24-9.71,0-14.69-10.19-14.69-15.87,0-4.5,1.66-10.66,6.63-14.92Z"/>
  </g>
</svg>