<?xml version="1.0" encoding="UTF-8"?>
<svg id="yardstick" xmlns="http://www.w3.org/2000/svg" viewBox="0 0 2518.95 2908.64">
  <defs>
    <style>
      .cls-1 {
        stroke: #3b0e0b;
      }

      .cls-1, .cls-2, .cls-3, .cls-4, .cls-5, .cls-6, .cls-7, .cls-8, .cls-9, .cls-10, .cls-11, .cls-12, .cls-13 {
        stroke-miterlimit: 10;
      }

      .cls-1, .cls-3, .cls-4, .cls-5, .cls-7, .cls-8, .cls-9, .cls-11, .cls-12, .cls-13 {
        fill: none;
      }

      .cls-1, .cls-3, .cls-5, .cls-6, .cls-7, .cls-9, .cls-13 {
        stroke-width: 10px;
      }

      .cls-14 {
        fill: #84726c;
      }

      .cls-15 {
        fill: #f8ffff;
      }

      .cls-2 {
        fill: #f7d28d;
        stroke-width: 13px;
      }

      .cls-2, .cls-7, .cls-8 {
        stroke: #490000;
      }

      .cls-16 {
        fill: #420e0a;
      }

      .cls-3, .cls-9 {
        stroke: #3a110e;
      }

      .cls-4 {
        stroke: #fff;
        stroke-width: 6px;
      }

      .cls-5, .cls-6, .cls-11 {
        stroke: #310702;
      }

      .cls-5, .cls-9, .cls-13 {
        stroke-linecap: round;
      }

      .cls-17 {
        fill: #ebd5d1;
      }

      .cls-18 {
        fill: #604d49;
      }

      .cls-19 {
        fill: #68504e;
      }

      .cls-20 {
        fill: #61524c;
      }

      .cls-6 {
        fill: #df8d8e;
      }

      .cls-21 {
        fill: #beaba0;
      }

      .cls-22 {
        fill: #f4f8dd;
      }

      .cls-23 {
        fill: #ebd9d1;
      }

      .cls-24 {
        fill: #fff;
      }

      .cls-25 {
        fill: #3f0f0c;
      }

      .cls-8 {
        stroke-width: 8.16px;
      }

      .cls-26 {
        fill: #efaeac;
      }

      .cls-27 {
        fill: #bdaca0;
      }

      .cls-28 {
        fill: #f1dbd7;
      }

      .cls-29 {
        fill: #ec8783;
      }

      .cls-30 {
        fill: #fefefe;
      }

      .cls-31 {
        fill: #490000;
      }

      .cls-32, .cls-10 {
        fill: #dce0bf;
      }

      .cls-10 {
        stroke: #a6ad72;
        stroke-width: 15px;
      }

      .cls-11 {
        stroke-width: 5px;
      }

      .cls-12 {
        stroke: #411013;
        stroke-width: 12px;
      }

      .cls-33 {
        fill: #f2acad;
      }

      .cls-13 {
        stroke: #32181b;
      }
    </style>
  </defs>
  <polygon class="cls-22" points="-.95 727.11 -.95 2181.34 1258.53 2908.45 2518.01 2181.34 2518.01 727.11 1258.53 0 -.95 727.11"/>
  <path class="cls-32" d="M1259.48,0L0,727.16v1454.32l1259.48,727.16,1259.47-727.16V727.16L1259.48,0ZM2411.88,2119.66l-1152.4,665.35L107.07,2119.66V788.98L1259.48,123.64l1152.4,665.34v1330.68Z"/>
  <g>
    <path class="cls-27" d="M2274.05,1665c-11.81,13.35-24.92,13.13-38,19-15.97,7.17-31.03,23.03-46.2,72.88-3.26,10.72-6.52,23.01-9.8,37.12-5.33,22.97-8.47,41.14-10.65,56.94-3.56,25.81-4.55,45.31-8.35,69.06-3.66,22.88-9.06,44.25-15.42,63.89-12.71,39.29-29.24,71.65-43.3,95.27-10.18,17.09-19.07,29.6-24.28,36.84-4.69,6.51-10.17,14.06-16.57,22.29-26.85,34.55-69.87,81.03-138.43,112.71-98.18,45.37-190.09,33.3-228,26,4.67-51.67,9.33-103.33,14-155,25.36.53,66.32-1.84,112-20l1.56-.63c82.04-33.17,124.55-95.59,138.44-118.37,3.17-5.19,6.1-10.38,8.82-15.56,15.6-29.67,24.21-58.97,29.77-86.51,3.82-18.96,6.2-37.08,8.41-53.93,2.9-22.1,3.31-36.69,3.98-51.47.76-16.41,1.84-33.07,7.02-60.53,1.91-10.13,3.67-19.45,5.43-28.11,7.07-34.77,14.2-58.82,31.57-81.89,6.78-9,49.79-67.14,117-65,39.91,1.27,67.91,23.12,78,31,15.13,11.81,32.75,25.56,36,49,.21,1.48,3.3,26.58-13,45Z"/>
    <path class="cls-19" d="M2189.85,1756.88c-3.26,10.72-6.52,23.01-9.8,37.12-5.33,22.97-8.47,41.14-10.65,56.94-25.93-7.8-54.46-18.42-84.35-32.94-27.74-13.48-52.05-28.08-73.02-42.47.76-16.41,1.84-33.07,7.02-60.53,1.91-10.13,3.67-19.45,5.43-28.11,25.65,1.34,57.15,6.69,90.57,21.11,31.5,13.59,56.14,31.54,74.8,48.88Z"/>
    <path class="cls-19" d="M2145.63,1983.89c-12.71,39.29-29.24,71.65-43.3,95.27-18.1-24.04-42.02-50.09-73.28-74.16-20.32-15.65-40.43-27.92-59.18-37.56,15.6-29.67,24.21-58.97,29.77-86.51,25.41,10.34,54.62,25.29,84.41,47.07,24.92,18.23,45.23,37.56,61.58,55.89Z"/>
    <path class="cls-14" d="M2061.48,2138.29c-26.85,34.55-69.87,81.03-138.43,112.71-98.18,45.37-190.09,33.3-228,26,4.67-51.67,9.33-103.33,14-155,25.36.53,66.32-1.84,112-20l1.56-.63c1.15,31.54,2.29,63.09,3.44,94.63,40.72-4.22,88.14-11.98,140-26,34.95-9.45,66.82-20.36,95.43-31.71Z"/>
    <path class="cls-1" d="M2274.05,1665c-11.81,13.35-24.92,13.13-38,19-15.97,7.17-31.03,23.03-46.2,72.88-3.26,10.72-6.52,23.01-9.8,37.12-5.33,22.97-8.47,41.14-10.65,56.94-3.56,25.81-4.55,45.31-8.35,69.06-3.66,22.88-9.06,44.25-15.42,63.89-12.71,39.29-29.24,71.65-43.3,95.27-10.18,17.09-19.07,29.6-24.28,36.84-4.69,6.51-10.17,14.06-16.57,22.29-26.85,34.55-69.87,81.03-138.43,112.71-98.18,45.37-190.09,33.3-228,26,4.67-51.67,9.33-103.33,14-155,25.36.53,66.32-1.84,112-20l1.56-.63c82.04-33.17,124.55-95.59,138.44-118.37,3.17-5.19,6.1-10.38,8.82-15.56,15.6-29.67,24.21-58.97,29.77-86.51,3.82-18.96,6.2-37.08,8.41-53.93,2.9-22.1,3.31-36.69,3.98-51.47.76-16.41,1.84-33.07,7.02-60.53,1.91-10.13,3.67-19.45,5.43-28.11,7.07-34.77,14.2-58.82,31.57-81.89,6.78-9,49.79-67.14,117-65,39.91,1.27,67.91,23.12,78,31,15.13,11.81,32.75,25.56,36,49,.21,1.48,3.3,26.58-13,45Z"/>
    <path class="cls-30" d="M1708.08,2486.59c-.33.47-.68.94-1.03,1.41-10.4,13.71-33.09,27.64-45,22-2.37-1.12-6.18-3.9-11-3-4.77.89-6.74,4.68-10,8-9.88,10.04-30.18,14.21-42,8-4.23-2.22-7.15-5.66-12-5-4.13.56-6.51,3.67-8,5-8.55,7.64-33.5-2.36-49-13-6.15-4.22-38.78-27.74-43-69-5.61-54.84,44.08-90.97,51-96,30.87-22.44,84.27-39.31,125-14,26.46,16.45,36.49,43.8,43.57,70.5,1.21,4.54,2.33,9.06,3.43,13.5,5.81,23.44,12.58,50.81-1.97,71.59Z"/>
    <path class="cls-30" d="M1206.55,2426.5c-13.96,44.05-51.76,63.76-81,79,0,0-46.93,24.46-69,12-.48-.27-6.35-3.93-7.83-5.84-.03-.03-.08-.1-.17-.16-1.61-1.15-6.95,5.75-9,6-25,3-37,1-51-10-3.72-2.92-2.64-9.2-7-11-3.57-1.48-6.5.58-10,1-10.31,1.25-19.99-12.35-24-18-.82-1.15-3.12-4.38-5.6-9.16-4.78-9.16-10.27-24.02-7.4-40.84,2.99-17.51,13.73-29.55,28.17-41.09,5.77-4.61,12.14-9.14,18.83-13.91,13.94-9.92,39.38-27.64,80-37,18.67-4.3,113.11-26.06,143,20,16.03,24.71,5.78,57.06,2,69Z"/>
    <path class="cls-23" d="M1206.55,2426.5c-13.96,44.05-51.76,63.76-81,79,0,0-46.93,24.46-69,12-.48-.27-6.35-3.93-7.83-5.84-.03-.03-.08-.1-.17-.16-1.61-1.15-6.95,5.75-9,6-25,3-37,1-51-10-3.72-2.92-2.64-9.2-7-11-3.57-1.48-6.5.58-10,1-10.31,1.25-19.99-12.35-24-18-.82-1.15-3.12-4.38-5.6-9.16,12.96,2.91,34.75,8.53,71.6,13.16,43.05,5.41,63.48,4.06,83-1,14.49-3.76,42.71-11.49,54-35,2.18-4.55,6.65-13.86,3-22-5.47-12.2-25.35-13.23-54-16-24.4-2.36-48.57-6.91-73-9-16.86-1.45-38.34-4.69-63.83-12.09,5.77-4.61,12.14-9.14,18.83-13.91,13.94-9.92,39.38-27.64,80-37,18.67-4.3,113.11-26.06,143,20,16.03,24.71,5.78,57.06,2,69Z"/>
    <path class="cls-23" d="M1708.08,2486.59c-.33.47-.68.94-1.03,1.41-10.4,13.71-33.09,27.64-45,22-2.37-1.12-6.18-3.9-11-3-4.77.89-6.74,4.68-10,8-9.88,10.04-30.18,14.21-42,8-4.23-2.22-7.15-5.66-12-5-4.13.56-6.51,3.67-8,5-8.55,7.64-33.5-2.36-49-13-6.15-4.22-38.78-27.74-43-69-5.61-54.84,44.08-90.97,51-96,30.87-22.44,84.27-39.31,125-14,26.46,16.45,36.49,43.8,43.57,70.5-13.8-.31-25.53.67-35.07,2-37.61,5.24-43.36,16.23-75,14-17.71-1.25-34.04-5.96-57,1-8.79,2.67-19.52,6.08-23,15-5.41,13.86,10.35,31.63,16,38,3.34,3.77,10.62,11.81,23,18,8.56,4.28,23.02,9.39,67,5,33.79-3.38,35.4-7.41,58-8,7.51-.2,17.76-.47,27.53.09Z"/>
    <path class="cls-9" d="M1651.05,2507s8.5-39.5-4.5-63.5"/>
    <path class="cls-9" d="M1588.5,2517.93s8.05-35.43-7.95-70.43"/>
    <path class="cls-9" d="M1048.55,2511.5s-12-46,14-66"/>
    <path class="cls-9" d="M981.55,2496.5s-8-46,18-70"/>
    <path class="cls-3" d="M1708.08,2486.59c-.33.47-.68.94-1.03,1.41-10.4,13.71-33.09,27.64-45,22-2.37-1.12-6.18-3.9-11-3-4.77.89-6.74,4.68-10,8-9.88,10.04-30.18,14.21-42,8-4.23-2.22-7.15-5.66-12-5-4.13.56-6.51,3.67-8,5-8.55,7.64-33.5-2.36-49-13-6.15-4.22-38.78-27.74-43-69-5.61-54.84,44.08-90.97,51-96,30.87-22.44,84.27-39.31,125-14,26.46,16.45,36.49,43.8,43.57,70.5,1.21,4.54,2.33,9.06,3.43,13.5,5.81,23.44,12.58,50.81-1.97,71.59Z"/>
    <path class="cls-3" d="M1206.55,2426.5c-13.96,44.05-51.76,63.76-81,79,0,0-46.93,24.46-69,12-.48-.27-6.35-3.93-7.83-5.84-.03-.03-.08-.1-.17-.16-1.61-1.15-6.95,5.75-9,6-25,3-37,1-51-10-3.72-2.92-2.64-9.2-7-11-3.57-1.48-6.5.58-10,1-10.31,1.25-19.99-12.35-24-18-.82-1.15-3.12-4.38-5.6-9.16-4.78-9.16-10.27-24.02-7.4-40.84,2.99-17.51,13.73-29.55,28.17-41.09,5.77-4.61,12.14-9.14,18.83-13.91,13.94-9.92,39.38-27.64,80-37,18.67-4.3,113.11-26.06,143,20,16.03,24.71,5.78,57.06,2,69Z"/>
    <path class="cls-21" d="M1948.55,1556.5c-19.32-43.11-65.78-66.51-129-84-146.59-40.55-383.41-49.35-570.52,45-34.66,17.47-67.62,38.49-97.98,63.5-40.32,33.22-50.07,52.07-129,118-7.57,6.32-14.78,12.24-21.63,17.82-74.74,60.72-108.24,80.11-118.37,125.18-8.16,36.32,10.53,37.38,34,136,8.24,34.61,18.76,78.81,25.94,130.86,4.21,30.47,7.27,63.64,8.06,99.14.65,29.01-.35,54.16,14,84,.08.16.15.32.23.48,20.25,41.71,57.68,66.02,70.77,74.52,14.17,9.2,27.27,17.72,47,22,24.55,5.33,28.85-2.51,63,1,2.54.26,4.93.55,7.19.86,24.8,3.41,34.2,9.17,45.81,2.14,6.35-3.84,9.15-8.96,18-28,6.54-14.06,14.79-32.31,24-54,10.52,6.03,22.5,11.61,36,16,53.36,17.36,102.24,6.93,133,0,15.8-3.56,29.55-7.85,41-12,6.54,14.89,12.77,26.9,17.5,35.5,15.12,27.48,21.99,32.97,27,36,10.44,6.31,20.83,6.77,28,7,57,1.84,85.51,2.75,104-2,73.33-18.85,114.19-73.59,121-83,34.85-48.13,38.56-96.58,42-151,3.35-53.12-2.58-98.56-12.49-141.69-6.34-27.57-14.3-54.21-22.51-81.31-10.1-33.38-25.99-74.73-47.21-122.35,11.88,24.37,24.96,42.97,50.21,51.35,56.55,18.77,106.81-21.62,116-29,36.68-29.47,46.71-67.86,64-134,17.77-67.96,27.83-106.45,11-144ZM1679.19,1751.83c-.21-.44-.42-.89-.64-1.33.23.43.46.87.68,1.3,6.34,12.11,11.6,23.81,16.49,34.83-5.23-11.3-10.75-22.9-16.53-34.8Z"/>
    <path class="cls-24" d="M1526.55,2177.5c-71.12,70.61-159.4,79.53-189,81-24.74,1.23-142.26,7.08-209-74-2.79-3.38-5.4-6.82-7.86-10.31,153.39-116,306.79-232,460.18-348,12.76,30.24,21.56,62.12,25.68,94.31,3.75,29.28,16.4,161.3-80,257Z"/>
    <path class="cls-14" d="M1811.55,1586.5c-14,32.33-28,64.67-42,97-30.11,22.77-60.21,45.54-90.32,68.3-.01.01-.03.02-.04.03-32.77,24.79-65.55,49.57-98.32,74.36-18.4-43.63-45.03-83.84-77.67-116.58,66.12-47.04,132.23-94.07,198.35-141.11,36.67,6,73.33,12,110,18Z"/>
    <path class="cls-28" d="M1580.87,1826.19c-153.39,116-306.79,232-460.18,348-36.76-52.17-37.8-115.46-29.7-171.33,137.4-97.75,274.81-195.5,412.21-293.25,32.64,32.74,59.27,72.95,77.67,116.58Z"/>
    <path class="cls-14" d="M1789.55,2157.5c-3.44,54.42-7.15,102.87-42,151-6.81,9.41-47.67,64.15-121,83-18.49,4.75-47,3.84-104,2-7.17-.23-17.56-.69-28-7-5.01-3.03-11.88-8.52-27-36-4.73-8.6-10.96-20.61-17.5-35.5-11.45,4.15-25.2,8.44-41,12-30.76,6.93-79.64,17.36-133,0-13.5-4.39-25.48-9.97-36-16-9.21,21.69-17.46,39.94-24,54-8.85,19.04-11.65,24.16-18,28-11.61,7.03-21.01,1.27-45.81-2.14,14.57-17.47,32.78-40.11,38.31-76.36,2.85-18.71,1.3-34.28,0-43,46.69,6.19,100.46,10.41,160,10,53.07-.37,101.39-4.35,144-10-1.86,6.12-3.91,15.08-4,26-.04,5.02-.22,26.7,11,44,14.41,22.23,41.26,27.37,55,30,57.55,11.02,106.87-22.07,114-27,53.89-37.29,70.66-97.44,84-148,24.14-91.49,6.6-140.16,22.51-180.69,9.91,43.13,15.84,88.57,12.49,141.69Z"/>
    <path class="cls-14" d="M1120.69,2174.19c-52.14,39.43-104.27,78.86-156.41,118.29-.08-.16-.15-.32-.23-.48-14.35-29.84-13.35-54.99-14-84-.79-35.5-3.85-68.67-8.06-99.14,49.67-35.34,99.33-70.67,149-106-8.1,55.87-7.06,119.16,29.7,171.33Z"/>
    <path class="cls-1" d="M1151.05,1581c-40.32,33.22-50.07,52.07-129,118-90.03,75.2-128.94,93.79-140,143-8.16,36.32,10.53,37.38,34,136,13.06,54.87,31.86,133.87,34,230,.65,29.01-.35,54.16,14,84,20.19,42,57.86,66.47,71,75,14.17,9.2,27.27,17.72,47,22,24.55,5.33,28.85-2.51,63,1,30.29,3.11,40.33,10.67,53,3,6.35-3.84,9.15-8.96,18-28,6.54-14.06,14.79-32.31,24-54,10.52,6.03,22.5,11.61,36,16,53.36,17.36,102.24,6.93,133,0,15.8-3.56,29.55-7.85,41-12,6.54,14.89,12.77,26.9,17.5,35.5,15.12,27.48,21.99,32.97,27,36,10.44,6.31,20.83,6.77,28,7,57,1.84,85.51,2.75,104-2,73.33-18.85,114.19-73.59,121-83,34.85-48.13,38.56-96.58,42-151,5.5-87.09-13.96-153.51-35-223-14.25-47.07-40-110-76-184,28,53,35.11,98.43,79,113,56.55,18.77,106.81-21.62,116-29,36.68-29.47,46.71-67.86,64-134,17.77-67.96,27.83-106.45,11-144-19.32-43.11-65.78-66.51-129-84-173.75-48.06-474.25-51.52-668.5,108.5Z"/>
    <path class="cls-14" d="M1186.55,1757.5c-44.24-2.33-50.54-29.64-102-42-30.2-7.26-58.46-5.16-84.13,1.32,6.85-5.58,14.06-11.5,21.63-17.82,78.93-65.93,88.68-84.78,129-118,30.36-25.01,63.32-46.03,97.98-63.5,58.57,23.23,101.63,60.18,106.52,97,8.22,61.83-87.98,147.26-169,143Z"/>
  </g>
  <g>
    <path class="cls-27" d="M1913.05,1383c-32.05,99.08-111.72,152.64-169,190-4.41,2.88-8.81,5.67-13.22,8.38-127.07,78.28-251.27,89.72-358.78,99.62-196.04,18.05-333.02-19.97-364-29-34.77-10.13-119.2-37.13-207-101-70.77-51.48-90.01-87.85-98-106-4.42-10.06-7.71-19.79-10.13-29.65-.82-3.31-1.54-6.63-2.16-9.99-2.59-13.75-3.7-28.01-4.06-43.93-.33-14.48-.03-30.34.35-48.43.17-7.82.48-16.25.99-25.25,2.2-38.61,8.22-87.66,23.01-143.75-30.18-49.74-75.25-138.35-92-258-18.2-129.97,5.64-235,23-292,57.74,9.13,135,27.4,220,66,78.13,35.48,138.65,77.17,182,112,22.98-13.88,59.82-33.67,108.25-49.14,16.6-5.31,34.55-10.11,53.78-13.98,20.87-4.22,43.23-7.35,66.97-8.88,30.7-1.97,59.32-.98,85.37,1.81,19.51,2.07,37.59,5.15,54.03,8.73,28.4,6.19,51.94,13.86,69.6,20.46,36.01-35.33,94.98-84.72,179-123,97.97-44.63,186.36-54.29,240-56,14.48,60.98,28.63,150.37,21,258-7.61,107.39-34.12,193.72-57,252,15.66,25.94,36.98,67.34,49.9,121.64,2.81,11.85,5.23,24.31,7.1,37.36,1.94,13.56,4.67,33.5,5.25,57.34.03,1.16.05,2.32.07,3.5.44,29.57-2.55,64.78-14.32,101.16Z"/>
    <path class="cls-18" d="M1412.45,710.54c-1,12.17-2.97,25.43-6.4,39.46-3.67,14.96-11.01,44.92-21,45-11.31.09-20.67-38.15-24-59-1.93-12.05-2.68-23.51-2.63-34.19,19.51,2.07,37.59,5.15,54.03,8.73Z"/>
    <path class="cls-18" d="M1206.08,708.88c-.02,8.52-.32,17.58-1.03,27.12-1.77,24.02-4.08,55.23-14,57-12.12,2.16-28.91-40.8-32-49-2.74-7.26-4.96-14.33-6.75-21.14,16.6-5.31,34.55-10.11,53.78-13.98Z"/>
    <path class="cls-25" d="M1510.05,953c15.16,6.31,33.63,20.29,31,29-2.8,9.27-29.55,12.54-50,4-17.43-7.28-33.64-24.52-30-33,3.87-9.02,30.12-7.86,49,0Z"/>
    <path class="cls-25" d="M1092.05,977c5.24,7.96-10.35,29.16-27,41-19.22,13.68-47.46,20.3-53,12-5.35-8.01,10.44-29.91,28-42,18.94-13.04,46.57-19.25,52-11Z"/>
    <path class="cls-4" d="M1899.05,779c-5.81,106.24-33.9,190.59-57,245-20.59-30.42-47.05-64.96-80.65-100.41-1.76-1.86-3.55-3.72-5.35-5.59-39.45-40.82-78.37-72.25-112-96,26.36-43.22,64.09-95.94,117-149,26.78-26.85,53.33-49.67,78.35-68.96,14.48-11.16,28.45-21.14,41.65-30.04,11.86,50.84,22.58,121.31,18,205Z"/>
    <path class="cls-29" d="M904.05,868c-30.27,24.98-68.75,61.85-105,113-5.68,8.01-11,15.95-16,23.79-27.07,42.47-44.58,82.04-56,113.21-27.46-41.82-71.02-120.13-87-228-17.37-117.21,6.33-211.97,23.04-262.22.67-2,1.32-3.92,1.96-5.78,39.16,29.13,83.15,66.01,128,112,46,47.17,82.47,93.25,111,134Z"/>
    <path class="cls-29" d="M1899.05,779c-5.81,106.24-33.9,190.59-57,245-20.59-30.42-47.05-64.96-80.65-100.41-1.76-1.86-3.55-3.72-5.35-5.59-39.45-40.82-78.37-72.25-112-96,26.36-43.22,64.09-95.94,117-149,26.78-26.85,53.33-49.67,78.35-68.96,14.48-11.16,28.45-21.14,41.65-30.04,11.86,50.84,22.58,121.31,18,205Z"/>
    <path class="cls-33" d="M783.05,1004.79c-27.07,42.47-44.58,82.04-56,113.21-27.46-41.82-71.02-120.13-87-228-17.37-117.21,6.33-211.97,23.04-262.22,36.52,49.62,77.45,120.5,100.96,212.22,15.81,61.68,19.96,118,19,164.79Z"/>
    <path class="cls-33" d="M1899.05,779c-5.81,106.24-33.9,190.59-57,245-20.59-30.42-47.05-64.96-80.65-100.41-2.01-47.03,1.25-100.73,14.65-158.59,14.66-63.27,38.06-116.95,63.35-160.96,14.48-11.16,28.45-21.14,41.65-30.04,11.86,50.84,22.58,121.31,18,205Z"/>
    <path class="cls-24" d="M1913.05,1383c-32.05,99.08-111.72,152.64-169,190-131.66,85.87-260.77,97.76-372,108-196.04,18.05-333.02-19.97-364-29-34.77-10.13-119.2-37.13-207-101-70.77-51.48-90.01-87.85-98-106-12.01-27.3-15.64-52.22-16.35-83.57,49.25-20.16,103.45-50.15,158.35-98.43,50.99-44.84,62.74-70.4,135-126,108.31-83.33,157.56-84.1,210-139,41.91-43.87,85.23-121.67,82-270,30.17,144.87,89.79,209.71,140,242,89.46,57.54,139.68,48.08,269,124,68.16,40.01,102.94,87.18,181,144,22.51,16.39,44.3,29.61,65.25,40.34.73,30.27-2.01,66.83-14.25,104.66Z"/>
    <path class="cls-16" d="M971.97,1210.41c.07-8.66,1.36-22.95,8.89-38.03,21.37-42.81,71.94-49.7,77.28-50.34,13.56-1.63,47.75-2.98,76.72,21.18,42.16,35.17,33.57,91.29,33.04,94.37-8.03,47.09-46.13,69.7-51.22,72.6-3.49,1.99-50.76,28.02-92.29,5.38-23.31-12.7-34.88-35.32-39.5-44.36-7.1-13.88-10.13-26.62-11.55-35.43-.42.68-7.65,12.12-19.48,11.94-12.33-.18-22.28-12.86-21.61-25.27.54-10.08,8.13-20.94,19.43-22.05,12.05-1.18,19.95,9.54,20.28,10.01Z"/>
    <path class="cls-16" d="M1672.06,1150.05c-2.81-9.08-9.02-24.87-23.01-39.7-27.95-29.61-64.33-31.41-70-31.6-8.57-.29-45.59-.42-72.09,27.17-13.32,13.87-18.36,28.88-20.48,35.44-7.95,24.56-3.84,45.37-1.18,58,3.36,15.98,7.93,37.73,26.79,55.99,19.4,18.79,42.27,22.59,52.87,24.36,11.92,1.98,41.1,6.84,68.26-10.64,19.61-12.62,28.16-30.43,31.64-37.93,10.49-22.6,9.38-43.24,8.33-52.39,1.09,1.22,7.98,8.63,17.9,8.14,11.54-.57,22.24-11.59,21.3-24.43-.82-11.26-10.32-20.3-21.11-21.02-11.04-.74-18.36,7.58-19.22,8.59Z"/>
    <ellipse class="cls-15" cx="1037.03" cy="1186.9" rx="21.82" ry="21.85" transform="translate(-227.42 2127.81) rotate(-85.51)"/>
    <ellipse class="cls-15" cx="1537.97" cy="1140.36" rx="24.34" ry="24.37" transform="translate(280.68 2584.32) rotate(-85.51)"/>
    <ellipse class="cls-15" cx="1609.39" cy="1132.5" rx="15.11" ry="15.12" transform="translate(354.34 2648.27) rotate(-85.51)"/>
    <path class="cls-6" d="M1352.55,1249.5c-5.95-15.84-42.1-15.17-51-15-6.38.12-48.64.91-54,19-5.02,16.95,38.96,48,53,48,13,0,58.2-35.47,52-52Z"/>
    <path class="cls-5" d="M1300.55,1301.5l3,42s-54,99-113,10"/>
    <path class="cls-5" d="M1303.55,1343.5s71,77,116-5"/>
    <path class="cls-20" d="M833.55,1292.5c-1,37.49-39.97,62.95-63,78-26.33,17.2-53.69,28.11-79.79,34.86-2.59-13.75-3.7-28.01-4.06-43.93-.33-14.48-.03-30.34.35-48.43.17-7.82.48-16.25.99-25.25,14.44-5.36,27-10.16,37.51-14.25,48.69-18.92,76.36-31.38,94-18,13.58,10.3,14.17,30.56,14,37Z"/>
    <path class="cls-20" d="M1927.37,1281.84c-12.24-.33-25.87-1.29-40.82-2.34-34.98-2.47-78.33-6.11-107-37-5.68-6.13-21.56-23.24-17-40,.71-2.59,3.84-12.3,21-21,29.21-14.81,60.87-7.31,78-4,14.51,2.8,32.25,5.26,53.4,6.14,2.81,11.85,5.23,24.31,7.1,37.36,1.94,13.56,4.67,33.5,5.25,57.34.03,1.16.05,2.32.07,3.5Z"/>
    <path class="cls-26" d="M958.55,1424.5c12.5-7.88,42.64-26.89,40-49-2.54-21.29-33.94-32.7-43-36-54.73-19.9-108.51,11.59-128,23-17.74,10.39-47.64,27.89-45,46,2.3,15.8,28.18,23.8,45,29,22.25,6.88,79.48,19.5,131-13Z"/>
    <path class="cls-26" d="M1810.55,1293.5c-26.58-21.95-57.38-23.45-89-25-34.84-1.7-59.86,4.41-78,9-32.79,8.3-53.8,13.61-61,31-5.94,14.33-.91,33.04,9,45,11.63,14.03,31.36,20.4,117,14,83.03-6.21,124.65-9.71,130-29,4.94-17.81-20.89-39.13-28-45Z"/>
    <path class="cls-17" d="M1730.83,1581.38c-127.07,78.28-251.27,89.72-358.78,99.62-196.04,18.05-333.02-19.97-364-29-34.77-10.13-119.2-37.13-207-101-70.77-51.48-90.01-87.85-98-106-4.42-10.06-7.71-19.79-10.13-29.65,26.34,15.46,62.16,39.78,109.63,72.15,65.93,44.95,69.18,50.73,98,66,64.49,34.18,121.31,44,170,52,84.24,13.84,145.46,8.61,246,0,97.99-8.39,124.71-19.91,139-27,60.63-30.09,65.45-63.76,107-74,56.45-13.91,135.02,26.68,168.28,76.88Z"/>
    <path class="cls-11" d="M904.05,868c-30.27,24.98-68.75,61.85-105,113-5.68,8.01-11,15.95-16,23.79-27.07,42.47-44.58,82.04-56,113.21-27.46-41.82-71.02-120.13-87-228-17.37-117.21,6.33-211.97,23.04-262.22.67-2,1.32-3.92,1.96-5.78,39.16,29.13,83.15,66.01,128,112,46,47.17,82.47,93.25,111,134Z"/>
    <path class="cls-11" d="M1899.05,779c-5.81,106.24-33.9,190.59-57,245-20.59-30.42-47.05-64.96-80.65-100.41-1.76-1.86-3.55-3.72-5.35-5.59-39.45-40.82-78.37-72.25-112-96,26.36-43.22,64.09-95.94,117-149,26.78-26.85,53.33-49.67,78.35-68.96,14.48-11.16,28.45-21.14,41.65-30.04,11.86,50.84,22.58,121.31,18,205Z"/>
    <path class="cls-12" d="M1913.05,1383c-32.05,99.08-111.72,152.64-169,190-4.41,2.88-8.81,5.67-13.22,8.38-127.07,78.28-251.27,89.72-358.78,99.62-196.04,18.05-333.02-19.97-364-29-34.77-10.13-119.2-37.13-207-101-70.77-51.48-90.01-87.85-98-106-4.42-10.06-7.71-19.79-10.13-29.65-.82-3.31-1.54-6.63-2.16-9.99-2.59-13.75-3.7-28.01-4.06-43.93-.33-14.48-.03-30.34.35-48.43.17-7.82.48-16.25.99-25.25,2.2-38.61,8.22-87.66,23.01-143.75-30.18-49.74-75.25-138.35-92-258-18.2-129.97,5.64-235,23-292,57.74,9.13,135,27.4,220,66,78.13,35.48,138.65,77.17,182,112,22.98-13.88,59.82-33.67,108.25-49.14,16.6-5.31,34.55-10.11,53.78-13.98,20.87-4.22,43.23-7.35,66.97-8.88,30.7-1.97,59.32-.98,85.37,1.81,19.51,2.07,37.59,5.15,54.03,8.73,28.4,6.19,51.94,13.86,69.6,20.46,36.01-35.33,94.98-84.72,179-123,97.97-44.63,186.36-54.29,240-56,14.48,60.98,28.63,150.37,21,258-7.61,107.39-34.12,193.72-57,252,15.66,25.94,36.98,67.34,49.9,121.64,2.81,11.85,5.23,24.31,7.1,37.36,1.94,13.56,4.67,33.5,5.25,57.34.03,1.16.05,2.32.07,3.5.44,29.57-2.55,64.78-14.32,101.16Z"/>
    <path class="cls-13" d="M886.09,1346.06s-212.54-25.56-321.54,21.44"/>
    <path class="cls-13" d="M875.55,1382.5s-181.13,25.65-285.57,71.83"/>
    <path class="cls-13" d="M912.05,1432.4s-184.5,69.1-231.5,157.1"/>
  </g>
  <g>
    <rect class="cls-2" x="435.45" y="1586.52" width="1916" height="281" transform="translate(-755.96 1175.37) rotate(-36.71)"/>
    <g>
      <line class="cls-7" x1="2074.78" y1="1394.28" x2="2029.95" y2="1334.15"/>
      <line class="cls-7" x1="1904.11" y1="1521.53" x2="1859.28" y2="1461.4"/>
      <line class="cls-7" x1="1733.44" y1="1648.78" x2="1688.61" y2="1588.65"/>
      <line class="cls-7" x1="1392.09" y1="1903.28" x2="1347.26" y2="1843.15"/>
      <line class="cls-7" x1="1050.75" y1="2157.78" x2="1005.92" y2="2097.65"/>
      <line class="cls-7" x1="880.07" y1="2285.03" x2="835.24" y2="2224.9"/>
      <line class="cls-7" x1="1562.77" y1="1776.03" x2="1517.94" y2="1715.9"/>
      <line class="cls-7" x1="1221.42" y1="2030.53" x2="1176.59" y2="1970.4"/>
      <line class="cls-8" x1="2164.78" y1="1334.41" x2="2134.89" y2="1294.32"/>
      <line class="cls-8" x1="1994.11" y1="1461.66" x2="1964.22" y2="1421.57"/>
      <line class="cls-8" x1="1823.44" y1="1588.91" x2="1793.55" y2="1548.82"/>
      <line class="cls-8" x1="1482.09" y1="1843.41" x2="1452.2" y2="1803.32"/>
      <line class="cls-8" x1="1140.74" y1="2097.9" x2="1110.86" y2="2057.82"/>
      <line class="cls-8" x1="970.07" y1="2225.15" x2="940.18" y2="2185.07"/>
      <line class="cls-8" x1="1652.76" y1="1716.16" x2="1622.88" y2="1676.07"/>
      <line class="cls-8" x1="1311.42" y1="1970.65" x2="1281.53" y2="1930.57"/>
      <line class="cls-8" x1="796.98" y1="2350.72" x2="767.09" y2="2310.64"/>
      <line class="cls-7" x1="1950.6" y1="1229.53" x2="1905.77" y2="1169.4"/>
      <line class="cls-7" x1="1779.93" y1="1356.78" x2="1735.09" y2="1296.65"/>
      <line class="cls-7" x1="1609.25" y1="1484.03" x2="1564.42" y2="1423.9"/>
      <line class="cls-7" x1="1267.91" y1="1738.53" x2="1223.08" y2="1678.4"/>
      <line class="cls-7" x1="926.56" y1="1993.03" x2="881.73" y2="1932.9"/>
      <line class="cls-7" x1="755.89" y1="2120.28" x2="711.06" y2="2060.15"/>
      <line class="cls-7" x1="1438.58" y1="1611.28" x2="1393.75" y2="1551.15"/>
      <line class="cls-7" x1="1097.23" y1="1865.78" x2="1052.4" y2="1805.65"/>
      <line class="cls-8" x1="2022.19" y1="1144.97" x2="1992.3" y2="1104.89"/>
      <line class="cls-8" x1="1851.52" y1="1272.22" x2="1821.63" y2="1232.14"/>
      <line class="cls-8" x1="1680.84" y1="1399.47" x2="1650.96" y2="1359.39"/>
      <line class="cls-8" x1="1339.5" y1="1653.97" x2="1309.61" y2="1613.88"/>
      <line class="cls-8" x1="998.15" y1="1908.47" x2="968.26" y2="1868.38"/>
      <line class="cls-8" x1="827.48" y1="2035.72" x2="797.59" y2="1995.63"/>
      <line class="cls-8" x1="1510.17" y1="1526.72" x2="1480.28" y2="1486.63"/>
      <line class="cls-8" x1="1168.82" y1="1781.22" x2="1138.94" y2="1741.13"/>
      <line class="cls-8" x1="656.05" y1="2163.53" x2="626.17" y2="2123.44"/>
      <line class="cls-8" x1="2066.28" y1="1112.1" x2="2036.4" y2="1072.01"/>
      <line class="cls-8" x1="1895.61" y1="1239.35" x2="1865.72" y2="1199.26"/>
      <line class="cls-8" x1="1724.94" y1="1366.59" x2="1695.05" y2="1326.51"/>
      <line class="cls-8" x1="1383.59" y1="1621.09" x2="1353.7" y2="1581.01"/>
      <line class="cls-8" x1="1042.24" y1="1875.59" x2="1012.36" y2="1835.51"/>
      <line class="cls-8" x1="871.57" y1="2002.84" x2="841.68" y2="1962.76"/>
      <line class="cls-8" x1="1554.26" y1="1493.84" x2="1524.38" y2="1453.76"/>
      <line class="cls-8" x1="1212.92" y1="1748.34" x2="1183.03" y2="1708.26"/>
      <line class="cls-8" x1="700.15" y1="2130.65" x2="670.26" y2="2090.57"/>
      <line class="cls-8" x1="1978.9" y1="1177.25" x2="1949.01" y2="1137.16"/>
      <line class="cls-8" x1="1808.22" y1="1304.5" x2="1778.34" y2="1264.41"/>
      <line class="cls-8" x1="1637.55" y1="1431.75" x2="1607.66" y2="1391.66"/>
      <line class="cls-8" x1="1296.21" y1="1686.25" x2="1266.32" y2="1646.16"/>
      <line class="cls-8" x1="954.86" y1="1940.74" x2="924.97" y2="1900.66"/>
      <line class="cls-8" x1="784.19" y1="2067.99" x2="754.3" y2="2027.91"/>
      <line class="cls-8" x1="1466.88" y1="1559" x2="1436.99" y2="1518.91"/>
      <line class="cls-8" x1="1125.53" y1="1813.49" x2="1095.65" y2="1773.41"/>
      <line class="cls-8" x1="612.76" y1="2195.8" x2="582.87" y2="2155.72"/>
      <path class="cls-31" d="M820.78,2179.75c1.39,1.86.9,4.02-.96,5.41-3.01,2.25-4.57,3.11-6.77,4.84l-11.92,9.18c-2.26,1.79-4.5,1.46-5.89-.4-1.05-1.41-.6-3.35.94-4.49.71-.53,1.44-.88,2.2-1.34.69-.41,1.65-1.13,3-2.14.45-.34,1.54-1.15,2.77-2.17-.77-1.03-1.63-2.18-2.95-4.09-4.83-6.88-8.02-11.29-13.14-18.16-.1,3.07-.32,6.13-.77,8.46-.23,1.17-1.05,2.48-2.01,3.19-1.8,1.34-4.42,1.3-5.47-.11-.57-.77-.67-1.7-.41-2.69,1.67-7.13,1.65-12.51,1.55-16.93-.1-3.22.25-4.48,2.11-5.87s3.92-1.03,5.17.64c1.05,1.41,1.24,2.07,1.63,2.58,1.61,2.29,2.68,3.99,3.83,5.53l5.93,7.96c3.67,5.05,3.98,6.01,6.23,9.03,2.18,3.06,3.33,4.6,4.24,5.82l.19-.14c2.36-2.06,4.11-3.46,5.65-4.61,1.73-1.29,3.7-1.06,4.85.48Z"/>
      <path class="cls-31" d="M2011.3,1283.92c4.06,5.45-.13,13.47-6.55,18.25-6.48,4.83-14.69,5.86-18.66.54-2.53-3.4-1.9-8.17.48-16.62-8.51-.04-14.86-.39-17.11-3.41-4.06-5.45,1.99-17.55,8.72-22.57,5.71-4.26,13.73-5.95,17.79-.49,2.44,3.27,1.89,11.77-.14,19.76,10.03-.2,12.3.31,15.46,4.54ZM1988.44,1279.5c.19-.54.28-1.1.47-1.65,2.2-7.63,2.32-12.41.98-14.21-1.15-1.54-4.74-.46-7.24,1.4-2.63,1.96-5.12,5.71-5.46,8.06-.11.78-.4,1.2-1.11,2.12-.83,1.02-.81,2-.28,2.7,1.05,1.41,4.86,1.57,12.64,1.56ZM2004.39,1287.77c-1.63-2.18-5.5-1.89-10.6-1.78-1.53,5.04-2.64,9.85-1.06,11.97,1.72,2.31,4.84,1.68,8.31-.9s5.84-5.95,3.35-9.29Z"/>
      <path class="cls-31" d="M1821.69,1386.36c-.35,5.55.34,10.63,2.07,16.02,1.44-1.28,2.61-2.25,2.94-2.49,2.05-1.53,3.83-1.56,5.31.43,1.2,1.6.57,3.57-1.17,4.86-.32.24-2.24,1.67-4.7,3.6,2.08,4.93,4.85,9.85,6.91,12.61.96,1.28,1.85,2.21,2.57,3.18,1.1,1.48,1.05,3.41-.56,4.61-2.95,2.2-5.17,2.16-7.28-.66-3.44-4.62-5.67-9.75-7.88-14.98-2.98,2.42-5.47,4.58-5.85,4.86-1.86,1.39-3.84.87-5.09-.8-1.15-1.54-.52-3.51,1.28-4.84,2.44-1.82,4.73-3.43,7.36-5.39-1.47-4.79-2.13-9.69-2.63-14.5-5.74,4.88-13.31,10.92-14.72,11.97-1.92,1.43-5.08,1.49-6.42-.31-1.05-1.41-.95-3.68.59-4.83,1.8-1.34,6.01-3.98,11.53-8.1,2.44-1.82,5.92-5.31,8.42-7.18s5.05-2.47,6.67-.28c.43.58.65,1.41.65,2.21Z"/>
      <path class="cls-31" d="M1665.3,1531.41c2.15,2.89,3.02,8.33,2.12,13.29-1.15,6.75-3.5,11.49-7.87,14.75-6.09,4.54-12.87,2.41-18.32-4.9-5.36-7.18-6.96-18.56-4.59-30.11,1.27-6.33,2.94-11.58,4.8-12.96,1.73-1.29,4.82-1.3,6.14.21.76,1.03.57,2.37-.19,3.63-2.22,3.45-3.7,8.15-4.47,13.41-.87,6.33-.58,12.21,1.18,16.98,1.11-6.01,4.56-12.88,8.41-15.75,1.92-1.43,4.66-1.78,7.84-1.26,2.08.25,3.82,1.24,4.92,2.72ZM1659.65,1534.81c-.57-.77-1.5-1.08-2.53-.31-2.5,1.86-8.74,14.5-7.36,16.36.24.32.62.43.99.66.59.26.91.42,1.25.87.77,1.03.68,1.99-.02,2.91,1.36.48,2.53.31,3.49-.41,4.3-3.2,7.25-15.98,4.19-20.09Z"/>
      <path class="cls-31" d="M1464.85,1652.91c1.3,3.62,3.37,6.66,5.09,10.17.92-2.38,2.65-4.47,4.96-6.19,6.03-4.5,13.99-3.05,18.87,3.49,5.88,7.89,3.88,20.06-3.56,25.61-6.09,4.54-14.24,5.53-17.87.65-1.53-2.05-1.54-4.34.26-5.68,3.72-2.77,5.29,1.74,7.88,1.61,3.01-.25,3.62-.5,5.48-1.89,4.3-3.2,5.63-10.78,1.66-16.11-2.15-2.89-6.33-3.67-9.15-1.56-2.18,1.63-4.06,4.72-3.73,7.57.19,1.46-.52,2.78-1.67,3.64-2.05,1.53-4.8,1.19-5.92-.98-2.16-3.97-4.49-8.83-6.68-12.58-.83-1.38-1.24-2.87-1.57-3.32-.19-.26-.61-.55-1.04-.72-.81-.29-1.5-.68-1.98-1.32-1.58-2.12-.66-4.5,1.07-5.79.51-.38,1.03-.76,2.18-1.23.24-.08.5-.27.95-.61,1.35-1,5.81-4.53,8.56-6.98,1.51-1.32,2.44-2.22,4.04-3.41,2.18-1.63,4.47-2.04,5.95-.05,1.2,1.6,1.08,3.99-.65,5.28s-3.48,2.29-4.95,3.39c-1.15.86-4.81,3.99-8.16,6.99Z"/>
      <path class="cls-31" d="M1327.14,1782.73c1.29,1.73.73,3.65-1.58,5.37l-3.53,2.63c2.07,2.65,3.95,5.04,5.28,6.54,1.96,2.23,2.7,3.08,3.27,3.85,1.15,1.54.95,3.68-.65,4.88-2.05,1.53-4.29,1.6-5.49,0-.43-.58-.99-1.46-1.8-2.55l-6.06-7.86c-2.52,2.38-4.96,4.99-7.35,7.67-2.54,2.89-3.49,4.69-5.15,5.94s-3.62.9-4.77-.64c-1.72-2.31-3-14.33-3.13-18.92-.17-7.46.12-8.67-1.2-18.47-.19-1.46.26-2.59,1.42-3.45,1.22-.91,3.14-1.14,4.56-.71,1.84-.87,4.24-.47,5.44,1.14.24.32.56.88.96,1.68.75,1.54,1.62,2.98,2.85,4.76,1.99,2.81,4.8,6.7,7.71,10.61,1.44-1.28,2.61-2.25,3.58-2.97,2.12-1.58,4.12-1.57,5.65.48ZM1312.48,1790.37c-3.39-4.55-7.08-9.49-9.91-13.56.17,6.66.85,16.93,1.82,22.79,3-3.74,5.73-6.77,8.09-9.23Z"/>
      <path class="cls-31" d="M1156.47,1911.17c5.64,7.57,2.13,21.86-6.4,28.22-4.23,3.16-9.12,4.5-14.11,3.43-2.38-.52-4.84-2.08-6.13-3.81-1.77-2.37-1.28-5.33.9-6.96,1.6-1.2,3.84-.87,4.9.54.67.9.67,2.1,1.34,3,1.29,1.73,5.77.78,8.53-1.27,5.39-4.02,8.18-13.79,4.69-18.47-2.25-3.01-5.27-3.06-9.06-.23-1.6,1.2-3.08,2.7-4.37,4.85-.76,1.26-1.18,2.57-2.46,3.53-1.8,1.34-4.37.96-5.66-.77-1.1-1.48-.86-2.75.75-4.75,4.03-5.3,5.19-12.05,2.27-15.96-1.1-1.48-1.9-1.88-2.86-1.16-3.21,2.39-4.85,7.01-4.72,12,0,2-.41,3.2-1.56,4.06-1.6,1.2-3.67.84-4.86-.77-.67-.9-1-2.15-.92-3.51.42-6.8,3.35-13.17,8.93-17.33,3.91-2.92,8.36-2.44,11.28,1.47,2.39,3.21,3.48,7.48,3.31,11.4,6.3-3.6,12.44-2.59,16.22,2.48Z"/>
      <path class="cls-31" d="M993.32,2050.17c1.15,1.54.57,3.57-1.1,4.81-10.01,7.46-15.23,11.56-18.77,15.79-1.11,1.32-1.48,1.9-2.31,2.52-1.6,1.2-5.09.8-6.19-.67-.62-.83-.56-1.68-.14-2.99,1.5-4.41,2.11-9.75,1.97-15.83-.08-4.53.17-9.41-1.01-15.01-.63-3.12-1.69-6.02-3.13-7.95-1.1-1.48-2.36-1.83-3.71-.83-4.17,3.11-4.86,9.41-1.66,13.71,1.24,1.67,1.19,3.2-.41,4.4-2.31,1.72-4.53,1.28-6.06-.77-5.31-7.12-3.68-16.72,3.63-22.17,4.68-3.49,11.48-2.67,14.59,1.5,3.87,5.2,5.38,14.45,4.99,24.62-.13,4.78-.25,7.97-.43,10.4,4.04-4.21,9.95-9.41,13.6-12.14,2.12-1.58,4.71-1.32,6.14.61Z"/>
    </g>
  </g>
  <g>
    <path class="cls-30" d="M1947.55,1542.5c-5.08,11.37-15.45,34.58-41,49-24.39,13.77-48.18,11.38-62,10-14.13-1.42-50.32-5.04-73-34-.23-.29-.49-.63-.79-1.01-5.48-7.08-21.96-29.56-15.21-48.99,3.4-9.77,11.1-14.22,10-24-.93-8.29-7.12-10.88-13-20-9.6-14.9-8.38-31.72-8-37,2.03-28,25.67-45.93,35-53,6.95-5.27,34.02-25.8,67-20,14.82,2.61,24.08,9.44,42,23,25.91,19.61,42.65,32.27,53.71,48.13,4.18,5.98,7.54,12.42,10.29,19.87,15.52,42.07-1.8,80.83-5,88Z"/>
    <path class="cls-30" d="M1148.55,1967.5c-3.67,7.26-.33,6.62,1,13,2.73,13.09-5.52,30.88-16.38,44.44-10.24,12.8-22.81,21.83-30.62,19.56-2.29-.67-5.85-2.63-9-1-3.78,1.96-3.74,7.41-5,11-2.1,5.96-9.31,11.05-32,15-24.8,4.31-46.8,8.14-74-1-12.79-4.29-20.93-9.51-34-18-46.11-29.97-71.29-64.67-102-107-4.97-6.84-8.3-11.72-11-19-11.66-31.45,4.78-63.77,11-76,2.4-4.71,7.14-14.04,14.83-24.39,11.63-15.66,30-33.67,57.17-41.61,31.97-9.35,58.49.41,90,12,56.66,20.84,89.14,57.03,104,74,35.34,40.35,51.2,86.03,42,95-1.66,1.62-3.91-.14-6,4Z"/>
    <path class="cls-9" d="M1148.55,1967.5s-24-25-55-39"/>
    <path class="cls-23" d="M1133.17,2024.94c-10.24,12.8-22.81,21.83-30.62,19.56-2.29-.67-5.85-2.63-9-1-3.78,1.96-3.74,7.41-5,11-2.1,5.96-9.31,11.05-32,15-24.8,4.31-46.8,8.14-74-1-12.79-4.29-20.93-9.51-34-18-46.11-29.97-71.29-64.67-102-107-4.97-6.84-8.3-11.72-11-19-11.66-31.45,4.78-63.77,11-76,2.4-4.71,7.14-14.04,14.83-24.39-2.02,14.26-2.68,30.2-.83,47.39,3.89,36.12,17.21,62.07,24,75,4.19,7.99,19.53,36.04,49,63,10.98,10.05,20.12,18.27,35,25,21.82,9.87,41.58,10.03,52,10,23.62-.06,41.05-5.64,49-8,15.44-4.58,36.25-9.23,63.62-11.56Z"/>
    <path class="cls-9" d="M1093.55,2043.5s-3-40-46-55"/>
    <path class="cls-23" d="M1947.55,1542.5c-5.08,11.37-15.45,34.58-41,49-24.39,13.77-48.18,11.38-62,10-14.13-1.42-50.32-5.04-73-34-.23-.29-.49-.63-.79-1.01,29.58,7.07,71.41,9.76,109.79-13.99,39.22-24.26,53.16-62.7,55-68,6.28-18.12,7.63-35.22,6.71-49.87,4.18,5.98,7.54,12.42,10.29,19.87,15.52,42.07-1.8,80.83-5,88Z"/>
    <path class="cls-3" d="M1148.55,1967.5c-3.67,7.26-.33,6.62,1,13,2.73,13.09-5.52,30.88-16.38,44.44-10.24,12.8-22.81,21.83-30.62,19.56-2.29-.67-5.85-2.63-9-1-3.78,1.96-3.74,7.41-5,11-2.1,5.96-9.31,11.05-32,15-24.8,4.31-46.8,8.14-74-1-12.79-4.29-20.93-9.51-34-18-46.11-29.97-71.29-64.67-102-107-4.97-6.84-8.3-11.72-11-19-11.66-31.45,4.78-63.77,11-76,2.4-4.71,7.14-14.04,14.83-24.39,11.63-15.66,30-33.67,57.17-41.61,31.97-9.35,58.49.41,90,12,56.66,20.84,89.14,57.03,104,74,35.34,40.35,51.2,86.03,42,95-1.66,1.62-3.91-.14-6,4Z"/>
    <path class="cls-3" d="M1947.55,1542.5c-5.08,11.37-15.45,34.58-41,49-24.39,13.77-48.18,11.38-62,10-14.13-1.42-50.32-5.04-73-34-.23-.29-.49-.63-.79-1.01-5.48-7.08-21.96-29.56-15.21-48.99,3.4-9.77,11.1-14.22,10-24-.93-8.29-7.12-10.88-13-20-9.6-14.9-8.38-31.72-8-37,2.03-28,25.67-45.93,35-53,6.95-5.27,34.02-25.8,67-20,14.82,2.61,24.08,9.44,42,23,25.91,19.61,42.65,32.27,53.71,48.13,4.18,5.98,7.54,12.42,10.29,19.87,15.52,42.07-1.8,80.83-5,88Z"/>
  </g>
  <g>
    <path class="cls-10" d="M200.5,882.54c3-32.1,18.9-41.4,53.1-41.1l38.1.3c7.2,0,8.4-4.5,19.2-4.5,12.6,0,21.3,9.9,21.3,24,0,21.9-13.5,29.7-32.7,29.4-13.2-.3-25.5-3-39.3-3.3-17.1-.3-27.6,4.2-27.6,19.5,0,17.4,14.7,19.5,27.3,19.5,18.6,0,32.7-3.3,43.8-3.3,14.7,0,28.5,10.5,28.5,27.6,0,16.2-12.3,24.9-28.5,24.9-20.1,0-40.8-1.5-63.9-1.5-20.7,0-37.5,2.4-53.7,2.4-26.1,0-57.6-17.4-57.6-59.7,0-37.2,13.8-55.2,39.6-55.2,12.6,0,25.5,8.1,32.4,21ZM176.5,905.34c-6.6,0-10.8,3.9-10.8,10.8,0,12.9,9.6,15.9,24,15.9h13.8l-7.8-12c-5.7-8.7-9-14.7-19.2-14.7Z"/>
    <path class="cls-10" d="M332.2,1053.24c0,17.4-7.8,27-16.8,33.3,8.4,1.8,16.5,8.1,16.5,21,0,17.4-10.8,25.5-22.8,25.5-9,0-18.6-6.3-33.6-6.3h-13.8c-10.5,0-15.9,2.1-22.2,8.4-3.3,3.3-10.5,7.5-21,7.5-15.9,0-24.6-12.9-24.6-24.6,0-18,7.8-25.5,23.4-29.7-11.7-4.8-23.4-14.4-23.4-38.7,0-40.5,29.4-55.2,65.7-55.2,42.3,0,72.6,20.1,72.6,58.8ZM238,1062.84c0,14.4,12.9,18.9,26.1,18.9s21.9-3.6,21.9-19.2-10.8-20.1-25.5-20.1c-13.2,0-22.5,5.1-22.5,20.4Z"/>
    <path class="cls-10" d="M259.3,1206.54c-18.6,0-26.1,5.7-37.2,5.7-14.7,0-28.5-4.5-28.5-27,0-20.7,12.3-24.9,28.5-24.9,9.9,0,32.7,1.2,49.5,1.2,27.6,0,26.1-8.1,41.1-8.1,8.1,0,19.5,3.9,19.5,23.7,0,17.1-9.9,26.1-20.4,27,12.6,5.1,20.4,12.9,20.4,33s-15.9,34.8-38.1,34.8c-19.8,0-33.3-8.7-33.3-24.9,0-9,4.5-16.2,12.9-16.2s12.6-3,12.6-11.1c0-9.9-8.4-13.2-27-13.2Z"/>
    <path class="cls-10" d="M380.2,1366.14c15.3,0,22.8,11.1,22.8,27.3s-10.5,25.8-23.1,25.8c-16.8,0-23.4-1.8-39.6-1.8h-82.5c-14.4,0-14.7,2.4-18.6,9-3.6,6.3-10.5,12-21,12-11.7,0-24.6-8.7-24.6-25.2,0-20.4,7.2-30,24-36.3-12.9-3.6-23.7-16.8-23.7-35.7,0-40.8,33-59.7,69.3-59.7,38.1,0,69,23.4,69,60.6,0,15.6-4.8,24-9.9,29.7l28.2-.3c9.3-.3,15.6-5.4,29.7-5.4ZM238.9,1350.54c0,14.4,14.4,18.3,27.3,18.3s20.7-6.6,20.7-18.6c0-16.2-9.3-21.3-24.3-21.3-12.9,0-23.7,7.2-23.7,21.6Z"/>
    <path class="cls-10" d="M298,1450.44c8.4,9.9,23.7,26.7,32.7,31.2,13.2,6.6,16.2,16.8,16.2,23.7,0,10.5-9.3,23.1-21.3,23.1-4.8,0-8.4-2.4-10.2-3.9-18.9,14.7-33,47.4-72.3,47.4-29.1,0-49.5-18.9-49.5-58.8,0-31.5,17.7-51.6,36.3-51.6,13.8,0,23.7,9,23.7,25.5,0,18.6-15.9,11.7-15.9,24.6,0,7.8,4.8,13.8,12.6,13.8,12.3,0,19.5-17.1,31.8-27.9-11.1-11.4-23.1-16.2-23.1-36.9,0-12.3,12.9-18.6,20.1-18.6,5.7,0,13.5,2.1,18.9,8.4Z"/>
    <path class="cls-10" d="M287.5,1589.03c0-8.4,6.9-18,18.6-18,17.4,0,23.4,8.4,23.4,18.3,0,3.6-.6,7.2-.6,10.2,5.7,0,15-1.8,23.7-1.8,11.1,0,23.7,6.3,23.7,24.6,0,21.3-10.5,27.3-20.1,27.3-10.2,0-18-2.4-27.3-2.4,0,10.2.9,18.6.9,29.4,0,14.7-6.9,19.8-21.3,19.8-13.5,0-21.3-7.5-21.3-19.8s1.2-22.2,1.2-30.6c-13.5-.6-27.3-2.7-40.8-1.5-3.6.3-9.3.9-9.3,7.2,0,5.4,3,8.4,9.3,8.4,10.5,0,14.1,7.8,14.1,17.7,0,16.5-8.1,22.5-19.8,22.5-24.9,0-47.7-13.2-47.7-52.2,0-36.6,22.2-52.5,53.4-50.4,13.5.9,27,1.8,40.5,1.2,0,0-.6-4.8-.6-9.9Z"/>
    <path class="cls-10" d="M397.6,1741.73c0,15.9-6,27.3-22.2,27.3-11.4,0-24.9-7.8-24.9-24,0-9.3,3-30.9,23.4-30.9,14.1,0,23.7,13.5,23.7,27.6ZM306.1,1714.43c19.2,0,25.8,12.9,25.8,24.6,0,14.7-6.6,27.6-19.5,27.6-16.5,0-18.6-3.6-34.8-3.6h-29.1c-8.1,0-9.6,1.5-9.6,6,0,1.8.6,3.6.6,6.6,0,8.7-5.7,14.4-18.9,14.4-18,0-26.4-10.8-26.4-33s11.4-41.4,48.3-41.1l37.8.3c7.2,0,15.6-1.8,25.8-1.8Z"/>
    <path class="cls-10" d="M332.2,1865.63c0,27.6-15.6,54-43.8,54-16.2,0-26.7-8.4-26.7-21.9,0-17.7,9-21.9,17.4-21.9,5.4,0,7.2-3,7.2-10.2,0-15.3-9.3-22.5-23.1-22.5-12.6,0-24.6,6-24.6,21,0,19.8,8.1,21.6,8.1,33.6,0,16.5-14.1,21.9-22.5,21.9-18,0-30.6-19.8-30.6-54.9,0-41.4,26.7-69.3,69.9-69.3,34.5,0,68.7,23.7,68.7,70.2Z"/>
    <path class="cls-10" d="M340.3,1938.83c36,0,63,13.8,63,51.3s-18.9,45.9-35.1,45.9c-17.4,0-25.5-9.3-25.5-23.1,0-9.9,5.7-15.3,11.4-15.3,2.1,0,2.7.6,4.8.6s3.9-2.1,3.9-5.4c0-7.2-9-8.7-18-8.7-8.4,0-25.8,1.5-25.8,1.5,7.2,7.5,13.2,17.1,13.2,34.5,0,39.3-22.8,54.3-37.8,54.3-28.2,0-36.6-18.9-44.7-30.9-4.5,2.1-11.1,8.1-11.1,13.5,0,4.5,1.5,5.1,1.5,10.5,0,6.6-3.9,17.4-19.5,17.4s-26.1-8.4-26.1-27.9,9.9-38.4,32.7-51c12.3-6.9,21-9.3,33-9.3,9.3,0,13.2,7.2,13.2,15.6v4.5c0,6.3,2.7,10.2,8.1,10.2,6.3,0,10.2-4.2,10.2-15.6,0-14.4-7.5-25.2-25.8-25.2s-21.6,3.3-35.7,3.3c-18.9,0-35.7-3.6-35.7-24.9s15-25.5,35.7-25.5c12.6,0,24,1.2,41.1,1.2,0,0,57-1.5,69-1.5Z"/>
  </g>
</svg>